<svg xmlns="http://www.w3.org/2000/svg" width="900" height="350" style="width:100%;height:100%;content-visibility:visible" viewBox="0 0 900 350"><defs><clipPath id="a"><path d="M0 0h900v350H0z"/></clipPath></defs><g clip-path="url(#a)"><g display="block"><path fill="#ECECEB" d="m444.5 174.5-11.75-5.75L468 163l12.5-6.75 15.5 3.25 26.688 22.374L444.5 174.5z"/><path fill="#DEDEDC" d="m422.75 182-4-8.25 14-5 43 1.75 46.938 11.375 2.812 2.375s-9.75 9-10.75 9.5-92-11.75-92-11.75z"/><path fill="#C5C5C5" d="m386.75 194.75 19-14.25 13-6.75 41 11 57.152 5.441-.652 10.559-100 2-29.5-8z"/><path fill="#437D64" d="m148.5 226.5 23-15.666 63.333-1L278.5 233l-21.5 4-108.5-10.5z"/><path fill="#4A9275" d="m290.167 215.667-26.833-4.167L236.5 224l1.5 3.5 3-1.166L276.334 231l13.833-15.333z"/><path fill="#5CB28F" d="m148.5 219.333 24.167 9.5-6.834 8.168-28 .666-5.5-6.5 16.167-11.834z"/><path fill="#5CB28F" d="m164.333 232-15.5-1.833-16.5 1-23.5 10.333.5 2.833 18.667 2 5.333-3.833 31-10.5z"/><path fill="#627A49" d="m121.917 218.834.98 4.261-18.306 29.868-.752-8.737 18.078-25.392z"/><path fill="#78905F" d="m121.045 208.165-8.875 1.99 10.727 12.94 9.063-10.856-10.915-4.074z"/><path fill="#ECECEB" d="m113.499 244.375 19-1.875 107.587-6.767 4.413 2.517 12.5-1.25 143.167-11.334L898.499 253.5l-160.667 96.666-633.724-22.916 9.391-82.875z"/><path fill="#292929" d="M890.5 252.833 446 214.666l-188.667 22.167-12.833 1.417-21.24 2.09-39.177 1.243-12.416 4.25L132.5 242.5l-7.5 2.75 46.5 7.5 50.553-10.111 71.614 10.527 63.5-3.333 64.666 7L462 248.5l123.455 3.727-91.285 19.96-4.209 16.189-88.39 18.455 257.725 22.664L805.5 309.5l93-56-8-.667z" opacity=".1"/><path fill="#5CB28F" d="M846.833 228.166 837 221.749l-18.5 4.417 12.667 17.667 24.333-8-8.667-7.667z"/><path fill="#79C8A7" d="m872 249.25-5-9.5L852.5 226l-15.5-4.25 5.833 10.75L872 249.25z"/><path fill="#5CB28F" d="m448.834 194.5 33.667-2 42.665 6.333L481.001 223l-32.167-28.5z"/><path fill="#79C8A7" d="m474.167 212.5-1.168-7.5 49.5-3.167 2.334 19-50.666-8.333zM448.833 194.5l-58.083-9.25-.25 35.584 59.666-5-1.333-21.334z"/><path fill="#5CB28F" d="m448.167 204.166-37.668 2.334-37.666 17.666 55.666 1.334 19.668-21.334z"/><path fill="#437D64" d="M448.167 204.167 424.999 212l-28.832 20.167 91.332 6-39.332-34z"/><path fill="#4A9275" d="M471.167 211.5 473 205l-24.166-10.5-38.334 12L425 212l36.167 4.5 10-5z"/><path fill="#5CB28F" d="m578.5 226-66.049-11.768L473 205l-27 9.667 10.5 11.166 8 .667 114-.5z"/><path fill="#78905F" d="m78.322 227.907 21.004-10.069 7.812 44.787L95.855 272l-5.034-21.699-12.499-22.394z"/><path fill="#627A49" d="m118.248 247.35-14.409-3.125-5.15 25.287 5.44 2.431 17.706-20.485-3.587-4.108z"/><path fill="#A2D083" d="m130.052 268.355 2.448-25.854-28.66 1.725 26.212 24.129z"/><path fill="#9CC372" d="m99.326 217.839-31.494-11.005-10 31.166 41.494-20.161z"/><path fill="#5CB28F" d="m296.5 220.833-21.333-2.333L257 237l17.833 5.916 21.667-22.083z"/><path fill="#437D64" d="m417.167 233.5-8.333 12.334L363.749 243l1.75-3.5 35.614-15.87 16.054 9.87z"/><path fill="#5CB28F" d="m386.5 230 26.5-9 24.214 6.855L448.5 239.75l-39.667 6.084L386.5 230z"/><path fill="#4A9275" d="m824.833 235.5 18-3 28.5 24.584-41.833-.25-4.667-21.334z"/><path fill="#5CB28F" d="m839.5 239.166 15.333 8.667 16.5 9.25 19.167-4.25-12-14.334-20-.666-15.667-5.334-3.333 6.667z"/><path fill="#9CC372" d="m129.067 196.5-16.897 13.656 19.79 2.084-2.893-15.74z"/><path fill="#4A9275" d="m171.834 237.666-.168 8.167-28.082-2.375-11.084-.959 6.166-6.333 26.168-4.167 7 5.667z"/><path fill="#4A9275" d="m171.667 245.834 20.958-7.208-14.555-15.27-13.237 8.645 6.834 13.833z"/><path fill="#D0CFCE" d="m506.5 181.834 16.186.042 3.146 1.125-10.548 9.781-37.534-6.281 28.75-4.667z"/></g><g display="block"><path fill="#DEDEDC" d="m711.97 26.167-74.471 10 77.45 12.333 62.981 15.334L845.166 21.5l-74.47 18-58.726-13.333z"/><path fill="#ECECEB" d="m845.166 21.5-52.769 7.333-75.747-14.666-79.151 22 62.13-.667 71.918 8.333L845.166 21.5z"/><path fill="#DEDEDC" d="m387.696 36.025 74.47 7.383-77.449 9.105-62.982 11.32L237 38.486l91.969 7.382 58.727-9.843z"/><path fill="#ECECEB" d="m236.999 38.486 70.267-.492 75.747-10.828 79.152 16.242-62.13-.492-71.917 6.152-91.119-10.582z"/></g><g display="block"><path fill="#929292" d="m57.876 243.625-22.25 1.25-8.126 67.293 40.334 6.333 15.542-73-25.5-1.876z"/><path fill="#A5A5A5" d="m69.125 240.375 2.042 4.791-3.334 73.333 16.5-2 16-34.666-4.833-39.084-26.375-2.374z"/><path fill="#929292" d="m106.163 268.613-25.33 2.291-6.667 46.595 29.943 9.75 16.09-41.168-14.036-17.468z"/><path fill="#A5A5A5" d="m118.609 272.622 9.141 1.294 6.75 42.165-30.391 11.169-2.185-47.182 16.685-7.446z"/><path fill="#D0CFCE" d="m115.666 266.666-34.833 4.237 21.091 9.165 25.825-6.152-12.083-7.25zM95.5 242.75l-38.626-3.875-21.25 6 35.75 2L95.5 242.75z"/></g><g display="block"><path fill="#292929" d="m274.237 284.676 74.501 10.456 76.136-11.763-79.403-7.841-71.234 9.148z" opacity=".1"/><path fill="#787879" d="m358.867 275.881-13.341 12.785-19.455-3.614 8.06-47.248 20.011.279 4.725 37.798z"/><path fill="#929292" d="m364.425 236.137 11.951 48.36-30.85 4.169-1.946-50.862 20.845-1.667z"/><path fill="#88898A" d="M301.891 86.333 281.81 74.174l-13.131 8.824 5.975 159.809 12.993 4.795 14.244-161.269z"/><path fill="#A5A5A5" d="m281.811 74.174 120.69 8.338 11.464 152.374-126.319 12.716-5.835-173.428z"/><path fill="#787879" d="m355.393 254.341 3.474 32.378 5.696-.694-6.67-32.24-2.5.556z"/></g><g display="block"><path fill="#ECECEB" d="m295.221 88.348 5.419 144.038 100.471-8.755-9.172-129.446-96.718-5.837z"/><path fill="#79C8A7" d="m361.09 219.6-.557-9.033 5.56-.417-.556-6.809 11.95-.695.279 6.115 5.698-.417.833 9.172-23.207 2.084zM307.693 117.41l5.176-13.359 2.432 1.667 3.891-8.546 5.698 11.395 2.406-3.09 4.403 12.075-24.006-.142z"/><path fill="#C5C5C5" d="M306.477 129.829h54.612l.278 3.892-54.752.694-.138-4.586zM306.686 141.433l54.508-.764v3.856l-54.37 1.494-.138-4.586zM306.894 153.036l54.82-.903-.104 3.648-54.578 1.84-.138-4.585zM333.436 191.46l54.474-3.266.172 3.648-54.439 3.162-.207-3.544zM332.81 182.913l54.474-3.266.174 3.648-54.44 3.162-.208-3.544z"/></g><g display="block"><path fill="#292929" d="m318.109 303.723-90.177-8.376-78.907 7.738 79.084 8.927 90-8.289z" opacity=".1"/><path fill="#585B5C" d="m204.958 296.409-16.999 6.66-2.957-6.572 2.391-10.961 5.253-1.965 7.824 2.471 4.488 10.367zM269.484 287.621l-6.716 12.183-13.241-6.871-1.103-7.581 11.951-5.552 9.109 7.821z"/><path fill="#292929" d="m260.855 280.213-11.327 12.72-1.103-7.58 3.906-4.211 8.524-.929zM187.392 285.536l6.875-1.965 6.202 2.472-14.496 6 1.419-6.507z" opacity=".2"/><path fill="#88898A" d="m260.81 297.845-11.282-4.912.84 9.161 35.636.299-.2-9.858-16.32-4.914-8.674 10.224zM211.673 306.71l-.19-10.611-15.668-1.649-6.768 6.902-4.046-4.855-.456 10.213h27.128z"/><path fill="#5CB28F" d="m251.654 220.248 15.781 47.8-11.45 10.423-13.075-1.249-5.858-17.736-11.058-7.201-15.517 24.936-10.007 6.351-16.463-7.589.164-47.771 8.631-23.53 58.852 15.566z"/><path fill="#4A9275" d="m247.065 223.855 16.603 47.06-6.27 3.182-18.434-41.529 8.101-8.713zM235.473 243.439l15.193 33.043-7.756.74-16.916-24.937 1.264-19.903 8.215 11.057zM216.833 245.019l-12.307 33.479-6.547-.675 10.342-44.753 8.512 11.949zM202.068 224.291l-9.106 54.43-5.696-2.431 2.08-40.749 12.722-11.25z"/><path fill="#437D64" d="m267.435 268.047-24.525 9.174 5.516 8.131 22.114-7.898-3.105-9.407zM210.477 277.222l-26.47-1.238-.03 9.369 20.851.947 5.649-9.078zM235.472 243.439l-9.478 8.846-9.162-7.266 10.426-17.208 8.214 15.628z"/></g><g display="block"><path fill="#4A9275" d="m248.105 155.183 16.115 14.373-2.985 8.377-8.472 9.946-6.533-17.771 1.875-14.925z"/><path fill="#9CC372" d="m264.22 169.555 13.802 12.598 7.209 12.182-18.901 5.4-13.567-11.856 11.457-18.324z"/></g><g display="block"><path fill="#78905F" d="m243.528 158.947 9.236 28.931-1.111 32.37-16.181 23.191-8.215-11.057-10.425 12.636-18.896-26.527-13.96-2.178 2.528-26.704 19.903-41.579 37.121 10.917z"/><path fill="#585B5C" d="m229.153 186.888-11.374 30.962 9.478 7.266 10.11-6.951-8.214-31.277z"/><path fill="#515152" d="m237.367 218.165-19.588-.315 9.478 14.533 10.11-14.218zM239.123 175.89l-9.97 11-9.446-12.395 10.394-1.823 9.022 3.218z"/><path fill="#9CC372" d="m230.101 172.672-9.741-17.171-13.953-7.472-2.626 37.568 26.32-12.925zM248.931 158.183l-14.863 2.769-3.967 11.721 22.662 15.206-3.832-29.696z"/><path fill="#627A49" d="m246.311 143.102-9.169 9.741-3.211 13.253 15-7.913-2.62-15.081zM207.62 133.211l-1.214 14.819 13.694 16.021-3.028-15.6-9.452-15.24z"/></g><g display="block"><path fill="#437D64" d="m184.482 141.189 23.138-7.978.334-7.034-5.175-7.002-8.66 7.36-9.637 14.654z"/><path fill="#4A9275" d="m279.236 81.367-7.012 22.412.498 26.812 5.916-5.639 5.782-2.269 5.716-3.866-5.558-33.037-1.287-4.093-4.055-.32z"/><path fill="#9CC372" d="m275.609 102.648 8.81 20.035-11.698 7.907-9.26-8.508 2.987-7.165 6.922 7.304 4.051-2.829-2.453-5.774-5.073 5.429-3.557-3.749 9.271-12.65z"/><path fill="#DFBEA7" d="m279.236 81.367-8.265 62.448-24.66-.711-15.08 12.53-3.225 6.151-2.336-3.685-22.89-38.925 27.311-32.858 30.697-20.19 18.448 15.24z"/><path fill="#8F6C5A" d="m254.887 70.008 24.514 11.495-9.639-11.166-9.334-6.798-5.216 2.304-.325 4.165z"/><path fill="#C49B7F" d="m254.755 112.534-6.761-18.142-6.175-8.718 12.474-2.056 1.11 5.597-.648 23.319zM260.869 89.45l2.448-5.174 11.379 3.837-14.448 16.897.621-15.56z"/><path fill="#8F6C5A" d="m259.939 112.79-2.865 3.496-2.319-3.752 5.184.256z"/><path fill="#C49B7F" d="m230.091 86.317-3.988 55.382 10.917 6.845-3.089 17.553-3.83 6.576-10-8.622-12.482-30.839.336-7.035-5.175-7.002 27.311-32.858z"/><path fill="#E9CCB9" d="m260.869 89.45-.93 23.34-5.184-.257.648-23.319 5.466.236z"/><path fill="#8F6C5A" d="m230.091 86.316-8.827 20.384-10.326 8.83 12.493 3.009-15.812 14.673-4.84-14.037 9.676-14.009 17.636-18.85z"/><path fill="#4A9275" d="m263.316 84.275 7.021-2.254 4.357 6.092-11.378-3.838zM254.292 83.618l-5.799-2.701-6.673 4.758 12.472-2.057z"/><path fill="#78905F" d="m270.341 123.803-14.372 11.869-16.794-12.994 31.166 1.125z"/><path fill="#FFF" d="m266.564 124.629-9.778 1.75-13.488-2.726 9.516 6.634 6.137.148 7.613-5.806z"/><path fill="#4F683D" d="m270.341 123.803-13.474-2.429-17.692 1.304 17.567 4.122 13.599-2.997z"/><path fill="#9CC372" d="m219.801 98.698 3.63 19.841-24.93 5.783 3.403-5.025.963-1.423.901-1.33 13.602-2.583-2.437-10.851 2.489-2.256 1.584-1.436.795-.72z"/><path fill="#8F6C5A" d="m246.311 143.102-29.15-2.025 16.77 25.02 12.38-22.995z"/><path fill="#4A9275" d="m230.091 86.316-34.441 17.539-22.231 19.737 11.063 17.598 45.609-54.874zM226.995 80.003l-25.997-24.048-33.649 40.092 59.646-16.044zM167.349 96.048l-13.866 17.243 19.934 10.301-.769-16.534-5.299-11.01z"/><path fill="#79C8A7" d="m260.788 66.127-.766-5.496-8.915-11.336-50.109 6.66 19.476 23.082 40.314-12.91z"/><path fill="#5CB28F" d="m260.788 66.127 23.79 19.652 9.347-15.337-42.818-21.147 9.681 16.832z"/><path fill="#5CB28F" d="m260.788 66.126-87.369 57.466-6.069-27.544 93.438-29.922z"/><path fill="#3B3C3B" d="M271.799 97.447a3.267 3.267 0 1 1-6.472.901 3.268 3.268 0 1 1 6.472-.901zM250.181 95.674a3.268 3.268 0 1 1-6.474.9 3.268 3.268 0 0 1 6.474-.9z"/></g><g display="block"><path fill="#627A49" d="M192.185 184.277v-19.752l-7.688-10.253-19.004 43.514 13.346-.68 7.664-4.232 5.682-8.597z"/><path fill="#4A9275" d="m206.407 148.03-21.91 6.242 7.688 30.006 14.222-36.248z"/></g><g display="block"><path fill="#C49B7F" d="m197.937 218.492 4.131 5.8-12.722 11.25-5.176-7.33 3.096-8.439 10.671-1.281z"/><path fill="#9CC372" d="m165.493 197.786 15.009 33.017 17.435-12.31-11.433-25.618-21.011 4.911z"/></g><path fill="#78905F" d="m278.023 182.153 20.477-7.237.75 23.25-32.92 1.568 11.693-17.581z" display="block"/><g display="block"><path fill="#8F6C5A" d="m298.061 175.306 11.88-4.361 6.363 3.494-8.388 12.97-10.166-.957.311-11.146z"/><path fill="#585B5C" d="m305.103 194.046 36.039-67.989-3.901-1.725-36.601 67.201 4.463 2.513z"/><path fill="#C49B7F" d="m311.432 170.101 10.435 1.52-7.088 16.65-11.616-1.715 8.269-16.455z"/><path fill="#DFBEA7" d="m306.847 179.186 9.469-10.153-1.688-3.338-16.568 9.612.562 6.334 8.225-2.455z"/></g><g display="block"><path fill="#9FA3A4" d="m660.499 154.009 11.654 68.317 37.882 2.59-3.237-75.44-41.119 5.181"/><path fill="#787879" d="m702.589 151.743 1.942 4.856-3.318 60.061 13.193-5.181 3.481-61.193-15.298 1.457z"/><path fill="#C5C5C5" d="m672.235 146.4 45.652 3.886-13.355 6.314-35.291-4.047 2.994-6.153z"/></g><g display="block"><path fill="#D0CFCE" d="m638.805 165.989-6.152-9.39-13.598 10.361-9.714 19.752 10.361.971 19.103-21.694z"/><path fill="#627A49" d="m627.796 179.587-9.228 8.337 7.285 24.688 45.977 1.619 5.666-23.959-49.7-10.685z"/><path fill="#78905F" d="m639.209 155.628-.405 10.361-8.337.566-6.799 3.643-5.1 17.727 57.309 4.775 2.185-31.001-8.985-1.579-29.868-4.492z"/><path fill="#ECECEB" d="m670.534 191.81 7.528-30.112 9.379 3.46-.556 36.042-2.995 3.966-14.651-4.533 1.295-8.823z"/><path fill="#757778" d="m605.82 147.13-5.948-4.938 7.44-31.858 2.224 4.252 1.388 28.104-5.104 4.44z"/><path fill="#585B5C" d="m599.871 142.192 11.594-1.619 2.478 6.42 25.144-4.113 7.042 15.056-16.228 8.701-30.03-24.445zM684.516 130.504l-5.852 7.356-8.466 19.39-1.12 2.871 8.985 1.579 6.453-31.196z"/><path fill="#585B5C" d="m665.803 135.913-7.696 14.694 5.886 10.471 5.085-.957 15.437-29.618-4.819-2.981-9.762.326-4.131 8.065z"/><path fill="#ECECEB" d="m641.638 168.135-17.968 2.064 12.383-18.617 18.942 3.885 9.956-3.116 4.127 7.771-8.418 17.686-19.022-9.673z"/><path fill="#585B5C" d="m610.677 120.419 10.422-31.778-15.521 5.794-6.777 18.158 4.712 14.14 7.164-6.314z"/><path fill="#757778" d="m609.668 117.352 11.431-28.711-15.357-2.735-6.941 26.687 8.51-2.259 2.357 7.018zM677.571 90.505l-7.008 13.33-.533 18.905-.717 8.043 15.202-.279-6.944-39.999z"/><path fill="#757778" d="m658.299 97.607-3.367 9.959 10.911 20.946 3.47 2.271 8.257-40.277-6.618-1.737-12.653 8.838z"/><path fill="#585B5C" d="m636.655 95.611-4.849-3.838 8.272-17.022 18.168-1.574 19.326 17.329-22.64 17.059-19.729 1.804 1.452-13.758z"/><path fill="#757778" d="m618.24 85.389 10.995-11.123 29.011-1.088-23.531 19.158-8.217 2.03-7.539-1.768-.719-7.209z"/><path fill="#8F6C5A" d="m658.63 151.631-13.125-8.884-17.627 6.821 13.76 18.567 9.227-6.435 7.765-10.069z"/><path fill="#C49B7F" d="m667.534 137.596-2.584 14.755-14.085 9.349 5.686-10.614-4.733-.225-15.018-2.898 12.256-7.808 5.876-32.589 11.1 19.044 1.502 10.986z"/><path fill="#DFBEA7" d="m651.818 150.861-42.257-.876-2.249-39.651 11.646-17.737 15.674-.236 20.3 15.204-3.114 43.296z"/><path fill="#8F6C5A" d="m625.651 133.116-2.804-2.216 2.088-.726 2.854.875-2.138 2.067z"/><path fill="#C49B7F" d="m635.71 118.048-7.92 13.001-1.518-7.815 1.713-5.223 1.998-4.495 8.555-1.923 7 2.091-9.828 4.364zM622.119 113.533l1.541 4.246 1.178 5.139-1.993 7.983-6.669-13.278-5.792-4.076 4.691-2.508 7.044 2.494z"/><path fill="#585B5C" d="m660.336 111.838-5.404-4.273 4.32 13.832 4.98 2.792-.175-9.301-3.721-3.05zM638.416 110.272l7.122 3.412-7.736-.771-7.82.603.772-1.886 7.662-1.358zM610.384 113.548l4.663-3.202 6.282 1.267.789 1.921-5.625-.547-6.109.561z"/><path fill="#E9CCB9" d="m622.846 130.9.815-13.121 4.323.232-.195 13.038-4.943-.149z"/><path fill="#79C8A7" d="m617.816 136.803 6.844 6.764 4.587-.204 7.419-6.526-9.544 2.082-9.306-2.116z"/><path fill="#4A9275" d="m626.62 137.126-3.034.316-5.77-.64 8.932 3.586 9.918-3.551-6.687.81-3.359-.521z"/><path fill="#8F6C5A" d="m667.534 137.596-5.398-8.878 3.707-.206 4.513 1.429-2.822 7.655z"/><path fill="#DFBEA7" d="m670.357 129.941-1.837-4.595-1.361-1.126-.029-2.45-3.073-6.881-1.922 13.829 8.222 1.223z"/><path fill="#8F6C5A" d="m667.13 121.769-1.098 4.84 2.486-1.263-1.388-3.577z"/><path fill="#585B5C" d="m605.743 85.905 13.216 6.691 10.276-18.33-23.492 11.639z"/><path fill="#3B3C3B" d="M616.646 119.926a2.11 2.11 0 0 0 2.213-1.991 2.107 2.107 0 0 0-1.99-2.211 2.108 2.108 0 0 0-2.213 1.989 2.11 2.11 0 0 0 1.99 2.213zM635.557 120.93a2.11 2.11 0 0 0 2.213-1.991 2.107 2.107 0 0 0-1.99-2.211 2.108 2.108 0 0 0-2.213 1.989 2.11 2.11 0 0 0 1.99 2.213z"/><path fill="#FFF" d="m625.227 141.25-4.727-3.365 4.888 1.299 3.684.121 3.936-1.083-3.203 3.105-4.578-.077z"/></g><g display="block"><path fill="#9FA3A4" d="m565.147 149.071 39.581 7.285-4.128 50.266-1.362 14.655-53.276-42.094 19.185-30.112z"/><path fill="#787879" d="m596.958 152.714-1.296 3.279-1.497 23.191 17.726-1.336.122-27.562-3.278 1.457-11.777.971z"/><path fill="#88898A" d="m822.549 260.532-5.828 16.755-11.172-2.428-4.128-17.97 21.128 3.643z"/><path fill="#787879" d="m718.13 258.346 52.938 7.285.728-22.098-53.666 14.813zM735.857 276.316l6.071 10.44 7.162-2.669 6.072-19.184-25.862-1.943 6.557 13.356z"/><path fill="#88898A" d="M796.566 269.517c0 .729-7.528 22.583-7.528 22.583l-14.326-1.214-.973-19.669-28.167-4.129-3.644 19.67-11.171-1.943-5.099-6.07.971-24.041 31.083 6.071 34.725-1.457 4.129 10.199z"/><path fill="#88898A" d="m820.12 249.848-31.325 12.384-16.029-24.283 32.055-4.129 15.299 16.028z"/><path fill="#787879" d="m811.136 163.642 22.825-2.428-2.211 109.536-15.03 6.538.971-12.871-16.27 9.228-1.214 11.899-11.17 6.556-.242-29.868 26.711-13.113-4.37-85.477z"/><path fill="#9FA3A4" d="m822.791 167.77-2.267 3.481-5.017 77.869-30.112-7.043 11.414-79.649 25.982 5.342z"/><path fill="#C5C5C5" d="m783.857 156.599 5.181.972 44.923 3.643-13.437 10.037-15.298-2.995-27.521 2.59 6.152-14.247zM578.503 147.898l34.539 2.773-17.38 5.321-20.398-.971 3.239-7.123z"/><path fill="#87614C" d="m525.161 180.722-8.257 9.47-1.618 2.591 13.598 12.869 15.38-7.122-10.685-15.866-8.418-1.942z"/><path fill="#ECECEB" d="m546.691 173.354-11.655-9.349-18.132 26.186 13.032 2.348 21.612-6.557-4.857-12.628z"/><path fill="#437D64" d="m543.778 181.126-13.842 11.413 5.585 27.683 57.551-.971 5.828-32.297-55.122-5.828z"/><path fill="#4A9275" d="m550.091 156.479-15.056 7.528-5.099 28.532 61.436-1.133-.647-26.873-12.102-8.054h-28.532z"/><path fill="#9CC372" d="m759.235 295.654-3.928 5.118v4.522l27.85.12.238-4.284-24.16-5.476z"/><path fill="#627A49" d="m767.089 279.706-5.355 7.974-6.427 13.092 28.088.358-1.905-12.022-14.401-9.402z"/><path fill="#4A9275" d="m750.666 227.815-9.273 3.042-6.794 1.441-15.83 1.468-1.904 12.139 6.189 9.998 40.941-.714.714-17.377-14.043-9.997zM788.512 244.24l14.044-14.758-1.904 21.899-11.902 11.187-.238-18.328z"/><path fill="#4A9275" d="m783.038 240.669 5.712 21.899-7.26 26.541-19.756-1.428-4.88-27.017 26.184-19.995z"/><path fill="#5CB28F" d="m782.086 213.533-20.356 35.119-4.876 12.012 31.896 1.905 14.024-33.816-20.688-15.22z"/><path fill="#437D64" d="m761.73 248.651 13.765-6.807-14.443-10.681-11.729 7.032 12.407 10.456z"/><path fill="#88898A" d="m722.578 282.325-4.448 11.232-10.927-.729-14.143-36.924 28.802-1.429.716 27.85z"/><path fill="#787879" d="m465.264 281.135 17.138 23.803 12.853-4.046 10.949-38.562-27.374-1.19-13.566 19.995zM614.828 241.303l38.006 74.109 15.71-5.714 2.477-16.627 46.138-15.055.972 15.541 13.113-4.614 3.076-64.142-119.492 16.502z"/><path fill="#88898A" d="m454.869 238.764 3.918 64.344 23.614 1.829 2.935-15.59 142.818 11.477 2.542 12.683 22.138 1.905 1.833-57.064-199.798-19.584z"/><path fill="#88898A" d="m611.773 218.968 42.895 39.381 87.844-26.428.021-18.666-130.76 5.713z"/><path fill="#9FA3A4" d="m527.985 222.777-90.771 5.078 1.905 17.773 215.549 12.721-.271-19.478-126.412-16.094z"/><path fill="#C5C5C5" d="m549.567 207.542 192.966 5.713-88.136 25.615-217.182-11.016 112.352-20.312z"/><path fill="#292929" d="m549.567 207.542 192.966 5.714-18.615 5.411-40.917-2.416-49.983 10.285-2.517-10.785-41.557-1.519-19.443 6.769-19.934-13.459z" opacity=".1"/><path fill="#A98269" d="m515.286 192.781-2.834 21.451 35.211 3.885 5.463-5.909-3.56-4.666-34.28-14.761zM575.832 212.694l-8.5-8.135-8.136 7.164.608 7.163 10.563 1.821 5.465-8.013z"/><path fill="#C09E87" d="m567.333 204.559-17.766 2.983-1.904 10.576 12.142.769 7.528-14.328z"/></g><g display="block"><path fill="#ECECEB" d="m575.83 164.37 13.113 49.86 41.525-4.45-11.656-48.81-42.982 3.4z"/><path fill="#DFBEA7" d="m584.33 181.368-5.691-6.268-1.675 13.634 7.882 9.632-.516-16.998z"/><path fill="#C49B7F" d="m578.654 175.055 14.054 5.585-2.55 12.87-5.312 4.857-6.192-23.312zM646.251 210.346l22.988-9.713 13.68 4.047 4.128 6.961-30.759 6.476-7.851-2.752-2.186-5.019z"/><path fill="#8F6C5A" d="m686.849 201.205.198 10.437-17.808-11.01 17.61.573z"/><path fill="#C49B7F" d="m639.209 212.207-8.742-2.428-8.499 10.685 11.049 6.071 12.991-6.071-6.799-8.257z"/><path fill="#DFBEA7" d="m646.252 210.346-15.784-.567 15.541 10.684 10.279-2.347-10.036-7.77z"/></g><g display="block"><path fill="#413732" d="m813.585 194.015 6.348 7.617 1.745 3.65-15.234 20.153-15.234-24.755 22.375-6.665z"/><path fill="#7A584C" d="m743.286 187.905-20.709-3.094-20.709 12.377 13.806 15.235 20.947-4.285 6.665-20.233z"/><path fill="#627A49" d="m751.141 205.52-6.666-34.516-21.898 13.806 14.044 23.328 14.52-2.618z"/><path fill="#78905F" d="m804.937 168.147 14.995 33.484-20.392 12.696-2.228-18.677 7.625-27.503zM787.77 160.201l2.373 23.287-2.221 40.849-14.748 7.97-12.122 1.254-11.729 4.634-7.932-7.337 3.085-59.853 9.373-1.933 33.921-8.871z"/><path fill="#627A49" d="m795.105 165.856 9.832 2.292-2.164 60.605-27.279 13.091-14.443-8.283 3.805-35.812 5.214-22.082 25.035-9.811z"/><path fill="#A2D083" d="m789.405 157.792 5.699 8.064-1.616 22.393-20.556 2.537 9.538-22.685 6.935-10.309zM757.702 190.787l-9.38-3.914 2.59-17.282 4.856-5.828 7.298 7.897-5.364 19.127z"/><path fill="#5F473E" d="m791.21 225.673.316 7.538 7.379 5.236 30.945-15.789-8.173-17.377-30.467 20.392zM790.575 232.496l-14.44-6.585-6.904 12.378 7.141 7.776 12.378-4.205 1.825-9.364z"/><path fill="#7A584C" d="m776.135 225.911 16.006-.952 6.764 13.488-10.156 3.412-12.614-15.948zM728.242 96.037l-1.383 18.36-2.838 40.84 23.79 3.475 15.572 12.872-1.473 15.827 9.824 4.152 22.589-65.771-.809-7.597-8.878-21.313-36.614.418-19.78-1.263z"/><path fill="#5F473E" d="m784.635 96.882-12.194 67.405-6.088-2.744-18.542-2.832 8.154 8.599 2.788 10.182-1.052 13.294 7.155 6.964 8.076-6.964 16.473-32.994 5.058-10.699-.14-5.605 4.203-2.542 6.771-13.154-11.783-7.597-8.879-21.313z"/><path fill="#413732" d="m780.427 162.596-32.616-3.885 10.942 18.782 21.674-14.897zM798.526 138.947l-8.012-2.498 3.95 10.644 4.062-8.146zM794.323 133.284l1.873-6.49 4.261 1.108-6.134 5.382z"/><path fill="#585B5C" d="m771.782 98.416 12.854-1.534 7.405.422 11.678-2.955L767.92 77.89l-4.959 12.587 8.821 7.939z"/><path fill="#3B3C3B" d="m799.196 109.965 2.566 6.225 3.536 9.603-11.784-2.955-2.999 9.813-5.549-2.612 4.209-15.642 10.021-4.432z"/><path fill="#585B5C" d="m786.168 102.874 6.504-2.827 11.517 3.664.537 10.686-14.211-3.007-4.347-8.516z"/><path fill="#787879" d="m786.167 102.874 18.559 11.523.571 11.395-16.123-11.395-3.007-11.523z"/><path fill="#585B5C" d="m761.962 99.589-3.419-11.436-9.064-8.302-13.556 5.003-14.625 13.295 17.78-6.118 10.206 9.072 12.678-1.514z"/><path fill="#3B3C3B" d="m749.285 101.103-20.411-4.432-2.015 17.727-5.56-16.249 11.994-9.409 5.786.757 10.206 11.606z"/><path fill="#585B5C" d="m749.479 79.85-10.401 9.647-17.781 8.651 12.889-16.672 15.293-1.626z"/><path fill="#787879" d="m749.479 79.85 12.482 19.739 9.82-1.174-3.863-20.526-18.439 1.961z"/><path fill="#3B3C3B" d="m803.719 94.35.47 9.362-18.022-.838-1.532-5.991 19.084-2.533z"/><path fill="#413732" d="m736.542 139.625 23.002 2.489-13.576 7.617-9.426-10.106z"/><path fill="#D0CFCE" d="m740.953 141.689 12.868 1.443-7.721 4.101-5.147-5.544z"/><path fill="#5F473E" d="m738.634 110.55-7.184.566 14.141 19.685 6.335 4.073 18.214-19.855-8.088-2.32-7.75 1.641-1.018 4.582-4.752 5.601-3.091-6.205.037-4.94-6.844-2.828z"/><path fill="#3B3C3B" d="M741.837 120.686a3.018 3.018 0 1 1-6.035-.001 3.018 3.018 0 0 1 6.035.001zM761.477 122.545a3.018 3.018 0 1 1-6.035-.001 3.018 3.018 0 0 1 6.035.001z"/><path fill="#413732" d="m745.818 131.253-2.715 2.64 4.448 3.394 4.374-2.414-6.107-3.62z"/><path fill="#836255" d="m745.441 118.318-2.338 15.575 8.823.981 1.359-15.952-7.844-.604z"/><path fill="#3B3C3B" d="m731.676 107.779 14.198 1.81-.396 3.79-14.028-2.263.226-3.337zM754.302 114.341l.34-3.903 15.838 1.301-.34 3.281-15.838-.679z"/><path fill="#5F473E" d="m691.218 170.009-.828-7.447-7.445-11.859-11.601 9.821 3.878 15.001 15.996-5.516z"/><path fill="#413732" d="m699.216 170.974-8.825-8.412-15.168 12.962 14.664 7.223 10.156 3.809-.827-15.582z"/><path fill="#7A584C" d="m701.313 185.286 1.745-8.727-5.554-19.677-4.682 1.428 2.143 11.743-3.015 3.332 5.554 11.426 3.809.475z"/><path fill="#5F473E" d="m689.887 182.747 12.694 32.849 21.106-4.602-20.63-34.436-13.17 6.189z"/></g><g display="block"><path fill="#A98269" d="m550.155 154.509 18.31 8.809 10.158-6.84 2.064-19.791-6.306-45.532s-17.625-3.201-18.372-.758c-.75 2.443-5.914 64.195-5.914 64.195l.06-.083z"/><path fill="#87614C" d="m549.467 145.402 12.381 9.593 5.825.053.792 8.27-9.924 6.64-23.368-21.292 14.294-3.264zM574.813 127.552l-3.21 1.998 9.085 7.016.687-4.816-6.562-4.198z"/><path fill="#585B5C" d="m574.315 104.715-4.744 8.305-.532 5.68 7.713 1.503 6.85-3.002 1.457-10.26-10.744-2.226z"/><path fill="#88898A" d="m572.09 92.465-7.408 2.237 4.888 18.317 15.489-6.078.929-11.715-13.898-2.761z"/><path fill="#585B5C" d="m560.337 89.24 4.345 5.462 21.305.524-11.196-19.034-14.454 13.048z"/><path fill="#757778" d="m521.03 75.241 20.806-3.27 32.956 4.22-10.428 19.24-43.334-20.19zM527.713 89.951l-9.498-.657-5.532 5.619 8.355 18.137 6.675-23.099z"/><path fill="#585B5C" d="m523.835 98.917 2.667-4.577-8.286-5.045 2.815-14.052 43.651 19.459-40.847 4.215z"/><path fill="#C09E87" d="m519.925 99.924.214 54.082 41.709.99 2.833-60.294-26.093 1.018-12.087-1.378-6.576 5.582z"/><path fill="#A98269" d="m532.751 113.6 1.808 1.758 2.129 3.112 1.172 1.945 3.03-1.369 3.516-3.17 4.267-1.519 6.405-.542.7 1.56-5.373 5.54-7.975 10.402-3.896-4.326-1.305 2.84-8.306-10.072-4.227-5.944 2.697-1.848 5.358 1.633z"/><path fill="#87614C" d="m535.795 129.127-1.043 2.19 4.755 3.37 2.923-3.37-6.635-2.19z"/><path fill="#585B5C" d="m524.696 113.815 9.862 1.543-1.952-3.864-7.223-.122-.687 2.443zM548.148 111.675l-3.741 4.202 11.372-.501-.346-2.851-7.285-.85z"/><path fill="#CAAF9E" d="m535.644 116.902-.893 14.416h7.678l.398-14.069-7.183-.347z"/><path fill="#C09E87" d="m573.289 115.472 10.313 1.728-2.227 14.55-9.773-2.201 1.687-14.077z"/><path fill="#87614C" d="m579.628 120.053-4.236-.795-.682 6.08 4.918-5.285zM531.078 137.576l18.774.322-4.186 8.248-12.285-.099-2.303-8.471z"/><path fill="#FFF" d="m533.44 138.971 13.746.223-1.255 2.295-11.847-.272-.644-2.246z"/><path fill="#3B3C3B" d="M529.692 116.016a2.344 2.344 0 1 1 .84 4.612 2.344 2.344 0 0 1-.84-4.612zM548.722 117.104a2.34 2.34 0 0 1 2.725 1.886 2.34 2.34 0 0 1-1.888 2.724 2.34 2.34 0 0 1-2.722-1.886 2.342 2.342 0 0 1 1.885-2.724z"/></g><g display="block"><path fill="#ECECEB" d="m.166 45.166 24 72.668L114 118.5l8.75-9.625 25 3.625-16.606-12.672L164.5 63.5 130.499 13l-79-12.666L.166 45.166z"/><path fill="#292929" d="m57.578 77.42-9.374-3.125L16.75 83.75l57.075 17.416L135.166 85.5l-32.283-12.142-45.305 4.062z" opacity=".1"/><path fill="#9CC372" d="m81.324 18.835 1.346 3.983 13.26-5.544-13.669-5.79-.937 7.351z"/><path fill="#437D64" d="m80.21 22.643-.615 1.582-.088.117 3.164-1.523-.41-11.335-.967-.088-1.084 11.247zM59.445 61.804l40.784 17.501 10.757-21.595-23.602-3.933-7.868-10.116-24.244-.482 4.173 18.625z"/><path fill="#4A9275" d="m62.978 51.528-7.707-8.349L34 83.999l41.933 9.356 12.414-21.596-5.306-46.909-1.782-2.112-1.05-.095-17.231 28.885z"/><path fill="#5CB28F" d="m75.934 93.354 47.398-8.689-12.346-26.956-9.874 8.912L82.67 22.819l-1.412-.081-5.324 70.616z"/></g></g></svg>