<svg xmlns="http://www.w3.org/2000/svg" width="900" height="350" style="width:100%;height:100%;content-visibility:visible" viewBox="0 0 900 350"><defs><clipPath id="a"><path d="M0 0h900v350H0z"/></clipPath></defs><g clip-path="url(#a)"><g display="block"><path fill="#C3C3C3" d="M12.729 0 0 272.454l266.742-64.16 55.987-117.375-50.486-60.982L12.729 0zM887.259 0 627.735 29.937l-15.637 88.887 21.139 89.47L900 269.242 887.259 0z"/><path fill="#CDCDCC" d="M272.244 29.937h355.491l2.401 77.552 3.101 100.804H266.743l5.501-178.356z"/><path fill="#FFF" d="M117.215 42.648c20.463.289 40.135.554 58.989.818 18.157.241 35.618.505 52.431.721-.265 10.949-.504 21.903-.745 32.809-.24 10.88-.504 21.76-.744 32.617-16.669.935-33.985 1.895-51.952 2.905-18.685 1.058-38.165 2.136-58.435 3.288.072-12.101.145-24.256.216-36.434.072-12.2.169-24.453.24-36.724z"/><path fill="#C3C3C3" d="m185.135 74.402-3.087-5.462v-5.919l-12.522-2.048-24.704-18.211 54.557 2.504-5.203 10.243 11.874 6.374-5.306 8.65-15.609 3.869z"/><path fill="#B1869C" d="m222.717 102.572 3.604-14.512-111.374 1.939-3.28 25.653 108.909-7.361 2.141-5.719z"/><path fill="#94627B" d="m196.262 76.451-5.306-7.511h-8.908l-6.612 20.037 12.171 6.595 8.655-19.121z"/><path fill="#734D5F" d="m190.957 68.939-3.35 26.634 13.137-6.146V70.534l-9.787-1.595z"/><path fill="#94627B" d="m109.196 112.388 43.967-22.962v12.292l17.306-12.292 1.141 9.107 29.135-9.107v11.383l25.576-12.748 1.189 22.308-102.362 3.186-15.952-1.167z"/><path fill="#734D5F" d="m141.702 108.291 11.183-.511v-2.561l-11.079.778-.104 2.294zM160.653 107.267h11.609v-2.476h-11.609v2.476zM180.371 106.029h12.292v-2.518h-12.292v2.518zM201.542 102.999v3.031l11.695-.47v-2.988l-11.695.427z"/><path fill="#9C9FA0" d="m194.176 55.509 6.568 15.024-31.218-9.561 24.65-5.463z"/><path fill="#A1A1A1" d="m117.261 35 111.374 9.188-3.363 7.373-6.099 1.175-48.253-1.128-53.751-1.224.092-15.384z"/><path fill="#C3C3C3" d="m228.635 44.187-.745 32.833-.744 32.593-8.549.478.287-28.579.289-28.776 9.462-8.549z"/><path fill="#737373" d="m114.088 99.257-10.565 23.206 128.333-3.734-2.421-11.223-5.819 2.303L116 111.099l-1.912-11.842z"/><path fill="#848585" d="M117.387 34.334v4.167l1.079 75.119-11.953 9.411-3.261-99.53 14.135 10.833zM217 40.5l9.096 5.979-2.481 63.332 8.24 7.83 1.721-80.222L217 40.5z"/><path fill="#8E8E8E" d="m103.252 23.5 130.324 13.92-7.48 9.06-108.709-7.98-14.135-15z"/><g opacity=".1"><path fill="#2B2B2B" d="m69.587 247.433 35.732-75.966-23.356-32.396-67.762 7.977-5.83 126.562 37.479 26.946 135.842-8.312 34.429-36.207-146.534-8.604zM190.057 320.471l116.025 29.345 153.251-43.094-107.775-22.646-161.501 36.395zM896.005 301.419l-59.69-10.065-64.366 15.184 64.966 18.532 59.09-23.651zM454.468 222.713l51.935-10.486 59.592 12.532 18.968-6.597 46.146 15.044-51.777 13.295-40.663-7.948L501 240.32l-46.532-17.607zM483.5 323.922l119.625-13.56L687.242 326l-116.221 24-87.521-26.078zM660.698 285.988l68.58-9.683 54.776 12.338-65.084 9.858-58.272-12.513z" opacity="1"/></g></g><g display="block"><path fill="#EBEBEA" d="m707.544 0-63.385 10.021-8.174 19.916 8.174 25.891-8.174 13.119 16.58-9.285 30.43 13.88 36.331-8.096 20.703-48.462L707.544 0z"/><path fill="#9C9FA0" d="m660.644 47.774 35.948 1.563 1.561-35.507-10.552-.223v18.211l-8.996-5.847-.97 6.912-8.597-7.407-.571 7.407-10.678-6.739c.872 7.236 1.839 14.422 2.804 21.63h.051zM705.737 16.184l-1.287 17.418 6.44.298 3.394-17.716h-8.547z"/><path fill="#A1A1A1" d="m702.688 37.221 4.191-2.431 4.011 3.224-2.081 4.534-4.188 1.116-1.933-6.443z"/></g><g display="block"><path fill="#DEBBA3" d="m318.464 156.073-6.817-4.428-9.659 13.233 6.912 7.579 7.291-4.347 2.273-12.037z"/><path fill="#C2967A" d="m339.908 156.073-11.733-6.059-16.529 1.63 4.544 16.466 11.093-2.93 12.625-9.107z"/><path fill="#DEBBA3" d="m337.163 158.056-8.988-8.042-12.084 5.345 2.372 4.707 4.571-1.855 5.99 3.921 8.139-4.076z"/><path fill="#94627B" d="m355.217 169.794-27.935-4.613.893-15.167 34.657-1.118 6.322 17.302-13.937 3.596z"/><path fill="#B1869C" d="m385.292 163.883 2.304-23.212-28.325 14.394-4.053 14.729 26.593 17.589 3.481-23.5z"/></g><g display="block"><path fill="#785D86" d="m398.996 264.464-18.94 4.854-3.382-15.089 17.431-28.465 22.265 28.465-17.374 10.235z"/><path fill="#584164" d="m398.996 264.464-4.501 18.281-13.858-3.49-2.241-3.715-1.722-21.311 22.322 10.235z"/><path fill="#8F759F" d="m443.855 230.345-49.75-4.582 17.631 28.464 15.24-7.486 16.879-16.396z"/><path fill="#A486B8" d="m411.736 254.228-1.895 15.089 19.341 11.086 7.597-9.53 7.076-40.528-32.119 23.883z"/><path fill="#785D86" d="m409.841 269.318 6.46 21.461 7.693 4.207 10.067-.718 2.718-23.393-26.938-1.557z"/><path fill="#94627B" d="m416.302 290.778-5.621 13.893 11.644 1.337 12.046-1.337-.31-10.403-17.759-3.49zM378.396 275.54l-16.05 15.996 18.624 1.338 13.223-1.338.301-8.791-16.098-7.205z"/><path fill="#532F42" d="M410.682 308.909h23.688v-4.372l-23.688.133v4.239zM362.346 295.907h31.846v-4.372h-31.846v4.372z"/></g><g display="block"><path fill="#FDFDFD" d="m421.526 159.675-16.768 36.014-16.572-25.895 16.122-8.596 17.218-1.523z"/><path fill="#94627B" d="m421.526 159.675-18.181 26.777 17.717 6.509 24.369 2.728-11.677-9.237V168.11l-12.228-8.435zM389.627 159.587l-7.423 2.475-.392 25.321 12.698 9.354 8.834-10.284-13.717-26.866z"/><path fill="#734D5F" d="m445.431 195.689-1.574 34.657-32.572-1.527-5.755-19.221-2.185-23.146 42.086 9.237z"/><path fill="#532F42" d="m403.345 186.453-21.535.931 12.296 38.38 17.18 3.055-7.941-42.366z"/></g><g display="block"><path fill="#DEBBA3" d="m367.074 104.048-8.288-4.604-7.349 1.051 8.554 59.572 19.703-1.539 22.297-6.102-2.353-41.559-3.854-18.7-15.565 3.296-13.145 8.585z"/><path fill="#C2967A" d="m389.628 159.588-29.638.479 42.171-6.298-5.521-43.811-.857-17.791 12.503 7.981.325 9.418-2.674 12.599 3.021-.196 2.566 2.515 2.474-3.519.707-6.727 4.45 3.578 4.231.804-3.813 6.244-.606 6.216-.404 3.916 1.465 7.073 1.734 17.967-27.75 8.065-4.973-4.345.589-4.168z"/><path fill="#464646" d="m353.925 117.811-9.056-18.629 10.35-1.753-1.294 20.382z"/><path fill="#C2967A" d="m391.119 109.175-9.962 10.54-2.879 14.862-3-11.873-.153-6.913 8.925-3.692 7.069-2.924zM368.951 113.673l.205 3.278 1.785 4.481-.412 6.382-13.704-13.238 2.566-3.288 9.56 2.385z"/><path fill="#464646" d="m375.126 115.792 7.315-5.367 6.434-4.719 2.243 3.47-5.596 4.194-6.515 4.882-3.881-2.46zM368.951 113.674l-5.986-5.434-8.46 3.625 2.32 2.712 5.896-2.044 3.204 3.861 3.026-2.72z"/><path fill="#E7C8B5" d="m369.156 116.951 2.297 18.188 3.278.922 3.547-1.483-3.153-18.787-5.969 1.16z"/><path fill="#DEBBA3" d="m411.525 124.484-.315 3.682 7.757 2.913 4.419-12.459-8.682-4.383-3.179 10.247z"/><path fill="#737373" d="m367.074 104.048-22.206-4.866 15.488-19.39 5.855 12.551.863 11.705z"/><path fill="#8E8E8E" d="m367.074 104.048-6.718-24.256L418 81.848l-9.894 7.228-12.322 3.091-28.71 11.881z"/><path fill="#737373" d="m418.001 81.848 12.056 29.79-11.468-4.606-10.304-6.885-12.502-7.98 22.218-10.319z"/><path fill="#464646" d="m408.286 100.147-2.351 22.018 5.589 2.32 3.18-10.246 8.681 4.382 6.672-6.982-21.771-11.492z"/><path fill="#896651" d="m419.978 120.238-3.157-1.594-1.291 6.026 4.448-4.432zM418.967 131.079l-5.522-2.119 6.616 13.45-1.094-11.331zM371.454 135.138l4.28 3.665 2.544-4.226-6.824.561z"/><path fill="#2B2B2B" d="M360.65 121.856c.445 1.343 1.874 2.065 3.191 1.612 1.318-.453 2.026-1.91 1.581-3.253-.444-1.343-1.873-2.064-3.191-1.611-1.318.453-2.026 1.909-1.581 3.252zM381.157 119.715c.445 1.343 1.873 2.065 3.19 1.612 1.318-.453 2.026-1.91 1.581-3.253-.444-1.343-1.872-2.064-3.19-1.611-1.318.453-2.025 1.909-1.581 3.252z"/><path fill="#896651" d="m408.89 151.171-48.9 8.897 22.215 1.995 11.775 6.048 14.91-16.94zM370.941 144.182l16.102-5.025v2.133l-15.32 4.795-.782-1.903z"/><path fill="none" d="m375.045 143.627 6.858-1.867-.18.89-5.819 1.75-.859-.773z"/></g><g display="block"><path fill="#785D86" d="M379.907 261.559v53.281l-55.02 18.052-8.264-27.536 7.342-30.41 55.942-13.387z"/><path fill="#8F759F" d="m275.991 274.642 47.974.303.922 57.946h-50.74l-11.026-31.534 12.87-26.715z"/><path fill="#785D86" d="m224.955 264.375 51.036 10.268-1.843 58.248-48.895-12.782-.298-55.734z"/><path fill="#734D5F" d="M388.08 253.649v17.146l-63.878 18.508.091-21.932 63.787-13.722z"/><path fill="#94627B" d="m276.317 267.068 47.976.304-.091 21.932h-48.685l.8-22.236z"/><path fill="#734D5F" d="m217.911 260.316-.594 14.024 58.2 14.964.8-22.236-58.406-6.752z"/><path fill="#B1869C" d="m346.11 239.537 41.97 14.113-64.116 21.296-47.974-.304-58.08-14.326 51.659-21.476 76.541.697z"/><path fill="#EBEBEA" d="m370.212 247.654 1.759-43.863-27.379-30.991-17.308-7.619-25.295-.302-34.141 7.579-17.182 18.581-13.339 24.173 2.184 41.04 69.355 5.757 61.346-14.355z"/><path fill="#C3C3C3" d="M370.211 253.198v-5.544l-24.102-8.116-76.539-.698-30.487 12.663.432 5.085 18.404 7.392 34.182 6.116 31.498-2.517 27.715-6.021 18.897-8.36z"/><path fill="#CDCDCC" d="m239.516 256.588 18.403 7.393 34.183 6.114 31.498-2.516 27.714-6.021 18.898-8.36-22.289-7.451-51.095-2.668-28.683 2.939-28.629 10.57z"/><path fill="#FFF" d="m285.087 177.985-21.908 4.245-17.983 31.62-1.039 26.047 6.508-23.929 16.17-30.013 18.252-7.97z"/><path fill="#2B2B2B" d="m275.517 249.372 79.039 2.264-26.412 14.223-64.448-5.544 11.821-10.943z" opacity=".1"/><path fill="#B1869C" d="m283.407 206.488-7.264-7.509 10.24-1.533 12.766.843-15.742 8.199z"/><path fill="#734D5F" d="m282.786 209.632 5.463-8.96 10.9-2.384 9.353 27.477-26.162 6.371.446-22.504z"/><path fill="#A486B8" d="m309.638 220.132-7.42 2.941-11.892 3.082 15.568 12.539 3.744-18.562z"/><path fill="#A486B8" d="m329.735 221.166-12.691-5.47-19.917 5.092 10.595 20.056 22.013-19.678z"/><path fill="#D09FB7" d="m334.452 236.964 6.817-13.891-9.962-5.682-18.784 4.7 15.621 20.302 6.308-5.429z"/><path fill="#785D86" d="m322.258 239.388 4.592-10.629 14.419-5.685 3.323 30.575-17.979 8.065-4.355-22.326z"/><path fill="#94627B" d="m291.391 233.391-3.143-32.72-12.106-1.692-1.961 20.994 17.21 13.418z"/><path fill="#8F759F" d="m326.614 261.713.237-32.955-14.328-6.667-.267 7.452-15.129-8.755v7.97l-22.946-8.785v36.614l52.433 5.126z"/><path fill="#94627B" d="m318.053 236.933.145 8.377-37.718.531-.236-12.906 37.809 3.998z"/><path fill="#734D5F" d="m318.108 240.144.355 9.022-37.983-3.325-.175-9.545 37.803 3.848z"/></g><g display="block"><path fill="#C2967A" d="M367.326 215.253v7.82l-15.89-5.683-3.216-11.427 13.694-2.888 5.412 12.178zM371.407 210.673l4.607-8.548-11.086-7.938-2.388 2.551 8.867 13.935z"/><path fill="#DEBBA3" d="m384.439 206.451-8.425-4.327-14.099.952 5.41 19.998 15.131-5.683 1.983-10.94z"/><path fill="#94627B" d="m376.014 202.124 28.745-6.435 16.767 4.298-5.997 15.266-33.074 2.138-6.441-15.267z"/><path fill="#B1869C" d="m433.754 168.111-28.995 27.579 10.77 19.563 29.902-19.563-11.677-27.579z"/></g><g display="block"><path fill="#B1869C" d="m290.023 142.572-2.775-8.411-2.758 1.08-.315-13.398-6.496-.349-2.11-8.406-2.608 13.05 5.847 1.556-.464 16.83 7.608-4.989 4.071 3.037z"/><path fill="#94627B" d="m281.4 102.112-1.869-8.652-9.28-1.959-5.413 6.885 4.773 12.077 9.809-1.048 1.98-7.283v-.02zm-4.219-5.62-5.609-1.69-3.737 5.17 1.868 8.759 6.255-.797 2.85-6.25-1.627-5.171v-.021zM282.825 89.141v2.238l4.867-2.155 1.055 1.79-3.979 4.746-.574 2.584 7.883.897-.239-3.584-4.887.183 4.072-5.172-2.684-4.479-5.514 2.952z"/><path fill="#B1869C" d="m282.547 155.968-4.255-9.75-4.685 2.238-4.716-12.91-4.702 4.172-5.016-8.224.149 13.58 7.791-2.138 3.737 13.216 6.015-3.929 5.682 3.745z"/><path fill="#94627B" d="m256.23 129.702-1.868-8.653-8.531-2.138-6.163 7.065 4.409 11.815 8.009.054 4.144-8.123v-.02zm-4.219-5.621-5.606-1.689-3.739 5.17 1.868 8.759 6.255-.798 2.849-6.25-1.627-5.17v-.022zM255.787 114.308v2.218l4.867-2.138 1.054 1.793-3.979 4.722-.574 2.589 7.884.896-.258-3.564-4.868.183 4.071-5.192-2.682-4.459-5.515 2.952z"/></g><g display="block"><path fill="#A1A1A1" d="M864.535 77.02C866.167 77.02 887.5 44 887.5 44L862.976 2.8l-76.434 8.818-21.996 42.971 22.901 24.877s75.455-2.446 77.088-2.446z"/><path fill="#A1A1A1" d="m792.224 100.516 20.573-24.266 20.799-1-41.372 25.266z"/><path fill="#FFF" d="m816.709 36.429 6.713-7.539 6.116-1.38-.088-2.801 9.009 4.378-7.86 4.92-.665-4.29-5.187 1.311-8.038 5.401z"/><path fill="#EBEBEA" d="m841.007 27.15 9.637-6.12 11.307.594 5.885 6.298 1.541 6.873-5.666 12.381-5.618 3.464-9.1-.968-5.045-3.267-4.845-6.802.666-8.506 1.238-3.947z"/><path fill="#CDCDCC" d="m843.323 29.106 5.04-4.001 4.344-.073-.394 3.573-5.974 3.247-2.804-1.077-.212-1.669z"/><path fill="#9C9FA0" d="m843.323 29.106 5.04-4.001 4.344-.073-.159 1.438-3.178.18-5.708 4.18-.127-.055-.212-1.669z"/><path fill="#CDCDCC" d="m840.434 38.707.699-3.857 2.529-.825-.054 3.335-1.597 2.947-1.577-1.6z"/><path fill="#9C9FA0" d="m840.434 38.707.699-3.857 2.529-.824-.037 1.738-1.525.36-.842 3.428-.824-.845z"/><path fill="#CDCDCC" d="m845.007 40.896.146 1.453 2.657.378 3.551-1.505-.5-4.542-2.962-.503-2.892 1.795v2.924z"/><path fill="#9C9FA0" d="m845.007 40.896.146 1.453.717.11v-3.877l2.548-1.311 2.567.557-.124-1.148-2.962-.503-2.892 1.795v2.924z"/><path fill="#CDCDCC" d="m855.292 41.434 6.459 1.761 5.888-3.017 5.24 2.782 4.736-2.566 6.015.377-6.537-2.691-4.232 2.889-4.58-3.788-7.156 3.949-5.833.304zM818.612 43.534l6.172-.574 4.863 3.985 5.997-3.125 12.938 2.101-8.652-5.15-8.398 3.104-4.378-2.262-8.542 1.921z"/><path fill="#EBEBEA" d="m869.219 56.671 1.703-.647v2.818l-2.64.18.937-2.351zM860.801 56.276l.61-.234v1.006l-.932.07.322-.842zM829.361 56.401l1.686-.627v1.955l-1.437.055-.249-1.383zM828.407 64.277l.863-.322v1.403l-1.326.087.463-1.168zM797.724 31.331l.839-.322v1.399l-1.308.091.469-1.168zM866.741 14.822l.861-.322v1.417l-1.326.089.465-1.184z"/><path fill="#B1869C" d="m783.922 56.975 4.056-4.289 7.698-1.633-1.325 4.828-4.275 1.094h-6.154z"/><path fill="#94627B" d="m795.768 67.239-.129-5.293 2.19-4.846 4.091-.359.183 5.601-6.335 4.897z"/><path fill="#8E8E8E" d="m786.865 62.019.485-2.478 2.909-2.349 5.38 4.754-1.344 2.763-3.963 2.907-.183-1.669-4.095 2.979-4.073-.178 1.351-3.733 3.75-1.147.987-2.174-1.204.325z"/><path fill="#EBEBEA" d="m794.277 58.161-3.339 1.793-2.386 4.935 2.189-.878 2.137-.861 3.016-4.056-1.617-.933z"/><path fill="#94627B" d="m790.076 56.975 2.426-2.565 4.718.644 1.24 4.091-2.821 2.801-2.888-1.687-2.675-3.284z"/><path fill="#734D5F" d="m797.365 55.522 1.094 3.625-2.82 2.801-2.888-1.671 4.614-4.755z"/><path fill="#94627B" d="m792.502 54.409 8.774-10.768 6.461 1.848 1.741 6.05-11.018 7.608-5.958-4.738z"/><path fill="#94627B" d="m807.429 45.402.308.087 1.74 6.051-11.018 7.606-2.6-2.064 8.917-9.17 2.653-2.51z"/><path fill="#4F5252" d="m797.489 52.023 1.023-2.888 4.004-.845 2.241 2.405-1.329 3.355-3.048 1.526-2.672-1.488-.219-2.065z"/><path fill="#464646" d="m803.447 49.277 1.311 1.418-1.329 3.356-3.049 1.526-1.994-1.112 5.061-5.188z"/><path fill="#EBEBEA" d="m799.573 49.815-1.223 2.226.161 1.218 2.047 1.329 2.206-1.311.718-2.474-1.434-1.489-2.475.501z"/><path fill="#CDCDCC" d="m799.161 53.674 1.397.915 2.206-1.311.719-2.474-.755-.773-3.567 3.643z"/><path fill="#B1869C" d="m810.303 41.434-9.026 2.208 3.5 4.271 4.701 3.627 2.331-9.045-1.506-1.061z"/><path fill="#8F759F" d="m804.777 47.912 4.701 3.627 2.331-9.044-.753-.522-6.279 5.939z"/><path fill="#734D5F" d="m815.292 37.971-4.99 3.463 1.507 1.061 3.483-4.524z"/></g><g display="block"><path fill="#785D86" d="m736.585 249.814-8.479 11.459-11.809-2.961-8.61-6.978 9.403-36.011 16.358 24.955 3.137 9.536z"/><path fill="#584164" d="m728.106 261.274-10.395 14.787L704.856 273l-2.08-3.257 4.911-18.408 20.419 9.939z"/><path fill="#8F759F" d="m762.76 215.844-45.67-.521 16.358 24.956 14.14-6.563 15.172-17.872z"/><path fill="#A486B8" d="m733.449 240.278 4.3 18.034 11.886 4.914 11.887-4.327 4.93-24.009.961-9.75-4.653-9.296-29.311 24.434z"/><path fill="#785D86" d="m737.749 258.312 3.818 16.242 7.138 3.688 9.341-.629 3.475-18.714-23.772-.587z"/><path fill="#94627B" d="m741.568 274.553-5.215 12.179 10.805 1.173 11.175-1.173-.287-9.12-16.478-3.059zM702.776 269.743l-14.892 14.025 17.281 1.173 12.266-1.173.281-7.707-14.936-6.318z"/><path fill="#532F42" d="M736.354 290.563h21.98v-3.832h-21.98v3.832zM687.886 287.6h29.546v-3.832h-29.546v3.832z"/></g><path fill="#B1869C" d="m714.225 156.549-14.306 26.155 2.739 18.791 18.492-8.337.477-21.326-7.402-15.283z" display="block"/><g display="block"><path fill="#DEBBA3" d="m673.943 180.58-7.769.259-5.477-14.343 9.175-5.189 10.855 12.231-6.784 7.042z"/><path fill="#C2967A" d="m677.621 170.037-11.446 10.803 13.422 6.629 12.76-5.467-11.242-8.271-3.494-3.694z"/><path fill="#DEBBA3" d="m692.098 184.679-6.158-9.74-2.629-6.95-5.928-5.463-1.987 1.788 2.224 5.722.441 6.344 11.711 11.088 2.326-2.789z"/><path fill="#94627B" d="m701.667 179.511-15.728-4.571-6.342 12.528 23.06 14.026-.99-21.983z"/></g><g display="block"><path fill="#FDFDFD" d="m766.696 151.82-26.768 27.69-7.46-28.92 17.695-2.794 16.533 4.024z"/><path fill="#94627B" d="m766.696 151.821-25.231 18.79 14.515 11.535 17.874 11.011 6.071-13.862 4.128-17.99-17.357-9.484zM732.47 150.589l-18.245 5.96 5.563 18.502 10.256 2.194 11.421-6.634-8.995-20.022z"/><path fill="#734D5F" d="m773.854 193.157-4.966 17.424-6.13 5.263-26.284 2.692-.122-26.051 5.112-21.875 32.39 22.547z"/><path fill="#532F42" d="m741.465 170.611-21.678 4.44-2.698 40.273 19.386 3.213 4.99-47.926z"/></g><g display="block"><path fill="#94627B" d="m777.805 195.601-15.046 20.244 9.305 11.138 15.461-13.353-9.72-18.029z"/><path fill="#DEBBA3" d="m766.451 234.891 5.613-7.908-9.304-11.138 3.691 19.046z"/><path fill="#B1869C" d="m784.053 161.305 13.457 43.774-9.984 8.552-13.672-20.472 10.199-31.854z"/></g><g display="block"><path fill="#DEBBA3" d="m733.082 83.757-6.31-6.823-7.179-1.352-10.423 57.226 18.855 4.794 22.429 1.542 10.899-38.894 2.181-18.332-15.538-1.882-14.914 3.721z"/><path fill="#C2967A" d="m736.965 141.698-27.796-8.891 41.284 7.509 8.385-41.842 4.695-16.556 9.198 11.24-2.604 8.725-6.388 10.691 2.878.771 1.619 3.112 3.393-2.443 2.737-5.936 3.047 4.675 3.698 2.07-5.486 4.516-2.485 5.498-1.586 3.457-.818 6.936-3.932 16.994-34.336-1.635 4.497-8.891z"/><path fill="#464646" d="m716.564 92.217-2.693-19.904 10.198 1.654-7.505 18.25z"/><path fill="#C2967A" d="m752.159 96.126-10.779 6.406-7.277 12.7.87-11.813 1.992-6.377 4.415-2.558 6.897-4.168 3.882 5.81zM729.198 91.728l1.84 4.496.281 4.665-2.355 5.712-10.393-16.916 4.905-5.518 5.722 7.561z"/><path fill="#464646" d="m741.38 94.484 7.091-2.551 3.688 4.194 2.418-1.837-5.04-6.461-9.886 3.651 1.729 3.004zM731.039 89.275l-7.562-5.109-4.906 5.519 2.862 2.247 3.372-3.882 4.393 3.678 1.841-2.453z"/><path fill="#E7C8B5" d="m731.038 96.224-3.475 17.373 2.774 1.877 3.766-.242 2.862-18.191-5.927-.817z"/><path fill="#DEBBA3" d="m768.236 116.458-1.432 3.27 6.336 5.109 7.972-10.014-6.745-6.744-6.131 8.379z"/><path fill="#737373" d="M733.083 83.757 713.87 72.313l20.438-12.876 1.586 13.333-2.811 10.987z"/><path fill="#8E8E8E" d="m733.082 83.757 1.226-24.32 53.138 20.029-11.463 3.501-12.449-1.049-30.452 1.839z"/><path fill="#737373" d="m787.446 79.465 2.044 31.066-9.273-7.827-7.486-9.545-9.197-11.241 23.912-2.453z"/><path fill="#464646" d="m772.732 93.158-8.992 19.416 4.495 3.884 6.131-8.38 6.745 6.744 8.379-4.291-16.758-17.373z"/><path fill="#896651" d="m777.433 115.232-2.453-2.453-3.067 5.11 5.52-2.657zM773.141 124.836l-4.498-3.678 2.019 14.396 2.479-10.718zM727.564 113.596l2.861 4.702 3.679-3.066-6.54-1.636z"/><path fill="#2B2B2B" d="M741.381 102.533a2.478 2.478 0 1 0 4.957.001 2.478 2.478 0 0 0-4.957-.001zm-19.792-4.496a2.478 2.478 0 0 0 2.479 2.479 2.479 2.479 0 1 0-2.479-2.479z"/><path fill="#896651" d="m757.534 140.057-48.364-7.25 23.299 10.22v7.562l25.065-10.532zM720.832 120.004l20.548 2.227-6.187 8.339-10.79-1.227-3.571-9.339z"/><path fill="#FFF" d="m724.068 122.361 13.322 1.231-3.287 4.911-8.214-1.035-1.821-5.107z"/></g><g display="block"><path fill="#8F759F" d="m488 160.42-3.833 61.081 23.5 1.211-7.5-62.212-12.167-.08z"/><path fill="#2B2B2B" d="m487.085 175 15.588 6.292-2.506-20.792-12.167-.081-.915 14.581z" opacity=".1"/><path fill="#A486B8" d="m445.25 46 101.157 5.168 1.939 117.486-101.937-5.649L445.25 46z"/><path fill="#EBEBEA" d="m457.363 63.228.791 88.038h79.309l1.206-88.344-81.306.306z"/><path fill="#8F759F" d="m445.25 46 12.112 17.23 81.306-.307 7.738-11.754L445.25 46zM446.41 163.006l11.743-11.741h79.309l10.884 18.468-101.936-6.727z"/><path fill="#737373" d="m462.878 84.467.906 51.138 44.965-.605.259-3.233-43.932 1.518.235-48.818h-2.433z"/><path fill="#94627B" d="M468 99.417h6.916v30.834H468V99.417zM479.583 130.251v-21.084h7.834l-.75 20.392-7.084.692zM490.75 129.721l.5-13.388 7.5.417-.734 12.808-7.266.163zM471.75 86.625 482 93.937l7.25-.812 9.5 8.806 1.375-2.118 4.25 7.514-8.5-.64 1.178-2.474L488.061 96l-6.874.448-10.75-8.761 1.313-1.062z"/><path fill="#C3C3C3" d="M509.009 73.747h19.074v2.234h-19.074v-2.234zM509.009 81.736h19.074v2.732l-19.074-.384v-2.348zM509.009 90.417l19.074.634v2.116l-19.074-.833v-1.917z"/></g><g display="block"><path fill="#734D5F" d="m68.871 180.732-1.084-13.785 11.228 3.292 1.8 7.547-1.391 7.159-10.553-4.213z"/><path fill="#848585" d="M41.094 168.603v81.547l10.474 3.496 2.146-74.592-3.231-11.74-9.328-9.508-.061 10.797z"/><path fill="#8E8E8E" d="m24.957 125.019 16.138 43.584 9.368-1.289-3.478-29.9-13.518-15.465-8.51 3.07z"/><path fill="#9C9FA0" d="m83.391 117.593-49.925 4.356 17.017 45.365 3.6 2.457 2.658-3.804 38.801-8.327-12.151-40.047z"/><path fill="#6E7073" d="m57.233 247.531-.491-81.564-3.805.817-2.474.53 1.104 86.333 5.666-6.116z"/><path fill="#A1A1A1" d="m31.972 276.413-2.883-68.865 53.709.797 47.116 12.94-.645 28.232-4.286 44.869-93.011-17.973z"/><path fill="#8E8E8E" d="m216.121 256.036-91.137 38.35-1.893-60.919 91.121-49.933 1.909 72.502z"/><path fill="#C3C3C3" d="m19.231 224.848 1.452-31.619 6.442-.775 89.136 7.668 6.83 9.695 6.404 6.32-6.404 17.331-103.86-8.62z"/><path fill="#DCDCDB" d="m20.683 193.229 99.587-25.586 14.89-3.763 87.785 4.089-99.854 41.847-102.408-16.587z"/><path fill="#2B2B2B" d="m93.435 186.848-27.739 11.01 39.54 7.458 11.397-3.722 4.583 1.776 15.348-10.916-43.129-5.606z" opacity=".1"/><path fill="#CDCDCC" d="m95.277 174.064 24.994-6.421 4.581-1.147a356.223 356.223 0 0 1 2.596 6.975l-31.988 3.417s-.083-1.146-.164-2.803l-.019-.021z"/><path fill="#A1A1A1" d="m224.484 199.146-1.539-31.177-99.855 41.848v23.65l101.394-34.321z"/><path fill="#734D5F" d="m113.909 169.421-.205-7.914-4.499-9.633 5.972-11.414 7.628 3.846 1.351 6.729 5.727 9.817-2.455 12.6-13.519-4.031z"/><path fill="#E7C8B5" d="m91.001 134.097 16.527 16.65 5.809-14.377-22.336-2.273z"/><path fill="#734D5F" d="m91.001 134.097 16.527 16.651-11.985 6.892-14.4 6.137-2.945-10.902-3.334-9.9 16.137-8.878z"/><path fill="#532F42" d="m105.319 171.465 8.59-2.043-.43-16.813-9.224 8.714 1.064 10.142z"/><path fill="#94627B" d="m67.787 166.947 7.077-23.972 17.895 15.053-.306 10.533-14.256 9.88-10.41-11.494z"/><path fill="#EBEBEA" d="m82.573 195.704 20.371-10.33 32.605 4.768-14.625 13.498-38.351-7.936z"/><path fill="#A1A1A1" d="m117.939 190.242 10.123 1.474-10.185 8.774-10.227-2.108 10.289-8.14zM114.134 189.65l-9.901 7.609-1.881-.408 10.084-7.53 1.698.329zM110.288 188.77l-9.88 7.61-1.882-.409 10.065-7.547 1.697.346zM106.422 187.81l-5.584 4.294-1.882-.409 5.77-4.235 1.696.35z"/><path fill="#FFF" d="m69.587 190.724 22.17-7.21 30.721 11.885-17.242 9.917-35.649-14.592z"/><path fill="#A1A1A1" d="m105.298 191.594 9.53 3.68-11.862 6.32-9.532-4.335 11.864-5.665zM101.719 190.18l-11.331 5.219-1.759-.822 11.514-5.11 1.576.713zM98.181 188.465l-11.353 5.215-1.739-.817 11.496-5.095 1.596.697zM94.601 186.663l-6.402 2.946-1.74-.818 6.567-2.824 1.575.696z"/><path fill="#2B2B2B" d="m157.007 171.028 30.92 2.424-26.975 15.57-29.243-6.551 25.298-11.443z" opacity=".1"/><path fill="#FFF" d="m160.625 167.024 29.432 4.441-27.428 15.383-27.768-8.836 25.764-10.988z"/><path fill="#94627B" d="M151.911 176.334c.45-.326.082-1.022 1.021-1.698.676-.488 2.721-.981 3.05-1.226 1.595-1.144 1.491-1.064 3.087-2.208 3.027-.655 6.095-1.31 9.163-1.985-.204 1.372-.39 2.741-.594 4.113-1.534 1.101-3.087 2.186-4.623 3.271-.634.45-1.185 2.311-1.819 2.762-.88.634-1.84-.142-2.72.471-1.187-.634-3.007-.33-4.172-.963-1.003-.531-1.412-2.025-2.415-2.558l.022.021z"/><path fill="#734D5F" d="M150.13 178.073c.595-.572 1.187-1.163 1.78-1.739 2.189 1.168 4.376 2.332 6.587 3.521-.88.53-1.74 1.062-2.599 1.593l-5.768-3.375z"/><path fill="#B1869C" d="M146.225 177.009c1.881-.225 3.784-.45 5.686-.675.777-.551 1.556-1.102 2.332-1.657.572-.409 1.166-.838 1.758-1.247-1.491.083-2.964.163-4.458.266-1.779 1.127-3.558 2.229-5.318 3.334v-.021zM158.17 184.272c.102-1.473.223-2.967.346-4.439 1.515-1.085 3.027-2.148 4.562-3.233-.123 1.41-.267 2.804-.388 4.215-1.514 1.164-3.008 2.332-4.501 3.475l-.019-.018z"/><path fill="#EBEBEA" d="M158.171 174.022c.757-.53 1.511-1.063 2.269-1.594 1.063.041 2.128.062 3.211.1.02.635.061 1.27.082 1.903-.941.513-1.88 1.023-2.823 1.535-.858-.099-1.717-.204-2.576-.304-.061-.555-.123-1.107-.163-1.661v.021z"/></g><g display="block"><path fill="#DEBBA3" d="m134.103 82.925 6.805-4.479 6.394.36-3.169 50.893-17.055.113-19.411-3.407-1.093-35.392 2.001-16.059 13.618 1.667 11.91 6.304z"/><path fill="#C2967A" d="m118.61 131.417 25.523-1.717-36.711-2.296 1.666-37.373-.513-15.077-10.192 7.631.382 7.974L101.952 101l-2.612.05-2.031 2.308-2.374-2.793-1.082-5.627-3.576 3.337-3.582.983 3.718 4.997.959 5.203.621 3.276-.761 6.076-.23 15.288 29.564 5.832-1.956-8.513z"/><path fill="#464646" d="m146.381 93.6 6.479-16.372-9.026-.738 2.547 17.11z"/><path fill="#C2967A" d="m113.782 88.976 9.309 8.182 3.521 12.338 1.746-10.236-.354-5.846-14.222-4.438zM135.731 90.526l-2.512 3.439-1.22 3.911.803 5.357 12.403-12.21-3.014-5.728-6.46 5.231z"/><path fill="#464646" d="m128.004 93.413-12.535-7.527-1.687 3.089 11.056 6.793 3.166-2.355zM134.681 88.051l7.51-2.757 3.014 5.728-2.909 1.312-2.053-4.015-4.512 2.207-1.05-2.475z"/><path fill="#E7C8B5" d="m133.219 93.964-.698 15.516-2.755 1.013-3.153-.998 1.39-16.082 5.216.551z"/><path fill="#896651" d="m135.783 120.166-10.72-1.9-7.584-4.529 2.155-2.928-5.224 1.766-.225 5.944 2.334-2.653 7.994 4.629 11.27-.329z"/><path fill="#DEBBA3" d="m97.308 103.358.53 3.085-6.467 3.015-4.677-10.199 7.159-4.321 3.455 8.42z"/><path fill="#737373" d="m134.103 82.925 18.757-5.696-14.684-15.258-4.154 11.013.081 9.941z"/><path fill="#8E8E8E" d="m134.104 82.925 4.072-20.954-49.434 5.866 9.018 5.39 10.816 1.728 25.528 7.97z"/><path fill="#737373" d="m88.742 67.836-8.276 26.008 9.539-4.71 8.379-6.548 10.192-7.631-19.834-7.119z"/><path fill="#464646" d="m98.383 82.585 3.568 18.416-4.642 2.358-3.455-8.42-7.159 4.319-6.228-5.414 17.916-11.259z"/><path fill="#896651" d="m89.74 100.38 2.604-1.571 1.532 4.994-4.136-3.423zM91.371 109.457l4.601-2.185-4.746 11.828.145-9.643zM132.522 109.479l-3.424 3.4-2.486-3.384 5.91-.016z"/><path fill="#2B2B2B" d="M140.88 97.495a2.173 2.173 0 1 1-4.22-1.04 2.173 2.173 0 0 1 4.22 1.04zm-17.789-.337a2.173 2.173 0 1 1-4.22-1.043 2.173 2.173 0 0 1 4.22 1.043z"/><path fill="#896651" d="m101.451 125.693 42.682 4.005-21.976 3.796-1.592 6.435-1.133-.845-17.981-13.391z"/></g><g display="block"><path fill="#B1869C" d="m100.552 182.471-22.354-4.029 14.562-20.414 11.085-10.981 10.881 2.658-14.174 32.766z"/><path fill="#DEBBA3" d="m113.91 134.973-10.063 12.074 10.881 2.658 3.948-2.637 7.138.204 4.827-8.201-16.731-4.098z"/></g><g display="block"><path fill="#C2967A" d="m133.565 149.071-2.925-10.001-6.239 4.172-5.726 3.827 5.481 3.967 9.409-1.965z"/><path fill="#94627B" d="m127.428 173.452-3.272-22.418 9.409-1.964 9.919 19.554-16.056 4.828z"/></g><g display="block"><path fill="#785D86" d="m581.99 202.515-7.186 9.713-10.008-2.51-7.297-5.914 7.97-30.522 13.863 21.151 2.659 8.082z"/><path fill="#584164" d="m574.804 212.227-8.81 12.532-10.895-2.594-1.763-2.76 4.163-15.602 17.305 8.424z"/><path fill="#8F759F" d="m604.174 173.724-38.706-.442 13.863 21.15 11.984-5.562 12.859-15.146z"/><path fill="#A486B8" d="m579.332 194.433 3.645 15.285 10.074 4.164 10.074-3.667 5.099-36.933-3.298-.184-25.594 21.335z"/><path fill="#785D86" d="m582.977 209.716 3.237 13.764 6.049 3.128 7.916-.535 2.946-15.86-20.148-.497z"/><path fill="#94627B" d="m586.214 223.481-4.42 10.322 9.157.994 9.47-.994-.242-7.729-13.965-2.593zM553.336 219.405l-12.621 11.886 14.645.994 10.399-.994.236-6.532-12.66-5.354z"/><path fill="#532F42" d="M581.794 237.05h18.628v-3.248h-18.628v3.248zM540.716 234.538h25.044v-3.248h-25.044v3.248z"/></g><path fill="#B1869C" d="m563.04 123.468-16.387 10.523-8.393.702 10.086 16.275 20.755-4.93.213-9.617-6.273-12.953z" display="block"/><g display="block"><path fill="#896651" d="m514.137 134.703 11.65 2.819 4.103-2.113.207-8.57-10.252-4.917-2.688 1.861-3.02 10.92z"/><path fill="#C2967A" d="m507.153 118.916 12.692 3.005 6.088 2.843-2.004 4.166-16.946-6.141.17-3.873z"/><path fill="#DEBBA3" d="m517.479 130.818 8.456-6.055 4.162 2.075-2.22 6.067-9.37 1.448-1.028-3.535z"/><path fill="#94627B" d="m530.098 126.839-4.311 10.683 22.56 13.447-1.693-16.977-16.556-7.153z"/></g><g display="block"><path fill="#FDFDFD" d="m607.51 119.462-22.684 23.468-6.323-24.512 14.996-2.368 14.012 3.412z"/><path fill="#94627B" d="m607.51 119.462-21.383 15.924 12.303 9.777 15.147 9.333 5.147-11.749 3.499-15.247-14.712-8.038zM578.504 118.418l-15.463 5.051 4.714 15.682 8.693 1.859 9.679-5.623-7.623-16.969z"/><path fill="#734D5F" d="m613.578 154.496-5.354 18.786-4.05.442-22.276 2.281-.104-22.079 4.333-18.539 27.45 19.109z"/><path fill="#532F42" d="m586.127 135.386-18.372 3.764-2.286 34.133 16.429 2.723 4.229-40.62z"/></g><g display="block"><path fill="#DEBBA3" d="m579.023 61.777-5.347-5.783-6.085-1.146-8.834 48.501 15.981 4.063 19.226 1.214 9.02-32.871 1.849-15.537-13.169-1.595-12.641 3.154z"/><path fill="#C2967A" d="m582.315 110.884-23.559-7.535 34.99 6.364 7.106-35.463 3.98-14.032 7.794 9.527-2.208 7.394-5.412 9.061 2.44.654 1.37 2.637 2.877-2.07 2.32-5.031 2.582 3.962 3.135 1.754-4.649 3.828-2.107 4.659-1.346 2.93-.692 5.88-3.333 14.401-29.1-1.385 3.812-7.535z"/><path fill="#464646" d="m565.023 68.947-2.282-16.87 8.642 1.401-6.36 15.469z"/><path fill="#C2967A" d="m596.691 72.17-10.635 5.52-6.167 10.762.738-10.011 1.688-5.405 14.376-.866zM577.988 69.745l-.697 2.598.237 3.953-1.996 4.841-8.808-14.337 1.413-2.077 9.851 5.022z"/><path fill="#464646" d="m582.315 73.036 13.51-4.156.866 3.29-11.951 3.81-2.425-2.944zM577.988 69.745l-8.07-7.257-1.78 2.235 7.189 7.447 2.661-2.425z"/><path fill="#E7C8B5" d="m577.291 72.343-2.945 14.724 2.35 1.59 3.193-.205 2.425-15.415-5.023-.694z"/><path fill="#DEBBA3" d="m608.817 89.491-1.213 2.772 5.369 4.33 6.755-8.487-5.716-5.717-5.195 7.102z"/><path fill="#737373" d="m579.023 61.777-16.283-9.7 17.321-10.912 1.345 11.3-2.383 9.312z"/><path fill="#8E8E8E" d="m579.023 61.777 1.039-20.612 45.037 16.975-9.716 2.968-10.55-.89-25.81 1.559z"/><path fill="#737373" d="m625.1 58.139 1.732 26.33-7.861-6.634-6.344-8.09-7.795-9.526 20.268-2.08z"/><path fill="#464646" d="M612.627 69.745 605.005 86.2l3.811 3.291 5.197-7.101 5.716 5.716 7.102-3.638-14.204-14.723z"/><path fill="#896651" d="m616.612 88.452-2.08-2.078-2.598 4.33 4.678-2.252zM612.975 96.593l-3.812-3.117 1.709 12.2 2.103-9.083zM574.347 87.066l2.425 3.984 3.117-2.598-5.542-1.386z"/><path fill="#2B2B2B" d="M569.283 73.88a2.1 2.1 0 1 0 4.202 0 2.1 2.1 0 1 0-4.202 0zM586.056 77.689a2.102 2.102 0 1 0 4.204.002 2.102 2.102 0 0 0-4.204-.002z"/><path fill="#896651" d="m599.747 109.493-40.99-6.144 19.746 8.661v6.409l21.244-8.926zM570.704 92.719l11.696 1.073.843 7.493-13.656-2.234 1.117-6.332z"/><path fill="#FFF" d="m571.749 93.934 9.259.896.249 2.172-9.874-.993.366-2.075z"/><path fill="none" stroke="#2B2B2B" stroke-width="2" d="m585.012 78.273 7.212 1.322m-18.011-3.57-6.336-1.356" opacity=".05"/></g><path fill="#B1869C" d="m622.223 127.5 17.84 15.43v14.096l-26.486-2.53 8.646-26.996z" display="block"/><g display="block"><path fill="#DEBBA3" d="m653.889 117.282-.572 1.564 2.144-10.834 9.456 5.504-.496 11.256-12.768-1.377 2.236-6.113z"/><path fill="#C2967A" d="m650.992 120.51 2.324-1.664 11.105 5.926-6.998 10.614-9.908-.185 3.477-6.995v-7.696z"/><path fill="#DEBBA3" d="m650.33 135.2-1.23-7.515-.757-4.403 1.614-9.766 3.187.331.173 4.999 2.476 7.789-5.462 8.565z"/><path fill="#94627B" d="m649.167 128.1-14.262 10.369 5.158 18.557 17.36-21.641-8.256-7.285z"/></g><g display="block"><path fill="#9C9FA0" d="m790.306 260.96 13.446 51.566 25.319 7.183 22.599-40.182-7.927-18.876-53.437.309z"/><path fill="#A1A1A1" d="m869.37 262.211-8.741 46.26-31.56 11.238-.31-48.73 40.61-8.768z"/><path fill="#4F5252" d="m830.006 250.971 39.363 11.241-40.61 8.767-38.454-10.018 39.7-9.99z"/><path fill="#94627B" d="m779.688 239.106 21.885-19.694 12.8 11.865-5.956 5.522-7.28-2.544-21.45 4.851z"/><path fill="#94627B" d="m814.374 231.277-13.236 2.979 17.198 34.009 10.424 2.714-6.533-18.037-1.922-17.343-5.931-4.322z"/><path fill="#94627B" d="m826.213 217.972-1.514 13.282-4.345 7.95 1.873 13.738 6.533 18.037 5.81-23.035-.244-36.864-8.113 6.892z"/><path fill="#94627B" d="m839.877 268.574.355-96.448-5.906 38.953-1.008 10.734-1.63 17.677-2.928 31.488 11.117-2.404z"/><path fill="#B1869C" d="m849.969 230.773-15.643-19.694-8.113 6.893 23.756 12.801zM862.77 230.773l-13.718 35.811-9.176 1.991.049-14.771 18.783-32.089 4.062 9.058z"/><path fill="#94627B" d="m877.13 237.328-18.421-15.612-5.307 9.057 23.728 6.555z"/><path fill="#B1869C" d="m816.026 202.813 8.674 28.441-1.058 9.195-1.415 12.492-7.853-21.664-6.154-22.843 7.806-5.621z"/><path fill="#94627B" d="m790.26 212.638 25.766-9.824 3.554 11.676-29.32-1.852z"/><path fill="#848585" d="m547.123 326.139-16.569-15.778 64.268-31.828 34.462 14.835-44.012 35.245-30.869 3.42-7.28-5.894z"/><path fill="#C3C3C3" d="m566.678 332.032-7.621 5.449-28.503-15.812v-11.308l28.503 15.777 7.621 5.894z"/><path fill="#94627B" d="m626.318 257.158-32.055-3.611-59.603 19.67 25.86 46.906 65.102-34.135.696-28.83z"/><path fill="#B1869C" d="m626.318 257.157-28.579-13.725-63.079 29.785 18.25 28.726 18.11-15.956 51.247-23.278 4.051-5.552z"/><path fill="#532F42" d="m652.26 246.247-31.394 2.74 1.401 13.722 3.354 23.279 26.639-39.741z"/><path fill="#734D5F" d="m652.26 246.246-54.522-2.814 24.528 19.278 29.994-16.464zM534.66 273.217l-1.166 31.079 27.026 15.827 10.5-34.135-36.36-12.771z"/><path fill="#8E8E8E" d="m595.803 288.35-9.242-3.658-6.643-2.747-1.847 28.975 7.201 2.985 6.75-8.596 3.781-16.959z"/><path fill="#C3C3C3" d="m598.407 279.637-6.694-3.049-11.794 5.357 6.642 2.748 3.5 24.557 1.961-3.941 6.385-25.672z"/><path fill="#A1A1A1" d="m598.407 279.637 2.545 27.88-15.68 7.705 1.289-30.528 11.846-5.057z"/><path fill="#A1A1A1" d="m629.284 293.367-70.227 32.771v11.343l89.164-13.56-18.937-30.554z"/><path fill="#532F42" d="m547.837 293.957-8.929 7.985 18.083 8.418 4.169-17.701-13.323 1.298z"/><path fill="#532F42" d="m540.099 281.778-1.19 20.166 22.251-9.284 1.085-4.373-22.146-6.509z"/><path fill="#94627B" d="m608.999 258.124 5.375 3.25-11.25 4.744-5.386-2.994 11.261-5zM593.778 264.999l5.722 3-6.45 2.376-6.112-2.687 6.84-2.689z"/></g></g></svg>