<svg xmlns="http://www.w3.org/2000/svg" width="900" height="350" style="width:100%;height:100%;content-visibility:visible" viewBox="0 0 900 350"><defs><clipPath id="a"><path d="M0 0h900v350H0z"/></clipPath></defs><g clip-path="url(#a)"><g display="block"><path fill="#A2A2A2" d="M110.456 99.273 96.098 88.28l-19.22 9.876 7.832 73.598 39.368-10.814-13.622-61.667z"/><path fill="#C4C4C4" d="m96.098 88.28 3.908 81.597 44.08 1.877 4.916-80.614-52.904-2.86z"/><path fill="#CECECD" d="M103.775 95.723h34.148l-1.094 61.574-32.166-.623-.888-60.951z"/><path fill="#C4C4C4" d="M100.558 101.334h40.514v6.844l-39.831-1.154.274 7.328h38.052l-.411 7.694h-36.82l-.274 6.082h37.505l-.821 8.109H102.61l-.137 6.571h36.683l-1.232 7.664H99.736l.822-49.138z"/><path fill="#C4C4C4" d="m109.899 92.745.615 66.631h3.737l-.726-66.665h5.715l.513 66.665 2.718-.555.846-65.289h5.319l-.484 65.844s2.539.418 2.539 0c0-.419 1.108-67.622 1.108-67.622l-21.9-1.362v2.353z"/><path fill="#A2A2A2" d="m186.449 102.49-18.59-27.932-31.928 8.014 5.008 88.397 35.478 3.555 10.032-72.034z"/><path fill="#C4C4C4" d="m169.487 175.954-1.628-101.396 57.722 1.753-2.756 97.051-53.338 2.592zM90.356 133.657l-19.533-18.03L57.3 126.978l.989 33.694 25.388 18.053 6.679-45.068z"/><path fill="#CECECD" d="m67.673 171.754 6.301-10.164-3.152-45.964h39.633v48.069l-42.782 8.059zM176.417 85.577h41.652l-1.337 75.102-39.232-.76-1.083-74.342z"/><path fill="#C4C4C4" d="M172.491 92.421h49.416v8.347l-48.581-1.407.334 8.938h46.411l-.501 9.385h-44.909l-.334 7.418h45.744l-1.002 9.891h-44.074l-.167 8.013h44.742l-1.503 9.349H171.49l1.001-59.934z"/><path fill="#C4C4C4" d="m183.887 81.945.75 81.27h4.557l-.885-81.312h6.97l.626 81.312 3.316-.677 1.031-79.632h6.488l-.59 80.309s3.097.51 3.097 0 1.35-82.48 1.35-82.48l-26.71-1.66v2.87z"/><path fill="#DDDDDC" d="m76.081 123.765 30.426-.637v37.551l-28.042 1.023-2.384-37.937z"/><path fill="#CECECD" d="m73.828 127.522 33.555-1.502v4.883l-32.304 1.126.376 3.882 31.928-1.127v5.217l-31.302.918v4.007l31.302-.584v3.756l-30.505.417v4.508l30.005-.334.5 4.591-31.509.442-2.547-30.45.501.25z"/><path fill="#DDDDDC" d="m353.309 197.404-60.774-4.111 9.115-8.133 51.659 12.244z"/><path fill="#EBEBEB" d="M724.463 190.743 484.095 229.62l-269.414 5.72h-14.836l-77.307-1.788-74.984-2.144L0 248.893l47.286 53.03L238.9 340.319l238.214 9.682 212.2-9.816 172.514-38.173 33.7-58.178-52.816-19.303-38.137 2.009-40.878-45.539-39.234 9.742z"/><path fill="#EBEBEB" d="m129.25 180.167-18.794-16.472 519.37 3.68-7.328 43.704-398.87-23.237-35.928 11.797-57.556-9.92-.894-9.552z"/><path fill="#EBEBEB" d="m0 182.643 47.554 48.765 27.715-19.525 40.575-17.338 12.691-8.223 4.891-3.583-31.703-19.522-43.435-2.545L0 182.643z"/><path fill="#FFF" d="m101.724 163.216 24.497 17.786-24.497 6.751 41.558 21.271 43.167-12.244-51.568-9.295 9.205-5.085-33.63-18.704-8.732-.48z"/><path fill="#CECECD" d="m114.72 225.344 7.955 9.206 61.923 17.127 56.629-3.35 21.405 5.885 76.64.708 45.349-11.634 31.196 4.223 51.876-2.69 28.538-2.963 5.421 4.973 33.792-1.787 23.515-3.38 6.139 4.933 36.313 2.38 24.393-21.714 3.166-13.625-35.212-12.959-35.481-5.63-38.967 4.558-15.014 2.145-28.51-4.29-27.818 1.612-1.892-2.829-41.252-6.112-12.065-.536-60.416-1.609-30.298-2.412-78.022 2.681-74.358 17.874-34.945 19.215z"/><path fill="#399FB9" d="m618.118 226.004-4.021 1.608-22.132 4.112-19.762 2.085-7.767.82-24.899-7.588-36.742-.777-31.728-1.609-50.117-.439-63.04 4.111-21.449 1.013-65.823 12.572-79.721-5.094-55.053-8.938-6.614-1.072 30.476-14.657 72.571-14.568 60.237-4.289 60.773 4.11 85.679 7.686 34.885-.982 41.559 4.826 42.093-5.631 28.868 3.486 22.701 8.669 9.026 10.546z"/><path fill="#DDDDDC" d="m223.628 187.842-74.358 17.876 10.456 6.434 72.571-14.568-8.669-9.742zM190.917 236.818l-6.71 14.454 57.218-.155 20.811 2.681 8.401-11.886-79.72-5.094zM361.887 235.925l-22.104 18.995 47.852-3.802 27.786-4.022 2.592-8.58-56.126-2.591zM470.758 231.903l-3.065 12.916 33.931 1.928-5.843-13.504-25.023-1.34zM564.584 238.158l-29.313-4.379.146 11.181 29.682 1.635-.515-8.437zM603.103 228.463l-17.308 8.134 15.616 12.378 35.118-19.218-33.426-1.294zM593.362 200.264l-6.971 6.524 22.7 8.67 19.484-2.234-35.213-12.96zM518.915 199.192l38.967-4.558-.359 8.67-38.608-4.112zM446.076 196.243l-7.09 8.848 34.885-.983 1.519-7.061-29.314-.804z"/><path fill="#5EC0D9" d="m614.4 227.613-11.297.851-16.812 8.248-21.404 1.447-29.314-4.29-33.069-.626-31.725-1.608-52.676 4.29h-55.912l-25.114 2.771-66.135 3.217-79.721-5.094-55.054-8.938 29.136-12.065 38.073-7.686 36.821-3.039 46.395 5.988 50.107-1.34 50.524 1.34 51.56 1.698 73.732 4.826 45.669-7.718 47.1 8.612 9.116 9.116z"/><path fill="#399FB9" d="m169.826 233.333 26.454-10.546 24.666-4.737 21.092-3.575 46.295-8.938-2.86-7.506-3.753-.27-41.827 7.33-35.304-.269-5.196 1.832-1.416 7.463-4.379-4.111-27.794 5.631-4.332-.091-25.607 12.335 33.961 5.452z"/><path fill="#C4C4C4" d="m199.586 215.547-3.128 2.057-2.592-2.325-1.681-21.985-22.36-4.38-9.921 4.648-1.251 8.579-5.407-2.145.581-8.133 16.713-7.149 26.256 3.715 2.79 27.118z"/><path fill="#C4C4C4" d="m164.642 205.269 30.297-7.418.625 3.397-30.565 7.328.625 4.826 29.94-5.452.716 4.111-31.817 6.078.179-12.87z"/><path fill="#8BDFDC" d="m557.166 215.011 26.9 2.503 9.207 7.775-4.916 4.202 1.43-3.665-7.24-5.541-25.381-5.274z"/><path fill="#8BDFDC" d="m538.845 215.368 35.123 5.72 5.987 5.632-8.042-3.933-32.533-5.005-19.571-.357 19.036-2.057z"/><path fill="#CECECD" d="m167.858 225.467-.708-24.049-18.686-5.89-18.321 5.72 1.251 11.349 5.005-.446-.715-7.953 13.585-4.202 12.045 4.105-.248 21.455 4.2 2.056 2.592-2.145z"/><path fill="#737373" d="m722.082 218.904-1.636 35.12 6.969-3.709 8.348-16.535-13.681-14.876z"/><path fill="#8F8F8F" d="m856.743 217.142 14.747 27.803 10.68 2.263 5.781-20.403-31.208-9.663z"/><g opacity=".1"><path fill="#2B2B2B" d="m895.27 244.419-59.707-21.496-74.626 14.032-53.713 15.147-15.445 5.129 105.427 24.319 90.157-23.48 7.907-13.651zM354.118 293.033l52.823-9.474 57.942 10.412-61.794 14.345-48.971-15.283zM200.153 320.023l76.368-9.429 77.596 13.944-81.448 10.813-72.516-15.328zM583.425 317.559l-54.591 15.181-68.352-10.805 69.469-11.295 53.474 6.919zM755.867 317.925l-79.669 16.563-90.281-19.479 89.038-14.379 80.912 17.295zM39.877 284.901l62.829 5.452 51.836-13.049-56.215-2.86-58.45 10.457z" opacity="1"/></g><path fill="#1C7678" d="m121.475 265.328.805 15.73 12.601-1.073-4.647-15.372-8.759.715zm-53.802 2.324.357 17.517 12.245-3.038-3.665-15.283-8.937.804z"/><path fill="#5EC0D9" d="m45.776 202.321 90.713-9.92 13.585 73.017-100.633 8.489-3.665-71.586z"/><path fill="#1C7678" d="m76.878 194.634 7.686-.715-.893-4.2 11.796-2.235.627 5.362 8.133-.804 1.787 10.636-27.884 3.04-1.252-11.084z"/><path fill="#FFF" d="m115.97 238.509-33.344 1.067-1.252 8.341 35.492-2.833-.896-6.575zm-8.526-10.528-18.581.353-.51 7.562 19.759.849-.668-8.764zm-9.791-2.178-1.555-8.49 4.243.715-.76 7.396-1.928.379zm.086-14.725-1.641 3.688 2.121 2.139 1.787-2.576-2.267-3.251zm-16.364 39.545 35.786-1.98.63 9.298-36.416 2.496v-9.814z"/><path fill="#5EC0D9" d="m87.788 253.253-1.438 2.115 1.28 2.296 2.725-2.296-2.567-2.115zm12.08-.812-2.044 2.268 2.467 2.267 1.87-2.267-2.293-2.268zm10.794-.518-2.142 2.259 2.82 2.258 1.05-2.542"/></g><g display="block"><path fill="#CECECD" d="m117.989 25.215 33.727 11.539 34.313-6.301 22.497 5.212L220.76 38.5l33.225-16.777-55.57.835-35.736-10.096-44.69 12.753z"/><path fill="#EBEBEB" d="m163.93 0-45.941 25.215 45.276-8.73 35.903 10.856 54.817-5.618-23.517-11.159-30.882 8.047L163.93 0z"/><path fill="#CECECD" d="m598.626 110.841-32.223 9.527-32.782-5.202-33.182 6.643-31.743-13.851 53.092.69 34.142-8.335 42.696 10.528z"/><path fill="#EBEBEB" d="m598.626 110.842-43.256-7.207-34.302 8.962-52.372-4.638 22.468-9.212 29.505 6.643 33.981-15.605 43.976 21.057z"/><path fill="#CECECD" d="m701.637 38.943 43.713 12.563 44.605-6.897 45.092 8.804 43.146-18.287-72.261.924-46.309-11.023-1.677.402-56.309 13.514z"/><path fill="#EBEBEB" d="m701.637 38.944 58.717-9.544 46.633 11.822 71.206-6.096-30.576-12.192-37.503 3.263-52.998-9.785-55.479 22.532z"/></g><g display="block"><path fill="#369395" d="m428.022 188.467-18.858 27.169-31.46 2.234 9.116-25.918 2.766-5.737 20.114 1.447 18.322.805z"/><path fill="#155E5F" d="m377.705 217.87 6.524 42.72 13.138.268 5.184-2.681 7.239-.983 9.116.358 9.205-3.039-24.13-29.225-26.276-7.418z"/><path fill="#C3977A" d="m384.23 260.59 3.663 23.685 8.49-4.111 6.167-21.987-6.167 2.681-12.153-.268z"/><path fill="#399FB9" d="m396.384 280.163 12.781 15.998h-23.416l2.145-12.513 8.49-3.485z"/><path fill="#27788B" d="m385.749 296.16.894 2.95h21.539l.983-2.95h-23.416z"/><path fill="#1C7678" d="m377.705 217.87 50.406 36.643-.073-54.261-.016-11.785-50.317 29.403z"/><path fill="#27788B" d="M400.853 285.794h-7.597l-.715 2.77h10.546l-2.234-2.77z"/><path fill="#8A6651" d="m384.23 260.591 16.622 3.665 1.698-6.078-18.32 2.413z"/><path fill="#C3977A" d="m409.791 257.194 3.663 23.416 8.401-4.111 4.558-15.909-3.932-3.396h-12.69z"/><path fill="#399FB9" d="m421.856 276.499 12.78 16.088H411.31l2.145-12.603 8.401-3.485z"/><path fill="#27788B" d="m411.31 292.586.893 2.86h21.539l.894-2.86H411.31zM426.324 282.13h-7.507l-.805 2.86 10.636-.089-2.324-2.771z"/><path fill="#8A6651" d="m409.791 257.194 16.622 3.396 1.698-6.077-18.32 2.681z"/></g><g display="block"><path fill="#1C7678" d="m469.201 178.368 1.95-11.259-21.231-3.31-6.435 4.201-5.004 10.547 30.72-.179z"/><path fill="#C3977A" d="m467.253 166.5 1.948 11.867 9.983 3.549 5.891-5.625-.975-9.453-16.847-.338z"/><path fill="#DFBCA4" d="m479.183 181.915 4.916-15.078 12.116.386.3 8.688-17.332 6.004zM483.334 163.22l-1.161-4.02-14.921 7.301 1.023 6.235 7.852-.757 7.207-8.759z"/></g><path fill="#155E5F" d="m427.22 140.741 22.7 23.059-11.44 14.747-11.26-8.044v-29.762z" display="block"/><g display="block"><path fill="#155E5F" d="m372.165 139.849 7.865 28.063-8.222 9.117-6.346 2.592-12.87-3.665 19.573-36.107z"/></g><g display="block"><path fill="#1C7678" d="m371.807 177.027 7.577 21.092-1.825 6.028-6.217.854-18.75-29.046 19.215 1.072z"/><path fill="#C3977A" d="m371.342 205 2.859 7.776 5.184-1.308 7.351-9.122-7.351-4.228-8.043 6.882z"/><path fill="#DFBCA4" d="m374.201 212.776 3.504 4.998 12.394-7.249-3.363-8.179-12.535 10.43z"/></g><g display="block"><path fill="#C3977A" d="m370.111 70.763 19.929 64.259 7.218 8.056 7.976-8.056 8.311-16.713-11.35-57.019-32.084 9.473z"/><path fill="#DFBCA4" d="m456.265 46.632-2.949 71.409-51.121.357V61.289l54.07-14.657z"/><path fill="#4F5252" d="m422.393 63.524 6.167 6.345-21.182-.892 15.015-5.453zm15.015 5.541 3.484-5.898 11.708 4.825-15.192 1.073z"/><path fill="#C3977A" d="m407.378 68.976 13.316 8.222 10.368 13.585-2.503-20.913-9.154-.386-12.027-.508zm30.03.089-.627 21.629 6.793-14.389 9.027-8.313-12.519.885-2.674.188z"/><path fill="#E8C9B6" d="m428.56 69.869 8.848-.804-.626 21.628-5.541 1.162-2.681-21.986z"/><path fill="#8A6651" d="m431.062 90.782 2.324 3.397 3.396-3.486-5.72.089z"/><path fill="#FFF" d="m423.108 101.776 9.831 6.077 9.205-5.988-8.49-.804-10.546.715z"/><path fill="#399FB9" d="m418.972 99.964 14.503 11.374 12.413-11.766-12.413 7.208-14.503-6.816z"/><path fill="#27788B" d="m422.824 101.774 19.32.091 3.744-2.293-3.922.773-8.223-2.234-8.842 2.056-5.929-.203 3.852 1.81z"/><path fill="#4F5252" d="m456.266 46.632 11.886-3.039-40.397-9.563-47.636-3.753-14.745 27.794 10.455 6.614 19.037-1.251 61.4-16.802z"/><path fill="#464646" d="m365.374 58.072 29.492 5.362-2.056 19.037-5.63 1.877-1.518-12.512-14.033 4.111-6.255-17.875zM374.847 86.046 355.9 106.512l11.561 14.946 11.944 15.442 4.573 5.472 10.45-2.932-4.388-4.417-15.193-48.977z"/><path fill="#6E7073" d="m380.12 30.277 50.138-17.875 37.894 31.192-88.032-13.317z"/><path fill="#2B2B2B" d="M420.695 73.802a3.397 3.397 0 1 1-.001 6.793 3.397 3.397 0 0 1 .001-6.793zm22.879-.805a3.307 3.307 0 1 1 0 6.614 3.307 3.307 0 0 1 0-6.614z"/><path fill="#8A6651" d="M427.756 118.22H392.81l12.424 16.802h9.294l13.228-16.802z"/><path fill="#DFBCA4" d="m376.456 91.14 11.261-2.591-2.056-16.713-13.852 4.29 4.647 15.014z"/><path fill="#8A6651" d="m382.98 82.292-.894-6.346-4.736 1.341 5.63 5.005z"/></g><g display="block"><path fill="#8BDFDC" d="m390.04 135.022-10.635 1.878-7.24 2.948 7.865 28.064 17.696 5.72 29.493-3.129V140.742l-12.691-5.72H390.04z"/><path fill="#FFF" d="m390.04 135.022 3.933 12.154 8.49-10.724 7.865 11.082 4.2-12.512H390.04z"/><path fill="#50A9AA" d="m380.031 167.911 47.189-7.685.803 28.241-41.2 3.485-6.792-24.041z"/></g><g display="block"><path fill="#6E7073" d="m309.693 238.247 5.899 66.225-2.861 7.687-16.892 5.004-15.193-33.515 3.486-21.538 25.561-23.863z"/><path fill="#27788B" d="M295.841 317.163v5.006h34.854v-5.006l-25.113-1.966-9.741 1.966zM242.216 321.99v5.094h34.32v-5.094l-26.098-1.966-8.222 1.966z"/><path fill="#6E7073" d="m241.413 251.117 1.698 59.523 22.879-4.201 43.703-68.191-24.577-.894-43.703 13.763z"/><path fill="#308FA6" d="m243.111 309.656-.895 12.335h34.32l-10.546-15.552-10.188-4.558-12.691 7.775zM295.841 317.164h34.854l-15.104-12.692-19.75 12.692z"/><path fill="#4F5252" d="m265.99 306.439 9.384-14.567-33.068-10.457.805 28.24 22.879-3.216zM280.647 283.648l3.843 7.687 28.689-14.031-3.486-39.057-29.046 45.401zM241.77 264.433l19.662-6.166-14.889-23.389-5.131 16.239.358 13.316z"/><path fill="#464646" d="m271.621 261.842 18.679 6.703 8.221-12.87-13.047-11.976-14.779-1.932.926 20.075z"/></g><path fill="#155E5F" d="m304.6 168.001 3.396 46.92 20.198-16.176-23.594-30.744z" display="block"/><g display="block"><path fill="#926C5A" d="m353.309 197.404 14.03-6.255-1.16-10.904-7.418-5.719-5.273 2.413-5.005 14.836 4.826 5.629z"/><path fill="#755345" d="m367.341 191.149 6.97-7.418-5.45-17.428-10.1 8.222 8.58 16.624z"/><path fill="#369395" d="m307.997 214.922 18.947 16.802 26.365-34.319-9.563-11.171-35.749 28.688z"/><path fill="#755345" d="m343.746 186.234 3.664-19.395 5.63-.268.716 18.59-5.273 6.614-4.737-5.541z"/></g><g display="block"><path fill="#50A9AA" d="m240.429 155.131 15.551 2.324 26.186 17.516 8.76 29.404-5.452 39.324-13.853 18.142-30.209-10.724v-15.373l-6.345-44.149-3.039-30.655 8.401-5.809z"/><path fill="#EBEBEB" d="m287.976 166.392-5.63 5.362.714-13.316 4.916 7.954z"/><path fill="#369395" d="m259.914 183.819 17.158-12.244-6.434-4.38-10.724 16.624zM282.346 171.754l10.188 1.61 6.792-3.487-11.35-3.485-5.63 5.362z"/><path fill="#71CACC" d="m285.474 243.699 13.047 11.977 11.172-17.429-5.094-70.246-17.517-10.815 12.245 12.692-16.982 1.877-.178 3.216 3.307 68.728z"/></g><g display="block"><path fill="#FFF" d="m283.061 158.438 1.609 6.613 3.307 1.341 11.35 3.485-12.244-12.69-4.022 1.251z"/><path fill="#755345" d="m272.157 148.428 2.592-25.918-11.261-43.435-28.957 24.22 10.099 46.563 17.517 17.517 8.49-.179 11.53 7.775.178-3.217 1.966-5.988-1.251-7.328-10.903-10.01z"/><path fill="#926C5A" d="m325.245 78.091-43.436-13.316-18.322 14.299 8.491 67.745 50.228-.805 3.039-67.923z"/><path fill="#755345" d="m296.913 93.553-18.589.894 10.546 6.345 5.626 9.631 4.294 7.35-1.877-24.22zM304.51 93.195l16.266.805-7.775 5.987-6.882 17.696-1.609-24.488z"/><path fill="#464646" d="m278.86 88.905-.536 5.543 18.588-.895-.356-5.273-17.696.625zM320.776 89.531l-15.909-1.162-.357 4.826 16.266.806v-4.47z"/><path fill="#51362A" d="m298.791 117.773 7.328-.089-4.38 3.486-2.948-3.397zM285.027 126.62l26.722-1.25-7.954 13.494h-10.188l-8.58-12.244z"/><path fill="#FFF" d="m288.155 128.05 20.734-1.072-2.413 4.022-15.372.894-2.949-3.844z"/><path fill="#926C5A" d="m243.826 95.609-9.295 7.686 3.306 15.104 11.262-4.558-5.273-18.232z"/><path fill="#51362A" d="m238.642 104.457 3.487-2.771 1.787 6.256-5.274-3.485zM249.1 113.84l-9.832 11.262-1.43-6.703 11.262-4.559z"/><path fill="#99796A" d="m296.913 93.552 7.597-.356 1.609 24.488-7.329.088-1.877-24.22z"/><path fill="#464646" d="m247.401 108.299 6.523-7.239-2.323-11.887 11.887-10.099-21.807-6.971-14.569 2.949 7.418 28.242 9.295-7.686 3.576 12.691z"/><path fill="#464646" d="m263.488 79.074-3.039-8.758 5.452-7.507 4.826-2.413 11.082 4.379-18.321 14.299z"/><path fill="#737373" d="m227.113 75.052 10.367-26.006 22.165 7.506 6.256 6.257-2.413 16.265-14.121-1.519-22.254-2.503z"/><path fill="#8F8F8F" d="m237.481 49.046 24.219-.715 14.031 6.882 6.078 9.562-15.909-1.966-28.419-13.763z"/><path fill="#737373" d="m281.81 64.775 13.853-2.86 2.681-6.346-.983-7.06-19.127-16.534L261.7 48.33l20.11 16.445z"/><path fill="#464646" d="m281.809 64.775 43.436 13.316-16.177-17.338-10.725-5.184-16.534 9.206z"/><path fill="#8F8F8F" d="m325.245 78.091 1.698-4.469-1.877-23.326-46.831-18.321 20.109 23.594 26.901 22.522z"/><path fill="#737373" d="m325.245 78.091 3.396 5.72 5.184.268-8.76-33.782.18 27.794z"/><path fill="#464646" d="m333.824 84.08-9.474 14.478.894-20.466 8.58 5.988z"/><path fill="#2B2B2B" d="M288.602 99.362a3.127 3.127 0 1 1 .001 6.255 3.127 3.127 0 0 1-.001-6.255zM313.894 99.273a3.218 3.218 0 0 1 0 6.436 3.218 3.218 0 0 1 0-6.436z"/><path fill="#51362A" d="m261.478 146.933 20.689 28.039 12.199-28.584-32.888.545z"/><path fill="#FFF" d="m244.63 149.858-4.201 5.273 19.484 28.687 10.724-16.622-26.007-17.338z"/></g><path fill="#155E5F" d="m232.029 160.94 12.512 22.255-.625 30.029-29.493-4.022 17.606-48.262z" display="block"/><g display="block"><path fill="#369395" d="m214.423 209.201 45.579 6.077.089 18.054-34.587 4.557-11.081-28.688z"/><path fill="#755345" d="m260.092 233.333 9.116 3.216 2.145-10.634-2.145-11.976-9.205 1.34.089 18.054z"/><path fill="#926C5A" d="m269.208 236.549 4.647-3.485 5.541-2.413.805-2.325 1.251-11.171-12.244-3.216v22.61z"/><path fill="#C4C4C4" d="m264.114 200.085 11.708 12.78 1.609.358.983-.447 9.116-12.691h-23.416z"/><path fill="#EBEBEB" d="m264.114 200.085 12.78-2.055 10.636 2.055-10.636 1.877-12.78-1.877z"/><path fill="#1C7678" d="m270.013 203.749 7.15 7.508 5.54-7.508h-12.69z"/><path fill="#50A9AA" d="m270.013 203.75 6.88-1.162 5.81 1.162-5.81 1.072-6.88-1.072z"/><path fill="#DDDDDC" d="m275.822 212.865-.268 2.771 3.216.804-.357-3.664-2.591.089z"/><path fill="#C4C4C4" d="m280.202 228.327 4.737 3.932-11.084.804 6.347-4.736z"/></g><g display="block"><path fill="#71CACC" d="m651.857 196.735-56.842-7.15-3.574 38.877 47.335 8.491 13.081-40.218z"/><path fill="#50A9AA" d="m654.003 111.92-53.088 12.512-18.59 43.793 12.691 21.36 38.252 36.643 3.128-77.933 17.607-36.375z"/><path fill="#1C7678" d="m678.4 113.708-13.495 25.65-28.51 8.937-3.485 87.139 63.096-12.513-1.429-49.691 8.401-15.193-9.831-34.498-14.747-9.831z"/><path fill="#71CACC" d="m621.024 116.478-12.96-1.519-6.435 2.592 13.317 5.988-6.207 30.36 27.28 3.822-14.995-41.243z"/><path fill="#50A9AA" d="m636.019 157.721 37.198-3.61 5.184-40.404-32.118 26.447-10.264 17.567z"/></g><g display="block"><path fill="#71CACC" d="m600.916 124.432-5.63 62.181-.27 2.973-12.781-6.345-18.767-23.595 37.448-35.214z"/><path fill="#50A9AA" d="m595.016 189.584-31.548-29.94-27.348 9.206-.804 25.024 59.7-4.29z"/><path fill="#8A6651" d="m518.29 169.073-7.107-5.853-9.741 6.434 12.201 10.336 4.647-10.917z"/><path fill="#DDDDDC" d="m511.721 161.165-.805 28.688 2.682 3.844 2.77-3.665-.536-26.99-4.111-1.877z"/><path fill="#C4C4C4" d="m511.554 167.109-19.261-20.2 39.984.76-20.723 19.44z"/><path fill="#1C7678" d="m511.79 163.89-7.367-8.138 14.874.363-7.507 7.775z"/><path fill="#50A9AA" d="m504.423 155.751 7.992-.262 6.882.625-7.418 2.145-7.456-2.508z"/><path fill="#EBEBEB" d="m532.277 147.669-19.993 1.755-19.991-2.514 20.053-2.766 19.931 3.525z"/><path fill="#C4C4C4" d="m510.827 188.512 2.681 3.843 2.77-3.664 11.351 5.81-15.104 6.703-11.976-5.274 10.278-7.418z"/><path fill="#C3977A" d="m530.263 176.087-16.665 19.665-10.457-8.491-1.698-17.607 28.82 6.433z"/><path fill="#8A6651" d="m535.316 193.874.804-25.023-11.887-5.632-5.541.358.626 12.245-5.72 19.929 21.718-1.877z"/><path fill="#C3977A" d="m536.12 168.85-11.888-5.63-2.054.089-2.146 7.419 15.909 5.184.179-7.062z"/><path fill="#DFBCA4" d="m524.233 163.22-8.4-.179-4.916 8.729 8.401 4.053 4.915-12.603z"/></g><g display="block"><path fill="#155E5F" d="M666.068 317.925v6.881h40.484l-.625-6.881-25.114-4.469-14.745 4.469zM590.548 308.63v6.077h47.188l-.268-6.077-22.969-3.843-23.951 3.843z"/><path fill="#27788B" d="m649.981 272.167-20.467-15.91-30.387 6.257 6.346 27.884 10.278 11.619 21.717 6.614 12.513-36.464z"/><path fill="#399FB9" d="m640.507 254.023 2.771-18.231 52.729-12.871-.982 40.397-23.595 11.709-21.449-2.86-9.474-18.144z"/><path fill="#27788B" d="m591.441 228.463 49.065 25.561 55.501-31.102-104.566 5.541z"/><path fill="#155E5F" d="m605.473 290.398 31.995 18.232h-46.92l14.925-18.232zM694.22 297.369l-13.316.09-12.602 10.009-2.234 10.457h39.86l-11.708-20.556z"/><path fill="#308FA6" d="m599.127 262.513 50.854 9.653-9.474-18.144-49.066-25.56.109.483 7.577 33.568zM649.981 272.166l45.044-8.848-.805 34.051-25.918 10.099-18.321-35.302z"/></g><g display="block"><path fill="#DFBCA4" d="m634.161 26.377-29.379 13.268-26.391-8.675 11.242 103.919 34.909-2.49 11.729 24.712 12.726-34.275 20.584-22.334 5.156-6.595 3.662-3.138-.042-29.933-16.627-2.143-7.102 25.45-8.635-4.111 17.103-44.84-28.935-8.815z"/><path fill="#C3977A" d="m634.161 26.377 9.368 104.168-18.986 1.854 6.856 11.129 4.873 13.583 6.348-12.269 10.39-4.67 25.389-26.465V94.364l-9.552-8.563-9.555-3.58-6.403-3.565 10.812-46.695-29.54-5.584z"/><path fill="#8A6651" d="m665.587 76.519 1.094-8.93 7.638 1.264-8.732 7.666zM678.4 85.034l-19.108-2.813L678.4 94.365v-9.331zM604.23 89.448l5.953 4.31 4.583-5.31-10.536 1z"/><path fill="#C3977A" d="m626.336 61.739-8.082 4.1-3.488 22.61-3.79-17.227 1.22-12.529 14.14 3.046zM601.57 59.849l4.813 10.404-2.977 10.048-8.024-14.486-7.279-2.476 13.467-3.49z"/><path fill="#8A6651" d="m644.026 130.416 8.983 9.756-16.991 17.548-11.475-25.322 19.483-1.982z"/><path fill="#464646" d="m601.254 55.792-13.598 2.994.448 4.552 13.466-3.489-.316-4.057zM611.826 54.625l14.818 2.604-.307 4.51-14.14-3.046-.371-4.068z"/><path fill="#8A6651" d="m634.508 96.903-42.402 4.12 19.472 9.454 22.93-13.574z"/><path fill="#FFF" d="m623.775 100.501-22.862 2.148 9.436 5.087 1.307.705 12.119-7.94z"/><path fill="#464646" d="m622.092 4.937 31.735 9.994-9.796 9.428-9.87 2.018-29.758 16.18 5.935-18.926 11.754-18.694z"/><path fill="#737373" d="m653.827 14.93 25.904 8.996-11.751 9.249-8.47 2.609-25.349-9.406 19.666-11.448z"/><path fill="#464646" d="m679.732 23.925-1.372 37.887-15.912-.774-3.156 21.183-12.928-3.161 13.145-43.277 20.223-11.858z"/><path fill="#8F8F8F" d="m604.404 42.556 17.688-37.618-42.398 26.295 24.71 11.323z"/><path fill="#2B2B2B" d="M596.253 66.41c1.853.391 2.96 2.092 2.568 3.945-.391 1.853-2.104 3.016-3.957 2.625-1.853-.392-2.947-2.148-2.555-4.001.391-1.853 2.09-2.961 3.944-2.569zM621.021 64.957a3.355 3.355 0 0 1 2.613 4.012 3.391 3.391 0 0 1-4.013 2.613c-1.797-.379-2.937-2.204-2.557-4.001.392-1.853 2.16-3.004 3.957-2.624z"/><path fill="#E8C9B6" d="M612.197 58.693 601.57 59.85l2.66 29.599 10.536-1-2.569-29.756z"/></g><g display="block"><path fill="#8A6651" d="m654.716 183.149 1.072 7.419 9.116.714 8.044-5.182-15.64-4.916-2.592 1.965z"/><path fill="#DDDDDC" d="m652.66 183.686-.804 28.688 2.86 6.346 2.59-6.167 1.61-33.023-6.256 4.156z"/><path fill="#C4C4C4" d="m654.448 186.188-14.836-16.176 33.604-1.34-18.768 17.516z"/><path fill="#EBEBEB" d="m673.216 168.672-18.231 4.111-15.373-2.771 15.373-7.151 18.23 5.811zM651.857 212.375l2.592 3.843 2.859-3.664 9.026 6.166-11.706 5.81-13.228-6.793 10.457-5.362z"/><path fill="#71CACC" d="m693.147 123.538 1.43 49.691 18.768 11.351 23.752 3.024-15.083-22.508-28.867-41.558z"/><path fill="#50A9AA" d="m694.577 173.228 42.52 14.375-63.524 21.107-.625-22.611 21.629-12.871z"/><path fill="#DFBCA4" d="m673.574 208.71-.625-22.611-17.161 4.468 1.519 21.986 16.267-3.843z"/><path fill="#8A6651" d="m655.789 190.567 1.519 21.986-15.372-9.116.357-17.696 13.496 4.826z"/><path fill="#1C7678" d="m654.449 184.133-7.51-8.491 16.447-.715-8.937 9.206z"/><path fill="#50A9AA" d="m646.94 175.642 8.313-1.43 8.132.715-8.757 2.503-.223-.052-7.464-1.736z"/></g><path fill="#27788B" d="m551.614 257.495 6.181-10.181-13.634-17.997 7.453 28.178z" display="block"/><g display="block"><path fill="#27788B" d="M542.252 304.895c-.068.068-4.637.954-4.637.954l-3.454 9.818 10.909.002.526-2.44.927-4.29-4.271-4.044z"/><path fill="#308FA6" d="m536.981 299.123.636 6.727 8.906 3.089 2.818-12.632-12.36 2.816z"/><path fill="#27788B" d="m551.796 294.033-14.18 11.816-10.784-.727-2.486-10.634 22.723-4.861 4.727 4.406z"/><path fill="#308FA6" d="m556.704 295.852 3.907 21.451 13.725-.818-4.908-12.18-12.724-8.453zM548.069 288.171l-13.907 7.317-7.33 9.635-10.791-16.952 36.664-20.678-4.636 20.678z"/><path fill="#399FB9" d="M541.615 272.038v6.544l-7.453 16.905 35.266 8.817-10.361-23.882-17.452-8.384zM543.615 269.492l-7.272-9.044 21.452-13.134-5.091 14.362-9.089 7.816z"/><path fill="#73CFE4" d="m521.528 280.422-4.637-9.987 19.451-9.987 16.362 1.227 4.908 10.362 1.455 8.385-17.453-1.841-20.086 1.841z"/></g><g display="block"><path fill="#5EC0D9" d="m520.506 299.124 1.386-9.496 19.722-11.046-20.087-4.5-22.267 2.319 3.999 15.997 16.36 6.726"/><path fill="#399FB9" d="m505.258 296.669-1.454 7.635H492.4l4.177-13.27 8.681 5.635z"/><path fill="#308FA6" d="m505.257 296.669-1.454 7.634-4.362 19.088-12.908-.455 5.867-18.633 12.857-7.634z"/><path fill="#27788B" d="m518.711 300.669-5.728 3.636h-9.179l-11.999-17.952 13.453-4.022 4.75 3.954 1.612 5.022 7.091 9.362z"/><path fill="#308FA6" d="m519.619 302.2-6.636 1.94-12.486 24.194 14.562.348 1.923-3.382 2.637-23.1z"/><path fill="#399FB9" d="m511.621 291.306 1.362 12.998 4 20.997 9.848-20.179-4.94-15.495-10.27 1.679z"/></g><g display="block"><path fill="#308FA6" d="m493.204 281.854-1.397 4.498 8.453 3.955 9.749-4.023-6.681-7.703-10.124 3.273z"/><path fill="#73CFE4" d="m487.786 273.502-4.5 3.443 8.521 9.407 8.453-2.113 9.75 2.045 11.52-12.202-33.744-.58z"/><path fill="#308FA6" d="M491.875 262.766h-9.68l1.091 14.18 13.293 3.476 3.817-2.318 4.431 2.318 16.702-6.34-1.022-13.634-28.632 2.318z"/><path fill="#27788B" d="m508.918 255.88.34-3.136 13.906-6.679-2.657 14.382-11.589-4.567zM496.579 256.835l-4.228-4.09-13.974-6.681 3.818 16.702 14.384-5.931z"/><path fill="#399FB9" d="m500.26 274.083-1.704-1.704-16.36-9.612s9.884-10.022 10.157-10.022h16.906l11.247 7.704-18.609 11.589-1.637 2.045z"/><path fill="#73CFE4" d="m498.556 272.377-1.977 8.045 3.614 1.432 4.634-1.432-2.93-8.386-3.341.341z"/><path fill="#27788B" d="M496.579 280.421h8.248l-4.567 3.818-3.681-3.818z"/><path fill="#2B2B2B" d="M496.101 273.502a2.897 2.897 0 1 1-5.794 0 2.897 2.897 0 0 1 5.794 0zM511.032 273.502a2.898 2.898 0 1 1-5.795-.001 2.898 2.898 0 0 1 5.795.001z"/></g><g display="block"><path fill="#755345" d="m872.294 138.776-1.252-12.422 5.45-20.825 13.855 11.619-4.826 22.344-8.403 8.401-4.021-.09-5.63 3.754-.09-1.52-.894-2.86.627-3.575 5.184-4.826z"/><path fill="#51362A" d="m877.478 138.079-10.1 11.959-2.055-6.524-.18-.538-16.891-5.362 29.226.465z"/><path fill="#926C5A" d="m846.822 105.083 20.824-6.435 8.848 6.882-4.111 32.532-24.131-.447-1.43-32.532z"/><path fill="#755345" d="m860.408 112.501 8.936.357-5.005 3.039-4.825 8.222.894-11.618zM856.743 112.322l-7.776.357 3.754 2.86 3.306 8.491.716-11.708z"/><path fill="#464646" d="m869.077 110.266.267 2.593-8.936-.358.178-2.592 8.49.357zM848.967 110.534l7.597-.535.177 2.324-7.774.356v-2.145z"/><path fill="#51362A" d="m859.514 124.119-3.486-.089 2.145 1.698 1.34-1.609zM866.574 128.052l-4.56 1.162-8.4-.358.805 1.43 8.4.626 3.397-1.251.358-1.609z"/><path fill="#926C5A" d="m885.968 113.484 4.379 3.665-1.521 7.239-5.451-2.145 2.593-8.759z"/><path fill="#51362A" d="m888.38 117.684-1.698-1.341-.805 3.04 2.504-1.699zM883.377 122.243l4.735 5.362.715-3.217-5.45-2.145z"/><path fill="#99796A" d="m860.407 112.501-3.665-.178-.715 11.707 3.486.089.894-11.618z"/><path fill="#464646" d="m884.18 119.562-3.128-3.486 1.072-5.72-5.63-4.826 10.457-3.306 6.97 1.34-3.574 13.585-4.38-3.665-1.787 6.078z"/><path fill="#464646" d="m876.494 105.53 1.43-4.201-2.592-3.575-2.323-1.162-5.363 2.056 8.848 6.882z"/><path fill="#737373" d="m893.922 103.564-4.916-12.422-10.725 3.574-2.95 3.039 1.163 7.775 6.792-.715 10.636-1.251z"/><path fill="#8F8F8F" d="m889.006 91.141-11.62-.357-6.791 3.306-2.95 4.558 7.686-.894 13.675-6.613z"/><path fill="#737373" d="m867.647 98.648-6.614-1.34-1.341-3.039.537-3.396 9.205-7.955 7.954 7.865-9.741 7.865z"/><path fill="#464646" d="m867.647 98.648-20.824 6.435 7.775-8.311 5.095-2.503 7.954 4.379z"/><path fill="#8F8F8F" d="m846.822 105.083-.805-2.234.895-11.171 22.52-8.759-9.74 11.35-12.87 10.814z"/><path fill="#737373" d="m846.823 105.083-1.61 2.771-2.501.089 4.2-16.266-.09 13.406z"/><path fill="#464646" d="m842.71 107.942 4.559 6.971-.448-9.83-4.11 2.859z"/><path fill="#2B2B2B" d="M864.429 115.271a1.52 1.52 0 1 1-.002 3.042 1.52 1.52 0 0 1 .002-3.042zM852.275 115.182a1.608 1.608 0 1 1-.003 3.217 1.608 1.608 0 0 1 .003-3.217z"/></g><g display="block"><path fill="#926C5A" d="m833.327 162.372-6.703-3.039.536-5.185 3.575-2.77 2.502 1.162 2.413 7.061-2.323 2.771z"/><path fill="#755345" d="m837.975 156.918-1.788-9.294-2.681-.09-.357 8.937 2.502 3.129 2.324-2.682zM826.624 159.332l-3.307-3.575 2.592-8.401 4.826 4.022-4.111 7.954z"/><path fill="#155E5F" d="m856.742 148.25-1.608 22.522-9.742-7.775 11.35-14.747z"/><path fill="#369395" d="m855.134 170.772-9.117 8.043-12.691-16.444 4.648-5.452 17.16 13.853z"/></g><g display="block"><path fill="#464646" d="m854.241 181.943-2.771 31.817 1.341 3.664 8.133 2.413 7.328-16.087-1.698-10.367-12.333-11.44z"/><path fill="#101210" d="M860.944 219.837v2.413H844.23v-2.413l12.066-.983 4.648.983z"/><path fill="#4F5252" d="m887.041 188.11-.805 28.6-10.992-2.057-21.003-32.71 11.797-.447 21.003 6.614z"/><path fill="#2B2B2B" d="M860.944 219.836H844.23l7.239-6.076 9.475 6.076z"/><path fill="#464646" d="m875.244 214.653-4.469-6.971 15.908-5.005-.626 22.076-10.813-10.1zM868.272 203.751l-1.877 3.664-13.763-6.703 1.609-18.769 14.031 21.808zM886.862 194.456l-9.563-2.949 9.742-3.397-.179 6.346z"/></g><g display="block"><path fill="#50A9AA" d="m887.488 142.083-7.418 1.072-12.602 8.401-4.11 14.121 2.591 18.858 6.613 8.58 14.479-5.005v-7.329l3.039-21.181 1.518-14.746-4.11-2.771z"/><path fill="#FFF" d="m885.522 139.491 1.965 2.593-9.293 13.763-5.095-8.043 12.423-8.313zM867.112 143.602l-.806 3.217-1.607.626-5.453 1.698 5.898-6.166 1.968.625z"/><path fill="#EBEBEB" d="m864.698 147.445 2.68 2.592-.268-6.434-2.412 3.842z"/><path fill="#369395" d="m878.194 155.845-8.224-5.897 3.128-2.145 5.096 8.042zM867.379 150.037l-4.827.804-3.307-1.698 5.452-1.698 2.682 2.592z"/><path fill="#71CACC" d="m865.949 184.534-6.256 5.81-5.452-8.401 2.502-33.693 8.401-5.274-5.898 6.166 8.133.894.09 1.52-1.52 32.978z"/></g><g display="block"><path fill="#369395" d="M878.103 170.86v8.758l16.623 2.146L899.999 168l-21.896 2.86z"/><path fill="#155E5F" d="m885.611 155.488.267 14.389 14.121-1.876-8.401-23.148-5.987 10.635z"/><path fill="#755345" d="m878.103 179.618-4.379 1.52-.983-5.095.983-5.719 4.379.536v8.758z"/><path fill="#926C5A" d="m873.724 181.138-2.234-1.698-2.682-1.162-.357-1.162-.537-5.362 5.81-1.43v10.814z"/><path fill="#C4C4C4" d="m876.137 163.62-5.541 6.168-.805.178-.448-.268-4.468-6.078h11.262z"/><path fill="#DDDDDC" d="m876.137 163.62-6.078-.983-5.184.983 5.184.895 6.078-.895z"/><path fill="#1C7678" d="m873.367 165.408-3.486 3.576-2.592-3.576h6.078z"/><path fill="#50A9AA" d="m867.29 165.408 2.769.447 3.307-.447-3.307-.537-2.769.537z"/><path fill="#DDDDDC" d="m870.596 169.787.089 1.252-1.52.447.179-1.788 1.252.089z"/><path fill="#C4C4C4" d="m868.451 177.116-2.234 1.966 5.272.358-3.038-2.324z"/></g><g display="block"><path fill="#754F40" d="M803.788 148.724c.152-.153.453-2.296.787-2.704.335-.408 2.682-4.183 2.682-4.183l4.897 3.194-1.071 4.05-7.295-.357z"/><path fill="#56392E" d="m799.049 149.857-.981 4.155 5.464-.67 7.552-4.261-6.509-3.061-5.526 3.837z"/><path fill="#754F40" d="m800.624 144.227-1.575 5.631s1.422 2.489 1.575 2.489c.153 0 2.725-2.33 2.725-2.33l-1.45-5.527-1.275-.263z"/><path fill="#464646" d="m785.781 146.728 10.278 10.457-7.009 5.333-3.269-2.293v-13.497z"/><path fill="#6E7073" d="m803.532 153.343-4.483-3.485-9.999 12.66 5.803 3.29 8.679-12.465z"/></g><g display="block"><path fill="#858585" d="m769.069 144.227-4.827.805-3.307 1.34 3.575 12.691 8.044 2.592 13.227-1.43v-13.496l-5.721-2.502-5.138 4.916-5.853-4.916z"/><path fill="#6E7073" d="m764.511 159.062 21.271-3.485.357 12.781-18.59 1.519-3.038-10.815z"/></g><g display="block"><path fill="#464646" d="m760.936 146.372 3.574 12.691-3.753 4.111-2.86 1.162-5.811-1.609 8.85-16.355z"/><path fill="#6E7073" d="m760.758 163.174 4.35 6.703-1.669 7.354-11.351-14.504 8.67.447z"/></g><g display="block"><path fill="#56392E" d="m760.041 115.18 9.027 29.047 5.854 4.915 5.139-4.915-5.541-33.337-14.479 4.29z"/><path fill="#754F40" d="m798.92 104.277-1.341 32.263-23.059.179V110.89l24.4-6.613z"/><path fill="#399FB9" d="m783.637 111.874 2.771 2.86-9.564-.358 6.793-2.502zM790.428 114.465l1.609-2.77 5.273 2.234-6.882.536z"/><path fill="#56392E" d="m776.845 114.375 6.076 3.665 4.648 6.167-1.161-9.474-9.563-.358zM790.428 114.465l-.268 9.741 3.039-6.524 4.111-3.754-6.882.537z"/><path fill="#7E5A4A" d="m786.407 114.734 4.02-.268-.267 9.741-2.503.537-1.25-10.01z"/><path fill="#33221B" d="m787.569 124.207.983 1.52 1.609-1.52h-2.592z"/><path fill="#FFF" d="m783.937 129.122 4.469 2.772 4.521-2.633-4.164-.407-4.826.268z"/><path fill="#399FB9" d="m781.839 128.12 6.802 5.382 5.51-5.032-5.51 2.976-6.802-3.326z"/><path fill="#27788B" d="m783.815 129.122 8.814.17 1.523-.823-1.757.118-3.754-1.073-3.843.983-2.96-.377 1.977 1.002z"/><path fill="#308FA6" d="m798.92 104.277 5.362-1.341-18.233-4.379-21.449-1.698-7.508 12.154 7.954 3.844 6.167-.983 27.707-7.597z"/><path fill="#27788B" d="m760.758 117.593-3.666-8.58 14.122 2.86-.893 8.58-2.593.894-.714-5.719-2.414 3.306-3.842-1.341zM754.769 133.769l9.474 11.261 4.826-.804-7.418-23.862-6.882 13.405z"/><path fill="#399FB9" d="m764.6 96.859 22.611-8.043 17.071 14.12-39.682-6.077z"/><path fill="#2B2B2B" d="M782.921 116.52a1.52 1.52 0 1 1-.002 3.042 1.52 1.52 0 0 1 .002-3.042zM793.199 116.163a1.52 1.52 0 1 1 0 3.04 1.52 1.52 0 0 1 0-3.04z"/><path fill="#33221B" d="M786.05 136.629h-15.73l7.639 9.608 2.102-2.011 5.989-7.597z"/><path fill="#754F40" d="m762.902 124.386 5.094-1.162-.984-7.598-6.256 1.967 2.146 6.793z"/><path fill="#33221B" d="m765.851 120.364-.447-2.86-2.145.626 2.592 2.234z"/><path fill="#27788B" d="m804.282 102.936-5.81 11.708.448-10.367 5.362-1.341z"/></g><g display="block"><path fill="#858585" d="m716.518 200.89 84.367 5.249 9.563 17.362-3.307 33.068-9.602 8.665-13.633-1.916.193-16.724-61.07-4.682-2.581 12.111-13.224-1.923 9.294-51.21z"/><path fill="#399FB9" d="m716.518 200.889 84.368 5.25 9.563 17.361-3.307 33.069-8.32-19.616-98.451-12.423 16.147-23.641z"/><path fill="#5EC0D9" d="m886.684 198.625-90.013-13.197-80.153 15.462 83.278 14.567 42.827 11.083 44.06-27.915z"/><path fill="#737373" d="m799.796 215.457 86.888-16.832 8.586 45.793-13.1 2.789-3.843-8.735-64.929 8.274-.67 15.254-15.188 3.235 2.256-49.778z"/><path fill="#308FA6" d="m799.796 215.457-.974 21.496L900 219.836l-13.316-21.211-86.888 16.832z"/><path fill="#CECECD" d="m795.971 173.095-.539 3.678 3.845-1.98-.297 10.974-2.74 3.147-1.492 3.164 1.924 2.639 6.678-8.309-2.464-16.531-4.915 3.218z"/><path fill="#2B2B2B" d="m746.816 200.89 52.729 9.116 60.328-9.742-58.987-8.592-54.07 9.218z" opacity=".1"/><path fill="#EBEBEB" d="m796.707 197.763-23.301 3.563-10.943-3.504-1.528 2.435 12.885 3.752 24.323-3.733-1.436-2.513z"/><path fill="#CECECD" d="m796.707 197.763-23.301 3.563-10.943-3.504.295-31.566 33.897 1.626.052 29.881z"/><path fill="#1C7678" d="m773.407 201.325 23.3-3.562-.036-20.126-15.55-1.168-18.476 1.944-.182 19.41 10.944 3.502z"/><path fill="#EBEBEB" d="m762.758 166.256 19.999 3.796 13.897-2.17-7.161-3.294-18.501.121-8.234 1.547z"/><path fill="#50A9AA" d="m762.645 178.413 8.111 3.351 13.158-1.966 7.091.536 5.666-2.62-15.636-2.206-18.39 2.905z"/><path fill="#71CACC" d="m784.352 188.109-1.698-.804.804-1.608 1.43.714-.536 1.698zM774.253 186.947l2.592 1.162-1.431 2.414-2.413-1.519 1.252-2.057zM769.337 183.372l1.072 1.431-1.251.715-.625-.805.804-1.341zM781.493 193.025l-.09 1.698 2.77.536-.18-2.324-2.5.09zM775.95 195.974l-.624.894 1.162.714.714-.714-1.251-.894z"/><path fill="#DDDDDC" d="m824.212 188.168-.357 11.271 1.162 1.507 1.34-1.437-1.073-8.756-1.072-2.585z"/><path fill="#C4C4C4" d="m825.285 190.753-6.971-7.968 14.13.061-7.159 7.907z"/><path fill="#EBEBEB" d="m832.444 182.846-7.159 1.016-6.971-1.077 7.065-1.665 7.065 1.726z"/><path fill="#DDDDDC" d="m823.934 196.938 1.082 1.264 1.059-1.132 4.024 2.733-5.083 1.143-5.675-.993 4.593-3.015z"/><path fill="#1C7678" d="m825.374 189.317-3.307-3.661 7.15-.287-3.843 3.948z"/><path fill="#50A9AA" d="m822.068 185.656 3.663-.574 3.485.286-3.842 1.078-3.306-.79z"/><path fill="#DDDDDC" d="m838.512 188.521-.357 11.271 1.162 1.507 1.34-1.437-1.073-8.756-1.072-2.585z"/><path fill="#C4C4C4" d="m839.584 191.105-6.971-7.967 15.194-.503-8.223 8.47z"/><path fill="#EBEBEB" d="m847.807 182.634-8.223 1.581-6.971-1.077 7.596-2.019 7.598 1.515z"/><path fill="#DDDDDC" d="m838.209 198.073 1.27.87.959-.87 5.18 3.175-5.966 1.211-5.966-1.513 4.523-2.873z"/><path fill="#1C7678" d="m839.585 189.669-3.218-3.661 7.06-.287-3.842 3.948z"/><path fill="#50A9AA" d="m836.367 186.009 3.574-.574 3.486.287-3.753 1.077-3.307-.79z"/><path fill="#DDDDDC" d="m811.253 192.978-.357 11.271 1.25 1.507 1.252-1.437-.983-8.756-1.162-2.585z"/><path fill="#C4C4C4" d="m812.415 195.562-7.854-8.978 15.886.185-8.032 8.793z"/><path fill="#EBEBEB" d="m820.448 186.768-8.122 1.903-7.766-2.087 8.167-1.503 7.721 1.687z"/><path fill="#DDDDDC" d="m810.977 201.694 1.17.832.943-.951 5 3.211-6.14 1.457-5.746-1.6 4.773-2.949z"/><path fill="#1C7678" d="m812.416 194.414-3.218-3.661 7.06-.287-3.842 3.948z"/><path fill="#50A9AA" d="m809.198 190.753 3.574-.574 3.486.287-3.754 1.077-3.306-.79z"/></g></g></svg>