<svg xmlns="http://www.w3.org/2000/svg" width="900" height="350" style="width:100%;height:100%;content-visibility:visible" viewBox="0 0 900 350"><defs><clipPath id="a"><path d="M0 0h900v350H0z"/></clipPath></defs><g clip-path="url(#a)"><g display="block"><path fill="#D0CFCE" d="m486.162 82.875 17.517-14.625 169.184-28.602 224.695 20.698-9.599 219.904-399.79-38.375-2.007-159z"/><path fill="#CCAF3D" d="m503.219 30.374-17.057 52.5 17.517-14.624 393.88-7.904L900 1.25 503.219 30.374z"/><path fill="#C5C5C4" d="m4.013 60.25 347.152-12.666L503.679 68.25l-.46 180.625L21.07 329.25l-17.057-269z"/><path fill="#B48E3E" d="m4.013 60.25 499.665 8-.459-37.875L0 0l4.013 60.25z"/><g opacity=".1"><path fill="#3C3C3C" d="m284.615 332.25-63.45-4.673 8.935-1.994-74.247-11L47.157 275.25l-28.763 14 2.676 40 24.749 11 88.629 9.75 24.852-8.619 48.812 3.786 76.503-12.917zM462.365 325.722l-59.956-10.532-64.789 7.954 43.912 12.448 80.833-9.87zM462.876 284.916l-93.145 21.833 296.489 27.5 113.378-47.333-49.164-5.667-267.558 3.667zM738.461 315.75l79.264-5.5 59.197 15.5-67.726 13-70.735-23zM86.287 127.75l-36.121-28.5-8.026 117 91.304-8.5-1.505-27.5-45.652-52.5z" opacity="1"/></g><path fill="#DEDEDC" d="m84.281 140.75-33.11 43.5 5.184 21.167 88.796-5.834-4.181-27.166-56.689-31.667z"/><path fill="#ECECEB" d="m50.166 99.25 1.004 85 89.8-11.833-2.007-73.167H50.166z"/><path fill="#CCAF3D" d="m67.725 129.583-6.521-12 9.197-.166 2.174-8.334 9.699 5.334 4.347-6.5 4.683 13.5-23.579 8.166z"/><path fill="#DEDEDC" d="m62.542 142.249 68.227-1 .168 5.334-68.562.5.167-4.834zM62.542 154.416l68.227-1 .168 5.334-68.562.5.167-4.834zM62.876 167.083l68.227-1 .168 5.334-68.562.5.167-4.834z"/><path fill="#D0CFCE" d="m66.089 188.569 68.147-3.471.361 5.325-68.499 2.983-.009-4.837z"/><path fill="#DEDEDC" d="m98.83 116.249 30.435.168-.335 4.666-30.435-.666.335-4.168z"/><path fill="#BB913D" d="m178.595 315.124-.878 10.376-13.043-.75-2.97-7.5 16.891-2.126z"/><path fill="#9F7D3C" d="m52.674 317.417 3.846 15.166 14.549-3.5 4.515-15.166-22.91 3.5z"/><path fill="#E2AB4B" d="m107.189 314.584 25.25 23.166 12.163-3.17 1.55-8.663 31.941-9.666-.376 9.249 4.458-1.28 23.342-29.97-8.027-20.666-86.957 21.333-3.344 19.667z"/><path fill="#BB913D" d="m43.309 284.417 1.171 47.5 12.04.667 3.01-8.834 55.853 3.167 2.174 9.667 14.882 1.166v-30.5l-89.13-22.833z"/><path fill="#C5C5C4" d="m98.827 287.75 33.612 19.5 76.756-13.5 5.018-33.834h-90.97L98.827 287.75z"/><path fill="#9EA2A3" d="m135.283 259.583-1.338 12.167-1.505 35.5-98.328-9.5 8.194-34.167 92.977-4z"/><path fill="#ECECEB" d="m42.306 263.583 91.639 8.167 76.757-9-67.726-9-100.67 9.833z"/><path fill="#3C3C3C" d="m91.304 263.999 27.467-4.374 27.592.624 4.766 7 22.7 15 1.505 5-36.705 6.5 2.341-22.874-2.509-2.126-7.023-.624-40.134-4.126z" opacity=".1"/><path fill="#E2AB4B" d="m141.973 268.375-1.003 2.5 2.633 18.375 33.989-4.563-5.581-18.375-30.038 2.063z"/><path fill="#F0BD6D" d="m120.652 265.5 20.317 5.375 31.041-4.563-17.872-4.687-33.486 3.875z"/><path fill="#C3997F" d="m154.048 279.265-4.276-.225.713-.972h2.851l-1.201-1.607-1.282.055-.256-1.401h-1.05l-.111 1.568-2.028 2.021 1.088 1.608h3.264l.113 1.047-3.377.486.188 1.495 2.347-.143.091 1.302 1.726-.112-.583-1.266.696-.043 1.087-3.813zM154.199 277.433l1.049-2.393 3.489-.225.977 3.478-2.328 2.468 2.815-.225.112 1.421-4.052.934-.562-2.43 2.064-2.467-.639-1.533-1.725 1.084-1.2-.112zM164.342 275.446l-1.471-1.379-2.207.203-.614 3.407.614 2.271 2.084 1.784 1.84-.324.94-2.961-1.186-3.001zm-.899 4.015-1.104-.284-.653-1.662.449-.933h.532l.776.608.368 1.5-.368.771zM170.231 274.586l-1.47-1.379-2.209.203-.612 3.407.612 2.271 2.086 1.784 1.839-.324.94-2.961-1.186-3.001zm-.898 4.015-1.104-.284-.655-1.663.45-.932h.532l.777.608.368 1.5-.368.771zM141.66 267.843l-1.6-.812-2.446.656 3.606 1.687 4.233-.812-1.38-.969-2.413.25zM144.184 265.953l1.348 2.531 1.599-.313-.188-.75 1.379-.281 1.004.594 2.288-.531-4.263-1.969-3.167.719zm2.461.859-.157-.547.784-.265.579.562-1.206.25zM154.531 264.5l-1.177-.562-4.217.874 1.364.719 1.082-.25 1.631 1.375 2.101-.469-2.353-1.328 1.569-.359zM159.783 264.484l-1.568.469-.517-.266 1.379-.437-.783-.391-1.286.453-.423-.25.925-.5-.753-.359-2.257.515 3.495 1.985 2.979-.657-1.191-.562z"/><path fill="#AD9448" d="m111.597 225.347 2.243-4.931 4.429 1.459-.46 6.797-6.27 1.548.058-4.873z"/><path fill="#90813F" d="m109.87 231.882-1.149-3.21.517-7.052 4.602-1.204-.201 8.155-3.769 3.311z"/><path fill="#CCAF3D" d="m116.659 244.266 5.867-7.453-4.717-8.141-4.17-.1-8.915 11.802 11.935 3.892z"/><path fill="#AD9448" d="m104.924 242.66-4.257-6.306 8.053-7.683 4.919-.099-4.4 8.302-4.315 5.786zM106.19 245.413l4.688 19.836 12.252-2.751-.604-25.685-13.287.062-3.049 8.538z"/><path fill="#90813F" d="m100.668 236.355.028 27.002 10.44 1.892-1.896-28.375-8.572-.519z"/><path fill="#CCAF3D" d="m111.998 244.75 8.856-.483-.116 7.108-7.535.574-1.205-7.199z"/><path fill="#AD9448" d="m135.677 226.347 2.244-4.931 3.796 1.262.172 6.994-6.27 1.548.058-4.873z"/><path fill="#90813F" d="m133.952 232.882-1.151-3.21-1.364-7.048 6.484-1.208-.202 8.155-3.767 3.311z"/><path fill="#CCAF3D" d="m140.74 245.266 5.868-7.453-4.719-8.141-4.169-.1-5.264 11.91 8.284 3.784z"/><path fill="#AD9448" d="m129.005 243.66-4.257-6.306 8.054-7.683 4.918-.099-.431 8.126-8.284 5.962zM130.27 246.413l4.688 19.836 13.537-2.875-1.888-25.561-9.319-.114-7.018 8.714z"/><path fill="#90813F" d="m124.748 237.355-1.212 27.894 11.681 1 2.071-28.551-12.54-.343z"/><path fill="#CCAF3D" d="m138.381 245.783 7.306-.517.425 7.734-8.076-.05.345-7.167z"/></g><path fill="#937061" d="m806.754 179.927-4.121-11.214-35.697 2.72 16.849 16.372 19.263 2.758 3.706-10.636z" display="block"/><path fill="#B1907E" d="m846.067 191.341 10.291-20.654 17.927 31.816-8.493 11.306-4.647-.522-11.212-12.027-3.866-9.919z" display="block"/><g display="block"><path fill="#937061" d="m878.883 233.139-5.608.608-2.826 9.735 3.024 3.196 4.271-8.998-.444 8.194 3.261 10.125 8.528-4.625.72-12.532-10.926-5.703z"/><path fill="#B1907E" d="m876.045 222.408 6.146 5.007 7.712 11.459-12.604 7-5.196-14.722 3.942-8.744z"/><path fill="#937061" d="m873.274 233.747-12.129-20.46 13.14-10.786 7.904 24.914-8.915 6.332z"/></g><g display="block"><path fill="#6D5247" d="m757.763 157.032-4.669 4.352-15.607-2.393 6.73-22.459 10.723 6.444 2.823 14.056z"/><path fill="#ECECEB" d="m761.399 140.157-4.18-24.167-24.248-.333-4.682 24.333 13.151 12.752-.903 19.919-7.106 2.997 7.411 4.261 13.284-2.511-7.871-5.271-.091-18.61 15.235-13.37z"/><path fill="#E4C837" d="m756.382 138.824-9.336 8.343-6.717-.175-7.191-8.501 1.56-8.616 19.816.125 1.868 8.824z"/><path fill="#B1907E" d="m755.352 159.249 5.121-6.625-5.532-9.648-10.221-3.069-1.005 4.75 4.391 2 2.586 7.179 4.66 5.413zM742.169 140.824l-10.619 2.333 5.937 15.835 5.853-2-1.171-16.168zM756.27 167.375l8.905 17.667 18.611 2.763-18.486-27.43-5.45.45-3.58 6.55z"/><path fill="#CCAF3D" d="m760.473 152.625-7.379 8.758 3.177 5.992 9.029-7-4.827-7.75z"/></g><g display="block"><path fill="#B48E3E" d="m804.298 192.84-4.729 6.753 7.644 27.789 1.079 8.114 17.4-.128 24.359-1.558-.112-6.497 1.532-25.206-47.173-9.267z"/><path fill="#CCAF3D" d="m812.065 169.122-9.432-.409-3.063 30.881 51.9 2.513 4.888-31.42-9.509-.552-27.179 9.162-7.605-10.175z"/><path fill="#B1907E" d="m812.066 169.122-.082 19.651 26.624.789 8.242-19.428-2.838-.306-27.115-.706h-4.831z"/></g><g display="block"><path fill="#B48E3E" d="m784.241 311.891-14.858 4.237-.128 4.237 31.344.171.172-4.151-16.53-4.494z"/><path fill="#CCAF3D" d="m790.424 302.775-3.488 3.882-17.553 9.472 31.39.256-.173-7.489-10.176-6.121z"/><path fill="#B48E3E" d="m838.087 322.354-8.631 2.322v3.83l21.448.14.086-3.788-12.903-2.504z"/><path fill="#937061" d="m851.599 279.735-3.908 33.384-1.664 10.521-7.726.082-3.178-10.718-4.808-34.066 21.284.797z"/><path fill="#6D5247" d="m850.683 288.019-.083.166-18.568 2.735-2.233-11.64 8.336 1.364 12.548 7.375z"/><path fill="#937061" d="m820.01 271.405-19.41 37.49-13.678-2.214 8.573-33.822 24.515-1.454z"/><path fill="#6D5247" d="m817.262 277.739-5.84 9.93-16.508-12.489 6.152-.663 16.196 3.222z"/><path fill="#CCAF3D" d="m829.456 324.676 5.668-11.672 12.528.427 3.36 11.491-21.556-.246z"/><path fill="#F0BD6D" d="m807.214 227.383 42.725-.07 4.733 22.934-26.846-11.265-20.612-11.599z"/><path fill="#E2AB4B" d="m794.832 275.18 47.123-7.537 12.717-17.397-47.459-22.862-12.381 47.796z"/><path fill="#BD923D" d="m794.832 275.181 56.017 12.921 3.823-37.856-59.84 24.935z"/></g><g display="block"><path fill="#525152" d="m844.013 169.829 12.346.859 10.883-40.273-6.956-3.149-9.352 6.286-10.704 14.151 3.783 22.126z"/><path fill="#937061" d="m844.013 169.828-9.535 4.041-8.081-5.325 10.844-59.063 3.333-1.148 1.705 3.129 6.34 33.713-4.606 24.653z"/><path fill="#6D5247" d="m850.97 136.197-2.351 8.978-5.697-12.047 4.426-.169 3.622 3.238z"/><path fill="#525152" d="m782.009 101.126 10.933 29.886 2.243-10.362-4.214-13.819-1.104-6.989-7.858 1.284z"/><path fill="#757778" d="m803.493 76.152-21.484 24.975 8.962 5.705 14.11-6.247 7.584-5.668 8.388-9.329-8.79-5.644-8.77-3.792z"/><path fill="#757778" d="m838.942 76.122-17.799 3.305-7.542.314-.672 7.33-.187 11.965 8.929 4.432 15.915-10.749 1.356-16.597z"/><path fill="#B1907E" d="m842.924 133.128.761-5.545.331-13.17 11.442 7.84-4.487 13.944-8.047-3.069z"/><path fill="#6D5247" d="m851.139 125.814 1.153 3.935-5.872 2.104 2.255-6.914 2.464.875z"/><path fill="#525152" d="m864.597 95.321-25.656-19.199-17.27 27.345 6.935 7.022 8.637-1.009 5.035 1.982 14.96-.996 7.359-15.145z"/><path fill="#6D5247" d="m822.07 178.709 12.407-4.84 4.77-15.161-4.555-1.229-36.687-1.478 15.133 6.359 8.932 16.349z"/><path fill="#525152" d="m843.619 127.659-4.2-17.854 6.584-1.73-2.384 19.584zM803.493 76.152l9.172 18.766 9.008-15.491-18.18-3.275z"/><path fill="#B1907E" d="m837.243 109.48-2.551 47.998-39.756 1.031-3.965-51.677 21.695-11.915 9.007 8.55 15.57 6.013z"/><path fill="#6D5247" d="m812.236 132.167-2.985 1.015 3.001 3.499 3.011-3.619-3.027-.895z"/><path fill="#937061" d="m795.757 114.801 3.458-.869 7.925 2.633 1.815 2.59 2.536 7.249-2.077 4.042s-5.819-9.28-5.866-9.657c.006-.268-7.791-5.988-7.791-5.988zM815.263 119.308l-2.096 5.567 2.26 8.105 7.373-11.266 7.529-6.658-4.268-1.2-9.679 2.784-1.119 2.668z"/><path fill="#BA9F90" d="m808.955 119.155 6.308.154v13.753l-6.013.119-.295-14.026z"/><path fill="#525152" d="m796.094 112.531-.431 2.24 11.476 1.794.176-3.676-11.221-.358zM816.71 112.889l-.492 3.834 14.112-1.666-.944-2.342-12.676.174z"/><path fill="#3C3C3C" d="M802.955 118.788a2.362 2.362 0 0 1 2.396 2.327 2.363 2.363 0 0 1-2.335 2.389 2.363 2.363 0 0 1-2.397-2.328 2.363 2.363 0 0 1 2.336-2.388zM822.611 118.535a2.361 2.361 0 0 1 2.396 2.328 2.362 2.362 0 0 1-2.335 2.388 2.363 2.363 0 0 1-2.396-2.327 2.363 2.363 0 0 1 2.335-2.389z"/><path fill="#757778" d="m867.242 130.415-2.645-35.094-25.179 14.485 12.28 24.015 15.544-3.406z"/><path fill="#FFF" d="m812.238 141.265-8.041.41 8.492 6.256 10.542-6.42-10.993-.246z"/><path fill="#E4C837" d="m802.064 141.593 10.871 8.996 12.103-9.282-3.16.041-8.984 5.438-8.205-5.397-2.625.204z"/><path fill="#876C3A" d="m812.432 139.719-10.492 1.833 10.786.885 12.31-1.131-12.604-1.587z"/></g><path fill="#9F7D3C" d="m585.889 166.5-22.575-15-10.785 4.25-13.796 32.75 23.327 10.25 23.829-32.25zM616.994 173.25l9.029-23.25 27.657 22.75-18.124 20.75-10.285-4.25-8.277-16z" display="block"/><g display="block"><path fill="#B48E3E" d="m574.853 154.5-16.306 34 1.505 28 62.209-.25 3.01-27-50.418-34.75z"/><path fill="#CCAF3D" d="m571.405 148.084-8.091 3.417-4.765 37 66.722.75.752-39.25-7.21-2.75-47.408.833z"/><path fill="#E4C837" d="m581.375 143.75-9.971 4.333-1.003 19.417 15.439-12.088 23.942 12.088 9.031-20.25-8.434-2.974-29.004-.526z"/></g><g display="block"><path fill="#E2AB4B" d="m553.16 53.642-1.409 13.66 6.979-.165 12.119-7.376 1.018-10.787-1.899-5.52-16.808 10.188z"/><path fill="#BB913D" d="m610.693 51.962-40.726-8.508-.391 15.221-1.224 2.746 31.545 8.76 12.257.411-1.461-18.63zM636.328 89.583l-4.804-9.208-12.662-2.357-10.638 7.099.647 7.467 4.348 8.944 23.109-11.945zM525.428 89.912l26.266 15.545-.272-5.864.37-17.242-4.255-3.32-22.109 10.881z"/><path fill="#E2AB4B" d="m525.427 89.911 23.405-2.397 1.851-8.667-1.11-3.504-4.625-3.226-19.521 17.794z"/><path fill="#F4CAB4" d="m593.145 119.969-16.004 19.362 8.699 16.081 24.539-11.136 1.958-24.484-2.631-7.937-13.894-32.573-3.407 13.302.74 27.385z"/><path fill="#C29381" d="m604.339 114.068 7.998 5.725.454-4.918-3.086-3.02-5.366 2.213z"/><path fill="#525152" d="m595.342 85.526 3.528 21.787 5.191.486 9.158-6.27-1.017-14.843-2.036-4.703-17.483-3.596 2.659 7.139z"/><path fill="#E2AB4B" d="m612.154 70.591-15.494 6.413-1.318 8.523 16.86 1.158 19.322-6.31-19.37-9.784z"/><path fill="#CCAF3D" d="m563.264 62.987 6.311-4.312 42.579 11.916-8.556 1.709-39.41 1.385-2.312-2.215 1.388-8.483z"/><path fill="#F3D763" d="m551.015 73.661 3.83.207 14.418.184.314-15.378-17.826 8.628-.736 6.359z"/><path fill="#BB913D" d="m544.948 72.116 67.206-1.525-16.812 14.935-6.735 4.683-36.26-.852-3.515-1.844-3.884-15.397z"/><path fill="#FBE3D5" d="m549.397 140.114 20.571-.104 11.487 5.1 13.469-5.413.417-54.171-46.508 1.987.564 52.601z"/><path fill="#F4CAB4" d="m553.13 101.215 2.404-2.441 9.068 2.213.354 2.7 1.68 6.612-3.701 4.149-3.978-9.405-5.827-3.828zM571.9 103.739l-2.212 6.098 2.314 4.15 6.013-9.405 7.401-4.149-3.239-3.042-9.898 3.687-.379 2.661z"/><path fill="#C29381" d="m566.358 112.88-3.423 1.569 4.812 4.241 4.622-3.971-6.011-1.839z"/><path fill="#FEEFE8" d="m565.06 103.687-2.125 10.761 9.434.271-.47-10.98-6.839-.052z"/><path fill="#525152" d="m553.129 97.547-.078 3.904 11.55-.464-.351-2.424-11.121-1.016zM572.63 98.405l-.352 2.673 13.137-.645.059-3.589-12.844 1.561z"/><path fill="#3C3C3C" d="M558.957 102.922c1.175 0 2.128.95 2.128 2.121a2.125 2.125 0 0 1-2.128 2.121 2.125 2.125 0 0 1-2.128-2.121c0-1.171.953-2.121 2.128-2.121zM579.125 102.185c1.176 0 2.128.95 2.128 2.121a2.124 2.124 0 0 1-2.128 2.121 2.125 2.125 0 0 1-2.128-2.121c0-1.171.953-2.121 2.128-2.121z"/><path fill="#FBE3D5" d="m613.219 101.528-9.344-.277.464 12.817 8.451.807.429-13.347z"/><path fill="#C29381" d="m607.299 104.387 3.7.093-3.423 5.901-.277-5.994z"/><path fill="#FBE3D5" d="m557.75 121.979 21.772-.859-3.126 7.32-15.05-.331-3.596-6.13z"/><path fill="#C29381" d="m558.064 122.447 22.554-.312-6.031 9.834-10.101-.077-6.422-9.445z"/><path fill="#FFF" d="m561.248 124.086 15.794-.364-1.984 3.59-11.513.104-2.297-3.33z"/><path fill="#C29381" d="m569.968 140.009 24.956-.312 6.474-.313-15.559 16.028-15.871-15.403z"/></g><g display="block"><path fill="#C29381" d="m666.714 159.307 6.864 4.526 17.22-2.2-7.995-26.676-12.736 7.654-3.353 16.696z"/><path fill="#ECECEB" d="m665.804 140.083 4.181-24.167 24.248-.333 4.68 24.333-13.15 12.752.904 19.918 7.106 2.998-7.411 4.261-13.284-2.511 7.87-5.271.09-18.61-15.234-13.37z"/><path fill="#E4C837" d="m670.82 138.75 9.336 8.343 6.718-.176 7.19-8.5-2.886-14.292-17.934.875-2.424 13.75z"/><path fill="#FBE3D5" d="m669.843 160.941-5.294-8.691 5.079-8.688 11.037-4.125 1.944 4.125-5.832 6-1.664 5.949-5.27 5.43zM683.863 139.666l12.04 3.271-5.105 18.697-6.434-3.468-.501-18.5z"/></g><path fill="#F4CAB4" d="m664.55 152.25-28.995 41.25 19.462 9.25 18.562-38.917-9.029-11.583z" display="block"/><g display="block"><path fill="#B48E3E" d="m430.266 286.917 8.696 19.333 17.391-4 15.719-29.666-41.806 1.666v12.667z"/><path fill="#BD923D" d="m731.603 283.584 3.179 11.667-20.067-1.667-13.378-17.667 35.284-4.666-5.018 12.333z"/><path fill="#E2AB4B" d="m760.535 229.75-8.026 59.167-17.727 6.333-5.017-15.333-45.987 15.583-4.849 17.917-21.238 7.833-31.438-60.667 134.282-30.833z"/><path fill="#BD923D" d="m411.872 248.916 13.672 57.376 13.418-.042 5.686-21.666 175.251 13.333 4.682 20 33.111 3.333 3.344-75.334-249.164 3z"/><path fill="#B1B1B1" d="m672.407 220.583 103.931-1.833-1.087 32.166-115.385 31.668-22.242-45.334 34.783-16.667z"/><path fill="#9EA2A3" d="m524.246 215.75-116.818 13.306-8.6 37.528 261.038 16 1.838-40.334-137.458-26.5z"/><path fill="#ECECEB" d="m407.428 229.056 254.276 13.194 114.634-23.5-207.442-13.5-161.468 23.806z"/><path fill="#3C3C3C" d="m488.88 228.5 61.204 5.75 15.803-4.333 59.197 7 18.395-7 20.401 2.333 37.458-7.5-46.488-4.5-15.05 4.667-100-5.334-50.92 8.917z" opacity=".1"/></g><g display="block"><path fill="#F4CAB4" d="m592.244 207.75 7.691-8.833L613.606 206l-1.129 10.417-14.212 4-6.021-12.667z"/><path fill="#FBE3D5" d="m575.356 204.917 5.517-4.417 19.063-1.583-1.672 21.5L578.867 214l-3.511-9.083z"/><path fill="#F4CAB4" d="m538.733 188.5 42.139 12-2.006 13.5-40.948-4.333.815-21.167z"/></g><g display="block"><path fill="#9F7D3C" d="m568.311 220.333 4.264-4.417-42.559-5.041-20.485 2.708 41.639 12.832 17.141-6.082z"/><path fill="#CCAF3D" d="m555.937 214.333 4.263-5.5 2.675 3.333-.5 8.917-5.018 1.25-1.42-8z"/><path fill="#E4C837" d="m551.087 209.082.25 12.168h8.529l.333-12.418-9.112.25z"/><path fill="#CCAF3D" d="m540.301 212.624-7.4-3.75-2.885 2L534.782 221l10.536.25-5.017-8.626z"/><path fill="#E4C837" d="m541.429 222.499-8.528-13.624 9.908-1.5 8.528 13.874-9.908 1.25z"/><path fill="#CCAF3D" d="m522.366 211.999-4.391-2.5-1.38 3.5 4.641 8.376 7.651-.626-6.521-8.75z"/><path fill="#E4C837" d="m525 220.249-7.023-10.75 5.768-1.375 12.416 12.25-11.161-.125z"/><path fill="#CCAF3D" d="m530.769 223.25 20.568-2 21.238-5.333-1.672 7.5-19.733 6.5-20.401-6.667z"/><path fill="#9F7D3C" d="m631.27 222.916 5.519-4.667-39.968-2-22.408 5.167 38.128 6.833 18.729-5.333z"/><path fill="#E4C837" d="m591.972 217.416-2.844-4.833-11.036 9.5 13.545 5 .335-9.667z"/><path fill="#CCAF3D" d="m603.844 218.75-4.85-3.5-9.866-2.667-6.019 11.334 22.24 1.5-1.505-6.667z"/><path fill="#E4C837" d="m602.34 225.749-3.346-10.5 13.422.312-2.552 8.855-7.524 1.333z"/><path fill="#CCAF3D" d="m621.237 226.083 4.347-11-13.167.479-7.067 9.854 15.887.667z"/><path fill="#E4C837" d="m626.922 223.083-1.338-7.999-6.688 8.666 8.026-.667z"/><path fill="#CCAF3D" d="M603.009 226.249c.669 0 15.886-2.5 15.886-2.5l17.892-5.5-.502 8.668-20.234 4.666-13.042-5.334z"/><path fill="#AD9448" d="m668.817 177.193 1.605-6.506 6.187 1.773.222 9.022-8.088 1.997.074-6.286z"/><path fill="#90813F" d="m666.591 185.624-1.484-4.142.668-9.097 4.647-1.699 1.029 10.667-4.86 4.271z"/><path fill="#CCAF3D" d="m675.346 201.599 7.568-9.614-6.084-10.502-5.38-.13-6.79 15.365 10.686 4.881z"/><path fill="#AD9448" d="m660.209 199.527-5.491-8.135 10.388-9.91 6.344-.129-.555 10.483-10.686 7.691z"/><path fill="#AD9448" d="m661.842 203.077 6.047 25.589 15.805-3.55-.779-33.131-12.021-.149-9.052 11.241z"/><path fill="#90813F" d="m654.718 191.392.037 34.834 13.467 2.44 2.672-36.83-16.176-.444z"/><path fill="#CCAF3D" d="m672.304 202.264 9.423-.666-.148 9.171-9.72.739.445-9.244z"/><path fill="#B48E3E" d="m574.413 221.417 44.482 2.332-2.843 7.834-38.294-2.666-3.345-7.5zM509.531 213.582l5.686 13.668 35.953 2.666.167-8.666-41.806-7.668z"/></g><path fill="#876C3A" d="m259.975 205.403-20.776-31.504-3.33 29.592 5.274 14.104 14.705-6.086 4.127-6.106z" display="block"/><g display="block"><path fill="#BD923D" d="M178.15 234.466 167.605 218.7l-11.375-6.914-16.096 2.768 27.364 33.016 6.767-7.297 3.885-5.807z"/><path fill="#C3997F" d="m170.657 251.059 8.54 8.352 6.446-8.075-4.163-8.023-10.823 7.746z"/><path fill="#EAECEB" d="m167.499 247.569 4.87 5.334 8.005-8.757 2.217-3.873-4.441-5.808-10.651 13.104z"/></g><g display="block"><path fill="#7A6137" d="m236.704 252.995-10.268 19.636-14.65-.718-20.593.718-7.767-24.337 33.577-9.127 19.701 13.828z"/><path fill="#B48E3E" d="m242.835 255.403-6.132-12.478-6.411 16.311-18.507 12.676 3.791 28.241 10.601 21.04 11.849-25.665 4.809-40.125z"/><path fill="#876C3A" d="m215.577 300.153 3.922 29.235 15.976-10.159 2.552-23.701-22.45 4.625z"/><path fill="#B48E3E" d="m211.786 271.912-15.105-12.008-8.817-21.954-8.712 20.788 2.061 38.041 3.425 37.875 19.902-35.375 7.246-27.367z"/><path fill="#876C3A" d="m204.54 299.278-23.328-2.5.963 27.441 8.486 4.851 7.192-3.746 6.687-26.046z"/><path fill="#9F7D3C" d="m197.985 334.04 6.801 2.917-.313 3.39-24.483.395v-3.464l17.995-3.238zM238.581 327.516l15.344 4.729v3.093l-35.042-.44v-3.504l19.698-3.878z"/><path fill="#CCAF3D" d="m253.924 332.245-18.449-13.016-16.593 5.57v6.595l35.042.851zM182.176 324.219l-2.186 13.06 24.796-.321-6.932-11.633-15.678-1.106z"/></g><g display="block"><path fill="#525152" d="m255.209 84.969 9.914 7.934-12.924 31.816 3.01-39.75z"/><path fill="#8E6C5A" d="m233.261 157.028-5.436 11.338-14.233 12.287-23.977-21.125 8.972-9.29 3.012-1.303 14.545 4.531h8.467l8.65 3.562z"/><path fill="#C3997F" d="m189.53 167.262 16.139 14.579 7.901-2.02-20.945-21.667 6.02-1.5 17.498-3.188-16.193.202-.056-60.199-8.239 3.002-6.591 27.296-4.103 14.803 8.569 28.692z"/><path fill="#8E6C5A" d="m180.961 138.57 7.525-10.352-3.082-3.15-6.712 4.127 2.269 9.375z"/><path fill="#525152" d="m196.541 96.131-9.727 26.089-2.091-5.589h-5.057l-4.474-2.411-3.651-16.447 6.762-4.247h13.863l4.375 2.605z"/><path fill="#DEBDA6" d="m185.624 114.188 2.863 14.031-9.794.977-3.5-14.977 10.431-.031z"/><path fill="#8E6C5A" d="m182.884 117.048.853 6.456-5.228-6.456h4.375z"/><path fill="#585B5C" d="m250.586 64.25 14.537 28.653-7.103 2.605-4.033-.339-8.978-12.629 3.58-11.439 1.997-6.851z"/><path fill="#757778" d="m218.929 81.464 25.569 4.248 4.431-3.908 1.657-17.554-40.863-3.852-.681 5.21 9.887 15.856z"/><path fill="#525152" d="M220.179 82.823v-5.549l-10.456-16.877-30.266 13.448 9.301 6.374 19.602 10.024 6.421-4.191 5.398-3.229z"/><path fill="#585B5C" d="m210.405 89.958-2.045-3.228-29.28-12.761-7.539 23.804 25-1.642 5.228.51 8.636-6.683z"/><path fill="#DEBDA6" d="m254.206 157.779-55.56-1.125-2.105-60.523 23.638-18.858 28.751 4.53 9.091 13.705-3.815 62.271z"/><path fill="#C3997F" d="m231.217 110.321 4.614-1.98.251-4.437 10.932-1.398 2.489 1.273-15.218 25.173-3.068-18.631zM225.485 108.091l-.347 19.842-15.001-26.446 4.431-2.152 10.604 3.944.313 4.812z"/><path fill="#8E6C5A" d="m231.003 132.403 4.766-4.625-5.234-1.317-5.398 1.472 5.866 4.47z"/><path fill="#E8CAB8" d="m235.832 108.341-10.347-.25-.347 19.842 10.631-.155.063-19.437z"/><path fill="#3B3B3B" d="M239.115 114.228c0 1.698 1.421 3.115 3.125 3.115 1.705 0 3.125-1.417 3.125-3.115 0-1.699-1.42-3.115-3.125-3.115-1.704 0-3.125 1.416-3.125 3.115zM214.399 113.209a3.111 3.111 0 0 0 3.125 3.115 3.111 3.111 0 0 0 3.125-3.115c0-1.699-1.42-3.115-3.125-3.115s-3.125 1.416-3.125 3.115z"/><path fill="#525152" d="m225.736 98.028-15.552.875-.046 2.583 15.034 1.792.564-5.25zM236.145 98.465l-.063 5.438 13.42-.125.188-2.25-13.545-3.063z"/><path fill="#8E6C5A" d="m213.612 135.986 15.51 14.918 14.988-14.126-30.498-.792z"/><path fill="#FFF" d="m219.652 138.403 18.876.688-9.281 8.126-9.595-8.814z"/></g><g display="block"><path fill="#8E6C5A" d="m272.034 193.5 10.852 5.903 10.468-3.278-7.775-23.126-10.723 6.444-2.822 14.057z"/><path fill="#ECECEB" d="m269.148 178.5 3.43-26.042 24.247-.333L300.628 178l-12.272 11.21.904 19.919 7.105 2.997-7.411 4.261-13.283-2.511 7.87-5.271.091-18.61-14.484-11.495z"/><path fill="#E4C837" d="m273.413 175.291 9.336 8.343 6.718-.175 7.19-8.5-1.004-3.875H274.08l-.667 4.207z"/><path fill="#DEBDA6" d="m274.668 194.875-4.141-6.5 6.063-10.208 7.232-4.168 2.383 3.5-4.391 5.334-.418 5.416-6.728 6.626zM287.628 177.291l13 .709-7.275 18.125-6.897-2.666 1.172-16.168z"/><path fill="#EAECEB" d="m262.485 206.403 1.504-11.25 6.772-7.5 12.124 11.75-5.768 7h-14.632z"/><path fill="#B48E3E" d="m263.989 195.153-21.148 21.75 15.379 13.75 18.979-24.417-13.21-11.083z"/></g><g display="block"><path fill="#EAECEB" d="m227.824 168.365-11.934 56.418-6.66-45.354 4.34.391 3.177 1.041 11.077-12.496z"/><path fill="#FFF" d="m215.891 224.783-2.322-44.964-14.423-.916-9.617-11.64 26.362 57.52z"/><path fill="#CCCAC9" d="M227.824 168.365 213.57 179.82l10.116 8.083 4.138-19.538z"/><path fill="#EAECEB" d="m200.171 190.299 13.399-10.479-23.978-12.579 10.579 23.058z"/><path fill="#CCAF3D" d="m239.199 173.899-11.375-5.534-11.934 56.42 15.74-8.131 11.732-14.546-4.163-28.209z"/><path fill="#CCAF3D" d="m177.874 171.684-4.161 18.532 8.325 15.763 13.221 15.299 20.632 3.506-26.361-57.522-11.656 4.422z"/><path fill="#876C3A" d="m196.681 259.903 20.875-14.653 3.883-9.126-5.549-11.34-22.475-1.659-15.262 11.34 4.163 19.637 14.365 5.801z"/><path fill="#9F7D3C" d="m182.038 205.98-5.829.276-.277 5.254 2.219 22.956 38.095-2.395-.355-7.286-33.853-18.805z"/><path fill="#B48E3E" d="m241.998 239.903 1.364-37.796-27.472 22.677.355 7.286 25.753 7.833z"/><path fill="#9F7D3C" d="m242.834 255.403-.606-21.937-25.984-1.396 1.312 13.18 12.736 13.986 12.542-3.833z"/></g><path fill="#876C3A" d="m167.606 218.7 14.431-12.721-4.163-34.295-37.739 42.87 14.153 2.211 13.318 1.935z" display="block"/><path fill="#DEBDA6" d="m406.622 166.558 30.083 15.692 11.915 3.875-5.519 12.625-25.925.526-10.08-8.581-12.122-15.709 11.648-8.428z" display="block"/><g display="block"><path fill="#8E6C5A" d="m461.164 170.126 4.766 3.917 16.01-3-7.232-21.418-10.722 6.444-2.822 14.057z"/><path fill="#ECECEB" d="m457.527 153.25 4.181-24.167 24.247-.333 4.682 24.333-13.151 12.752.903 19.919 7.106 2.997-7.411 4.261-13.283-2.511 7.87-5.271.091-18.61-15.235-13.37z"/><path fill="#E4C837" d="m462.544 151.917 9.336 8.343 6.718-.176 7.19-8.5-.92-8-21.153.083-1.171 8.25z"/><path fill="#DEBDA6" d="M463.84 170.916 459.658 165l4.328-8.931L474.207 153l1.003 4.75-4.389 1.438-2.586 7.741-4.395 3.987zM476.757 153.917l10.619 2.333-5.435 14.791-6.313-1.707 1.129-15.417z"/></g><path fill="#C3997F" d="M436.706 182.25 459.658 165l6.564 8.958-23.12 24.792-6.396-16.5z" display="block"/><g display="block"><path fill="#DEBDA6" d="m366.33 173.314-20.096 27.969 7.06 4.597 13.7-4.597 1.522-20.377-2.186-7.592z"/><path fill="#C3997F" d="m322.574 195.584-10.598 2.792-11.85-10.375 5.016-9.875 10.536 6.375 6.896 11.083z"/><path fill="#8E6C5A" d="m325.585 186.75-9.907-2.25-3.513 13.875 12.416 1.209 9.03-2.666-8.026-10.168z"/><path fill="#DEBDA6" d="m336.454 196.417-6.898-6.22-2.299-5.863-7.944-4.084-1.421 3 5.184 4.5-1.003 4.417 8.194 4.417 6.187-.167z"/><path fill="#C3997F" d="m366.994 201.282-37.439-11.084-4.975 9.386 25.47 12.686 16.944-10.988z"/></g><g display="block"><path fill="#DEBDA6" d="m366.21 172.933 40.41-6.375-12.626 20.354-27.784-13.979z"/><path fill="#9F7D3C" d="m366.21 172.933.784 28.35 19.395-9.371 7.441-7.968-27.62-11.011zM393.83 183.944l12.791-17.386 10.555 32.718-16.976-5.03-6.37-10.302z"/><path fill="#7A6137" d="m366.994 201.282 1.69 28.822 25.221 14.703 13.524-15.751 9.747-29.779-23.346-15.332-26.836 17.337z"/></g><g display="block"><path fill="#3C3C3C" d="m349.02 159.635 25.642-3.146-3.777-21.618-21.865 24.764z"/><path fill="gray" d="m331.598 103.422-12.319 28.242 23.732-10.431-11.413-17.811z"/><path fill="#3C3C3C" d="m448.817 105.547 1.452 12.198-17.094 2.181.354-20.088 15.288 5.709z"/><path fill="#646464" d="m438.842 80.557 16.457 19.032-13.388 6.454-6.325-2.864-5.139-16.031 8.395-6.591z"/><path fill="#535253" d="m455.299 99.589-19.714 3.589-8.982 7.666 6.571 9.081 22.125-20.336zM319.278 131.663l34.378 9.315 16.038-1.062-2.715-18.709-10.951-12.907-36.75 23.363z"/><path fill="#876C3A" d="m431.265 108.522 8.711 18.241-12.294 6.657 1.034-7.184 3.245-1.801-2.279-4.913-1.651-3.802 3.234-7.198z"/><path fill="#DEBDA6" d="m364.959 124.126 7.922 22.013 10.97 19.64 13.406-1.437 6.167-10.591 24.423 3.194 10.994-76.388-53.662 23.216-20.22 20.353z"/><path fill="#C3997F" d="m389.072 119.635-1.851 33.173 16.204.944-7.259 12.359.499 7.974-17.736-3-9.236-31.168.367-5.859-5.101-9.931 15.737-18.276 8.376 13.784zM423.237 100.696l-2.038 2.212-2.239 15.708 9.145-11.211 3.575-4.272-8.443-2.437zM415.985 102.141l-4.268-3.348-11.612 1.704 9.328 11.887 2.826 10.845 3.726-21.088z"/><path fill="#8E6C5A" d="m380.042 131.982-10.349 7.936-4.734-15.791 8.867-12.815 11.517 7.044-5.301 13.626z"/><path fill="#E8CAB8" d="m415.985 102.14 5.215.768-3.016 21.15-5.926-.829 3.727-21.089z"/><path fill="#8E6C5A" d="m412.259 123.229 2.566 4.014 3.358-3.184-5.924-.83zM438.133 85.482l-49.132 36.953-9.722 1.069 2.07-9.185 30.368-15.526 27.124-18.235-.708 4.924z"/><path fill="#646464" d="m349.917 97.504-4.405-6.883-30.898-2.285 32.035 47.808 12.565-15.743.068-10.985-9.365-11.912z"/><path fill="gray" d="m340.874 103.101-26.26-14.767 42.028-11.787-2.561 15.879-13.207 10.675z"/><path fill="#646464" d="m407.778 61.685-38.237-6.857-28.667 48.274 41.645-19.853 25.259-21.564z"/><path fill="#3C3C3C" d="m424.856 95.025 6.823 8.108-8.442-2.437 1.619-5.671z"/><path fill="#876C3A" d="m394.157 129.059 20.407-.323 12.535 6.033-15.909 14.933-17.033-20.643z"/><path fill="#515152" d="m404.36 136.765 6.665-3.548 7.397 5.987-4.135 3.971-5.326-.89-4.601-5.52z"/><path fill="#FFF" d="m404.36 136.765 14.062 2.44 4.134-3.97-22.796-3.99 4.6 5.52z"/><path fill="#876C3A" d="m382.352 117.331-2.311 14.65-20.175-2.713.512-3.406 4.581-1.735 10.384 1.237.827-5.618 6.182-2.415z"/><path fill="#8E6C5A" d="m403.425 153.751-21.796-3.092 15.036 23.426 6.76-20.334z"/><path fill="#3C3C3C" d="m359.282 109.417-12.633 26.728 35.702-18.814-23.069-7.914zM429.683 110.31a3.117 3.117 0 0 1-2.543 3.603 3.126 3.126 0 0 1-3.615-2.534 3.115 3.115 0 0 1 2.542-3.603c1.7-.295 3.32.839 3.616 2.534zM410.339 107.395a3.118 3.118 0 0 1-2.543 3.604 3.125 3.125 0 0 1-3.615-2.535 3.116 3.116 0 0 1 2.542-3.603c1.7-.295 3.32.839 3.616 2.534z"/><path fill="#535253" d="m447.11 74.066-58.039 45.57-48.197-16.533L390.8 87.429l56.31-13.363z"/><path fill="#989797" d="m447.11 74.066-24.469-21.582-81.767 50.618L447.11 74.066z"/><path fill="#454645" d="m319.278 131.663 50.416 8.254-20.675 19.718-29.741-27.972z"/></g><g display="block"><path fill="#7A6137" d="m441.482 322.941-23.525-.493-1.009-7.001h11.173l13.361 7.494z"/><path fill="#DEBDA6" d="m418.956 298.168 8.226 8.093 15.196 13.748-3.489 1.183-14.04-3.349-5.656-4.013-1.223-6.121.986-9.541z"/><path fill="#C3997F" d="m417.971 307.709 6.879 10.134 20.649 1.493-4.016 3.605-24.534-7.494 1.022-7.738z"/><path fill="#9F7D3C" d="m435.071 313.398-3.847 6.409 3.158.965 3.206-5.097-2.517-2.277z"/><path fill="#C3997F" d="m401.116 278.496 16.854 29.213 9.212-1.448-8.346-32.928-17.72 5.163z"/><path fill="#8E6C5A" d="m401.116 278.495 4.045 7.017 14.241-9.921-5.989-.645-12.297 3.549z"/><path fill="#C3997F" d="m364.213 280.026 3.806 32.502 1.619 10.243 7.522.081-.492-10.305 5.511-31.313-17.966-1.208z"/><path fill="#DEBDA6" d="m368.019 312.528-.839 17.815 13.996-.169-4.512-17.821-8.645.175z"/><path fill="#C3997F" d="m367.18 330.345 13.996-.171-7.98-4.451-6.016 4.622z"/><path fill="#9F7D3C" d="m366.837 325.724 13.008-.331-.515-2.365-11.498.384-.995 2.312z"/><path fill="#8E6C5A" d="m365.105 288.093.081.161 15.292 2.34 1.701-9.359-4.857-.323-12.217 7.181z"/><path fill="#7A6137" d="m382.987 331.319-5.057-13.962 1.914 12.033-11.826.269-.134-14.29-2.679 16.302 17.782-.352z"/><path fill="#F3D763" d="m407.428 229.055-38.745 1.047-7.463 21.213 26.139-10.967 20.069-11.293z"/><path fill="#E4C837" d="m419.483 275.591-45.88-7.338-12.382-16.937 46.206-22.261 12.056 46.536z"/><path fill="#CCAF3D" d="m419.483 275.591-54.539 12.58-3.723-36.856 58.262 24.276z"/></g></g></svg>