<svg xmlns="http://www.w3.org/2000/svg" width="900" height="350" style="width:100%;height:100%;content-visibility:visible" viewBox="0 0 900 350"><defs><clipPath id="a"><path d="M0 0h900v350H0z"/></clipPath></defs><g clip-path="url(#a)"><g display="block"><path fill="#CECECD" d="m395 116.001-6.802 79.545L565 190.001l-95-74h-75z"/><path fill="#A2A2A2" d="m155.139 295.782-12.658 16.882 152.542 37.337h379.084l-41.217-18.506-373.893-55.193-103.858 19.48z"/><path fill="#C4C4C4" d="m101.911 238.963-44.139 11.362 84.709 62.339 128.201-22.401-72.377-52.599-96.394 1.299z"/><path fill="#8BDFDC" d="m405.373 104.546 9.413 7.144 6.491-9.74-15.904 2.596z"/><path fill="#71CACC" d="m405.373 104.546-11.359 8.441 17.526 1.299 4.22-5.518-10.387-4.222z"/><path fill="#8BDFDC" d="m427.443 96.43 6.167 1.623-4.22 5.195-8.114-1.298 6.167-5.52z"/><path fill="#50A9AA" d="m472.231 108.443-7.464-6.493-9.736-1.299 2.27 6.493 14.93 1.299z"/><path fill="#1C7678" d="m784.781 182.146 14.93-.65 7.139 13.961 16.553-8.442 9.736 7.467 8.441.65 13.955 12.987L804.579 200l-21.744-10.713 1.946-7.141z"/><path fill="#50A9AA" d="m796.465 178.574-8.113 3.245 18.499 13.637 3.245-8.442-2.273-4.22-11.358-4.22z"/><path fill="#50A9AA" d="m833.139 194.481-26.289.975 8.764-9.416 7.789.974 8.114 1.948 1.622 5.519zM841.581 189.61l-8.44 4.871 22.395 13.637-9.413-16.234-4.542-2.274z"/><path fill="#1C7678" d="m750.055 162.015 13.306-.974 16.227 7.792-11.359 17.857-19.149-15.909.975-8.766z"/><path fill="#369395" d="m752 154.547 2.922 7.144 19.474 4.22 6.49-4.87-10.062-8.442-13.305.974-5.519.974z"/><path fill="#8BDFDC" d="m757.519 153.573 15.255-6.818 8.113 14.286-23.368-7.468z"/><path fill="#50A9AA" d="m780.563 168.832.324-7.791-25.965.649 20.773 8.117 4.868-.975z"/><path fill="#5EC0D9" d="m834.114 134.092-10.062-5.195 4.87-4.221 5.516.65 4.221.649 9.411 8.117h-13.956z"/><path fill="#73CFE4" d="m839.632 123.377-4.87-.324-.324 2.273 13.631 8.767-8.437-10.716z"/><path fill="#C4C4C4" d="m801.01 128.248-2.273-1.623-5.518 14.61-24.667 39.936 9.414 11.038 17.2-36.689 5.844-27.272z"/><path fill="#8BDFDC" d="m790.623 167.21-2.271 14.609 19.472.975-17.201-15.584z"/><path fill="#A2A2A2" d="m785.755 189.936 17.202-51.299-.973-2.922-.974-7.467-23.043 59.741v4.219l7.788-2.272z"/><path fill="#C4C4C4" d="m817.886 128.248-15.902 7.468-.65 8.441 17.526-13.311-.974-2.598z"/><path fill="#399FB9" d="m801.01 128.248 15.902 4.222 17.526-7.143-14.281-1.949-19.147 4.87z"/><path fill="#73CFE4" d="m801.01 128.248 33.428-2.921-12.657-5.196-12.333-.325-8.438 8.442z"/><path fill="#399FB9" d="m805.878 115.261 3.569 4.546 24.992 5.52 10.061-3.572-14.93-5.195-23.692-1.299z"/><path fill="#73CFE4" d="m838.983 108.443 5.517 13.312-38.622-6.494 25.639-7.466 7.466.648z"/><path fill="#C4C4C4" d="m783.808 113.313 12.009 7.467.324 6.171-13.632-11.366 1.299-2.272z"/><path fill="#C4C4C4" d="m800.685 101.95-4.869 18.83 3.894.325 1.299-5.194 1.947-14.936-2.271.975z"/><path fill="#A2A2A2" d="M801.01 128.248v-12.337l-5.193 4.869-2.597 20.455 7.79-12.987z"/><path fill="#399FB9" d="m785.755 105.845-13.308.975 12.01 10.389 12.658-1.624-11.36-9.74z"/><path fill="#73CFE4" d="m786.729 101.95-14.282 4.87 24.668 8.766-3.572-11.365-6.814-2.271z"/><path fill="#399FB9" d="m824.704 104.221-19.8-2.596-18.174.325 10.386 13.635 37.973-1.623-10.385-9.741z"/><path fill="#5EC0D9" d="m794.843 96.43-8.113 5.52 48.358 12.012-10.385-16.558-17.203-3.572-12.657 2.598z"/><path fill="#73CFE4" d="m810.421 88.637-15.578 7.794 29.86.974-14.282-8.768z"/><path fill="#8BDFDC" d="m807.825 182.794 5.193 3.571 10.385.65-4.867-10.064-10.711 5.843z"/><path fill="#369395" d="m807.825 182.794-.975 12.662 16.553-8.441-15.578-4.221z"/><path fill="#1C7678" d="m836.711 186.689-13.308.325 9.737 7.467 12.981-2.597-9.41-5.195z"/><path fill="#8BDFDC" d="m845.15 181.819-21.746 5.196 22.718 4.87-.972-10.066z"/><path fill="#399FB9" d="m833.14 135.716-8.437-6.494 23.368 4.871-14.931 1.623z"/><path fill="#71CACC" d="m433.61 98.053-4.544 4.545-2.597 3.896 11.684 1.299 1.948-4.22-6.491-5.52z"/><path fill="#50A9AA" d="m427.768 110.391-12.008-1.622 7.465-5.52 5.841-.65 11.036.975-12.334 6.817z"/><path fill="#71CACC" d="m455.031 100.651-8.115 1.623 5.193 5.845 6.49-2.922-3.568-4.546z"/><path fill="#A2A2A2" d="m450.811 84.092-7.465 7.144.649 3.572 1.623.648 5.842-9.416-.649-1.948z"/><path fill="#399FB9" d="m456.33 88.961-9.738-5.518 9.738-1.624 9.735 1.949-9.735 5.193z"/><path fill="#5EC0D9" d="m456.655 75.651-11.36 1.947 1.298 5.845 19.472.324-9.41-8.116z"/><path fill="#C4C4C4" d="M429.065 87.989v1.623l5.192 3.897 2.273-.975-.974-1.299-6.491-3.246z"/><path fill="#A2A2A2" d="m438.804 90.585-3.248.65-1.298 2.273 6.168.649.649-.973-2.271-2.599z"/><path fill="#C4C4C4" d="m437.505 84.417 3.57 14.286 2.921-.325 1.623-2.922-5.193-10.064-2.921-.975z"/><path fill="#A2A2A2" d="m439.778 105.196 1.297-6.493 4.543-3.247 1.298 6.818-2.272 2.598-4.866.324z"/><path fill="#5EC0D9" d="m419.655 69.482 5.193 6.493 25.315.975 4.869-5.519-19.8-4.871-15.577 2.922z"/><path fill="#73CFE4" d="m419.655 69.482 18.175.324 17.202 1.624-14.93-9.092-20.447 7.144z"/><path fill="#C4C4C4" d="m98.99 109.416 10.386 7.144 2.922-2.922-2.922-1.3-6.816-3.57-3.57.648z"/><path fill="#A2A2A2" d="m121.71 111.69-3.895-1.949-8.439 2.597v4.221l12.984-2.272-.65-2.597z"/><path fill="#1C7678" d="m153.192 184.415-20.774-3.244-12.332 18.181-21.421-14.937-14.606 8.769-12.008-.975-22.069 15.909 72.377-2.272 31.807-10.714-.974-10.717z"/><path fill="#50A9AA" d="m137.614 177.599 10.385 6.168-27.912 15.584-2.922-12.662 3.896-5.194 5.517-2.921 11.036-.975z"/><path fill="#50A9AA" d="m84.06 193.183 36.028 6.168-10.385-15.26-11.037.324-11.684.975-2.922 7.793z"/><path fill="#50A9AA" d="m73.026 184.742 11.034 8.441-34.078 14.935 16.553-21.104 6.491-2.272z"/><path fill="#1C7678" d="m205.121 162.988-18.176-3.572-5.193 10.065-19.473-12.337 1.299 12.662 11.683 24.026 29.535-18.507.325-12.337z"/><path fill="#8BDFDC" d="m203.498 151.95-11.035 11.039-21.744 1.299 20.121-16.884 12.658 4.546z"/><path fill="#50A9AA" d="m162.279 157.145 30.184 5.845-7.789 14.284-22.395-20.129z"/><path fill="#5EC0D9" d="m95.096 108.768 17.201-1.948-9.737-10.066h-7.789l-6.491.325-13.956 9.416 20.772 2.273z"/><path fill="#73CFE4" d="m87.954 93.183 6.817.325v3.246l-20.447 9.741 13.63-13.312z"/><path fill="#C4C4C4" d="m140.211 106.819 3.894-1.624 4.867 21.103 5.519 13.961 21.42 45.779-14.929 13.638-17.203-53.896-3.568-38.961z"/><path fill="#A2A2A2" d="m150.596 195.456-7.465-30.195-7.465-44.481 3.246-3.246 4.543 2.598 12.01 37.986 2.92 28.571 3.245 7.468-.649 5.521-10.385-4.222z"/><path fill="#8F8F8F" d="m117.165 103.573 21.747 13.961-1.624 11.039-6.491-6.169-15.579-15.26 1.947-3.571z"/><path fill="#399FB9" d="m140.21 106.82-22.395 2.921-23.043-12.986h20.122l25.316 10.065z"/><path fill="#73CFE4" d="M140.21 106.819 94.772 96.755l18.174-5.196 17.202 1.949 10.062 13.311z"/><path fill="#399FB9" d="m135.99 87.989-5.841 5.52-35.377 3.246-13.632-6.819 22.069-4.545 32.781 2.598z"/><path fill="#73CFE4" d="M91.202 72.402 81.139 89.936l54.852-1.947-34.08-14.936-10.709-.651z"/><path fill="#A2A2A2" d="m167.148 89.287-18.176 15.585 2.922 4.545 11.359-10.065 4.869-6.818-.974-3.247z"/><path fill="#8F8F8F" d="m145.403 111.364 3.568-6.493 14.283-5.519-14.283 19.48-3.568-7.468z"/><path fill="#C4C4C4" d="m145.727 70.456 2.271 19.48.974 14.936-6.166-2.598-.974-4.22.649-29.546 3.246 1.948z"/><path fill="#A2A2A2" d="m138.912 117.534 2.921-19.48 7.139 6.818V126.3l-10.06-8.766z"/><path fill="#399FB9" d="m165.85 78.572 31.482 5.521-34.078 15.259-15.256-9.416 17.852-11.364z"/><path fill="#5EC0D9" d="m164.876 73.053 16.552-2.273 15.905 13.312-49.334 5.844L154.814 75l10.062-1.947z"/><path fill="#399FB9" d="m111.973 69.156 27.587-.323 25.316 4.22-16.877 16.882-52.579-9.091 16.553-11.688z"/><path fill="#5EC0D9" d="m159.683 60.391 5.193 12.662-69.456 7.792 17.527-21.104 24.667-1.948 22.069 2.598z"/><path fill="#73CFE4" d="m134.691 50 24.991 10.392-46.736-.651L134.691 50z"/><path fill="#8BDFDC" d="m121.061 181.494-7.791 3.572-14.605-.651 13.307-9.739 9.089 6.818z"/><path fill="#1C7678" d="m121.061 181.495 5.517 6.818-6.491 11.038-21.421-14.935 22.395-2.921z"/><path fill="#369395" d="m80.491 181.17 18.175 3.246-14.606 8.768-17.526-6.169 13.957-5.845z"/><path fill="#8BDFDC" d="m88.929 176.299 9.737 8.116-32.132 2.599 22.395-10.715z"/><path fill="#8F8F8F" d="m233.358 228.897-137.613-3.571 14.281-25 16.553-12.013 31.806-1.623 36.026-4.87 148.323 12.661 6.815-8.765 19.475-4.872 377.459 6.497 24.992 32.789-130.149 66.56-297.618-34.417-110.35-23.376z"/><path fill="#2B2B2B" d="m552.722 225.977-2.921 11.038 38.947 13.311 13.307-2.272 90.553-12.339-52.904-3.894-15.254 4.544-5.193-1.297.325-4.547-66.86-4.544z" opacity=".1"/><path fill="#8F8F8F" d="m718.247 211.365 53.228 8.766 84.06-12.013-77.568-20.129-22.72-1.3-37 24.676z"/><path fill="#A2A2A2" d="m747.783 165.26 30.185 22.729-39.598 24.351 9.413-47.08zM195.06 173.378l-36.676 13.312 36.026-2.274.65-11.038z"/><path fill="#CECECD" d="m357.338 155.846 11.685 24.998 25.964 2.598 15.904-19.481 2.921-38.31-24.666-3.247-30.184 8.441-1.624 25.001z"/><path fill="#A2A2A2" d="m336.891 177.273 25.965-26.298 45.763 15.909-10.061 19.481-29.535-5.521-26.29 13.637-5.842-17.208z"/><path fill="#DDDDDC" d="m394.013 112.987-35.052 17.858 54.851-5.194-4.544-9.092-15.255-3.572z"/><path fill="#CECECD" d="m521.889 153.573-26.613 9.416-39.92-21.43-5.517-12.012 30.833-3.896 22.393 6.493 17.851.325 18.5 9.416-17.527 11.688z"/><path fill="#A2A2A2" d="m506.96 169.158-10.062-12.014 35.703-15.259 7.486-.079 19.721 12.238-10.692 26.691-18.139 1.41-24.017-12.987z"/><path fill="#DDDDDC" d="m461.847 114.287-12.008 15.26 53.226 2.597-9.087-17.208-8.764-3.246-23.367 2.597z"/><path fill="#EBEBEB" d="m446.916 102.274-52.903 10.714 19.799 12.663 36.026 3.895 35.375-17.856-38.297-9.416z"/><path fill="#9DA0A1" d="m155.789 218.183 42.842 6.494 4.867-22.403-9.087-17.859-38.622 33.768zM126.578 188.313l-19.149 31.493-29.534 3.571-27.913-15.259 76.596-19.805z"/><path fill="#71CACC" d="m237.252 112.664-46.413 34.74 7.466 74.027 37.649.648 9.737-3.895 10.061 4.219h4.868l12.657-30.843 8.764-50.649-44.789-28.247z"/><path fill="#EBEBEB" d="m204.471 177.599 26.29.648.324 31.494-22.719-.975-3.895-31.167zM237.577 177.923l-1.623 44.155h3.895l5.518-1.622 6.816 1.946h3.57l5.841-45.128-24.017.649z"/><path fill="#369395" d="M240.498 180.521h16.552l-4.868 41.882-12.334-.324.65-41.558zM207.718 180.844l8.438.327 1.297 10.713-8.114-.323-1.621-10.717zm20.123.65v10.39l-7.791.324-.648-11.037 8.439.323zm.324 25.002-7.141-.327-.648-11.364 7.465.976.324 10.715zm-9.737-.651-7.141-.323-1.297-10.717h7.463l.975 11.04z"/><path fill="#50A9AA" d="m311.251 127.274-79.191-26.299 43.814 43.182 14.282 11.039 16.226 1.299 4.869-29.221z"/><path fill="#50A9AA" d="m178.831 142.21 12.008 5.194 86.658-.649-.974-9.74-6.491-1.299-21.745-2.598-60.044 5.52-9.412 3.572z"/><path fill="#71CACC" d="m178.831 142.21 97.692-5.195-15.578-10.715-28.886-25.324-53.228 41.234z"/><path fill="#50A9AA" d="m292.102 214.612-31.482 7.791 16.877-75.648 28.561-.65-20.447 40.26 6.491 28.247z"/><path fill="#A2A2A2" d="m692.607 235.715-17.525-1.624-5.844-1.623-2.272 1.299-12.982-5.519-14.28 3.571-91.526-6.169 8.764-175.325L707.211 61.69l18.501 29.22-18.825 97.727-14.28 47.078z"/><path fill="#8F8F8F" d="M692.607 235.715 715.65 81.169l56.797 25.65-34.077 105.52-45.763 23.376z"/><path fill="#CECECD" d="m720.844 148.053 26.289 2.598-13.307 49.674-25.963 5.844 12.981-58.116z"/><path fill="#6E7073" d="m732.527 153.897-3.894 19.806-7.141-.326 3.896-19.48h7.139zm4.22 0-4.869 19.48 5.518-.324 4.543-17.857-5.192-1.299zm-.324 22.402-5.194 19.481-4.219 1.3 4.219-20.456 5.194-.325zm-13.632 21.429 4.867-20.777-7.788 1.623-4.22 21.103 7.141-1.949z"/><path fill="#EBEBEB" d="M642.949 147.729h47.062l-14.929 86.362-8.115-.324 14.929-80.844-37.973.326-.974-5.52z"/><path fill="#6E7073" d="m645.871 151.95 36.025.974-14.929 80.843-27.263-1.947 6.167-79.87z"/><path fill="#EBEBEB" d="m591.345 144.482 37.974 2.922-4.221 60.39-32.778-.325-.975-62.987z"/><path fill="#6E7073" d="M590.047 151.949h19.473l-.647 21.429-18.826-.649v-20.78zm38.298 0-1.949 21.754-12.982-.974 1.299-20.78h13.632zm-4.544 51.622-12.009-.973 1.298-23.7 12.982.324-2.271 24.349zm-17.85-1.622-16.229-1.298.325-21.429 19.149-1.298-3.245 24.025z"/><path fill="#8F8F8F" d="m624.449 236.364-2.92-5.844 7.14-81.492 2.596-6.494 20.772 9.416-12.333 79.87-15.255 4.544z"/><path fill="#CECECD" d="m627.371 142.858-8.114 92.209 5.193 1.297 6.817-93.83-3.896.324z"/><path fill="#DDDDDC" d="m62.641 238.962 21.744 4.546 93.472.648 12.657-5.843 36.028-3.895 34.077-12.016-104.831-4.219-48.359 1.623-29.534 3.571-15.254 15.585zm220.373 33.117 24.342 12.337 337.541 42.534 19.798-11.04-1.299-31.494-36.35-15.583-151.244-13.638-110.674-10.065-52.58 10.714-29.534 16.235z"/><path fill="#EBEBEB" d="m190.516 238.315 70.104-15.912 104.509 22.728-82.113 26.95-13.957-1.624-71.727-26.623-6.816-5.519z"/><path fill="#50A9AA" d="m588.748 75.65 1.623 13.962 123.008 7.143 55.823 20.779 15.578-5.845-22.068-16.234-46.089-19.157-119.111-7.142-8.764 6.494z"/><path fill="#50A9AA" d="M735.774 66.235 642.625 7.144l-6.816 3.571 68.156 64.936 15.256 5.194 65.236 30.195-48.683-44.805z"/><path fill="#71CACC" d="m642.625 7.144 76.597 73.702-130.474-5.194 6.816-45.456 47.061-23.052z"/><path fill="#CECECD" d="m183.7 249.352 8.113-6.168-.974-4.87-127.55.649-6.816 2.596 1.299 8.767 125.928-.974z"/><path fill="#DDDDDC" d="m183.701 249.352 7.139-11.038 92.175 33.766 4.868 9.089-17.202 9.093-86.98-40.91z"/><path fill="#CECECD" d="m270.682 290.263 403.426 59.738 5.516-21.427-14.928-12.663-381.68-43.831-12.334 18.183z"/><path fill="#EBEBEB" d="m817.561 230.845-4.868 9.741-132.095 73.7-15.903 1.624-37.65-47.078L738.37 212.34l51.604 7.142 27.587 11.363z"/><path fill="#DDDDDC" d="m664.695 315.91 9.412 34.09L826 244.482l2.597-8.442-11.035-5.194-152.867 85.064z"/><path fill="#CECECD" d="m817.562 230.845 8.439 13.637L900 242.858l-5.519-16.558-48.358-5.518-28.561 10.063z"/><path fill="#DDDDDC" d="M855.535 208.118 738.37 212.34l79.191 18.506 76.919-4.545-38.945-18.183zM0 232.144l57.772 18.181 9.736-19.805-25.316-6.166-34.402-4.547L0 232.144z"/><path fill="#EBEBEB" d="m49.982 208.117 57.447 11.689-44.789 19.157-54.851-19.157 42.193-11.689z"/><path fill="#73CFE4" d="m182.403 68.183-17.528 4.871 32.458 11.039-14.93-15.91z"/><path fill="#399FB9" d="m74.324 106.494 37.974.326-17.203 7.792-20.771-8.118zM426.47 78.572l-22.07 4.546 24.665 6.494 17.527-6.169-20.122-4.871z"/><path fill="#5EC0D9" d="m415.11 75.325-10.71 7.793 42.192.325-12.334-6.818-19.148-1.3z"/><path fill="#399FB9" d="m424.847 75.975 21.745 7.468 6.167-4.87-13.632-5.196-14.28 2.598z"/><path fill="#73CFE4" d="m424.847 75.975 27.912 2.598-14.93-8.766-12.982 6.168z"/><path fill="#71CACC" d="m421.277 101.95-5.518 6.818 13.308-6.17-7.79-.648z"/><path fill="#369395" d="m252.182 158.767.324 6.819h7.465l-.649-7.792-7.14.973zm-47.061 1.624v6.168h6.491l-1.298-6.168h-5.193zm13.956 0-.325 6.168 6.816-.324-.324-6.169-6.167.325zm16.227-.649-.973 6.169 7.465.324-.973-7.142-5.519.649z"/><path fill="#6E7073" d="m595.24 112.987-.324 9.417 10.06.325-1.947-9.417-7.789-.325zM616.661 113.637l-.975 9.74 10.71-.324-.324-9.416h-9.411zM641.651 113.637l-1.299 9.417 11.036.975-.648-11.366-9.089.974zM667.94 112.987l.324 10.391 11.685.649-.65-11.688-11.359.648z"/><path fill="#369395" d="m713.379 96.755 7.14-15.585 64.262 30.521-15.578 5.843-55.824-20.779z"/></g><g display="block"><path fill="#CECECD" d="m196.357 60.064 20.447 12.337 27.262-7.143 31.807 5.521 23.694-12.013-22.396-1.299-22.068 1.623-21.422-4.869-37.324 5.843z"/><path fill="#EBEBEB" d="m233.356 45.454-37 14.611 30.186-2.598 29.857 3.897 43.167-2.598-15.578-2.921-26.939-.65-23.693-9.741z"/><path fill="#CECECD" d="m525.784 32.143-25.966 15.26-34.401-8.767-40.246 7.143-29.86-15.584 28.238-1.623 27.912 2.272 27.262-6.169 47.061 7.468z"/><path fill="#EBEBEB" d="m478.724 13.312 47.06 18.831-38.297-3.247-37.648 4.87-54.527-3.571 19.798-3.572 33.755-.649 29.859-12.662z"/></g><g display="block"><path fill="#835840" d="m157.087 187.989 2.595 2.272 1.299 6.494-2.597.974-5.193-2.597 1.299-7.143h2.597z"/><path fill="#C09C84" d="m158.384 201.626 2.596-4.871-5.842-.649-1.622 5.196 4.868.324zM155.464 177.599l4.218 12.662-.974 1.3-2.271-1.3h-1.624l-4.543-9.417 5.194-3.245z"/><path fill="#50A9AA" d="m148.646 164.288 9.088 14.611-5.518 2.597-2.596-4.871-.974-12.337z"/><path fill="#A77D61" d="M159.683 190.261h-3.246l.649 2.599 5.841 3.247.974-.975-4.218-4.871z"/></g><g display="block"><path fill="#C09C84" d="m101.587 135.715 6.491 6.17-2.92 3.896-5.194.65-3.246-7.794 4.869-2.922z"/><path fill="#C09C84" d="m110.674 136.039-5.517 9.742 6.166 1.948.974-10.715-1.623-.975z"/><path fill="#A77D61" d="m107.429 150.975-7.465-4.545 7.789-5.195 3.571 6.494-.65 2.922-3.245.324z"/><path fill="#C09C84" d="m120.735 158.117-9.411-10.388-3.895 3.246 6.815 14.61 5.518-1.948.973-5.52z"/><path fill="#50A9AA" d="m112.622 167.209 8.114-9.092 6.491 2.598 4.543 13.312-3.569 5.844-15.579-12.662z"/></g><g display="block"><path fill="#2B2B2B" d="m151.893 144.806 8.764-14.934-8.116 1.299-.648 13.635z"/><path fill="#835840" d="m145.402 166.885-1.298-3.571 3.245-7.467h-16.552l4.868 10.389 9.737.649z"/><path fill="#A77D61" d="m133.392 160.067 1.298-.324.65-12.339-4.544-9.74-3.894 15.91 5.516 11.687 2.598.975-1.624-6.169z"/><path fill="#835840" d="m126.902 153.573 2.596-5.844-3.57.973-1.298.975 2.272 3.896z"/><path fill="#C09C84" d="m130.797 137.664 3.894 22.078 20.772-1.624-1.298-25.648-20.773 1.947-2.595 3.247z"/><path fill="#A77D61" d="m138.586 139.288-3.569.648 4.543 2.598 3.894 5.52 4.869-.325 1.622-5.519 4.22-3.572h-3.245l-3.248 1.298-3.244 1.299-1.948-.974-3.894-.973z"/><path fill="#4F5252" d="m145.077 136.04-11.36-6.817-2.921-6.819 12.984-7.792 8.438 6.819.65 5.843-7.791 8.766z"/><path fill="#464646" d="m160.656 129.872-8.439-8.441-7.141 14.61 15.58-6.169zM116.516 132.145l14.28-9.74 14.28 13.636-9.735-1.299-8.115.974-10.71-3.571z"/><path fill="#2B2B2B" d="m121.384 143.183-4.869-11.038 18.826 2.597-5.843 12.987-8.114-4.546z"/><path fill="#C09C84" d="m121.384 143.183 5.518-2.272 2.596 6.819-4.869 1.947s-2.921-6.819-3.245-6.494z"/><path fill="#2B2B2B" d="m135.017 139.937 3.569-1.3 3.895 1.624-7.464-.324zM147.672 139.936l3.247-2.596 3.247 1.297-6.494 1.299z"/><path fill="#C8AC9B" d="m142.481 140.26 5.192-.324.65 7.794-2.596.648-2.272-.324-.974-7.794z"/><path fill="#835840" d="m146.05 149.352-2.596-1.299 4.868-.323-2.272 1.622zM140.533 151.299l9.088-.648-.974 4.869-6.491.327-1.623-4.548z"/><path fill="#FFF" d="m142.481 152.274 5.518-.649-.326 2.598-4.543.65-.649-2.599z"/><path fill="#835840" d="m125.604 143.183-1.622.975 2.92 2.273-1.298-3.248z"/><path fill="#2B2B2B" d="M139.235 142.209a1.298 1.298 0 1 1 0 2.597 1.298 1.298 0 0 1 0-2.597zM150.595 141.559a1.3 1.3 0 0 1 0 2.598 1.298 1.298 0 0 1 0-2.598z"/></g><g display="block"><path fill="#71CACC" d="m126.578 188.313.648-27.598 3.571 1.299 12.333 3.246.974-1.947 4.543.975 6.167 25.972-10.061 2.923-18.175-4.87z"/><path fill="#50A9AA" d="m139.884 168.832 1.624 9.415 5.193-.974v-8.441h-6.817zm1.949 12.012 4.542-.648 1.299 2.921-5.841.325v-2.598z"/></g><g display="block"><path fill="#A77D61" d="m128.525 219.482-.324-15.26 10.71 3.247-4.869 12.013-2.595 1.624-2.922-1.624zM155.789 218.183l-.324-12.987-10.062.326 4.543 12.986 2.922 1.298 2.921-1.623z"/><path fill="#4F5252" d="m142.157 199.999 5.517-6.816 7.141-2.923.65 16.56-11.685.326-1.623-7.147zM126.578 188.313l-.975 19.48 13.308-.324 3.246-7.469-4.869-8.116-10.71-3.571z"/><path fill="#464646" d="m154.814 190.26-12.658 9.739-15.578-11.686 28.236 1.947z"/></g><g display="block" opacity=".1"><path fill="#060807" d="m136.315 224.353 38.946 2.92-26.29 5.195-29.209-2.921 16.553-5.194zm140.857 37.987 29.21-3.897 20.447-3.572 16.878-2.598 132.095 2.922 59.718 5.195 72.377 6.818-53.227 11.69-195.385-12.014-76.271 5.195-5.842-9.739z" opacity="1"/></g><g display="block"><path fill="#369395" d="M125.928 229.548V227.6l5.842-1.3 5.844.974v2.274h-11.686zM156.113 223.053l-6.815 2.597v1.623h15.252l-.325-1.948-8.112-2.272z"/><path fill="#50A9AA" d="m125.928 227.6 2.597-8.444 5.518-.322 3.571 8.44-11.686.326zM164.225 225.327l-8.437-7.144-5.843.326-.648 7.142 14.928-.324z"/></g><g display="block"><path fill="#464646" d="m596.214 253.573-7.466-3.249-13.632-22.725 3.896-10.716 21.096 12.339 1.946 18.83-5.84 5.521z"/><path fill="#4F5252" d="m600.108 229.223-4.22-38.638-1.623-1.948-30.509 20.129 11.36 18.834 24.992 1.623z"/><path fill="#464646" d="m563.756 208.765 32.132-18.181-3.896-1.623-23.043 2.272-5.193 17.532z"/><path fill="#27788B" d="m594.265 258.766-9.412 6.171.324 3.895 22.72-1.624v-4.22l-13.632-4.222z"/><path fill="#308FA6" d="m584.853 264.937 3.895-14.612 13.306-2.272 5.843 14.936-23.044 1.948z"/></g><path fill="#71CACC" d="m536.819 126.949-1.3-11.038-24.341-1.949-7.464 4.871-.651 13.311 31.807 10.39 1.949-15.585z" display="block"/><g display="block"><path fill="#C3977A" d="m574.142 117.211 2.597-4.546 13.632-23.052-.649-51.625-4.545 11.69-12.008 53.246-5.193 11.689-1.623 6.819 7.789-4.221z"/><path fill="#8A6651" d="m551.424 118.509-1.947-7.793-4.868-12.338 1.948-.973 26.936 3.247 1.622 1.298-8.761 19.481-14.93-2.922z"/><path fill="#4F5252" d="m532.275 69.482-6.491-37.337 2.596-.325 7.14 2.598.974 2.597-4.219 32.467z"/><path fill="#DFBCA4" d="m535.521 34.417-7.465 62.015 47.06 5.519 14.606-63.962-54.201-3.572z"/><path fill="#8A6651" d="m590.371 89.612 4.218-7.468-9.736-1.948 5.518 9.416z"/><path fill="#464646" d="m556.942 50.326-31.158-18.182 19.474-18.506 2.596-.65 9.736 33.767 23.043-27.922 2.923-.651 16.228 16.235-.975.973-13.632 5.521-1.621-.326-26.614 9.741z"/><path fill="#6E7073" d="m565.056.001-19.798 13.637 11.684 36.688 26.614-32.143-18.5-18.182z"/><path fill="#464646" d="m609.844 61.365-10.061-26.948-2.921 3.247s-8.439 24.351-8.439 24.676c-.325.325-.325 2.922-.325 2.922l6.491 16.883 15.255-20.78z"/><path fill="#4F5252" d="m588.098 65.261-4.542-24.676 16.228-6.168-11.686 30.844z"/><path fill="#DFBCA4" d="m584.854 80.196 9.735 1.948 5.843-15.26-12.333-1.624-3.245 14.936z"/><path fill="#8A6651" d="m588.748 75.652 1.623-7.144 6.167.975-7.79 6.169z"/><path fill="#C3977A" d="m548.179 73.378-7.142-13.961-6.49-6.817 16.877 2.597 2.272 3.897 5.194-3.247 6.814-.65 14.929 1.623-15.253 4.871-8.763 11.687h-8.438z"/><path fill="#8A6651" d="m551.424 77.598-3.246-4.22h8.44l-5.194 4.22z"/><path fill="#E8C9B6" d="m551.424 55.196-3.245 18.182h8.439l2.271-17.533-7.465-.649z"/><path fill="#464646" d="m548.178 54.872-9.087-7.142-4.545 4.87 13.632 2.272zM565.379 55.196l12.333-4.546 2.921 6.17-15.254-1.624z"/><path fill="#8A6651" d="m540.389 80.521 27.912 1.624-7.466 9.74-15.902-1.624-4.544-9.74z"/><path fill="#FFF" d="m543.96 82.794 20.12.974-3.893 5.844-13.631-.974-2.596-5.844z"/><path fill="#2B2B2B" d="M540.714 58.443a2.922 2.922 0 0 1 0 5.846 2.922 2.922 0 0 1 0-5.846zM566.353 61.04a2.924 2.924 0 0 1 0 5.846 2.922 2.922 0 0 1 0-5.846z"/></g><g display="block"><path fill="#369395" d="m535.52 115.91 12.008.324.974 2.599-.648 13.961 12.98 12.013.975 2.597 1.623 50.324-11.036-.973-24.342-16.559 7.466-64.286z"/><path fill="#71CACC" d="m579.661 118.182 9.41 1.3 6.818 71.104-18.826 2.274-16.227 1.946-.325-49.024.325-1.949 15.255-7.467 1.946-14.936 1.624-3.248z"/><path fill="#71CACC" d="m556.293 125.327-8.765-9.092-1.622 17.207 14.606 12.339-4.219-20.454z"/><path fill="#369395" d="m570.574 126.299 9.087-8.117-1.948 19.157-17.202 8.441 10.063-19.481z"/><path fill="#EBEBEB" d="m563.432 116.235-8.438 9.416-7.466-9.416 1.948-5.52 13.956 5.52z"/><path fill="#EBEBEB" d="m579.661 118.182-2.923-5.519-13.307 3.572 7.791 11.04 8.439-9.093z"/><path fill="#CECECD" d="m557.591 135.391-2.598-9.74 8.44-9.416 7.79 11.039-4.87 8.765-8.762-.648z"/><path fill="#4F5252" d="m560.836 129.223-3.246-6.494 5.843-6.494 5.517 7.794-4.543 5.518-1.624.65-1.947-.974z"/><path fill="#4F5252" d="m560.512 145.78-2.922-10.39 3.245-6.168 3.573.325 1.946 6.492-5.842 9.741z"/><path fill="#155E5F" d="m556.942 158.767 3.568-3.571 3.896 3.247-3.896 3.571-3.568-3.247zM557.266 176.623l3.245-3.246 3.245 3.573-3.245 2.921-3.245-3.248z"/></g><g display="block"><path fill="#369395" d="m491.056 100.001 20.123 13.962-8.115 18.182-17.851-20.455.974-9.74 4.869-1.949z"/><path fill="#EBEBEB" d="m486.512 96.754 4.545 3.247-5.843 11.689-4.543-5.196 2.595-7.792 3.246-1.948z"/><path fill="#DFBCA4" d="m484.241 72.728 2.271 24.026-5.84-1.298-2.598-4.871 3.571-17.857h2.596z"/><path fill="#C3977A" d="m473.854 86.69 12.657 10.064-5.84 9.742-9.088-16.883 2.271-2.923z"/></g><g display="block"><path fill="#73CFE4" d="m468.338 178.247 12.334-19.155 74.648 40.259-9.737 22.727-10.062 12.988-68.481-29.546 1.298-27.273z"/><path fill="#399FB9" d="m413.812 125.651 9.086 1.299 51.281 28.57 7.79 8.117-14.929 41.884-57.772-11.04-12.659-16.882 17.203-51.948zM535.52 235.067l7.466 5.194 6.814-3.247 6.492-24.35 5.518-10.39-9.737-1.299-16.553 34.092z"/><path fill="#5EC0D9" d="m436.531 160.066-2.272 7.793 7.141 3.895 2.921-8.117-7.79-3.571z"/><path fill="#308FA6" d="m508.907 194.805-1.947 6.821 6.166 2.921 2.272-6.819-6.491-2.923z"/><path fill="#27788B" d="m475.803 252.598-.65 9.415 8.438 4.546 7.79-10.065-15.578-3.896zM388.496 222.727l-5.843 2.599.326 7.468 7.465 2.921 5.517-8.442-7.465-4.546z"/><path fill="#399FB9" d="m366.101 220.13 2.922-39.286 11.683.974 129.499 47.079 4.869 9.092 11.359 11.363-12.982 17.856-147.35-47.078z"/><path fill="#308FA6" d="m543.635 261.366 6.166-24.352-21.095-8.117-11.359 2.597-2.273 6.496-1.623 29.219 30.184-5.843z"/><path fill="#5EC0D9" d="m481.97 163.637 3.894-7.467 11.035.974 63.937 37.662-5.515 4.546-5.52.648-67.831-36.363z"/><path fill="#73CFE4" d="m481.97 163.637 14.929-6.493-63.615-37.663-19.473 6.17 68.159 37.986z"/><path fill="#5EC0D9" d="m369.023 180.844 15.254-8.114 144.428 56.168-13.632 9.093-146.05-57.147z"/></g><g display="block"><path fill="#50A9AA" d="m604.652 151.95-15.579-32.469-14.605 38.637 6.166 8.767 9.414 6.818 14.604-21.753z"/><path fill="#369395" d="m562.459 189.936 12.009-31.818 15.579 15.586-12.983 19.155-8.114 1.623-6.491-4.546z"/><path fill="#EBEBEB" d="m560.837 194.806 1.623-4.87 14.605 2.923-4.219 6.169h-8.764l-3.245-4.222z"/><path fill="#DFBCA4" d="m549.801 200 11.034-5.194.324 8.765-10.709.327-.649-3.898z"/><path fill="#C3977A" d="m555.969 212.664 4.867-17.858 12.009 4.221-9.088 9.74-7.788 3.897z"/></g><g display="block"><path fill="#755345" d="m274.903 122.403 2.921-4.87 4.867 5.195-3.569 7.143-4.219-7.468z"/><path fill="#926C5A" d="m273.279 106.17-1.298 9.741-11.034 10.389 10.385 11.04 4.869-1.948 2.92-5.52-2.596-23.702h-3.246z"/><path fill="#755345" d="m279.121 129.871 15.903 13.312-5.193 22.402-18.499-28.246 7.789-7.468z"/><path fill="#308FA6" d="M311.252 127.274 294.05 142.21l-4.22 23.376 15.581-18.507 5.841-19.805z"/></g><g display="block"><path fill="#51362A" d="m320.015 114.935-15.578.975 14.93 4.869.648-5.844z"/><path fill="#755345" d="m309.954 100.324-6.491-1.947 8.14-13.961-.027 9.416-1.622 6.492z"/><path fill="#926C5A" d="m314.174 67.857-9.737 48.053 14.28.973 1.948 9.74L327.48 125l7.465-22.403-9.737-26.947-11.034-7.793z"/><path fill="#51362A" d="m322.936 102.921 6.491 9.093 2.921-11.04-9.412 1.947zM306.709 105.519l-.326 1.624 7.464-1.299-.324-1.299-6.814.974z"/><path fill="#6E7073" d="m308.331 60.714 14.28-13.961 23.369 7.792 18.823 12.338-36.349.974-20.123-7.143z"/><path fill="#858585" d="m373.893 46.103-51.282.65 38.948 19.156 10.709-6.493 1.625-13.313z"/><path fill="#6E7073" d="m392.392 85.714-18.5-39.61-12.334 19.804 10.386 12.988 20.448 6.818z"/><path fill="#4F5252" d="m353.445 125.975 38.947-40.261-30.832-19.805-30.185 15.26-.649 21.429-1.298 9.416 12.656 9.74 11.361 4.221z"/><path fill="#858585" d="m308.331 60.714 15.903 19.156 11.035-.65 26.29-13.312-53.228-5.194z"/><path fill="#6E7073" d="m361.559 65.909-37.326 13.962-.324 9.09 9.087-.973 28.563-22.079z"/><path fill="#99796A" d="m322.936 102.921.974-13.961 9.086-.973-2.27 14.61-7.79.324z"/><path fill="#51362A" d="m326.506 91.558-.324 6.494 3.57-6.818-3.246.324zM353.444 125.974l-24.016-13.961-1.948 12.986 11.684 8.118 10.061-2.922 4.219-4.221z"/><path fill="#4F5252" d="m312.226 76.623 4.218 2.272-4.542.326.324-2.598z"/></g><g display="block"><path fill="#399FB9" d="m320.665 131.17-3.57-3.572 2.919-3.571 33.429 1.948-.324 4.547-6.166 1.623-26.288-.975z"/><path fill="#5EC0D9" d="m358.961 130.845-47.71-3.571-7.14 12.986 4.219 11.364-14.93 7.792-14.929 26.622 13.307 6.17 38.621 4.546 12.334-2.273 5.193-20.454 9.411-18.181 1.624-25.001z"/><path fill="#399FB9" d="m293.401 159.416 56.474 6.17 7.464-9.739-1.623-12.664-51.604-2.923-10.711 19.156z"/></g><g display="block"><path fill="#755345" d="m374.864 217.532.974-8.116 11.684 9.418-2.272 2.596-10.386-3.898z"/><path fill="#308FA6" d="m369.023 180.844-10.063-49.999-12.333 47.728 5.844 10.712 11.034-1.296 5.518-7.145z"/><path fill="#755345" d="m369.023 180.843-16.552 8.442 12.008 23.054 7.789.324 3.569-3.247-6.814-28.573zM376.488 229.547l-10.712-6.17 8.44-2.596 8.438 4.544-6.166 4.222z"/><path fill="#926C5A" d="m365.777 223.378-1.298-11.038 11.36-2.923 6.814 15.909-16.876-1.948z"/></g><g display="block"><path fill="#4F5252" d="m311.575 229.871 1.298-17.858-12.332-13.311-22.07-12.664 10.061 39.287 9.087 7.791 13.956-3.245zM340.137 235.066l-10.385-5.52-16.879-17.534 11.686-13.31 18.175-4.222 10.709 29.547-13.306 11.039z"/><path fill="#155E5F" d="m277.172 262.339-.324-4.222 11.035-1.298 18.499 1.623-.324 3.248-28.886.649zM340.461 259.741l-11.034 3.247.324 3.897h29.534l.324-4.22-19.148-2.924z"/><path fill="#1C7678" d="m276.848 258.119 3.246-8.768 8.763-4.545 6.166 2.922 11.359 10.715-29.534-.324zM329.428 262.989l.323-8.441 5.517-5.845 8.44 3.569 15.902 10.393-30.182.324z"/><path fill="#464646" d="m278.47 186.038 34.402 25.976 29.862-17.534-64.264-8.442zM288.532 225.325l23.043 4.546-16.552 17.857-14.93 1.623 8.439-24.026zM329.751 229.547l23.692-5.52-9.736 28.246-13.956 2.274v-25z"/></g></g></svg>