<svg xmlns="http://www.w3.org/2000/svg" width="900" height="350" style="width:100%;height:100%;content-visibility:visible" viewBox="0 0 900 350"><defs><clipPath id="a"><path d="M0 0h900v350H0z"/></clipPath></defs><g clip-path="url(#a)"><g display="block"><path fill="#DEDEDC" d="m494.659 108.431 38.036 20.572 57.09.687 116.931 57.603-21.502 64.46-287.685-9.601-128.271-17.83 36.454-45.945 82.539-35.659 58.466 3.429 47.942-37.716z"/><path fill="#D0CFCE" d="m388.252 142.718 10.094 69.748-78.61 12.654-18.68-48.555 87.196-33.847z"/><path fill="#C5C5C5" d="m414.308 199.013-18.979-5.004-38.282 5.278-5.535 22.176h62.046l.75-22.45zM585.936 228.447l-23.018-37.914-39.029-17.959-35.859-.333-62.714 44.233 160.62 11.973z"/><path fill="#D0CFCE" d="m585.935 228.446-86.341-14.967-11.565-41.239-92.7 21.769 10.139 38.095 180.467-3.658z"/><path fill="#C5C5C5" d="m610.453 158.107-.72 27.471-17.293 35.385 78.681 1.902-60.668-64.758z"/><path fill="#ECECEB" d="m523.89 172.574-29.229-64.144 45.24 20.743-16.011 43.401zM589.786 129.689l58.636 26.574-2.443 12.82-36.247 16.496-19.946-55.89z"/><path fill="#D0CFCE" d="m422.147 145.303 27.686-23.114 44.827-13.758 29.229 64.144-35.861-.334-65.881-26.938zM562.917 190.532l46.815-4.955 22.403 34.222-79.1-7.441 9.882-21.826z"/><path fill="#A5A5A5" d="m307.729 191.281 49.318 8.007-8.037 35.643-51.039-18.208 9.758-25.442z"/><path fill="#A2D083" d="m631.742 220.207 50.728-2.742 31.811 19.887-74.973 9.599-7.566-26.744z"/><path fill="#9CC372" d="m568.462 217.465 12.897-7.2 42.179 3.091 58.932 4.109-69.299 23.315-44.709-23.315z"/><path fill="#C1DC92" d="m508.622 237.523 19.732-22.629 53.006-4.628 9.284 16.457-58.808 15.944-23.214-5.144z"/><path fill="#D9E25E" d="m343.027 311.07-13.069 38.745 143.584-9.601 81.164 10.286 73.598-4.457 99.562-55.546s-31.984-17.486-34.047-16.972c-2.064.514-116.071-4.629-116.071-4.629l-112.975-11.314-100.079 8.743-21.667 44.745z"/><path fill="#B9C84F" d="m373.527 279.912 17.992 12.642 74.285-13.887 219.762 45.775 49.007-51.946-109.88-33.43-209.96 16.458-41.206 24.388z"/><path fill="#C1DC92" d="m582.219 251.752 8.426-25.03 123.636 10.631 51.588 22.629-183.65-8.23z"/><path fill="#A2D083" d="m510.686 233.409 79.96-6.686 38.003 17.144-126.218 11.143 8.255-21.601zM408.543 226.979l-3.611-19.801 94.662 6.301-1.548 29.958-89.503-16.458z"/><path fill="#C1DC92" d="m454.456 227.751-4.299-9.772-45.225-10.8-30.952 3.857 69.127 26.487 11.349-9.772z"/><path fill="#A2D083" d="m425.051 234.18-5.502-14.829-45.569-8.315-66.289 7.457 101.626 25.973 15.734-10.286z"/><path fill="#9CC372" d="m510.685 248.066-1.203-19.286-59.325-10.801-30.609 1.373-3.783 3.256 94.92 25.458z"/><path fill="#A2D083" d="m541.122 252.952 87.526-9.086 95.608 7.886-30.264 24.001-53.995 1.715-98.875-24.516z"/><path fill="#9CC372" d="m503.807 246.951 23.258-1.457 101.584-1.628 16.164 26.572-46.774-.856-83.226-15.429-11.006-8.573"/><path fill="#C1DC92" d="m483.345 248.838-67.58-26.229-89.762-1.029 17.196 23.658 108.677 5.486 31.469-1.886z"/><path fill="#A2D083" d="m509.998 244.552-20.592-4.2-73.64-17.744-7.566 6.858 83.227 28.8 18.571-13.714z"/><path fill="#9CC372" d="m424.707 244.038-16.164-14.572-78.412.085 9.027 35.745 85.549-21.258z"/><path fill="#759F5A" d="m486.439 253.724 4.515-6.558-82.755-17.7-60.529 23.487 138.769.771zM626.241 274.039l17.023 16.973 93.373-3.086-52.103-28.802-39.722 11.315-18.571 3.6z"/><path fill="#78905F" d="m417.313 262.21 79.96-2.571 145.992 31.373 1.548-20.573-146.508-21.601-80.992 13.372z"/><path fill="#78905F" d="m379.654 307.984 14.805-30.732 102.814-17.613 1.031-10.801-150.634 4.115-40.238 2.571 1.032 45.774 71.19 6.686z"/><path fill="#D9E25E" d="m499.594 213.479-10.188 26.873 37.658 5.143 1.29-30.602-28.76-1.414z"/><path fill="#D9E25E" d="m489.406 240.351-23.086 9.258 26.481 7.972 30.006-5.144 4.257-6.942-37.658-5.144z"/><path fill="#D9E25E" d="m466.321 249.609-3.479 16.002 59.966-.315v-12.858l-56.487-2.829z"/><path fill="#3B3C3B" d="m62.248 168.816 14.136-3.36 14.135 3.577-14.461 3.577-13.81-3.794z"/><path fill="#A5A5A5" d="m67.919 152.568.043.159.75 2.793 1.585.81-.501-3.637"/><path fill="#D0CFCE" d="m68.67 151.737 1.313 4.323 1.647.811-2.356-4.656-.604-.478z"/><path fill="#9FA3A4" d="m74.966 156.434-6.254-.915 6.192 4.304.062-3.389z"/><path fill="#A5A5A5" d="m75.3 153.152 3.884-.781-2.509 10.098-1.925-3.615.55-5.702z"/><path fill="#9FA3A4" d="m75.751 156.683 3.645 12.572-2.369.978-2.026-9.933.75-3.617z"/><path fill="#88898A" d="m75.425 159.874-.502 2.992-.947 6.519 3.051.847-1.602-10.358z"/><path fill="#D0CFCE" d="m73.923 152.174 1 10.692 1.67-10.506-2.67-.186z"/><path fill="#437D64" d="m85.905 148.685 1.31 2.572-3.391 2.179-9.794-.757-4.023-5.147 15.898 1.153z"/><path fill="#4A9275" d="m70.746 149.314-3.253-1.101-5.456.55 5.028 5.56 6.965-1.644 4.975-3.936-8.259.571z"/><path fill="#4A9275" d="m66.404 141.88 10.715 8.319 11.575 1.749 1.81-3.429-24.1-6.639z"/><path fill="#5CB28F" d="m65.001 143.622-9.009 1.163 4.447 6.067 16.681-.653-1.239-2.427-10.88-4.15z"/><path fill="#4A9275" d="m80.326 141.216 10.178 7.302 4.212-2.572-.468-2.904-13.922-1.826z"/><path fill="#5CB28F" d="m76.466 141.88-.585 5.893 14.624.747-3.861-3.651-4.977-1.463-5.201-1.526z"/><path fill="#4A9275" d="m70.85 141.217-10.763.249-4.095 3.319 19.889 2.988 10.295-4.73-15.326-1.826z"/><path fill="#79C8A7" d="m75.412 138.81 11.231 6.058 7.604-1.826-3.86-2.572-3.276-.415-11.699-1.245z"/><path fill="#5CB28F" d="m71.317 138.726-4.095 1.079-7.136 1.659 26.558 3.403-6.084-6.472-9.243.331z"/><path fill="#79C8A7" d="m74.944 135.573-7.722 4.233 19.89.249-5.052-3.067-7.116-1.415z"/><path fill="#5CB28F" d="m327.171 156.068-7.017-.797-3.024 1.672-.478 3.691 3.101.035 10.577-.427-3.159-4.174z"/><path fill="#929292" d="m334.21 170.233 4.349-1.814.697.422-5.27 4.338.224-2.946z"/><path fill="#C5C5C5" d="m338.56 168.419 1.622-3.814 1.424.062-2.351 4.174-.695-.422z"/><path fill="#A5A5A5" d="m333.389 177.23-5.102-9.696-.836-5.27 2.131 5.07 2.771 4.007 1.036 5.889z"/><path fill="#C5C5C5" d="m333.288 175.054-4.341-7.566-1.131-3.322 2.849-1.726-.618 5.007 3.138 4.623.103 2.984z"/><path fill="#A5A5A5" d="m333.643 187.198-.305-8.247.493-13.913.974-.186 1.781 20.98-2.943 1.366z"/><path fill="#C5C5C5" d="m333.831 165.037-1.057.24-.805 21.212 1.674.708.188-22.16z"/><path fill="#437D64" d="m347.346 165.44-8.091 1.43-6.481-1.593-4.993-1.114-5.28.024-5.848-3.554 11.393-1.011 13.376 2.925 9.831-.531-3.907 3.424z"/><path fill="#4A9275" d="m316.652 160.633 10.318 2.284h14.266l-13.114-4.08-11.47 1.796zM341.236 162.917l1.706-1.596 6.976-3.684 1.336 4.379-10.018.901z"/><path fill="#437D64" d="m341.236 162.917 8.682-5.28-17.936-1.676-3.936 2.921 13.19 4.035z"/><path fill="#5CB28F" d="m349.918 157.637-2.139-2.69-18.637-1.748 3.211 3.131 17.565 1.307z"/><path fill="#4A9275" d="m328.046 158.882 4.307-2.551-2.47-2.946-2.49-.831-4.503-.464-2.735 3.181 7.891 3.611z"/><path fill="#79C8A7" d="m347.78 154.948-2.211-5.197-12.134-.706 1.627-2.619-7.422 1.663-4.75 4.002 5.471-1.339 1.522 2.634 17.897 1.562z"/><path fill="#5CB28F" d="m329.884 153.385-1.523-3.188-5.471 1.894 6.994 1.294z"/><path fill="#79C8A7" d="m335.061 146.425 10.508 3.327-17.208.445 6.7-3.772z"/><path fill="#3B3C3B" d="m692.578 169.483 14.386-3.42 14.385 3.64-14.717 3.642-14.054-3.862z"/><path fill="#437D64" d="m699.058 142.751-3.967 1.337.782 1.672 7.264 2.229s-.614-4.904-.949-4.848c-.336.055-3.13-.39-3.13-.39zM703.194 142.027l10.304-1.546-8.963 7.118-1.341-5.572z"/><path fill="#929292" d="m706.498 149.114.884-6.848-2.59.159 1.706 6.689zM702.07 148.498l-4.298-.955 2.683 2.953 2.35.701-.735-2.699z"/><path fill="#A5A5A5" d="M700.456 150.495 695.739 144l-2.657-.289 5.949 6.199 1.425.585z"/><path fill="#929292" d="m710.384 168.657-1.32-11.733-1.07.427-.612.68-1.81 5.917.789 6.492 4.023-1.783z"/><path fill="#C5C5C5" d="m706.286 170.365 1.095-12.334-.696.176-.274.451-1.819 5.416-1.5 5.462 3.194.829z"/><path fill="#A5A5A5" d="m706.412 158.658-3.319 10.878-1.335-.362 3.479-9.722.446-.581.729-.213zM706.351 158.657 703.093 144l1.699-1.577 4.272 14.501-2.713 1.733z"/><path fill="#D0CFCE" d="m706.412 158.658-3.45-8.309-1.622-5.484 1.752-.865 1.599 4.686 1.352 7.77.369 2.202z"/><path fill="#929292" d="m705.237 159.453-4.813-14.381.917-.207 2.522 6.861 2.549 6.933-1.175.794z"/><path fill="#4A9275" d="m686.2 144.924 9.72-.327 2.373.189 2.305.839 10.745-3.32-14.386-3.866-10.758 6.485z"/><path fill="#437D64" d="m686.2 144.925-7.444-2.37 17.846-1.413 29.252-3.875-14.51 5.039-14.742-.789-10.403 3.408z"/><path fill="#437D64" d="m696.602 141.516-17.802 1.041 11.133-5.037 10.902-1.055-1.604 2.684-2.629 2.367z"/><path fill="#5CB28F" d="m696.602 141.515 4.233-5.05 7.492.005 17.528.797-29.253 4.248z"/><path fill="#4A9275" d="m678.755 142.554 8.402-8.756 7.41 1.071 6.268 1.595-22.08 6.09z"/><path fill="#79C8A7" d="m687.157 133.798 13.678 2.666 25.019.802-5.071-2.687-16.066-2.845-17.56 2.064z"/><path fill="#4A9275" d="m706.697 130.581 6.27-1.076 5.526 4.636-13.775-2.034 1.979-1.526z"/><path fill="#5CB28F" d="m712.966 129.505-8.249 2.602-22.773 7.14 3.259-8.044 15.86-1.344 11.903-.354z"/><path fill="#79C8A7" d="m685.204 131.203 16.683-4.128 11.207 2.418-27.89 1.71z"/><path fill="#4A9275" d="m700.209 142.367.389 3.258-4.678-1.029 4.289-2.229z"/><path fill="#D0CFCE" d="m362.603 202.007-1.584 11.723 2.501 15.839-23.392 7.857-7.63-32.675 30.105-2.744z"/><path fill="#DEDEDC" d="m353.013 187.539 29.437-.665-21.432 26.856-18.388-5.113 3.127-19.831 7.256-1.247z"/><path fill="#C5C5C5" d="m340.253 203.753 2.376 4.864-2.501 28.809-23.768 4.49-10.007-36.417 33.9-1.746z"/><path fill="#D0CFCE" d="m347.039 193.152-4.41 15.464-132.598 7.109 124.717-25.192 12.291 2.619z"/><path fill="#A5A5A5" d="m157.572 209.236 4.642 37.03 62.421-28.03-7.996-22.372-59.067 13.372z"/><path fill="#A5A5A5" d="m146.997 178.12 4.9 40.63 60.615-9 3.095-22.63-68.61-9z"/><path fill="#A5A5A5" d="m149.06 153.947 17.54 42.946 13.67-1.972 36.369-28.116-4.127-10.543-63.452-2.315z"/><path fill="#C5C5C5" d="m169.695 156.777 9.286 10.972-12.381 29.144-49.345-2.369-4.306-21.118 56.746-16.629z"/><path fill="#A2D083" d="m160.581 155.062-6.878-5.315 47.804.857 18.866-.765-12.676 24.766-15.82-13.029-31.296-6.514z"/><path fill="#A5A5A5" d="M81.481 180.434 67.3 227.449l-3.752 42.569 93.25-20.667-30.436-59.145-27.599 8.228-17.282-18z"/><path fill="#A5A5A5" d="m111.466 157.259-6.319 27.516-6.9 48.634 56.488 6.686-20.134-48.398-9.841-17.459-13.294-16.979z"/><path fill="#C5C5C5" d="m70.648 176.577-10.103 22.436 5.004 14.217 1.751 14.218 31.774 3.991 13.875-58.034-42.301 3.172z"/><path fill="#A5A5A5" d="m95.925 165.262-56.729 5.316 26.353 42.652 28.313-16.338 4.044-14.009-1.981-17.621z"/><path fill="#C1DC92" d="m110.37 159.005-6.706-3.086 50.039-6.172 59.325 14.401-34.047 3.601-68.611-8.744z"/><path fill="#A5A5A5" d="m671.121 222.865-1.805 25.201 15.734 11.23 53.908 1.371-24.245-26.744-43.592-11.058z"/><path fill="#A5A5A5" d="m665.705 220.551-2.064 25.458 21.408 13.287 11.521-17.401-12.295-20.83-18.57-.514z"/><path fill="#C5C5C5" d="m649.455 195.607-2.321 9.515 18.313 32.916 7.48 5.657 5.846-9.515.861-23.658-30.179-14.915z"/><path fill="#A5A5A5" d="m643.436 227.065 11.004 28.458 30.609 3.772-38.174-55.544-3.439 23.314z"/><path fill="#C5C5C5" d="m633.807 206.15.344 18.172-5.846 19.544 26.136 11.658-7.565-51.774-13.069 2.4z"/><path fill="#A5A5A5" d="m635.526 178.72-25.794 6.857 24.417 38.745 18.23-27.087-16.853-18.515z"/><path fill="#C5C5C5" d="m668.542 175.634-30.265 11.658 8.857 17.83 35.851 11.658-3.094-39.775-11.349-1.371zM758.991 228.437l13.241-16.629 17.539-8.744 17.712 31.202-48.148 1.714-.344-7.543z"/><path fill="#A5A5A5" d="m824.85 221.065-1.16 22.18 12.51 30.794-39.206 3.6 10.489-43.373 17.367-13.201z"/><path fill="#A5A5A5" d="m812.298 188.32 37.831-10.458-27.343 64.804-15.302-8.401-17.712-31.201 22.526-14.744z"/><path fill="#9CC372" d="m789.772 203.064 60.356-25.2-102.072 2.36 41.716 22.84z"/><path fill="#DEDEDC" d="m770.405 195.355 19.366 7.709-19.602 28.287-27.858-6.686 5.675-20.572 22.419-8.738z"/><path fill="#DEDEDC" d="m740.763 200.493 20.291 8.057 28.717-5.486-15.476-9.772-14.982-8.87-18.55 16.071z"/><path fill="#C5C5C5" d="m750.049 174.777-5.159 32.916 13.241 15.772-19.947 20.744-29.921-12.858 12.382-40.116 29.404-16.458z"/><path fill="#C5C5C5" d="m680.923 190.035-2.149 44.145 17.626 7.8 23.729-32.744-31.296-24.344-7.91 5.143z"/><path fill="#C5C5C5" d="m688.833 184.892 4.127 11.658 14.015 25.801 9.027-4.2 3.783-35.316-26.138-7.886-4.814 9.943z"/><path fill="#C5C5C5" d="m714.584 213.736-7.609 8.615-10.576 19.629 27.857 9.772 11.092-9.472-7.309-8.7-13.455-19.844zM713.594 177.691l14.788 35.66 29.749 10.114 9.113-40.974-53.65-4.8z"/><path fill="#DEDEDC" d="m706.974 222.35 21.064 11.229-.343-13.714-7.91-37.03-6.749 4.543-6.062 34.972z"/><path fill="#DEDEDC" d="m725.975 174.263 2.407 18.515-.687 27.087-17.54-39.087-7.909-6.172 23.729-.343zM690.896 175.12l-13.412 13.887 1.289 45.173 27.255-46.202-9.285-9.086-5.847-3.772z"/><path fill="#DEDEDC" d="m725.976 174.263-51.244-1.029 2.752 15.773 15.475 7.543 15.132-18.173 17.885-4.114z"/><path fill="#A2D083" d="m648.422 156.262 57.09 1.2 66.891-5.486 9.974-1.028 40.409 5.571 2.322 21.087-55.371 10.931-41.355 4.241-79.96-36.516z"/><path fill="#C1DC92" d="m648.422 156.261 57.09 1.201 44.711-4.011-26.484 19.782 4.643 19.544-79.96-36.516z"/><path fill="#9CC372" d="m648.422 156.262-24.375 18.129 83.185 15.559 25.535-11.315-9.028-5.401-75.317-16.972z"/><path fill="#9CC372" d="m826.914 178.377 11.177-7.2-15.305-14.657-99.046 16.714-5.331 9.258 63.108 3.6 45.397-7.715z"/><path fill="#759F5A" d="m728.382 192.778 61.389 10.287-20.034-14.528-41.355 4.241z"/><path fill="#A2D083" d="m783.748 179.059 54.344-7.882 12.037 6.686-80.225 10.716 13.844-9.52z"/><path fill="#9CC372" d="m714.97 184.891 3.438-2.399 66.34-2.601-15.01 8.647-41.356 4.239-13.412-7.886z"/><path fill="#9CC372" d="m624.048 174.391-14.315 11.187 118.649 7.2-4.643-19.544-99.691 1.157zM39.196 170.578l36.527-5.155 27.94-9.504 75.317 11.828-81.074 15.136-58.71-12.305z"/><path fill="#A2D083" d="m279.708 175.567 44.533 1.996 32.858 6.651 25.351 2.662-35.318 6.277-67.424-17.586z"/><path fill="#9CC372" d="m279.708 175.567 26.018-1.33 18.515 3.326 22.891 15.589-38.737 6.693-28.687-24.278z"/><path fill="#3B3C3B" d="m126.151 157.725 13.813-3.284 13.814 3.496-14.132 3.496-13.495-3.708zM756.095 173.984l23.707-5.636 23.707 5.999-24.254 6-23.16-6.363z" opacity=".1"/><path fill="#D0CFCE" d="m804.729 117.909-5.371 16.436 4.747-2.364 4.435-10.369-3.811-3.703z"/><path fill="#A5A5A5" d="m808.167 117.788-7.104 15.594-1.706.963 4.289-17.108 4.521.551z"/><path fill="#88898A" d="m779.197 139.057 24.909-7.076-24.909 14.154v-7.078z"/><path fill="#A5A5A5" d="m776.89 126.066 11.003-2.599-7.109 33.576-5.453-12.022 1.559-18.955z"/><path fill="#9FA3A4" d="m778.164 137.806 10.382 37.389-7.607 2.865-4.899-28.231 2.124-12.023z"/><path fill="#88898A" d="m777.244 148.415-1.424 9.947-4.523 16.833 9.642 2.866-3.695-29.646z"/><path fill="#D0CFCE" d="m772.988 122.816 2.831 35.546 4.471-32.729-7.302-2.817z"/><path fill="#437D64" d="m805.495 113.344 6.387 8.856-25.324 7.136-9.631-4.188-7.831-14.936 36.399 3.132z"/><path fill="#4A9275" d="m770.788 115.053-7.449-2.99-21.824 4.092 31.811 11.324 4.981-3.294 11.389-10.685-18.908 1.553z"/><path fill="#4A9275" d="m760.849 94.874 24.532 22.58 26.5 4.748 12.325-7.556-63.357-19.772z"/><path fill="#5CB28F" d="m757.634 99.604-13.55 3.529-2.569 13.023 43.866 1.298-2.837-6.587-24.91-11.263z"/><path fill="#4A9275" d="m792.723 93.072 23.303 19.822 8.18 1.752.391-16.619-31.874-4.955z"/><path fill="#5CB28F" d="m783.884 94.874-1.34 15.992 41.662 3.78-17.019-11.664-11.396-3.964-11.907-4.144z"/><path fill="#4A9275" d="m771.027 93.073-24.643.676-2.3 9.384 38.461 7.732 23.571-12.837-35.089-4.955z"/><path fill="#79C8A7" d="m781.473 86.54 25.714 16.442 17.41-4.955-8.839-6.982-7.5-1.126-26.785-3.379z"/><path fill="#5CB28F" d="m772.099 86.315-9.374 2.928-16.34 4.505 60.803 9.234-13.929-17.568-21.16.901z"/><path fill="#79C8A7" d="m784.195 81.238 13.116 9.306 10.946-.625-11.567-8.322-12.495-.359z"/><path fill="#79C8A7" d="m780.402 77.756-17.678 11.487 34.588 1.301-.621-8.947-16.289-3.841z"/><path fill="#5CB28F" d="m127.283 103.022-12.712-1.443-6.343 9.715 5.618.063 19.16-.772-5.723-7.563z"/><path fill="#929292" d="m140.035 128.686 7.881-3.287 1.26.765-9.546 7.857.405-5.335z"/><path fill="#C5C5C5" d="m147.916 125.399 2.938-6.913 2.582.114-4.261 7.564-1.259-.765z"/><path fill="#A5A5A5" d="M138.548 141.362 123.321 114.8l2.722 1.011 10.628 14.883 1.877 10.668z"/><path fill="#D0CFCE" d="m138.364 137.42-15.043-22.62 2.722-.664 12.137 17.876.184 5.408z"/><path fill="#A5A5A5" d="m139.008 159.419-.551-14.941.892-25.206 1.764-.337 3.228 38.009-5.333 2.475z"/><path fill="#C5C5C5" d="m139.35 119.272-1.916.437-1.46 38.427 3.034 1.284.342-40.148z"/><path fill="#437D64" d="m163.834 120.003-14.659 2.59-11.74-2.885-9.047-2.018-9.565.042-10.595-6.437 20.64-1.834 24.233 5.301 17.811-.964-7.078 6.205z"/><path fill="#4A9275" d="m108.228 111.295 18.692 4.136h25.844l-23.758-7.39-20.778 3.254zM152.765 115.431l3.091-2.891 12.637-6.675 2.419 7.933-18.147 1.633z"/><path fill="#437D64" d="m152.765 115.431 15.727-9.566-32.494-3.036-7.13 5.292 23.897 7.31z"/><path fill="#5CB28F" d="m168.493 105.864-11.31-7.702-26.33-.334 5.818 5.67 31.822 2.366z"/><path fill="#4A9275" d="m128.868 108.122 7.802-4.622-4.473-5.337-4.512-1.505-8.158-.84-4.955 5.761 14.296 6.543z"/><path fill="#79C8A7" d="m157.182 98.163-6.201-10.059-18.389 2.2-2.666-4.033-10.398 9.547 9.911-2.426 2.757 4.771h24.986z"/><path fill="#5CB28F" d="m132.197 98.163-2.758-5.776-9.912 3.431 12.67 2.345z"/><path fill="#79C8A7" d="m129.927 86.271 21.055 1.833-21.541 4.283.486-6.116z"/><path fill="#C5C5C5" d="m36.347 283.206 21.03-.717.25 26.818-23.472 12.472-7.608-31.373 9.8-7.2z"/><path fill="#A5A5A5" d="m25.128 284.749-17.024.386-7.935 30.113 33.987 6.531 2.321-32.144-11.349-4.886z"/><path fill="#C1DC92" d="m40.861 280.377-32.758 4.758 28.373 4.499 21.401-7.144-17.016-2.113z"/><path fill="#C5C5C5" d="m875.406 272.839 8.941-1.886 15.821 23.487-17.196 8.057-7.394-21.086-.172-8.572z"/><path fill="#A5A5A5" d="m876.782 274.039 2.406 6.172 3.783 22.286-8.082.344-24.761-.344v-18.171l12.037-9.601 14.617-.686z"/><path fill="#DEDEDC" d="m853.911 268.21 30.437 2.743-5.159 9.257-38.519-1.199 13.241-10.801z"/><path fill="#C5C5C5" d="m767.934 232.551 39.55 1.715 8.597 39.772-62.591 1.373 14.444-42.86z"/><path fill="#A5A5A5" d="m758.991 228.437-30.952 5.143-4.299 18.172 59.325 30.859v-45.259l-24.074-8.915z"/><path fill="#C5C5C5" d="m828.462 269.41 28.89-4.629.514 49.374-67.579 7.2 8.771-43.202 29.404-8.743z"/><path fill="#A5A5A5" d="m810.921 276.097 11.35 5.143-.688 45.602-59.153-21.944-6.191-26.744 27.857-5.143 26.825 3.086z"/><path fill="#9CC372" d="m751.598 278.154 70.673 3.086 35.08-16.458-94.577 3.429-11.176 9.943z"/><path fill="#C5C5C5" d="m802.668 298.212 72.222 4.628 8.254 30.088-94.405 16.714-14.443-30.343 28.372-21.087zM733.284 265.039l36.368-5.4 4.386 52.202-44.108 15.344-27.083-60.86 30.437-1.286z"/><path fill="#A5A5A5" d="m725.804 261.352-40.583-2.056-8.443 49.073.19 14.7 31.295 4.575 21.667-.46-9.63-52.116 5.504-13.716z"/><path fill="#C5C5C5" d="m659.001 322.084 44.184-13.344 5.078 18.904-37.581 21.87-11.681-27.43zM137.196 199.464l29.403-2.571 6.192 73.546-55.2 4.114 5.159-71.489 14.446-3.6z"/><path fill="#929292" d="m126.362 197.921-32.5-1.028-4.901 79.717 53.393 21.087 1.031-60.431-7.737-29.059-9.286-10.286z"/><path fill="#C5C5C5" d="m100.569 245.238 19.603-1.028 5.159 32.915-16.508 31.373H88.187l3.095-52.459 9.287-10.801z"/><path fill="#9FA3A4" d="m87.671 249.867-33.13 3.022-4.252 63.106 51.826-3.897-1.546-55.032-12.898-7.199z"/><path fill="#A5A5A5" d="m130.317 283.297-90.105 19.544 1.031 31.544 89.074 15.43 50.899-48.688-50.899-17.83z"/><path fill="#C5C5C5" d="m196.349 295.64-33.017 45.945-33.015 8.229 1.778-27.749 44.306-30.539 19.948 4.114z"/><path fill="#A5A5A5" d="m280.264 320.326-35.08 28.801-81.851-7.543 11.126-29.118 100.99-2.426 4.815 10.286z"/><path fill="#C5C5C5" d="m243.121 293.582 1.947 33.602.116 21.944 127.249-21.602 44.708-8.571-22.513-41.687-126.957 13.671-24.55 2.643z"/><path fill="#A5A5A5" d="m664.587 316.524-34.026 10.008-4.063 20.387 44.184 2.595 4.57-21.129-10.665-11.861z"/><path fill="#DEDEDC" d="m676.777 308.369-46.216 18.163 44.692 1.853 27.932-19.645-26.408-.371zM175.744 252.95l218.884 24.318-149.561 49.916-70.608-14.719-42.364 9.599-91.883-19.224 85.118-25.716 50.414-24.174z"/><path fill="#A5A5A5" d="m336.063 291.012 21.667-1.287 15.047 37.91-42.818 22.18-21.754-35.66 3.869-19.287 23.989-3.856z"/><path fill="#929292" d="m287.829 298.983-15.734 2.829-3.869 42.944 61.732 5.058-11.95-46.974-30.179-3.857z"/><path fill="#C5C5C5" d="m295.567 285.182 62.162 4.543-39.722 13.115-45.912-1.029 23.472-16.629z"/><path fill="#A5A5A5" d="m161.957 236.495-18.572.771-18.055 39.859 41.786 5.143 28.888-44.23-34.047-1.543z"/><path fill="#D0CFCE" d="m146.859 276.466 21.266-2.374-1.251 26.292-20.849 11.829-20.974-27.381 21.808-8.366z"/><path fill="#C5C5C5" d="m102.952 271.704-11.759-2.476-4.378 30.722 59.21 12.263-10.466-29.793-32.607-10.716z"/><path fill="#9CC372" d="m91.193 269.228 32.399-4.366 44.533 9.23-32.566 8.328-44.366-13.192z"/><path fill="#C5C5C5" d="m180.529 237.266-8.513 5.915-4.901 39.087 76.092-20.315-30.952-38.059-31.726 13.372z"/><path fill="#DEDEDC" d="m206.58 219.779-63.194 17.486 28.631 5.916 52.619-16.459-18.056-6.943z"/><path fill="#C1DC92" d="m93.862 196.893 40.739-5.196 31.999 5.196-30.952 11.314-41.786-11.314z"/><path fill="#9CC372" d="m54.541 252.889 36.226-13.309 29.404 4.628-19.603 12.858-46.027-4.177z"/><path fill="#DEDEDC" d="m685.222 259.295 38.519-7.543 45.912 7.887-49.352 15.429-35.079-15.773z"/><path fill="#A5A5A5" d="m775.842 310.555-36.626-1.028-3.611 27.258 53.134 12.858 1.032-24.173-13.929-14.915z"/><path fill="#9CC372" d="m821.927 292.898-82.711 16.628 50.555 15.944 85.119-22.63-52.963-9.942z"/><path fill="#C1DC92" d="m757.443 223.465 50.04 10.801-24.418 3.086-55.026-3.772 29.404-10.115z"/><path fill="#DEDEDC" d="m733.517 9.593-62.932 6.365 54.61 14.776 35.619.352 57.066 4.877 60.198-16.368-106.711-2.273-37.85-7.729z"/><path fill="#ECECEB" d="m670.584 15.958 75.701-1.818 50.162 10.456 81.629-5-63.388-13.185-26.855 3.724L739.445.502l-68.861 15.456z"/><path fill="#DEDEDC" d="m58.406 43.792-43.357 6.881 38.163 11.78 31.527-1.225 32.719 3.862 41.199-15.572-73.867.243-26.384-5.969z"/><path fill="#ECECEB" d="m15.049 50.673 59.99-10.917 27.808 3.129 23.985-1.536 31.825 8.169-56.325 6.08-34.973-8.097-52.31 3.172z"/><path fill="#E6E980" d="m593.602 287.435 51.137 11.48 14.901-.562 2.822 1.351-18.288 1.237-54.862-12.717 4.29-.789z"/><path fill="#E6E980" d="m619.135 297.3 26.301 6.302 20.997-1.575 2.71 1.463-24.158 2.25-31.833-8.215 5.983-.225zM489.03 263.033l-11.927-1.413-14.26 3.991-9.089-1.164-11.592 4.739 11.509 1.913 9.339-1.082 35.192 4.823 25.102-4.075 22.685 3.743 15.677-.998-26.602-9.23-8.257.167-4.17-2.911-33.607 1.497zM489.78 239.296l8.423-.582 7.798 3.076 11.05-.706 10.013 4.411-6.72.577-7.713-2.161-8.965.872-9.341-1.87-11.967.208 7.422-3.825zM540.86 278.498l6.505.499 6.838-.957 2.127.707-8.965 1.415-9.341-1.248 2.836-.416z"/><path fill="#E6E980" d="m534.94 279.703 12.634 2.037 12.008-1.953 1.794.582-14.135 2.91-14.763-3.119 2.462-.457zM405.384 281.407l25.603-4.656 2.251.416-25.853 4.906-2.001-.666zM401.381 284.983l27.604-5.405 1.918.665-27.354 5.655-2.168-.915zM396.628 328.383l-22.183 3.16-14.511 8.813 6.005.167 10.674-6.487 23.851-3.823-3.836-1.83zM374.028 340.44l6.922-4.074 29.605-4.906 2.919.914-30.606 5.904-5.171 2.328-3.669-.166z"/><g opacity=".1"><path fill="#3B3C3B" d="m303.649 287.583-8.182-2.267-21.309 15.082-66.805 15.129 36.799 5.315 26.411-2.121 1.532-16.909 35.681-1.028 25.105-3.772-17.539-3.429-11.693-6z" opacity="1"/></g></g><g display="block"><path fill="#437D64" d="m217.488 272.826 79.315.108 48.485-20.708-51.491-90.302-8.568-25.826-67.086 35.526-12.244 25.723-1.421 71.882 13.01 3.597z"/><path fill="#5CB28F" d="m201.581 201.271-3.718 94.662 23.724 20.709-10.167-124.363-.768-14.216-10.165 2.771 1.094 20.437z"/></g><path fill="#79C8A7" d="m290.353 154.511-1.943-5.077 2.337-4.436 2.447 5.154 55.483 102.619-13.282 34.715-45.042-132.975z" display="block"/><g display="block"><path fill="#627A49" d="m266.137 147.1 27.166 15.041-12.791 44.96-38.481 9.209-17.985-19.945-5.084-10.954-15.687-18.91 62.862-19.401z"/><path fill="#79C8A7" d="m246.13 154.13 3.335 6.648-6.396 5.832-32.032-.109-6.929-.087-.668-3.183-1.641-12.316 15.251-9.32 15.853-8.994 13.227 21.529z"/><path fill="#79C8A7" d="m246.13 154.13 12.409 3.487 16.616-11.389 1.531-26.813-23.067 8.393-17.839 6.634 10.35 19.688z"/><path fill="#9CC372" d="m261.437 179.852-11.917-8.502-6.45-4.741 15.634-9.427 12.626 1.362-9.893 21.308z"/><path fill="#D9E25E" d="m258.703 157.182-3.116 12.534-12.518-3.106 3.061-12.48 12.573 3.052z"/><path fill="#78905F" d="m261.436 179.853 31.868-17.712-12.791 44.961-16.234 13.189-23.998 13.296-10.878-14.005-5.357-23.217 37.39-16.512z"/><path fill="#627A49" d="m266.41 203.777 7.27 10.682 22.74-3.378-3.115-48.94-31.869 17.712 4.974 23.924z"/><path fill="#78905F" d="m258.703 157.182 2.732 22.671 31.842-17.743-2.924-7.598.219-16.022-13.886-19.075-17.983 37.767z"/><path fill="#9CC372" d="m273.68 214.458-7.27-10.682-3.716 12.264 10.986-1.582z"/><path fill="#E6E980" d="m275.156 186.447-2.733 5.233-5.303-2.671 2.733-5.341 5.303 2.779zM279.202 203.722l-2.733 5.342-5.303-2.779 2.678-5.287 5.358 2.724z"/></g><g display="block"><path fill="#C49B7F" d="m252.95 280.868-7.979 25.582-4.155 4.196-10.44-5.722.247-32.134 19.559 3.998 2.768 4.08zM297.545 264.172l-2.078 21.145 5.903 8.228 7.27-7.084 14.157-31.444-20.717 1.852-4.535 7.303z"/><path fill="#DFBEA7" d="m295.467 285.316 13.5.218 13.666 10.845-8.744.873-20.116-.164 1.694-11.772z"/><path fill="#C49B7F" d="m313.888 297.251 11.26-6.594-1.257 6.758-10.003-.164z"/><path fill="#8F6C5A" d="m297.545 264.172 25.252-9.156h-24.269l-.983 9.156z"/><path fill="#DFBEA7" d="m244.971 306.45.054 11.227-24.598-.817 9.949-11.936 14.595 1.526z"/><path fill="#C49B7F" d="m220.427 316.859 12.353-7.03 12.245 7.848-24.598-.818z"/><path fill="#8F6C5A" d="m230.624 272.789 22.326 8.08 2.828-7.979-25.154-.101z"/><path fill="#D9E25E" d="M238.258 219.582h-8.855l1.221 53.207 25.154.1 10.358-31.727 14.235 2.83-6.692-29.533-35.421 5.123z"/><path fill="#E6E980" d="m296.419 211.081-22.74 3.379-7.543 26.703 31.726 19.148 24.936-5.294-26.379-43.936z"/><path fill="#B9C84F" d="m229.403 219.582 36.733 21.58 30.283-30.08-67.016 8.5z"/></g><path fill="#9CC372" d="m201.798 198.593-9.129 26.466-7.925 5.23-4.374-7.575-.164-27.848 13.229-13.351 8.363 17.078z" display="block"/><g display="block"><path fill="#C49B7F" d="m192.67 225.059 1.804 14.168-3.334 4.474-6.286-7.085 7.816-11.557z"/><path fill="#C49B7F" d="m186.384 235.031 2.405 8.393-.054 12.697-6.342-2.779-9.238-15.423 13.229-2.888z"/><path fill="#DFBEA7" d="m180.37 222.714-7.216 15.205 15.635 5.505 3.881-18.365-12.3-2.345z"/></g><g display="block"><path fill="#5CB28F" d="m211.037 166.502-9.238-15.587-9.73 15.532 9.347 8.666 9.621-8.611z"/><path fill="#78905F" d="m218.963 185.411-17.164 13.183-21.592-3.726 11.861-28.422 18.969.056 7.926 18.909z"/></g><path fill="#627A49" d="m276.687 119.415 13.665 35.096 25.883-35.313-1.229-19.401-18.941 8.991-19.378 10.627z" display="block"/><g display="block"><path fill="#DFBEA7" d="m330.288 79.35 2.146-8.348 11.81-10.917 6.44 9.847-4.938 13.057-15.458-3.639z"/><path fill="#C49B7F" d="m319.123 91.551 14.62-.607 12.004-7.955-13.312-11.986-7.944 8.348-5.368 12.2z"/><path fill="#DFBEA7" d="m315.688 96.046 5.932-11.532-.565-8.161 8.374-9.419 2.147 2.783-3.22 6.207 1.717 7.706-10.306 14.77-4.079-2.354z"/></g><g display="block"><path fill="#9CC372" d="m321.62 84.516-25.555 24.272 20.171 10.408 17.507-28.251-12.123-6.429z"/></g><g display="block"><path fill="#3B3C3B" d="m197.863 140.288-18.202-8.774 1.258-17.604 12.407 2.071 4.537 24.307z"/><path fill="#DFBEA7" d="m255.369 121.649-13.611 16.785 4.373 15.695-31.116-26.764-2.884-20.157-10.003-19.729-1.258-25.559 27.714-16.077 25.473 2.889 5.686 5.558 19.459 58.04-23.833 9.319z"/><path fill="#C49B7F" d="m196.388 100.45 20.663 41.145 29.08 12.535 3.335-11.608-15.361-13.298-20.881-54.442-4.591-5.014L201.8 86.88l-5.412 13.57z"/><path fill="#88898A" d="m221.478 44.645 30.775-21.473-12.409-2.615-61.167 27.848 16.781 11.99 26.02-15.75z"/><path fill="#3B3C3B" d="m262.421 45.135.272 6.759 16.508 12.86-9.729 18.529-9.729-28.992-5.358-5.505 2.295-4.685 5.741 1.034z"/><path fill="#E9CCB9" d="m256.462 90.749-7.598 2.835-9.294-24.033 7.599-2.835 9.293 24.033z"/><path fill="#8F6C5A" d="m256.462 90.749-2.077 4.142-5.521-1.307 7.598-2.835zM203.166 113.856l8.964-6.648-3.607 17.384-5.357-10.736z"/><path fill="#515152" d="m221.04 73.202 3.553 1.581 5.521-6.922h5.52v-1.144l-6.066-1.526-8.528 8.011zM245.693 62.738l1.477 3.979 5.521-6.977 4.208.491v-.872l-5.576-1.962-5.63 5.341z"/><path fill="#C49B7F" d="m224.593 74.782 21.484 11.554-6.505-16.786-3.936-1.69h-5.522l-5.521 6.922zM251.652 78.215l5.248-17.983-4.209-.491-5.521 6.975 4.482 11.499z"/><path fill="#8F6C5A" d="m249.466 142.522 5.903-20.872-27.004 9.646 21.101 11.226z"/><path fill="#88898A" d="m259.743 54.29 2.677-9.155 16.781 19.62-19.458-10.465z"/><path fill="#585B5C" d="m269.854 59.741-.383 23.542 2.843 8.556 6.887-27.084-9.347-5.014z"/><path fill="#DFBEA7" d="m203.166 113.856 8.964-6.648-10.221-20.492-7.325 9.973 8.582 17.167z"/><path fill="#8F6C5A" d="m198.575 97.888 3.279-4.196 4.319 9.374-7.598-5.178z"/><path fill="#C49B7F" d="m223.773 62.793 33.126-11.445-2.515-2.561-30.611 14.006z"/><path fill="#3B3C3B" d="m171.351 98.978 23.834 23.597 2.677 17.712 19.189 1.308-22.467-44.905-6.67-8.829-16.563 11.117z"/><path fill="#515152" d="m171.352 98.978 31.814 14.878-5.303 26.432-26.511-41.31z"/><path fill="#515152" d="M221.533 109.06 205.79 76.961l2.843-7.193-3.555-15.259-26.401-6.104-7.324 50.574 23.231-2.289 7.215-9.811 13.065 25.832 6.669-3.651z"/><path fill="#88898A" d="m276.14 76.961 3.99 10.246-4.647 14.114-3.169-9.482 3.826-14.878z"/><path fill="#787879" d="m252.253 23.172-14.048 25.015-29.573 21.581-29.955-21.364 73.576-25.232z"/><path fill="#88898A" d="m252.254 23.172-43.621 46.596 59.308-27.195-15.687-19.401z"/><path fill="#8F6C5A" d="m244.587 104.302 19.364-6.795-.409 10.935-11.794 4.139-7.161-8.279z"/><path fill="#FFF" d="m248.378 105.142 13.54-4.86v3.84l-11.073 3.84-2.467-2.82z"/><path fill="#3B3C3B" d="M255.751 67.642c-1.749 0-3.225 1.472-3.225 3.216 0 1.798 1.476 3.216 3.225 3.216a3.192 3.192 0 0 0 3.225-3.216 3.226 3.226 0 0 0-3.225-3.216zM234.707 75.218a3.227 3.227 0 0 0-3.227 3.214 3.193 3.193 0 0 0 3.227 3.216 3.192 3.192 0 0 0 3.225-3.216 3.226 3.226 0 0 0-3.225-3.214z"/></g><path fill="#4A9275" d="m353.259 38.485 15.905-12.342 18.829 12.856-33.445 3.686-1.289-4.2z" display="block"/><path fill="#B9C84F" d="m359.728 54.236 2.73 5.508-8.985 6.836 4.772-9.708-8.705 5.979 6.126-10.415 4.062 1.8z" display="block"/><g display="block"><path fill="#437D64" d="m370.54 55.8-8.082 3.944-13.413-9.086 14.617-3.43 9.801 3.258-2.923 5.314z"/><path fill="#4A9275" d="m353.688 39.686 18.356.729 1.419 10.071-24.418.172-2.746-6.595 7.389-4.377z"/><path fill="#5CB28F" d="m338.9 37.628 5.03-6.343 30.048 7.843-27.685 5.015-6.706-6.172"/></g><path fill="#5CB28F" d="m373.463 50.486 28.889 18.172-39.894-8.914 11.005-9.258z" display="block"/><g display="block"><path fill="#437D64" d="m369.38 40.843 19.474-9.386-15.906 17.058-18.4-5.828 14.832-1.844z"/><path fill="#79C8A7" d="M389.972 29.742 354.764 42.6l45.782 7.03-10.574-19.888z"/></g><g display="block"><path fill="#4A9275" d="m335.118 42.257 2.408.857 8.769 1.029-2.364-12.858s-5.374 0-5.89.514c-.515.515-6.19 8.744-6.19 8.744l3.267 1.714z"/><path fill="#5CB28F" d="m332.539 40.371 1.375-4.286 4.212-10.714 22.785 1.371-16.98 4.543-11.392 9.086z"/><path fill="#B9C84F" d="m333.914 36.084-3.267 6.688 6.878.342-3.611-7.03z"/><path fill="#437D64" d="M343.716 37.623a2.355 2.355 0 0 1-2.359 2.352 2.355 2.355 0 0 1-2.359-2.352 2.355 2.355 0 0 1 2.359-2.352 2.355 2.355 0 0 1 2.359 2.352z"/></g><g display="block"><path fill="#5CB28F" d="m642.836 82.054 17.9 16.67 42.952-4.136-60.852-12.534z"/><path fill="#B9C84F" d="m682.171 89.099 39.862-9.146-18.346 14.634-21.516-5.488z"/><path fill="#5CB28F" d="m635.42 75.744 24.419 11.113 43.849 7.73-59.544-22.282-8.724 3.439z"/></g><g display="block"><path fill="#B9C84F" d="m620.684 54.082-.757-11.301 43.398-3.236-37.068 30.36-5.573-15.823z"/><path fill="#B9C84F" d="m600.279 79.51 3.967-10.642 15.68-26.088 25.883 27.312-37.36 8.822-8.17.596z"/></g><g display="block"><path fill="#9CC372" d="m590.062 102.859-3.754 8.73 14.137 10.102 4.253-1.081-5.38-15.88-9.256-1.871z"/><path fill="#4A9275" d="m590.687 81.659-3.752 9.977-.626 19.953 19.39-7.107-15.012-22.823z"/></g><path fill="#9CC372" d="m629.132 96.748 1.335 9.478 19.639 13.594 2.806-3.01-7.934-19.896-15.846-.166z" display="block"/><path fill="#5CB28F" d="m606.561 102.114 8.219 2.825 23.38 1.837 13.725-.652-1.68-13.052-6.803-15.963-46.211-.481 9.37 25.486z" display="block"/><g display="block"><path fill="#759F5A" d="m614.705 104.979-5.187-3.067-6.358 14.046 18.8 5.234 4.17-4.656-11.425-11.557z"/><path fill="#79C8A7" d="m594.092 87.139-1.087 14.975 10.155 13.844 11.619-11.019-6.329-26.025-14.358 8.225z"/></g><path fill="#5CB28F" d="M594.895 70.281 580.82 81.394l12.185 20.72 15.446-23.2 13.883-10.226-15.774-3.634-11.665 5.227z" display="block"/><g display="block"><path fill="#759F5A" d="m642.836 94.626-4.676 12.149 30.586 8.805 1.434-4.196-9.444-12.661-17.9-4.097z"/><path fill="#4A9275" d="m639.578 83.323-1.418 23.452 22.578-8.053-.897-11.866-20.263-3.533z"/></g><g display="block"><path fill="#B9C84F" d="m648.835 65.007 11.004 21.85-51.388-7.943 40.384-13.907z"/><path fill="#D9E25E" d="m608.451 78.914 29.992-30.67 41.754 17.329-71.746 13.341z"/></g><g display="block"><path fill="#759F5B" d="m581.499 60.405-20.607 8.172 20.24.977.367-9.149z"/><path fill="#759F5A" d="m568.421 57.505-13.679.499-2.834 11.973 27.436.706-10.923-13.178z"/><path fill="#79C8A7" d="m584.433 58.004-8.341-10.642-21.349 10.642 26.853 13.802 2.837-13.802z"/><path fill="#437D64" d="M573.925 58.119a3.28 3.28 0 0 1-3.285 3.274 3.278 3.278 0 0 1-3.283-3.274 3.278 3.278 0 0 1 3.283-3.274 3.28 3.28 0 0 1 3.285 3.274z"/><path fill="#5CB28F" d="m598.276 71.141-3.335-20.37-18.849-3.409 3.268 23.526 1.459 10.506 17.457-10.253z"/><path fill="#437D64" d="m594.94 50.771-14.121 30.624 25.836-16.199-11.715-14.425z"/></g></g></svg>