<svg xmlns="http://www.w3.org/2000/svg" width="900" height="350" style="width:100%;height:100%;content-visibility:visible" viewBox="0 0 900 350"><defs><clipPath id="a"><path d="M0 0h900v350H0z"/></clipPath><clipPath id="b"><path fill="#fff" d="m177 219-6 124 573-1 74.655-17.819-30.93-16.873 51.902-40.518L787 228l-610-9"/></clipPath></defs><g clip-path="url(#a)"><g display="block"><g opacity=".1"><path d="m769.689 235.222-35.966-5.498-7.473-4.412 6.417-4.979 21.643-3.043 4.104-2.624v-4.225l-21.08 1.565-36.202-5.045-5.715-6.274L738.75 196l27.872 12.694 3.067 26.528zM787.655 307.256l-52.949-3.878-22.21-15.238 51.003-5.42 24.156 24.536zM659 284.364l-24.74-1.644-12.565-7.306 13.616-8.166L659 284.364zM581.089 306.25l-40.224-5.693-18.365 1.832-28.393-13.355 19.394-8.644 38.485 5.943 29.103 19.917zM177.864 240.751l-18.333 1.718-22.947-.86-6.878-8.636-11.956 1.134-29.383-6.729L76 235.992l-44.25-4.685-6.75-6.653-25-12.459 59.406-7.913 94.222-3.217 24.236 39.686zM849.5 222.05h-18.244l-12.022-2.645 16.349-6.229 13.917 8.874z" opacity="1"/></g><path fill="#DDDDDC" d="m86.311 186.16 4.439-14.79-78.416 4.471 24.333 19.345 49.644-9.026z"/><path fill="#858585" d="m0 212.195 32.501 8.981 5.567-17.86-1.401-11.13-24.333-16.344L0 212.195z"/><path fill="#A2A2A2" d="m86.311 186.16-4.308 34.416-49.504.6 4.168-28.991 49.644-6.025z"/><path fill="#DDDDDC" d="m674 160.652 46.333 7.549 48.355-6.144-5.339-11.694-85.682 3.407-3.667 6.882z"/><path fill="#858585" d="m720.334 166.202.092 13.782-8.425 25.713-46.334-5.59 8.334-39.454 46.333 5.549z"/><path fill="#A2A2A2" d="m712 205.697 8.333-.562 48.355-29.097v-13.981l-48.355 4.145L712 205.697z"/><path fill="#DDDDDC" d="m766 116.249 18.666-.685 21 3.186-26 5.696L766 116.249z"/><path fill="#858585" d="m766 116.25-11 90.712 27.333 7.704.043-67.695-2.709-24.525L766 116.25z"/><path fill="#A2A2A2" d="m779.666 122.446 26-3.696L814 210.441l-31.667 4.225-2.667-92.22z"/><path fill="#DDDDDC" d="m809.122 156.779 54.377 12.531-52.846 6.315-13.82-12.92 12.289-5.926z"/><path fill="#858585" d="m796.833 162.705-3.326 50.471 12.159 7.157 5.365-31.511-.377-15.198-13.821-10.919z"/><path fill="#A2A2A2" d="m810.653 173.625-4.987 46.709 59.834-4.095-2-46.929-52.847 4.315z"/><path fill="#DDDDDC" d="m864.547 193.877-.373-8.743L890 200.107l-40.5 11.347-16-9.491 31.047-8.086z"/><path fill="#858585" d="m833.5 201.962-2.244 16.62 18.244 3.468 2-6.551-2-6.044-16-7.493z"/><path fill="#A2A2A2" d="M849.5 209.455v12.596l50.5-5.233-10-16.71-40.5 9.347z"/><path fill="#DDDDDC" d="m728.834 176.038 30.142-1.858L766 186.672l-28.666.462-8.5-11.096z"/><path fill="#A2A2A2" d="m766 186.672 2.687 24.311-31.354 1.023-2-12.82 2-14.052L766 186.672z"/><path fill="#858585" d="m728.833 176.038-8.5 29.097 17 6.871v-26.872l-8.5-9.096z"/><path fill="#DDDDDC" d="m757.5 203.377 24.331-6.077 37.403 22.106-42.734 2-19-18.029z"/><path fill="#858585" d="m757.5 203.377-5.489 23.937 17.678 7.909 7.786-9.239-.975-6.579-19-16.028z"/><path fill="#A2A2A2" d="M819.234 219.405 823 232.046l-53.312 3.177 6.812-15.818h42.734z"/><path fill="#DDDDDC" d="m306 149.036-81.793-2.676 22.806 19.344 62.847-6.616-3.86-10.052z"/><path fill="#858585" d="m247.013 162.704 1.599 18.625-5.112 41.026-19.498-4.308.205-71.686 22.806 16.343z"/><path fill="#A2A2A2" d="m247.013 162.704 62.847-3.617-3.86 53.29-62.5 9.978 3.513-59.651z"/><path fill="#DDDDDC" d="m171.333 166.201 52.874-.942 10.293 9.74-50.526 13.674-12.641-22.472z"/><path fill="#858585" d="m171.333 166.202-3 23.459 17.148 15.475 2.25-9.198-3.756-9.265-12.642-20.471z"/><path fill="#A2A2A2" d="m234.5 175-10.499 43.047-51.365 1.001 5.395-33.914L234.5 175z"/><path fill="#DDDDDC" d="m88.367 159.14 51.414-11.429 47.275 19.192-55.057 15.064-43.632-22.827z"/><path fill="#858585" d="m88.367 159.141-5.069 42.822 33.202 26.47 18.08-40.449-2.58-17.021-43.633-11.822z"/><path fill="#A2A2A2" d="m132 170.962 55.054-4.059-15.418 57.148-55.136 4.382 15.5-57.471z"/><path fill="#DDDDDC" d="m64.5 206.39 18.798-4.428 27.339 6.322-36.305 14.892L64.5 206.39z"/><path fill="#858585" d="m64.5 206.39-15.75 24.326L76 235.992l1.334-13.996-3-4.824L64.5 206.39z"/><path fill="#A2A2A2" d="m110.637 208.284 7.113 25.823L76 235.992l-1.666-18.819 36.303-8.889z"/><path fill="#DDDDDC" d="m325.015 127.25-15.015 5-21.297-12.093 36.312-.907v8z"/><path fill="#A2A2A2" d="m310 129.25.84 19.786 6.939 12.765 7.237 9.021V127.25l-15.016 2z"/><path fill="#858585" d="m288.702 120.157 4.744 50.726 24.332-9.082L310 129.25l-21.298-9.093z"/><path fill="#A2A2A2" d="m296.783 173.964-3.337 57.344 51.054-3.875-10.743-41.305-8.743-11.948-28.231-.216z"/><path fill="#858585" d="m274.555 170.822 2.125 56.611 16.766 3.875 6.339-54.342-5.222-5.248-20.008-.896z"/><path fill="#DDDDDC" d="m325.014 160.29-50.458 10.533 25.228 6.143 25.23-2.785V160.29zM144.477 205.135l34.136-4.071 32.638 4.632-36.239 11.122-30.535-11.683z"/><path fill="#858585" d="m144.477 205.135-5.903 28.115 39.289 7.501L180.5 227.5l-5.488-15.599-30.535-6.766z"/><path fill="#A2A2A2" d="m211.25 205.696 8 29.304-41.386 5.75-2.852-28.849 36.238-6.205z"/><path fill="#DDDDDC" d="m698.333 213.175 34.333 7.158-11.333 28.932-101.667-2-1.5-17.832 80.167-16.258z"/><path fill="#A2A2A2" d="m732.666 220.334 4.667 41.49L723.666 266l-3.333-8.601v-10.134l12.333-26.931z"/><path fill="#737373" d="m720.333 247.265-101.305-7.586 19.232 19.104L723.666 266l-3.333-18.735z"/><path fill="#DDDDDC" d="M678.564 173.372 695.333 175l12 11.672-30.972 6.823-20.088 1.127-6.274-14.289 28.565-6.961z"/><path fill="#A2A2A2" d="M707.334 186.672 701 229.433l-53 10.245 8.274-45.056 51.06-7.95z"/><path fill="#DDDDDC" d="m648.999 107.842 32.334 6.991-14.66 3.555-12.061-.721-5.613-9.825z"/><path fill="#A2A2A2" d="M681.334 114.833 678 180.321l-8.5.72-14.888-63.375 26.722-2.833z"/><path fill="#DDDDDC" d="m697.666 252.912 9.295 11.676-45.962 7.66-26.74-15.466 19.407-3.424 44-.446z"/><path fill="#A2A2A2" d="M706.961 264.588 710 281.736l-51 2.628-.958-7.359 2.958-6.757 45.961-5.66z"/><path fill="#737373" d="m659 284.364-26-10.479 1.26-17.103L661 270.248l-2 14.116z"/></g><g display="block"><path fill="#95627B" d="M598.667 14.334 613 26.001l13.5-3.442 10.883-4.812-1.055-6.996-37.661 3.583z"/><path fill="#734D5F" d="M637.383 17.747 641 22.335v3.634l-9.94 7.311-13.035 5.685-.525-5.964-4.5-7 24.383-8.254z"/><path fill="#95627B" d="m641 25.967 2.5 3.409.594 3.625-7.719 7.958L627 46.251l-8.976-7.287L641 25.967z"/><path fill="#734D5F" d="m644.095 33.001 2.714 2.125v4.756l-6.388 10.281-13.422-3.912 17.096-13.25z"/><path fill="#D1A0B8" d="m649.385 36.252-4.649-12.917-5.403-16.167-4.334 2.458v2.709l11.274 25.615 3.112-1.698z"/><path fill="#B3879D" d="m635 12.333-36.333 2 .821-2 39.845-5.166L635 12.333z"/><path fill="#95627B" d="m676.5 75.388-9.333-5.637 1.583-17.125 3.458-10.587 8.417-2.157-1.615 13.897-2.51 21.609z"/><path fill="#734D5F" d="m672.208 42.038-5.041 27.712L656.084 71l4-16.75 5.583-12.916 6.541.704z"/><path fill="#95627B" d="m665.667 41.334-9.585 29.668-6.083-13.668 2.5-8.832 4.418-5.335 8.75-1.833z"/><path fill="#D1A0B8" d="m657.883 37.949 29.616-1.354-.666 4.363-5.166 1.85-2.358-1.294-22.392 1.653-.542-1.946 1.508-3.272z"/><path fill="#B3879D" d="m686.833 40.959-8.167 35.708-2.167-1.279 2.81-33.874 7.524-.555z"/><path fill="#785D87" d="M656.083 47.667 650 57.334l-9.579-7.172 3.079-7.352 6.798.623 5.785 4.234z"/><path fill="#90759F" d="m657.883 37.95-1.801 9.717-12.583-4.858 4.583-8.032 9.801 3.173z"/><path fill="#95627B" d="M663.667 27 670 26l-3.5 8.25-3.716-4.39.883-2.86zM653.667 22.334l-3.325-6.208-5.607 7.208h5.389l3.543-1z"/><path fill="#B3879D" d="m644.736 23.334 1.294 4.424 2.222 2.118-.169 4.901.53 1.816 1.729 3.783 4.27-1.022 3.271-1.404 2.929-2.199 2.698-.217 2.99-1.283-2.833-7.25-10-4.667-8.931 1z"/><path fill="#785D87" d="M663.51 35.534 659.999 29l-5.387 1.834L652.499 26l-6.469 1.76 2.052 7.019 5.75-1.779 4.05 4.95 5.628-2.416z"/><path fill="#95627B" d="m648.614 36.594 5.998 2.759L650 41.334l-1.386-4.74z"/><path fill="#EBEBEB" d="m648.919 29.333 1.997-.666.849 2.416H650l-1.081-1.75zM656.917 33.001l2.583-1.025.583 2.608h-2.25l-.916-1.583z"/></g><g display="block"><path d="m695.417 230.379 16.582 6.728 15.912-6.391-21.932-5.403-10.562 5.066z" opacity=".14"/><path fill="#785D87" d="m713.125 171.689-2.793-28.214 5.668 3.526-2.875 24.688zM697.667 117.25l24.333-5 21.667 8.196L723.5 129l-25.833-11.75z"/><path fill="#90759F" d="m714.415 202.032 9.084-56.556-3.463-1.296-4.037 2.821-8.666 39.672 3 15.023 4.082.336z"/><path fill="#785D87" d="m707.333 186.673-11.916 43.707 8.604.335 10.394-28.682-7.082-15.36z"/><path fill="#95627B" d="m716 147 1.576-12.938 9.245-4.057 7.511-1.255-10.832 16.725L716 147z"/><path fill="#734D5F" d="m719.334 135.25-6.324-4.275-8.094-.912L702 144.064l14 2.937 3.334-11.751z"/><path fill="#A687B9" d="m719.333 135.25-.46-5.64L723.5 126l20.167-5.554-9.334 8.304-15 6.5z"/><path fill="#90759F" d="m723.501 126-25.834-8.75 7.249 12.812 14.417 5.188 4.168-9.25z"/><path fill="#D1A0B8" d="m729.5 107.5-2.25 4.5 3 3.75 2.25-4-3-4.25z"/><path fill="#B3879D" d="m716.5 112.5-2.25 4.5 3 3.75 2.25-4-3-4.25z"/><path fill="#D1A0B8" d="m723.5 126-5.833-10.844 13.604-14.124 5.396 12.485L723.5 126z"/><path fill="#B3879D" d="m723.5 126.001-2.833-8.845-4.398-6.75-7.735-3.593 3.591 15.25 11.375 3.938z"/><path fill="#D1A0B8" d="m720.667 117.155 10.604-16.125-5.987-9.145-5.951-3.112-10.798 18.04 12.132 10.342z"/><path fill="#B3879D" d="m731.271 101.031 5.396-7.368-11.5-16.996-6.01 3.248.176 8.86 11.938 12.256z"/><path fill="#D1A0B8" d="m719.333 88.774-7.208-7.833L720.667 62l4.5 14.667-5.834 12.107z"/></g><g display="block"><path fill="#A687B9" d="m435.321 35 3.678-19.75 43.487 27.5 42.763-27.5 4.75 21.416-48.121 19.15L435.321 35z"/><path fill="#785D87" d="m440.5 33.376 2.25-9.626 8.516 6.25-7.248 4.25-3.518-.874zM511.814 30.725l10.019-6.975L523 34.25h-8l-3.186-3.525z"/><path fill="#90759F" d="M431.472 56.917 435.321 35l45.71-14.333 48.969 16 3.5 16-53.487 4.25h-48.541z"/><path fill="#D1A0B8" d="m444.018 56.395 2.732-12.77 6.596-3.612 3.261-.825 12.288-3.114 6.855.551L481.031 33l13.076 3.074L500 40.5l7.144-1.361 11.102 2.611 1.492 11.491-37.253 3.677-38.467-.523z"/><path fill="#95627B" d="m507.143 39.139 1.355 14.569-13.094 1.546-1.298-19.18 13.037 3.065zM481.031 33l.847 22.816-13.872-.422.889-19.32L481.031 33zM456.607 39.186V56.87l-12.588-.475 1.482-14.396 11.106-2.813z"/><path fill="#90759F" d="m450 217.29 41.986 4.761L546 219.406l5.986-26.362v-26.36l-60-1.425-65.486 6.207 4.328 22.284L450 217.29z"/><path fill="#785D87" d="m641.666 249-8.667 24.885-38.333 5.185 39-35.294 8 5.224z"/><path fill="#785D87" d="M657.333 214.666 654 252.999l-57.057 19.886 60.39-58.219z"/><path fill="#A687B9" d="m431.472 56.916 102.028-4.25 16 59.252 2.486 54.765-125.486 4.783-7-63.903 11.972-50.647z"/><path fill="#90759F" d="m358.986 30 72.486 26.917-4.972 114.548-41.486 13.14-42.514 5.837 3-82.878L358.986 30z"/><path fill="#785D87" d="m533.5 52.666 84-19.667 23 75.504 12 76.632-53.25-1.339-47.264-17.112L533.5 52.666z"/><path fill="#A687B9" d="M617.5 33 650 57.333l19.5 123.708-6 2.755-11 1.338L617.5 33z"/><path fill="#785D87" d="m358.986 30-33.972 10.319-8.508 142.814 17.251 9.911 8.743-2.602L358.986 30z"/><path fill="#A687B9" d="m342.5 190.442 84-18.977L450 217.29l-69.5 27.954-38-54.802zM551.986 166.683 546 219.404l47 14.702 59.5-48.971-100.514-18.452z"/><path fill="#90759F" d="m450 217.29 3.5 31.71-.514 27.327-71.027 9.741L375 268.661l5.5-23.417L450 217.29z"/><path fill="#785D87" d="m546 219.405-4.5 31.518 4.5 32.072 43.5 6.4 7.442-30.146L593 234.106l-47-14.701z"/><path fill="#90759F" d="m652.5 185.134 8.5 10.71 5.5 24.489-77 69.061 3.5-55.288 59.5-48.972z"/><path fill="#A687B9" d="m669.5 181.041-3 39.292-14-35.199 17-4.093z"/><path fill="#785D87" d="m380.499 245.244 1.46 40.823-53.46-64.018 5-21.654 9-9.953 38 54.802z"/><path fill="#90759F" d="m316.506 183.133 25.994 7.309-14 31.608-11.994-38.917z"/><path fill="#584164" d="m450 217.291 96 2.115v53.583l-93.014 3.338L450 217.291z"/><path fill="#EBEBEB" d="m430.828 71.75 105.442-2 9.73 41.772 4.133 43.735-123.095 3.809-4.053-41.399 7.843-45.917z"/><path fill="#EBEBEB" d="M430.828 71.75 371.472 48.5l-12.486 120.81 68.052-10.244 3.79-87.316z"/><path fill="#DDDDDC" d="m536.269 69.75 69.158-19.25 22.572 111.558-77.866-6.8-13.864-85.508z"/><path fill="#95627B" d="M480.013 275.358V229.87l33.486-.436v44.721l-33.486 1.203z"/><path fill="#D1A0B8" d="M484.75 237.265h23.75V243h-23.75v-5.735zM484.75 247.265h23.75V253h-23.75v-5.735zM484.75 257.265h23.75V263h-23.75v-5.735zM560.333 178.348l36.609 7.787-18.304 13.052-22.972-6.142 4.667-14.697z"/><path fill="#95627B" d="M555.666 193.044v5.142l20.638 5.914 2.334-5.914-22.972-5.142z"/><path fill="#B3879D" d="m567.152 201.477 29.79-21.144 22.724 4.801L585 208.911l-17.848-7.434z"/><path fill="#734D5F" d="m567.152 201.477-2.138 9.506 20.319 8.422 1.917-7.155-2.25-5.338-17.848-5.435z"/><path fill="#95627B" d="m619.666 185.134 7.471 8.488-41.804 25.782-.334-12.493 34.667-21.777z"/><path fill="#D1A0B8" d="m437.024 191.987-34.087 6.874-34.687 9.493 6.75 11.05 30.73-9.555 33.96-12.664-2.666-5.198z"/><path fill="#B3879D" d="m437.023 191.987 54.964-2.574 57.492-.647-.956 8.419-57.523 1-51.311-1-2.666-5.198z"/><path fill="#B3879D" d="m547.413 206.962-103.395-1.336-4.328-8.44h108.832l-1.109 9.776zM549.478 188.766l-112.455 3.221-4.689-9.146 118.102-2.508-.958 8.433z"/><path fill="#D1A0B8" d="m432.334 182.841-70.084 16.344 6 9.17 68.774-16.368-4.69-9.146zM439.69 197.186l4.328 8.44L381 229.434l-6-10.029 64.69-22.219z"/><path fill="#95627B" d="m457.75 197.186 1.541 8.637 16.211.209v-8.846H457.75zM486.56 197.186v8.989l16.688.216 1.002-9.205h-17.69zM517.249 197.186l-1 9.373 14 .181 2-9.554h-15zM456.755 191.422l-1.508-9.069 20.256-.431v8.963l-18.748.537zM486.56 190.569v-8.882l17.69-.376v8.751l-17.69.507zM518.247 189.661l1.247-8.675 16.775-.358-2.769 8.596-15.253.437zM456.755 191.422l-19.731.566 2.666 5.198h18.06l-.995-5.764z"/><path fill="#95627B" d="m475.502 190.885 11.058-.317v6.618h-11.058v-6.301zM504.249 190.062l13.998-.401-.998 7.524h-13v-7.123zM533.499 189.224l15.98-.458-.956 8.42h-16.274l1.25-7.962zM426.5 194.492l-4.809-9.169-13.451 3.137 6.461 8.84 11.799-2.808zM397.859 201.308l-6.098-9.005-14.128 3.295 7.246 8.799 12.98-3.089zM389.963 214.266l4.945 9.914 14.601-5.517-5.539-9.209-14.007 4.812zM417.371 204.852l12.976-4.457 4.974 8.516-12.334 4.66-5.616-8.719zM384.88 204.397l5.082 9.869L375 219.405l-6.75-11.05 16.63-3.958zM397.859 201.308l16.842-4.008 2.668 7.552-13.4 4.602-6.11-8.146z"/><path fill="#90759F" d="m437.5 80.5 41.5 1.25 2.014 47.25-43.514 1V80.5z"/><path fill="#EBEBEB" d="m441.75 83.834 34.192 1.666 1.56 39.25-5.34.358-12.049.059-12.056 1.56-7.807.523 1.5-43.416z"/><path fill="#B3879D" d="M438.5 139.25h6.5l-.982 11.75H438.5v-11.75zM447.386 139.25h6.114V150l-6.114 1v-11.75zM456.75 139.25h7.624L463 149.75h-6.25v-10.5zM467.006 139.25h6.936v10.5h-6.936v-10.5z"/><path fill="#95627B" d="m486.56 105.375 11.44-.125v11h-11.44v-10.875zM502.302 105.374H514.5v10.876h-12.198v-10.876zM518.406 105.375l11.094-.125v11h-11.094v-10.875z"/><path fill="#90759F" d="m486.56 125.25 2.683-1.75 1.991 4.5 4.171-6.75 1.095 1.374-5.266 8.25-4.674-5.624zM487.624 136.25l2.626-2.126.984 3.126 4.17-4.5 1.096 1.124-5.266 6.5-3.61-4.124zM488.25 145.875l2.25-2 1.78 3.375 4.22-4.625L498 144l-6.47 6.375-3.28-4.5z"/><path fill="none" stroke="#A2A2A2" stroke-miterlimit="10" d="M502.302 123.062H531M502.302 127.062H516M502.302 134.062H531M502.302 138.062H516M502.302 144.062H531M502.302 148.062H516M487.625 83h36.329M487.625 88h26.329M487.625 93h16.329"/><path fill="#95627B" d="m377.633 66 10.114 3.75-.762 13.25-11.986-4.333L377.633 66zM375 95.333l11.986 2.424-2.32 13.056-11-1.907L375 95.333zM372 124.25l10.5 1.812-1.127 11.138H370l2-12.95z"/><path fill="none" stroke="#A2A2A2" stroke-miterlimit="10" d="M394.907 75.666 419.499 83M393.906 80.667l15.334 4.274M393.579 103.606l25.092 5.382M392.975 108.669l15.622 3.058M391.184 131.319l25.596 1.858M391.286 136.417l15.894.868"/><path fill="#D1A0B8" d="m369 148.824 50.5-3.099v8.377l-51.25 6.189.75-11.467z"/><path fill="none" stroke="#A2A2A2" stroke-miterlimit="10" d="m560.761 80.5 8.46 62.124 23.78-1.52M566.719 124.25l23.69-2M564.274 107.297l26.136-3.682M562.463 93l23.786-4"/><path fill="#FCE3D4" d="m447.429 94.833 1.837 12.465 1.163 11.453 4.854-.242 4.55.242 4.542-.692 6.75-.334-2.957-26.412-9.697 4.321-11.042-.801z"/><path fill="#F5C9B3" d="m452.084 101.838 4.522-.731 1.394.559 1.595-1.041 5.655-1.047-4.881 8.765-2.845.871-5.44-7.376z"/><path fill="#737373" d="m448.064 95.452 1.203 11.846-2.15-2.88-1.822-11.922 12.094-4.466 13.736.866v12.943l-1.279 4.459-2.618-13.802-8.757 4.139-10.407-1.183z"/><path fill="#737373" d="m452.084 101.839 3.666-2.218.858 1.487-4.524.731zM459.594 100.625v-2.094l5.656 1.048-5.656 1.046z"/><path fill="#FFEFE8" d="m459.594 100.625.775 7.718-2.845.87-.917-8.105 2.987-.483z"/><path fill="#C2917C" d="m460.369 108.343-1.702 2.47-1.142-1.6 2.844-.87zM453.166 112.499l6.429.751 6.905-2.001v1l-6.905 2.584-6.429-1v-1.334z"/><path fill="#F5C9B3" d="M447.117 104.417h-1.821l1.516 5.458 2.75.346-.296-2.924-2.149-2.88zM471.124 101.838h2l-.437 5.481-2.612 1.023-.229-2.045 1.278-4.459z"/><path fill="#95627B" d="m455.284 118.51-7.22 8.324 24.098-1.725-7.787-7.049-5.098 1.024-3.993-.574z"/><path fill="#C2917C" d="m455.283 118.51 4.312 5.74 4.78-6.19-9.092.45z"/><path fill="#B3879D" d="m548.522 77.667 23.144-5.333 1.333 7-22.865 5.606-1.612-7.273zM581.33 85.5l16.825-3.804 1.333 7-16.547 4.078-1.611-7.274zM584.447 101.342l17.02-2.81.92 7.067-16.759 3.099-1.181-7.356zM588.121 119.418l17.161-1.751.481 7.109-16.918 2.057-.724-7.415zM589.769 137.733l17.205-1.255.275 7.12-16.971 1.568-.509-7.433z"/><path fill="#2B2B2B" d="M463.75 103.625a.938.938 0 1 1-1.876-.002.938.938 0 0 1 1.876.002zM455.284 104.562a.938.938 0 1 1-1.876-.002.938.938 0 0 1 1.876.002z"/><path fill="#95627B" d="m426.5 194.492 10.524-2.505 2.666 5.199-9.343 3.209-3.847-5.903z"/><path fill="#DDDDDC" d="m450.787 235.5 14.462 8.276L451.266 255l-18.933-11.224 18.454-8.276z"/><path fill="#737373" d="m432.334 243.775-1.507 12.136 13.19 25.526 11.266-11.291-4.016-17.147-18.933-9.224z"/><path fill="#A2A2A2" d="m465.249 243.775 14.763 31.582-35.605 21.494-4.717-13.99 7.295-11.537 4.281-18.325 13.983-9.224z"/><path fill="#DDDDDC" d="m430.828 255.912 16.158 15.412-20.486 15.722-73.644-11.927 6.13-17.721 22.351 11.263 49.491-12.749z"/><path fill="#8F8F8F" d="m446.986 271.324-2.578 25.526-86.038-5.052-5.514-16.679 94.13-3.795z"/><path fill="#DDDDDC" d="m527.258 271.123-13.758 2.763 10.999 18.465 44.193-6.017-7.931-8.334-19.897 2.365-13.606-9.242zM546 240.132l10.75 10-15.25 8.65-11.25-18.449 15.75-.201z"/><path fill="#737373" d="m530.25 240.333-2.992 30.789 13.606 13.243 2.406-17.621-1.77-9.961-11.25-16.45z"/><path fill="#A2A2A2" d="M556.75 250.132 560.76 278l-19.896 6.364.636-27.582 15.25-6.65z"/><path fill="#737373" d="m513.5 273.886-7.004 14.528 16.004 9.836 3.912-4.396-.912-2.503-12-17.465z"/><path fill="#A2A2A2" d="m525.5 291.351 43.193-5.017 1.807 9.639-48 2.277 3-6.899z"/><path fill="#DDDDDC" d="m555.666 271.818 21.675-15.905L619.028 263l-36.894 24.365-26.468-15.547z"/><path fill="#737373" d="m555.666 271.818-3.68 25.034 29.102 9.398 3.658-13.769-2.612-8.116-26.468-12.547z"/><path fill="#A2A2A2" d="m619.029 263 6.304 29.351-44.244 13.899 1.046-21.886L619.029 263z"/><path fill="#4F5252" d="m184.685 64.654-13.333 16.333-5.319 31.343 18.652-14.675V64.654z"/><path fill="#858585" d="m182.018 97.654 2.667-33 37.444 16.012 15.754 7.326 46.636-25.334 11.934 24.334-55.552 13.25-58.883-2.588z"/><path fill="#4F5252" d="m191.928 93.457.528-16.804 21.84 7.331-10.642 6.454-11.726 3.019zM267.479 80.807l12.945-6.483 5.515 10.424h-13.174l-5.286-3.941z"/><path fill-opacity=".1" d="m169.346 329.325 103.983-11.333 63.245-24.44-49.055-26.158-73.515-1.331-148.003 32.186 103.345 31.076z"/><path fill="#4F5252" d="m203.655 235.992-10.752 36.256 20.48 30.08-9.728-66.336zM182.019 97.654l-15.985 14.675 37.11 98.989 4.896 3.738 5.646-2.064-6.867-48.37-24.8-66.968z"/><path fill="#6E7073" d="m182.019 97.654 55.083-23.329 59.352 12.667 6.685 112.404-3.354 5v11.956l.023 17.973-52.169 12.028-17.977-1.111-15.976-32.25-31.667-115.338z"/><path fill="#4F5252" d="m199.019 103.987 38.865-15.996 44.653 9.5 6.844 79.852 4.471 10.543-2.333 14.395-63.393 9.272-21.307-74.636-7.8-32.93z"/><path fill-opacity=".14" d="m183.232 82.644 8.225-9.99 10.894 7.297 9.472-6.005-22.138-7.601-16 8.15-1.334 4.492 10.881 3.657z"/><path fill="#95627B" d="m196.033 32.654 7.985-13 2.855 17.666-5.188-1-5.652-3.666z"/><path fill="#B3879D" d="m169.769 37.321-12.584-10.167 5.833 19.5 5.168-3.833 1.583-5.5z"/><path fill="#734D5F" d="m177.099 73.946 11.883-7.242 13.934 5.746.739-22.712-16.6 12.103-17.286-6.188 7.33 18.293z"/><path fill="#95627B" d="m187.056 61.841-.203-14.187-3.848-10.333h-13.237l-6.75 9.333 8.334 34.332 11.88 1.657-7.872-22.661 11.696 1.859z"/><path fill="#B3879D" d="m183.005 37.321 13.028-4.667 10.84 4.667 4.949 39.345-9.47 3.286-1.268-24.298-14.028 6.188-4.051-24.521z"/><path fill="#734D5F" d="m174.351 47.82 7.501 7.834-7.668-1.334.167-6.5zM191.351 53.821l5.834-9.5 2 6.667-7.834 2.833z"/><path fill="#D1A0B8" d="m191.929 59.692-5.896-4.038v3.094l1.023 3.094 4.873-2.15z"/><path fill="#B3879D" d="m186.034 55.654-3.536 5.463 4.558.725-1.022-6.188z"/><path fill="#6E7073" d="m203.143 211.318 10.542 1.674 12.202 30.25 2.238 26.417-14.742 32.669-17.864-70.092 7.624-20.918z"/><path fill="#4F5252" d="m291.519 202.282 33.496 18.893L336.573 255v38.552l-23.571-8.22-21.483-83.05z"/><path fill="#858585" d="m303.139 199.396 49.532 21.904-22.318 9.416-14.179-3.64-24.655-24.795 11.62-2.885z"/><path fill="#737373" d="m316.174 227.077 14.179 28.576L342.5 255l16.486-3.321-6.315-30.378-36.497 5.776z"/><path fill="#4F5252" d="m358.986 251.678-.615 40.12-21.797 1.754-6.22-37.9 28.632-3.974z"/><path fill="#737373" d="m313.002 285.332-68.394 6.017-3.109-29.593 74.104-8.845-2.601 32.421z"/><path fill="#858585" d="m231.498 241.679 68.309-7.354 15.797 18.584-70.336 10.09-13.77-21.32z"/><path fill="#858585" d="m213.685 212.991 2.314 23 20.817 9.25 8.823-11.136-17.513-22.552-14.441 1.438z"/><path fill="#737373" d="m215.998 235.992-2.001 32.385 24.54 2.917 14.65-5.096-7.549-32.092-29.64 1.886z"/><path fill="#4F5252" d="m252.201 262.005-5.722 39.283-33.096 1.039.614-33.95 38.204-6.372z"/><g opacity=".14"><path d="m297.557 208.355-1.263 12.387-17.262 9.845-40.148-7.364-6.092 1.431-8.402 3.838-9.739-6.569-.966-8.931-18.558-67.594 38.735-2.129.639 37.065 48.862 23.949 14.194 4.072z" opacity="1"/></g></g><g display="block"><path fill="#95627B" d="m247.027 240.007 32.005-4.016 20.987 9.25-20.077 12.5-27.741 4.264-5.174-21.998z"/><path fill="#DFBCA4" d="m265.528 262.158 4.477 26.958 8.191-.721 4.49-17.52L281.5 264l-15.972-1.842z"/><path fill="#8A6651" d="m282.686 270.875-17.159-8.717 9.973-1.159 9.363 1.383-2.177 8.493z"/><path fill="#DFBCA4" d="m291.519 260.687-1.689 9.329 10.681 16.415 5.156-1.682 2.345-3.707-4.241-18.466-12.252-1.889z"/><path fill="#8A6651" d="m303.771 262.576-13.941 7.439-4.967-7.634 7.575-1.694 11.333 1.889z"/><path fill="#584164" d="m309.834 287.572-6.302 5.709 1.135 2.386 18.667-11.084-1.239-2-12.261 4.989z"/><path fill="#785D87" d="m308.012 281.042 14.083 1.541-18.564 10.699-3.02-6.85 7.501-5.39z"/><path fill="#734D5F" d="m300.019 245.242 3.752 17.334-51.57-.571 47.818-16.763zM300.019 245.241l-52.992-5.233 15.735-5.903 16.27-3.518 20.987 14.654z"/><path fill="#584164" d="m270.856 296.564-1.794 2.044-.079 2.75 16.427-.073.007-2.885-14.561-1.836z"/><path fill="#785D87" d="m278.195 288.395 7.223 10.005-16.356.209.943-9.493 8.19-.721z"/><path fill="#584164" d="m219.333 188.805-2.745 4.203-8.549-.58 6.611-8.798 4.683 5.175z"/><path fill="#785D87" d="m214.65 183.629 1.938 9.379 18.463 1.138 6.851-7.578-13.778-6.902-13.474 3.963z"/><path fill="#90759F" d="m214.65 183.629 18.607 2.007h4.559l1.067-3.734-28.988-21.286 4.755 23.013z"/><path fill="#95627B" d="M267.347 180.742h8.855l16.13 12.302 4.119 5.142 1.106 10.17-17.787-4.944-5.44-5.285-6.983-17.385z"/><path fill="#B3879D" d="m283.363 204.282-31.967 5.246-14.627 3.464 12.87 24.922 29.393-7.327 4.331-26.305z"/><path fill="#D1A0B8" d="m238.884 181.902 28.462-1.16 16.017 23.54-46.594 8.71-3.512-27.356 5.627-3.734z"/><path fill="#EBEBEB" d="m255.597 190.127 12.882 6.74-8.27-16.124-4.612 9.384zM238.883 181.902l16.714 8.225-4.2 14.155-12.514-22.38z"/><path fill="#95627B" d="m236.769 212.992 13.834 6.083 7.707 1.796 20.723 9.716-32.006 9.421-1.388-5.902-7.709-9.927-1.161-11.187z"/><path fill="#584164" d="m209.894 160.616 28.99 21.286-14.048-35.854-14.942 14.568zM271.124 113.407l14.036 14.688-6.172 28.208-7.864-42.896z"/><path fill="#DFBCA4" d="m271.125 113.407 3.108 15.04 3.746 5.527-.802 8.72 5.58 27.004-19.994 5.847-8.742 11.024-12.118-3-21.868-30.804 24.549-22.336 26.541-17.022z"/><path fill="#584164" d="m206.818 136.918 15.689-29.685 39.351-9.791-27.643 20.55-27.397 18.926z"/><path fill="#C3977A" d="m238.884 138.064 10.048 41.268 4.836 3.505 1.829 7.291-16.713-8.225-18.849-29.139 18.849-14.7z"/><path fill="#8A6651" d="m245.279 180.086 17.484-4.541-7.166 14.582-10.318-10.041z"/><path fill="#E8C9B6" d="m267.345 153.675-5.849 1.355-5.271-21.677 5.849-1.355 5.271 21.677z"/><path fill="#95627B" d="m244.437 148.74-2.118-8.653 14.586-3.961-.679-2.773-17.342 4.711 3.478 14.187 17.368-4.607-.679-2.772-14.614 3.868zM276.994 127.793l-14.998 4.075.672 2.747 12.146-3.258 1.794 8.692-11.862 3.22.681 2.774 14.515-3.955-2.948-14.295z"/><path fill="#464646" d="m256.226 133.352-6.321 1.718h-6.855l3.516-2.708 3.311.339 6.349.651zM262.075 131.999l4.794-4.834 6.894-.982-8.566-1.992-3.122 7.808z"/><path fill="#584164" d="m225.927 145.26 5.953 9.477 1.981-1.266-.296-11.222-7.638 3.011z"/><path fill="#8A6651" d="m267.345 153.676-2.084 2.498-3.764-1.144 5.848-1.354z"/><path fill="#DFBCA4" d="m234.215 158.457-7.523 4.573-6.657-10.266 7.165-5.482 7.015 11.175z"/><path fill="#C3977A" d="m257.067 145.397-4.649-5.865-9.685 2.253-.415-1.699 14.586-3.959 2.146 8.746-1.983.524zM264.746 143.268l.477-7.101 5.969-3.805-8.524 2.253 2.078 8.653zM266.059 148.389l7.705-4.618-8.308 2.271.603 2.347zM242.361 152.251l17.996-1.576-.626-3.03-17.37 4.606z"/><path fill="#8A6651" d="m226.975 163.492 4.719 7.295 2.521-12.33-7.522 4.573.282.462zM222.425 153.288l4.08-2.807 3.586 5.472-7.666-2.665z"/><path fill="#785D87" d="m195.126 145.397 14.769 15.219 66.307-51.088-12.291-9.286-68.785 45.155z"/><path fill="#A687B9" d="m195.126 145.398 40.341-19.282 40.735-16.588-9.974-14.972-71.102 50.842z"/><path fill="#8A6651" d="m272.366 119.417-24.888 12.242 23.665-18.234 1.223 5.992z"/><path fill="#D1A0B8" d="m254.187 165.218 9.584 2.058 7.982-3.874-7.418.001-10.148 1.815z"/><path fill="#95627B" d="m271.753 163.402-17.566 1.816 8.793-4.046 8.773 2.23z"/><path fill="#2B2B2B" d="M273.765 136.467a2.315 2.315 0 1 1-4.63 0 2.315 2.315 0 0 1 4.63 0zM255.749 141.014a2.315 2.315 0 1 1-4.63 0 2.315 2.315 0 0 1 4.63 0z"/><path fill="#C3977A" d="m274.329 172.163 7.075 8.578 7.115-2.25-1.5-6.364-12.69.036z"/><path fill="#A687B9" d="m292.333 193.044 1.519-5.157 8.663 1 7.148 13.395-12.105 6.073-5.225-15.311z"/><path fill="#DFBCA4" d="m302.514 188.887-9.769-16.761-3.726 1-2.079 3.481 5.392 16.437 10.182-4.157z"/><path fill="#E8C9B6" d="m292.745 172.126-11.009-6.787-7.407 6.823 12.611 4.445 5.805-4.481z"/><path fill="#95627B" d="m233.257 185.637 3.512 27.356-2.554 4.75-9.826 10.75-2-35.004 10.868-7.852z"/><path fill="#A687B9" d="m236.769 212.993 9.5 3.475-2.07 7.46-3.786 3.451-16.024 1.114 12.38-15.5z"/><path fill="#8A6651" d="m255.332 233.153-.745 4.63 8.176-2.406-4.528-2.404-2.903.18z"/><path fill="#8A6651" d="m249.961 226.083.961 4.868 4.41 2.202.791-7.506-6.162.436z"/><path fill="#DFBCA4" d="m246.269 216.468 12.04 4.404-.722 4.005-2.143 2.109-15.031.392 5.856-10.91z"/><path fill="#C3977A" d="m258.309 220.872 4.453 14.506-7.43-2.224.112-6.168 2.865-6.114z"/></g><g display="block"><path fill="#785D87" d="m95.345 114.409 24-9.357 24.152 3.095-20.452 12.907-27.7-6.645zM159.531 243.251l-5.903-33.083-12.253-10.204 6.747 49.376 11.409-6.089z"/><path fill="#90759F" d="m153.629 210.167-27.708-23.069 2.646-6.177 2.926-2.618 18.852 18.143 3.284 13.721z"/><path fill="#785D87" d="m125.921 187.098-2.877-49.106 8.782-9.5-.333 49.811-5.572 8.795z"/><path fill="#734D5F" d="m123.435 144.67-10.053-8.543-6.851-12.717 18.513 1.956.599 6.255-2.208 13.049z"/><path fill="#95627B" d="m124.044 127.366 6.953-7.726 8.777-5.23-7.948 19.629-8.39 10.631.608-17.304z"/><path fill="#90759F" d="m124.044 127.367 1.405-5.387-2.405-3.67-27.699-3.901 11.186 9 17.513 3.958z"/><path fill="#A687B9" d="m123.043 118.31 20.454-10.165-3.723 6.265-15.731 12.957-1-9.057z"/><path fill="#D1A0B8" d="m123.045 116.311-.833-14.901-4.165-5.454-7.65-4.34-5.718 11.625 6.093 13.341 12.273-.271z"/><path fill="#D1A0B8" d="m110.397 91.616 1.301-6.413 9.981-5.212 8.026 12.033-7.494 9.387-11.814-9.795z"/><path fill="#B3879D" d="m122.211 101.411-11.44 15.172 12.273 1.728 4.391-12.569-5.224-4.331zM121.679 79.992l-4.333-5.765h-5.443l-5.224 8.098 3.718 9.292 11.282-11.625z"/><path fill="#D1A0B8" d="m111.903 74.227 9.776-12.735 5.756 10.441-5.756 8.059-9.776-5.765z"/><path fill="#B3879D" d="m121.638 105.438-2.379 4.434 2.891 3.834 1.886-4.697-2.398-3.57z"/><path fill="#D1A0B8" d="m120.75 64.249-1.75 4 1.75 3.75 2.25-3.75-2.25-4z"/></g><g clip-path="url(#b)" display="block"><path fill-opacity=".1" d="m661.001 320.794-20.076-4.9-18.803-1.269-10.368 3.064-35.622 3.45 30.787 8.528 43.082-3.147 15-2.46-4-3.266z"/><path fill="#90759F" d="M611.753 317.688 609 321.833l3.216.5 3.836-3.52 7.948-1.978-4.001-4.707-8.246 5.56z"/><path fill="#785D87" d="m648.724 307.073-12.768 9.227-3.516-1.525 4.27-4.71 4.015-2.252 7.999-.74z"/><path fill="#90759F" d="m648.723 307.073 2.408-5.984-18.169-5.118-1.106 6.971 4.853 7.123 12.014-2.992z"/><path fill="#785D87" d="m657.872 306.527 7.795 4.006 1.713 1.056-2.38 1.387-9.45.089.783-4.007 1.539-2.531z"/><path fill="#90759F" d="m665.667 310.533 7.165-2.973.221 2.403-1.705 2.165-6.349.848.668-2.443z"/><path fill="#A687B9" d="m672.833 307.56 11.188 11.356-12.674-6.788 1.486-4.568z"/><path fill="#785D87" d="m622.399 304.377 11.86-.933 19.409-.067-1.167 11.185-27.167 3.127-11.768-4.714 8.833-8.598z"/><path fill="#A687B9" d="m657.872 306.526-9.268 3.269-9.437-.737-18.977-2.532-4.138-6.861h6.346l11.219-5.709 18.548 4.874 5.707 7.696z"/><path fill="#A687B9" d="m620.19 306.527-14.406-6.485 3.84-1.793 6.427 1.416h6.347l-2.208 6.862zM657.873 306.527l-24.256-12.57L652.5 297.5l5.373 9.027zM623.204 316.836l5.173-3.86 2.197 3.53 3.686 10.014h-4.086l-6.97-9.684z"/><path fill="#785D87" d="M658.044 312.975 650 326.519h-3.832l2.043-6.02 2.789-3.664 7.044-3.86z"/><path fill="#90759F" d="m658.043 312.975-.171-6.448-18.705 2.532 1.758 6.836 7.286 4.604 9.832-7.524zM604.035 299.041l-8.511 12.518-.219 3.065 3.945 1.389 14.315-3.038L612 307.56l-7.965-8.519z"/><path fill="#785D87" d="m595.523 311.56-4.167 6.128 7.894-1.675-3.727-4.453z"/><path fill="#2B2B2B" d="M603.191 308.325a2 2 0 1 1-3.148 2.47 2 2 0 0 1 3.148-2.47z"/><path fill="#A687B9" d="m604.034 299.041 7.799-.792 10.565 6.128-8.833 8.598-9.531-13.934z"/><path fill="#A687B9" d="m616.052 299.665 2.977-5.334-5.813-3.664-2.383 5.291v2.558l5.219 1.149z"/><path fill="#785D87" d="m612.219 302.833-1.386-6.875-9.216-.708 5.429 8.194 5.173-.611z"/></g><g display="block"><path fill="#584164" d="m229.895 313.184-14.869-5.526-2.145-8.126 17.014-2.963v16.615zM130.345 306.38l21.667-5.741-3-8.593-20-7.694 1.333 22.028z"/><path fill="#A687B9" d="m166.762 252.188 83.016 29.248-77.781 23.892-52.235-45.452 47-7.688z"/><path fill="#90759F" d="m249.779 281.436.976 28.222-20.86 3.527-2.364-13.857-44.519 11.517-2 14.147-11.667 4.334v-16.141l2.653-10.857 77.781-20.892z"/><path fill="#785D87" d="m171.998 302.328-52.236-42.451-1.19 37.697 11.773 8.807.667-19.806 26.333 21.417-2.319 13.666 14.319 7.667 1.411-14.358 1.242-12.639z"/><g opacity=".14"><path d="m119.762 259.877 28.249 22.958 28.037-8.211-7.455-14.747h-48.831zM186.124 281.375l32.387-3.262-2.917 6.748-8.885 1.57-20.585-5.056z" opacity="1"/></g><path fill="#CECECD" d="m148.012 272.325-11.5-15.188v8.926l11.5 16.772v-10.51z"/><path fill="#EBEBEB" d="m178.679 267.394-30.668 4.931-1 4.67 1 5.841 30.001-6.45.667-8.992z"/><path fill="#95627B" d="m148.012 273.325-11.5-16.188 30.25-4.948 11.916 15.205-30.666 5.931z"/><path fill="#B3879D" d="m157.596 258.138 18.453-12.896-39.466-6.628-21.012 11.481 42.025 8.043z"/><path fill="#DDDDDC" d="m176.048 255.685-18.453 10.378-1.459-5.186 1.459-3.739 18.453-11.897v10.444z"/><path fill="#734D5F" d="m157.595 257.138-42.024-7.043.107 9.231 41.917 6.737v-8.925z"/><path fill="#EBEBEB" d="m230.351 250.199-14.758-6.948v11.25l-1.196 7.004 1.196 23.356 9.168-3.415-6.25-3.334v-7.692l11.84-20.221z"/><path fill="#CECECD" d="m200.837 250.199 14.758-6.948v41.61l-9.168-3.415 6.251-3.334v-9.116l-11.841-18.797z"/><path fill="#EBEBEB" d="m200.837 250.199 14.758 4.302.666-4.875-.666-6.375-14.758 6.948z"/><path fill="#CECECD" d="M215.594 243.252v11.25l14.758-4.302-14.758-6.948z"/><path fill="#785D87" d="m206.709 251.911 8.885-3.807 8.039 3.807-8.039 2.591-8.885-2.591zM205.719 253.663l9.876 3.089v11.625l-9.876-14.714z"/><path fill="#90759F" d="m215.594 256.751 9.25-2.92-9.25 14.546v-11.626z"/></g><g display="block"><path fill="#DDDDDC" d="m755.656 269.428 36-6.423 47.666 7.999-50.333 18.073-33.333-19.649z"/><path fill="#737373" d="m755.656 269.429-13 22.664 45 15.162 6.666-11.885-5.333-8.294-33.333-17.647z"/><path fill="#A2A2A2" d="m839.322 271.004 6.167 26.035-57.834 10.217 1.334-20.181 50.333-16.071z"/></g><path fill-opacity=".1" d="m745.498 317.306-20.194-5.178-11.528 1.068-13.111.26-39.664 7.338 4 3.266 29.497 2.46 36.401-3.38 26.602-3.392-12.003-2.442z" display="block"/><g display="block"><path fill="#B3879D" d="m736.832 309.453 9.498 4.436.792 1.336-1.625 2.08-12.589-2.416 3.924-5.436z"/><path fill="#95627B" d="m746.331 313.89 9.917-9.25 2.166 3v1.917l-12.916 7.749.833-3.416z"/><path fill="#D1A0B8" d="m756.247 304.639 20.75 10.585-18.583-5.668-2.167-4.917z"/></g><g display="block"><path fill="#95627B" d="m705.331 274.056-15.167 2.675-3.247 2.34 2.232 3.65 10.515 7.335 3.667-5.599 2-10.401z"/><path fill="#734D5F" d="m690.164 276.731-7.664 1.352 6.646 4.636 1.018-5.988z"/><path fill="#2B2B2B" d="M698.497 278.64a2 2 0 1 1-4.001-.001 2 2 0 0 1 4.001.001z"/><path fill="#B3879D" d="m705.33 274.056 8.444 7.043-1.277 7.041-6.417 3.75-6.416-1.834 5.666-16z"/><path fill="#D1A0B8" d="m712.498 288.14-7.168-14.084 9.418 6.334-2.25 7.75z"/><path fill="#B3879D" d="m714.747 280.39 6.25-3.75-3.861-11.192-3.623 5.19-3.35 5.002 4.584 4.75z"/><path fill="#95627B" d="m714.748 280.39-1.234-9.752-12.382-4.888 6.073 11.997 7.543 2.643z"/></g><path fill="#B3879D" d="m703.346 293.639-7.848 2.418-5.334 3.166 3.333 2 3.833-2.5 11.666.416-5.65-5.5z" display="block"/><g display="block"><path fill="#B3879D" d="m727.664 292.723-15.167-4.583-3.501 11 15.416 10.416 12.42-.103-9.168-16.73z"/><path fill="#D1A0B8" d="m736.832 309.452-24.336-21.313 17.792 2.6 6.544 18.713z"/><path fill="#95627B" d="m699.665 290.056 12.832-1.916 2.61 9.287-1.333 3.129-4.778-1.416-9.331-9.084z"/></g><g display="block"><path fill="#B3879D" d="m730.9 323.14-7.238-5.834-12.498 2.251v3.583H730.9z"/><path fill="#95627B" d="M736.832 309.453 730.9 323.14l-17.125-9.944 3.362-8.556 19.696 4.813z"/></g><path fill="#D1A0B8" d="m708.996 299.139-6.998 9.503-1.334 4.813 3.167 1.769 1.5-5.576 11.805-5.009-2.027-7.207-6.113 1.707z" display="block"/></g></svg>