<svg xmlns="http://www.w3.org/2000/svg" width="900" height="350" style="width:100%;height:100%;content-visibility:visible" viewBox="0 0 900 350"><defs><clipPath id="a"><path d="M0 0h900v350H0z"/></clipPath></defs><g clip-path="url(#a)"><g display="block"><path fill="#DDDDDC" d="m798.255 8.927-42.214 10.017 40.467 22.644 35.372-6.75 19.505 4.356 42.65-16.767L846.29 7.186l-31.15 9.579-16.885-7.838z"/><path fill="#EBEBEB" d="m803.932 0-47.89 18.943 56.478 4.791 28.239-9.146 53.277 7.839L849.202.218l-23.144 10.234L803.932 0z"/><path fill="#DDDDDC" d="M43.049 57.797 6.603 64.908 41.54 80.985l30.539-4.792 16.841 3.092 36.822-11.904-41.221-10.82-26.895 6.801-14.577-5.565z"/><path fill="#EBEBEB" d="M125.742 67.381 87.033 51.613l-19.981 7.266-19.103-7.42L6.602 64.908l48.763 3.401 24.379-6.493 45.998 5.565z"/></g><g display="block"><path fill="#5E5E5E" d="m350.92 261.537 43.758-42.925-25.755-97.145-47.756-47.193-11.625-16.946-158.395 37.905s-22.254 52.589-24.256 47.82c-2.124-4.769 0 58.993 0 58.993l27.879 50.328 20.514 10.85 175.765-1.812-.129.125z"/><path fill="#686868" d="m198.811 95.867 29.034 35.18-4.005 74.883 27.032 18.595 15.073-7.491 71.528 4.979-22.526-121.12-116.136-5.026z"/><path fill="#9F9F9F" d="m421.903 255.182-49.24-52.294-208.391-.727-8.677 77.145 266.308-24.124z"/><path fill="#5E5E5E" d="m672.088 266.055-47.632-26.23-36.88-30.752 20.631-75.685 58.38-39.535 77.013 26.356 27.875 54.223 49.383 70.664-71.259 30.749-77.511-9.79z"/><path fill="#686868" d="m676.532 113.624-35.708 34.007-4.004 74.046-47.389-8.041.667-63.324 67.745-45.567 18.689 8.879z"/><path fill="#9F9F9F" d="m602.113 243.455-4.965-35.515 40.923-3.141 123.894 4.649 18.021 31.997-27.699 30.154-150.174-28.144z"/><path fill="#BD8E00" d="m835.234 141.799-9.876-.627 8.876 6.274 2-2.257-1-3.39z"/><path fill="#CAAC13" d="m821.731 218.235 15.755-88.864 14.751-1.881 13.128 6.776 5.749 16.445-45.007 81.331-4.376-13.807z"/><path fill="#BD8E00" d="m821.857 217.857 4.251-23.721 23.878-73.928 1.628-1.254-2.378 12.929-27.379 86.1v-.126zm10.38 3.391-6.004 10.793-1.874-6.023 25.627-81.462 13.627-6.901-31.376 83.593z"/><path fill="#E3C628" d="m837.487 129.371 14.002-10.542 16.624 8.41 3.002 23.472-7.627-13.055-13.627 6.902-.625-12.8-11.749-2.387z"/><path fill="#BD8E00" d="m805.482 160.625 9.626 52.59 11.624-1.882-2.248-56.606-3.626-3.766-15.376 9.664z"/><path fill="#CAAC13" d="m818.61 212.713 2.996-.501-2.124-60.499-5.749 3.642 4.877 57.358z"/><path fill="#E3C628" d="m805.482 160.625 19.002-5.898-.25-5.901-9.75-4.013-9.002 15.812z"/><path fill="#BD8E00" d="m848.112 178.575 19.127 8.16 6.999 8.781-2.873-8.911 17.129-11.295-4.126-7.402-34.632 6.65-1.624 4.017z"/><path fill="#E3C628" d="m851.364 169.914-1.628 4.645 23.378 3.515 11.254-10.166-11.254-2.638-13.253 5.647-8.497-1.003z"/><path fill="#6E7073" d="M588.452 260.659 393.18 247.985l-66.495-37.838-35.766-136.896 106.008-38.767 97.888-3.391 104.641 33.136 18.877 58.116-10.125 11.044-5.428 22.284-8.343 55.618-5.985 49.368z"/><path fill="#DDDDDC" d="m371.178 263.223 21.358-20.773 56.732-38.196 138.745 2.806 149.924 39.075 14.785 36.991-119.907 33.704-154.179-36.855-107.458-16.752zM143.247 292.372l25.279-41.462 86.851-20.522 90.104 9.716 2.67 23.789-53.228 47.074-105.99 2.809-45.686-21.404z"/><path fill="#CFCECD" d="m260.049 233.739 25.947-10.638 86.667-20.214 70.264 24.821-94.776 36.185-88.102-30.154z"/><path fill="#858585" d="m71.387 162.005 43.005-1.379 24.377-28.491 15.75-2.387 15.381-27.74 29.877-8.906-17.504-17.574-6.998-12.427-42.755 14.433-61.133 84.471z"/><path fill="#DDDDDC" d="m255.711 7.246-83.938 44.31-5.5 5.272-6.624 9.789 2.498 6.651 33.379 3.766 119.767-11.169 108.888-24.48 43.004-8.156-26-14.935-54.759 3.387L255.711 7.246z"/><path fill="#BEBEBE" d="m166.024 57.077-26.755 16.314-3.252 3.015 11.254-3.767 6.5-.375 8.377 1.002 15.251-13.43.249-3.009-2.123-3.391-9.501 3.641z"/><path fill="#8F8F8F" d="m243.156 99.249-39.628-10.792-21.255-12.93 241.908-34.142-17.629 34.519-163.396 23.345z"/><path fill="#858585" d="m141.875 167.024 30.739-36.815 9.79-15.396-25.166-12.805-16.56 28.496 1.197 36.52z"/><path fill="#6C6C6C" d="m130.109 132.134-5.447 21.084 17.214 13.807 15.362-65.016-27.129 30.125z"/><path fill="#C4C4C3" d="m243.156 99.25-70.542 30.958-15.268-28.827 24.927-25.853 60.883 23.722z"/><path fill="#9DA0A1" d="M641.075 39.829 568.741 69.23l-88.803-21.818-12.753-14.182-80.758-11.55 150.61-14.1 104.038 32.249z"/><path fill="#858584" d="m768.852 105.774-21.63-6.775-22.25-19.078 24.502-36.399 19.378 62.252z"/><path fill="#8F8F8F" d="m536.195 83.683 11.88-24.725-9.128-11.796-71.762-13.933-43.004 8.156 39.507 36.776 72.507 5.522z"/><path fill="#DDDDDC" d="m583.451 46.284-2.874 20.583-44.383 16.817 2.752-36.522 44.505-.878z"/><path fill="#9DA0A1" d="m609.081 75.151 7.25-17.447-32.879-11.419-47.257 37.398 61.913 9 9.345-3.725 1.628-13.807z"/><path fill="#858585" d="m602.28 155.003-4.173-62.319 10.973-17.533 12.375 29.244-1.489 26.652-17.686 23.956z"/><path fill="#DDDDDC" d="M736.848 80.422 609.08 75.151l-25.628-28.867 86.762-27.99 79.26 25.227-12.626 36.901z"/><path fill="#818181" d="m753.101 123.473-26.006-4.519-24.627-12.803-33.129.882-41.697-14.183-18.562-17.699 127.767 5.271 20.755 37.028-4.501 6.023z"/><path fill="#C4C4C3" d="m731.972 132.134-112.005-1.088-10.512-55.618 52.008 16.665 39.757 13.556 22.125 12.051 8.627 14.434z"/><path fill="#9DA0A1" d="m753.101 123.473-21.13 8.662-30.752-26.486 51.882 17.824z"/><path fill="#858585" d="m771.099 242.709-14.834-41.922-24.294-68.653 21.13-8.661 10.874 41.045 7.124 78.191z"/><path fill="#C4C4C3" d="m806.605 271.2-35.507-28.491L753.1 123.473l55.379 107.19-1.874 40.537z"/><path fill="#9DA0A1" d="M871.758 286.341 819.03 304.35l-22.675-20.346-10.614-29.828-32.64-130.703-16.254-43.051 32.004 25.353 65.384 111.708 46.006 16.695-8.483 52.163z"/><path fill="#858585" d="m844.985 235.808 54.883-2.512.132 16.609-28.242 36.436-24.145-46.014-2.628-4.519z"/><path fill="#9DA0A1" d="m874.867 217.734 25.001 15.563-54.883 2.511 7.752-12.678 22.13-5.396z"/><path fill="#8F8F8F" d="m834.235 217.483 40.632.251-29.882 18.074-10.75-18.325z"/><path fill="#6E7073" d="m29.507 194.011 8.373 11.421 21.129-2.508 3.626-12.302-33.128 3.389z"/><path fill="#858585" d="m22.378 216.605 7.128-22.594 29.502 8.913-15.5 15.688-21.13-2.007z"/><path fill="#9DA0A1" d="m-.001 226.019 22.379-9.414 36.631-13.681-8.627 28.24-23.379 5.773-27.004-10.918z"/><path fill="#6E7073" d="m.499 244.846-.5-18.828 29.008 3.014 21.375 2.132-6.499 21.715-43.384-8.033z"/><path fill="#818181" d="M418.431 127.114 243.156 99.25l77.886-24.976 56.882 5.647 74.01.252 84.261 3.51 61.913 9-149.176 31.292-30.501 3.139z"/><path fill="#9DA0A1" d="m424.182 41.385 112.013 42.298-81.372 8.605-76.773 13.487-57.007-31.501 80.26-25.607 22.879-7.282z"/><path fill="#C4C4C3" d="m348.151 263.893 30.27 20.825 30.384-4.157 22.526 3.77 44.301-5.026 19.272-2.261 17.117-24.23-6.02-17.065-12.576.26-47.961-27.921-97.313 55.805z"/><path fill="#CFCECD" d="m423.322 280.813-27.282 23.621-2.002 11.057-14.241 8.233-19.798 17.901-195.817-14.417 24.751-13.432 159.219-49.883 75.17 16.92z"/><path fill="#DDDDDC" d="m475.967 350.001-115.969-8.377 62.073-61.816 53.562-.503 21.774 7.538 30.037 59.305-51.477 3.853z"/><path fill="#CFCECD" d="m475.633 279.305 51.811 66.842 40.296-53.44-1.609-37.468-46.114-7.429-7.995 5.004-36.389 26.491z"/><path fill="#C4C4C3" d="m566.132 255.239-38.689 90.908 229.516-10.051-19.021-21.108-16.019 7.873-155.787-67.622z"/><path fill="#CFCECD" d="m566.131 255.239 10.952-13.459 20.839 4.686 87.954.339 88.77 34.511-41.382 34.844-11.346 6.701-155.787-67.622z"/><path fill="#C4C4C3" d="m585.427 204.589 84.3 24.115 5.803 16.091-28.365 2.01-49.242-.339-23.509-19.429 11.013-22.448z"/><g opacity=".1"><path fill="#2B2B2B" d="m534.517 330.843 11.314-3.832 11.259 4.27-10.277 3.202-12.296-3.64zM510.477 287.903l5.507-1.866 5.482 2.079-5.005 1.559-5.984-1.772zM565.806 307.038l7.28-2.465 7.246 2.748-6.614 2.061-7.912-2.344zM331.695 324.153l7.532-2.551 7.496 2.843-6.843 2.132-8.185-2.424zM345.852 280.141l5.711-1.935 5.683 2.156-5.187 1.616-6.207-1.837zM616.961 329.336l11.613-3.933 11.558 4.383-10.55 3.287-12.621-3.737zM298.145 292.784l7.678-2.601 7.642 2.898-6.976 2.174-8.344-2.471zM264.141 320.364l11.037-3.738 10.984 4.165-10.027 3.124-11.994-3.551z" opacity="1"/></g><path fill="#846300" d="m545.312 332.157-2.018-16.97 5.399-.328-2.235 17.626-1.146-.328z"/><path fill="#BA8E2C" d="m532.99 314.038 14.885 7.883 12.104-8.377-15.703-6.733-11.286 7.227z"/><path fill="#EBEBEB" d="m545.75 311.41-3.518 1.971 4.334 2.709 2.046-2.463-2.862-2.217z"/><path fill="#846300" d="m515.732 288.542-.982-8.262 2.628-.16-1.088 8.582-.558-.16z"/><path fill="#BA8E2C" d="m509.732 279.721 7.247 3.838 5.893-4.078-5.575-2.558-7.565 2.798z"/><path fill="#EBEBEB" d="m516.979 278.782-1.712.959 2.11 1.32.996-1.199-1.394-1.08z"/><path fill="#846300" d="m572.753 307.885-1.298-10.92 3.474-.212-1.44 11.343-.736-.211z"/><path fill="#BA8E2C" d="m564.824 296.224 7.192 5.354 10.176-5.671-8.982-4.263-8.386 4.58z"/><path fill="#EBEBEB" d="m573.034 294.533-2.263 1.268 2.788 1.744 2.036-1.533-2.561-1.479z"/><path fill="#846300" d="m338.882 325.026-1.344-11.296 3.594-.219-1.489 11.734-.761-.219z"/><path fill="#BA8E2C" d="m330.678 312.964 7.659 5.758 10.309-6.086-10.454-4.483-7.514 4.811z"/><path fill="#EBEBEB" d="m339.172 311.215-2.341 1.311 1.579 2.259 2.669-2.095-1.907-1.475z"/><path fill="#846300" d="m351.301 280.804-1.018-8.566 2.724-.166-1.129 8.898-.577-.166z"/><path fill="#BA8E2C" d="m345.081 271.658 7.514 3.979 6.11-4.228-6.221-2.1-7.403 2.349z"/><path fill="#EBEBEB" d="m352.402 271.161-2.601.746 2.188 1.368 1.802-1.244-1.389-.87z"/><path fill="#846300" d="m628.044 330.685-2.072-17.42 5.542-.337-2.295 18.094-1.175-.337z"/><path fill="#BA8E2C" d="m615.394 312.085 15.279 8.092 12.425-8.597-12.649-4.271-15.055 4.776z"/><path fill="#EBEBEB" d="m630.282 311.074-5.289 1.517 4.45 2.783 3.666-2.53-2.827-1.77z"/><path fill="#846300" d="m305.473 293.677-1.369-11.517 3.662-.224-1.516 11.964-.777-.223z"/><path fill="#BA8E2C" d="m297.109 281.379 7.771 7.356 10.545-7.69-9.047-2.898-9.269 3.232z"/><path fill="#EBEBEB" d="m306.823 280.655-3.219 2.117 1.831 2.229 3.331-2.841-1.943-1.505z"/><path fill="#846300" d="m274.672 321.644-1.968-16.553 5.266-.322-2.181 17.196-1.117-.321z"/><path fill="#BA8E2C" d="m262.652 303.969 10.904 7.689 15.424-8.169-10.372-7.53-15.956 8.01z"/><path fill="#EBEBEB" d="m276.535 300.925-3.432 1.922 2.42 3.098 3.804-2.857-2.792-2.163z"/></g><g display="block"><path fill="#6F6F6F" d="m172.772 63.852-36.631 12.427-.125.126-.749 16.444-6.125 24.349 16.755-18.075.249-11.675 26.626-23.596z"/><path fill="#F3D55D" d="m175.524 53.435-3.876-2.006-5.5 4.644.374 5.146 9.002-7.784z"/><path fill="#BA8E2C" d="m177.647 56.825-2.123-3.39-2.877 2.513 3.251 2.507 1.749-1.63zM174.15 59.584l-2.127-3.135-2.497 2.132 2.996 2.512 1.628-1.509zM170.774 62.723l-1.878-3.64-2.374 2.136 2.629 2.758 1.623-1.254zM153.77 72.263l-3.752-2.007-5.5 4.644.374 5.146 8.878-7.783z"/><path fill="#F3D55D" d="m156.023 75.652-2.253-3.39-2.747 2.512 3.247 2.508 1.753-1.63zM152.396 78.537l-2.128-3.26-2.372 2.131 3.001 2.513 1.499-1.384zM149.02 81.55l-1.749-3.516-2.377 2.012 2.502 2.758 1.624-1.254zM166.148 56.073l-8.627-2.513-12.878 7.282-14.876 20.583 5.874 3.139 4.501-7.783 4.376-1.881 5.5-4.644 16.505-9.037-.375-5.146z"/><path fill="#BA8E2C" d="m166.147 56.073-8.626-2.513-12.878 7.282 5.375 9.414 16.504-9.037-.375-5.146zM139.768 93.351l.375-16.569-10.376 4.644.999 10.918 3.752 3.39 5.25-2.383z"/><path fill="#F3D55D" d="m135.768 103.642 4.001-10.292-9.001-1.006 1.003 9.413.999 4.017 2.998-2.132z"/><path fill="#BA8E2C" d="m129.143 117.199 6.624-13.557-3.997-1.885-2.627 15.442z"/><path fill="#CAAC13" d="M162.897 46.157v8.908l-.125 8.284-17.378-4.644.378-6.524 13.249-7.532 3.876 1.508z"/><path fill="#F3D55D" d="m152.396 48.414 10.5 6.651-.125 8.285-8.751-2.383-1.624-12.553z"/><path fill="#DDDDDC" d="M162.449 40.692a4.657 4.657 0 0 0-5.906 2.936c-.823 2.452.488 5.106 2.925 5.933a4.66 4.66 0 0 0 5.909-2.936c.822-2.453-.486-5.107-2.928-5.933zM145.423 49.677a4.66 4.66 0 0 0-5.91 2.941 4.682 4.682 0 0 0 2.929 5.928c2.438.83 5.082-.489 5.905-2.936a4.682 4.682 0 0 0-2.924-5.933z"/><path fill="#737474" d="m163.895 44.649-4.122-1.505-.502 4.644 1.626-3.389 2.998.25zM146.896 53.937l-4.001-1.505-.499 4.644 1.624-3.389 2.876.25z"/></g><g display="block"><path fill="#9DA0A1" d="m71.387 162.005 8.28 18.325 18.737-2.132 25.606 8.786 17.865-19.959-11.766-34.891-58.722 29.871z"/><path fill="#6E7073" d="m116.817 210.833-14.492-10.673-3.922-21.961 43.472-11.174 11.44 35.146-36.498 8.662z"/><path fill="#8F8F8F" d="m74.87 291.661 4.579-75.432 18.956-38.03 16.451 23.972 4.684 59.872-11.328 28.239-33.342 1.379z"/><path fill="#858585" d="m38.005 271.958 37.379 19.704 23.02-113.463-27.017-16.445-8.751 28.868-25.881 23.847 7.129 38.41-5.879 19.079z"/><path fill="#2B2B2B" d="M41.805 299.431c.749-.125 31.13-6.655 31.13-6.655l28.628 11.174-33.628 11.294-26.13-15.938v.125z" opacity=".1"/><path fill="#BD8E00" d="m54.183 301.688-10.25-53.467-5.879-5.276 5.129.757-.125-4.644 17.375-.376 5.125 42.549-2.873 24.349-4.376.627-4.126-4.519z"/><path fill="#CAAC13" d="M49.057 238.933h3.627l5.625 67.274-4.127-4.519-5.125-62.755zM71.312 236.672l-10.878 2.011 2.251 66.897 3.751-3.139 4.876-65.769z"/><path fill="#E3C628" d="m56.182 227.383-13.124 11.675 17.499 3.766 10.755-6.152-15.13-9.289z"/><path fill="#BD8E00" d="m51.806 272.445-13.628.125-6.374-8.034 2.877-7.658 7.373 10.045 9.252.126.5 5.396z"/><path fill="#E3C628" d="m42.804 263.784-8.122-6.906 5.499 11.801 11.375.125-.375-4.142-8.377-.878z"/><path fill="#BD8E00" d="m69.933 254.244 7.628 1.631-7.878 2.513.25-4.144zM73.06 303.444l1.624-27.233 24.256 4.895-12.003 23.22-8.002 1.755-5.875-2.637z"/><path fill="#CAAC13" d="m80.688 277.464 8.748 1.631-10.501 26.987-2.997-1.254 4.75-27.364z"/><path fill="#E3C628" d="m88.811 270.559-14.128 5.652 5.505 4.518 18.753.376-10.13-10.546z"/></g><g display="block"><path fill="#2B2B2B" d="m632.693 247.213-93.653 20.03-64.953-25.446 24.573-9.064 73.23-1.386 33.841 8.398 26.962 7.468z" opacity=".1"/><path fill="#6E7073" d="m566.132 255.239 31.79-8.772-2.229-15.498-29.003 6.532-3.352 9.152 2.794 8.586z"/><path fill="#9DA0A1" d="m512.021 252.814 54.11 2.425.558-17.738-52.624-2.798-4.65 6.908 2.606 11.203z"/><path fill="#737373" d="m493.426 236.009 18.596 16.805 2.044-18.111-13.203-8.959-7.437 10.265z"/><path fill="#8F8F8F" d="m595.693 230.967-29.189 11.762-52.996-2.984-12.645-14.001 16.738-5.787 63.59 1.306 14.502 9.704z"/></g><g display="block"><path fill="#CAAC13" d="m529.498 133.521 24.361 2.059 25.655 1.118.75-3.549-.186-5.595-25.662 2.61-24.918 3.357z"/><path fill="#E3C628" d="m580.078 127.553-25.663-2.058-26.591-.56v3.551l1.674 5.035 50.58-5.968z"/><path fill="#755700" d="m553.301 119.52-4.465 6.535 10.416.565-5.951-7.1zM580.078 127.553l3.344 2.612 2.971 4.296-7.25 6.154-.372-2.611.743-1.304.564-9.147z"/><path fill="#CAAC13" d="m580.078 127.553.741-4.11 2.603-4.669 2.415 8.965.555 6.721-6.314-6.907z"/><path fill="#BD8E00" d="m583.422 118.774 10.044 12.323-7.072 3.365-2.972-15.688z"/><path fill="#846300" d="m580.078 127.553 3.344-8.779 2.043-4.849-12.639 6.721-1.863 6.533 9.115.374z"/><path fill="#BD8E00" d="m581.379 116.35-8.181-10.451-3.349 4.104-2.044 3.55 2.6 4.476 2.98 2.99 7.994-4.669z"/><path fill="#CAAC13" d="m573.384 121.019-5.58-7.467-4.094 4.849-4.458 8.219 11.71.56 2.422-6.161z"/><path fill="#CAAC13" d="m573.199 105.899-17.11 2.798 7.622 3.544 4.093 1.312 5.395-7.654z"/><path fill="#BD8E00" d="m567.804 113.552-11.716-4.855.557 6.72 2.607 11.204 8.552-13.069z"/><path fill="#755700" d="m522.247 134.274 8.558 5.223-.378-3.731-.929-2.244-3.344-.373-3.907 1.125z"/><path fill="#CAAC13" d="m559.253 126.621-5.767-6.348-3.721-3.176-1.858-2.985 2.602-3.737 2.792-2.797 2.043-2.619.745 3.739 3.164 17.923z"/><path fill="#BD8E00" d="m547.908 114.112-3.536-2.618-2.972-4.476.557-4.482 11.345 5.042-5.394 6.534z"/><path fill="#846300" d="m547.908 114.112-6.508-7.094-5.764 4.103.928 6.162 2.236 8.213 6.321-6.721 2.787-4.663zM523.733 124.749l-5.201 10.085 10.966-1.312-1.673-8.586-1.671-.56-2.421.373z"/><path fill="#BD8E00" d="m535.635 111.121-5.022 2.804-2.416 2.798 3.722 3.363 6.88 5.409-3.164-14.374z"/><path fill="#CAAC13" d="m535.636 111.121-14.132-.187 6.694 5.79 7.438-5.603z"/><path fill="#CAAC13" d="m528.197 116.723-10.409 7.839 10.037.374 10.975.559-10.603-8.772z"/><path fill="#BD8E00" d="m547.908 114.112-9.109 11.383 3.157 8.779 6.88-8.219 4.651-5.782-5.579-6.161z"/><path fill="#DEBBA3" d="m579.513 136.699-3.157 34.908-15.989.186-2.978 2.799-2.787 3.921-7.623 2.239-6.88 3.55-3.35-19.416-2.973-11.016-2.043-9.891.372-4.297-2.608-6.16 50.016 3.177z"/><path fill="#896651" d="m539.542 150.513-1.114-5.042-3.536.746 4.65 4.296z"/><path fill="#C2967A" d="m549.209 134.647 1.301 37.333 9.857-.187-5.764 6.721 3.15 7.094-10.959-.559-7.569 2.274-.984-12.359-4.466-21.093 9.11-1.866-.928-5.602 4.837-.932-2.05-11.01 4.465.186zM555.16 142.114l4.277 1.306 2.786 8.585.373-13.254-7.436 3.363zM568.734 138.936l-.372 10.272 3.344-5.79 4.464-.932-7.436-3.55z"/><path fill="#846300" d="m562.597 138.75-7.81.188.372 3.176 7.438-3.364zM568.734 138.937l7.808.373-.372 3.177-7.436-3.55z"/><path fill="#E7C8B5" d="m568.734 138.936-6.138-.187-.372 13.256 6.138.186.372-13.255z"/><path fill="#896651" d="m568.362 152.191-3.164 2.992-2.974-3.178 6.138.186z"/><path fill="#755700" d="m558.319 159.098 6.693-1.865 5.951 2.426-5.951 1.87-6.693-2.431z"/><path fill="#B48900" d="m572.825 159.098-8.001 2.052-8.735-2.798 8.549 5.602 8.187-4.856z"/><path fill="#755700" d="m543.629 151.817 2.05 9.893-9.86 2.057-2.044-9.898 9.854-2.052zm-7.251 3.923 1.113 5.41 5.395-1.119-1.114-5.41-5.394 1.119z"/><path fill="#B48900" d="m538.985 148.461-2.235.56 1.491 7.466 2.415-.373-1.671-7.653z"/><path fill="#846300" d="m544.744 134.46 2.05 11.011-4.837.932-.929-4.289-9.295 1.865-2.235-10.458 15.246.939z"/><path fill="#896651" d="m560.367 171.793-13.388.187 7.623 6.533 4.094-3.55 1.671-3.17z"/><path fill="#2B2B2B" d="m575.8 145.844-5.582-.187.187 1.492 5.395-.373v-.932zM553.859 145.284h6.136l-.185 1.492-5.951-.373v-1.119z"/></g><g display="block"><path fill="#464646" d="m558.696 174.963 10.224 3.55 7.994 15.494-1.665 1.746-6.946 7.099-38.189 1.403-6.049-9.696-1.753-1.194 7.929-15.037 8-3.365 8.553 10.085 11.902-10.085z"/><path fill="#846300" d="m569.105 224.246-6.509 11.391h-28.448l-6.507-10.639 2.043-26.696 3.35-3.922 3.343-1.866 26.033-1.307 3.166 1.494 3.343 4.483.186 27.062z"/><path fill="#BD8E00" d="m568.92 178.513-.053 22.265-6.457-9.57.744-14.746 5.766 2.051zM535.263 176.275l1.114 16.239-6.806 6.065.67-20.251 5.022-2.053z"/><path fill="#9D7700" d="M540.842 215.099h17.662v-17.916h-17.662v17.916z"/></g><path fill="#DEBBA3" d="m517.317 207.184 6.748-12.626 5.506 4.021-.626 9.445-3.533 4.654-5.581-4.112-2.514-1.382z" display="block"/><path fill="#C2967A" d="m520.123 202.347-14.677 1.076.557 7.28 19.409 1.974-5.289-10.33z" display="block"/><path fill="#DEBBA3" d="m581.702 205.885-5.828-10.699-7.008 5.592v5.214l4.331 6.684 5.573-4.109 2.932-2.682z" display="block"/><path fill="#C2967A" d="m578.691 201.218 15.323 2.506-.744 5.974-20.072 2.792 5.493-11.272z" display="block"/><g display="block"><path fill="#C2967A" d="m601.078 202.418-7.808 7.28.745-5.974 2.971-8.398h2.608v4.109l1.484 2.983z"/><path fill="#DEBBA3" d="m603.407 204.798-10.137 4.901.744-5.975 4.643-2.052-1.857-2.424 2.794-3.923 6.792 4.803-2.979 4.67z"/></g><g display="block"><path fill="#C2967A" d="m498.381 202.115 7.622 7.282-.557-5.975-2.979-8.399h-2.599v4.11l-1.487 2.982z"/><path fill="#DEBBA3" d="m494.659 204.362 11.344 6.341-.556-7.281-4.651-2.052 1.672-2.424-2.6-3.923-8.181 4.668 2.972 4.671z"/></g><g display="block"><path fill="#DEBBA3" d="m538.799 221.262 9.48 1.12v9.712l-1.3 1.864-1.115.56-8.373-8.959 1.308-4.297z"/><path fill="#C2967A" d="m548.279 222.381-3.159-.371 3.159 3.175v-2.804zm0 3.178-1.114 5.788-1.86 2.051-2.048 2.425 4.836 4.483v-14.747h.186z"/><path fill="#896651" d="m548.28 230.594-1.674 8.033 1.674 1.679v-9.712zM537.491 225.559l.192-2.433 1.116-1.864 4.644.56-4.459 5.228-1.493-1.491z"/><path fill="#BD8E00" d="m510.908 228.915 1.301-18.482 16.359 2.803-2.415 9.519-3.722 9.338-11.523-3.178z"/><path fill="#E3C628" d="m528.569 213.237 6.136 2.425-5.394 8.399-6.88 8.032 6.138-18.856z"/><path fill="#CAAC13" d="m534.705 215.661-12.272 16.432 11.715 3.544 1.115-9.893-.558-10.083z"/><path fill="#E3C628" d="m534.704 215.661 5.209 2.244-5.766 17.732.557-19.976z"/><path fill="#DEBBA3" d="m557.946 221.262-9.666 1.12v9.712l1.485 1.864 1.114.56 8.373-8.959-1.306-4.297z"/><path fill="#C2967A" d="m548.28 222.381 3.157-.371-3.157 3.175v-2.804zm0 3.178 1.114 5.788 1.857 2.051 2.049 2.425-4.836 4.483v-14.747h-.184z"/><path fill="#896651" d="m548.28 230.594 1.856 8.033-1.856 1.679v-9.712zM559.252 225.559l-.187-2.433-1.12-1.864-4.645.56 4.458 5.228 1.494-1.491z"/><path fill="#BD8E00" d="m589.558 227.983-2.229-17.358-14.132 1.866-5.023.745 2.416 9.519 3.721 9.338 15.247-4.11z"/><path fill="#E3C628" d="m568.175 213.237-6.137 2.425 5.394 8.399 6.88 8.032-6.137-18.856z"/><path fill="#CAAC13" d="m562.04 215.661 12.271 16.432-11.715 3.544-1.115-9.893.559-10.083z"/><path fill="#E3C628" d="m562.039 215.661-5.209 2.244 5.766 17.732-.557-19.976z"/></g><g display="block"><path fill="#6E7073" d="m736.101 237.255-1.335 24.125-18.063 15.135-12.722-1.818 7.926-32.751 24.194-4.691z"/><path fill="#8F8F8F" d="m742.442 252.165-12.265 3.267-18.604 20.354 28.867 5.025 7.341-20.94-5.339-7.706z"/><path fill="#DDDDDC" d="m712.908 230.68 17.896 5.151 8.634-19.347-16.275-7.637-10.255 21.833z"/><path fill="#8F8F8F" d="m708.403 218.995 14.892 9.297 16.143-11.81 12.515 38.196-11.48-.17-10.212.756-21.858-36.269z"/><path fill="#DDDDDC" d="m747.448 242.113 16.019 14.324-21.776 4.524-11.514-5.529 17.271-13.319z"/></g><g display="block"><path fill="#CAAC13" d="m732.55 164.912-29.476-7.174-30.693-9.044.421-4.439 2.505-6.491 29.195 13.286 28.047 13.862z"/><path fill="#E3C628" d="m675.307 137.764 31.155 7.751 31.471 10.113-1.342 4.059-4.043 5.225-57.24-27.148z"/><path fill="#846300" d="m709.906 138.959 2.844 9.486-12.464-3.555 9.62-5.931zM675.307 137.764l-4.984 1.672-5.434 3.97 6.336 10.05 1.396-2.863-.24-1.899 2.926-10.93z"/><path fill="#CAAC13" d="m675.307 137.764.641-5.109-1.227-6.643-6.364 9.511-3.469 7.883 10.42-5.642z"/><path fill="#BA8E2C" d="m674.722 126.012-17.628 11.015 7.795 6.379 9.833-17.394z"/><path fill="#846300" d="m675.307 137.764-.586-11.752-.35-6.464 12.121 12.788-.296 8.534-10.889-3.106z"/><path fill="#BA8E2C" d="m678.19 123.935 13.74-9.088 2.38 6.233.898 4.932-4.867 4.236-4.615 2.345-7.536-8.658z"/><path fill="#CAAC13" d="m685.726 132.593 9.48-6.582 2.961 7.421 2.12 11.457-14.09-4.019-.47-8.277zM691.931 114.847l19.196 10.226-10.495 1.148-5.425-.208-3.276-11.166z"/><path fill="#BA8E2C" d="m695.207 126.012 15.92-.94-3.373 7.637-7.468 12.181-5.079-18.878z"/><path fill="#846300" d="m740.753 168.822-12.084 2.686 1.891-4.262 1.99-2.334 4.01.972 4.193 2.938z"/><path fill="#CAAC13" d="m700.286 144.889 9.107-5.031 5.686-2.441 3.423-2.59-1.436-5.585-2.294-4.455-1.422-3.828-2.223 4.113-10.84 19.817z"/><path fill="#BA8E2C" d="m718.502 134.826 5.243-1.671 5.234-4.146 1.108-5.465-15.314 1.242 3.73 10.04z"/><path fill="#846300" d="m718.502 134.826 10.477-5.816 4.331 5.694-2.596 8.247-5.928 8.927-4.868-10.651-1.416-6.401zM742.721 157.058l2.38 13.837-12.553-5.982 5.385-9.285 2.29-.125 2.498 1.555z"/><path fill="#BA8E2C" d="m733.31 134.705 5.686 6.797 1.69 4.078-5.66 2.499-10.239 3.8 8.523-17.174z"/><path fill="#CAAC13" d="m733.31 134.704 17.676 6.998-10.3 3.878-7.376-10.876zM740.685 145.579l9.248 13.634-11.999-3.585-13.147-3.75 15.898-6.299z"/><path fill="#BA8E2C" d="m718.502 134.826 6.284 17.052-7.122 9.024-4.915-12.457-3.355-8.586 9.108-5.033z"/><path fill="#DEBBA3" d="m672.381 148.694-10.302 42.427 18.73 6.699 2.478 4.462 1.737 5.763 8.054 5.61 6.695 6.965 11.663-21.612 7.942-11.728 6.35-10.773 1.341-5.303 5.48-6.292-60.168-16.218z"/><path fill="#896651" d="m714.058 180.968 3.19-5.386 5.182 2.693-4.497 2.128-3.875.565z"/><path fill="#C2967A" d="m708.721 158.489-16.309 43.387-6.686-.032-2.88 14.959 16.927 3.816 10.204-17.353 1.15-3.687 1.883-1.47 6.368-10.83-9.845-5.872 3.233-6.153-5.385-3.173 6.903-12.092-5.563-1.5zM698.945 164.832l-5.675-.288-6.609 9.184 1.256-10.529 3.633-5.341 7.395 6.974zM684.032 155.664l-4.744 15.83-.1-11.431-5.22-3.11 10.064-1.289z"/><path fill="#846300" d="m691.552 157.859 8.962 3.375-1.568 3.599-7.394-6.974zM684.032 155.664l-9.229-2.549-.835 3.838 10.064-1.289zM688.396 183.631l-7.26-4.939-7.782.526 6.225 4.678 8.817-.265z"/><path fill="#BA8E2C" d="m671.21 177.84 8.625 5.542 11.51.334-12.292 3.056-7.843-8.932z"/><path fill="#846300" d="m714.284 159.989-6.903 12.092 5.384 3.174 2.81-4.584 10.151 5.836 6.823-11.595-18.265-4.923z"/><path fill="#896651" d="m680.81 197.819 15.801 5.524-8.323 11.444-7.479-16.968zM714.142 184.233l-4.08 18.892 9.211-15.908-5.13-2.984z"/><path fill="#896651" d="m709.591 184.722 2.41 9.504 5.002-5.538-7.412-3.966zM702.212 191.667l7.766 11.598 3.004-5.174-3.588-3.865-7.182-2.559z"/><path fill="#846300" d="m708.61 180.857 10.768 6.423-6.396 10.811-10.77-6.423 6.398-10.811zm.981 3.866-3.528 5.961 5.938 3.542 3.527-5.961-5.937-3.542z"/><path fill="#BA8E2C" d="m715.317 178.842 2.615 1.561-4.9 8.285-2.618-1.561 4.903-8.285z"/><path fill="#E7C8B5" d="m684.032 155.664 7.52 2.195-4.89 15.869-7.374-2.233 4.744-15.831z"/><path fill="#896651" d="m679.287 171.494 2.575 4.818 4.8-2.585-7.375-2.233z"/><path fill="#2B2B2B" d="M690.478 169.219a2.31 2.31 0 0 0 2.306 2.314 2.31 2.31 0 0 0 2.304-2.314 2.31 2.31 0 0 0-2.304-2.314 2.31 2.31 0 0 0-2.306 2.314zM674.91 164.045a2.31 2.31 0 0 0 2.306 2.314 2.309 2.309 0 0 0 2.304-2.314 2.309 2.309 0 0 0-2.304-2.314 2.31 2.31 0 0 0-2.306 2.314z"/></g><g display="block"><path fill="#C2967A" d="m659.846 204.673-10.68 10.47-11.012-10.219 5.673-12.063 16.019 11.812z"/><path fill="#DEBBA3" d="m659.846 201.909-7.759-11.308 3.504 12.313-6.425 12.229 27.68 13.56-17-26.794z"/></g><g display="block"><path fill="#474747" d="m669.691 202.411-10.846-1.843 1.626 7.183 2.065 18.03 7.19 2.923 9.477 3.134-9.512-29.427z"/><path fill="#DEBBA3" d="m706.43 206.084 19.931 26.606 1.251 11.183-10.283 3.015-3.292-1.384-7.607-17.088v-22.332z"/><path fill="#474747" d="m723.163 208.847 3.198 23.845-9.936 1.271M710.113 202.849l-22.507 12.311 8.32 20.163 20.644-2.626-4.52-28.957-1.937-.891z"/><path fill="#474747" d="m682.456 201.554-3.252 1.013-9.477 26.137 19.331 8.138 10.027-.662-16.629-34.626z"/><path fill="#BA8E2C" d="m723.163 208.846-11.113-5.107-9.717 32.58 14.092-2.356 6.738-25.117zM669.728 228.705l8.904 4.477.573-30.613-9.514-.157.037 26.293z"/><path fill="#846300" d="m716.425 233.963-.671 20.407-22.436 10.26-23.591-22.62v-13.306l9.138-8.056 27.035 3.713 10.525 9.602z"/><path fill="#755700" d="m715.754 254.37-11.395-2.333-14.125 3.547-10.303-10.621-10.204-2.953-.931 13.94 45.763 5.218 1.195-6.798z"/><path fill="#9D7700" d="m698.269 230.644-18.002-2.599-.336 16.919 17.593.627.745-14.947z"/><path fill="#C2967A" d="m692.551 243.287-4.339-3.769-8.281 5.446 8.607 5.809.008-3.339 4.005-4.147z"/><path fill="#DEBBA3" d="m702.228 247.81-4.547-5.507-9.469-2.786.334 7.916-.164 3.236 9.679-.448 4.167-2.411z"/><path fill="#C2967A" d="m697.682 242.303 29.93 1.571-11.827 11.307-17.724-4.96-.379-7.918z"/></g><g display="block"><path fill="#2A2B2A" d="m664.716 268.08 74.906 12.157 17.778 2.885-67.165 15.329-97.39-14.089 45.737-10.099 16.1-7.811 10.034 1.628z" opacity=".1"/><path fill="#9D7700" d="m653.102 235.875 16.626 6.135 18.309 15.784-12.16 15.071-7.68-.781-7.744-8.189-17.05-9.296 9.699-18.724z"/><path fill="#9D7700" d="m679.623 262.933-1.438-1.604 1.318.807-.121-.807 2.008-4.61.91-5.828 1.279.802 1.19-2.731 9.706 6.847 9.885-3.772 10.201 9.132-4.907 22.827-15.713-.97-8.723-13.85-4.949-1.941-.646-4.302z"/><path fill="#DEBBA3" d="m688.898 276.609 5.044 6.416 1.709 10.182h-8.997l-4.184-3.649-4.445-5.379 3.436-5.975 7.437-1.595z"/><path fill="#C2967A" d="m678.467 283.71-9.072 9.498h26.256l-1.159-6.899-4.75 6.899-11.275-9.498z"/><path fill="#896651" d="m692.66 275.386-3.231-2.004-5.253.102-2.716 4.72 12.482 4.822-1.282-7.64z"/><path fill="#BA8E2C" d="m679.932 244.964 24.428 7.073-3.365 28.157-27.361-2.885 6.298-32.345z"/><path fill="#E3C628" d="m676.102 264.629 26.231 4.358-1.338 11.206-27.362-2.884 2.469-12.68z"/><path fill="#CAAC13" d="m675.07 269.933 27.264-.946-1.339 11.206-25.925-10.26z"/><path fill="#DEBBA3" d="m648.497 273.97-.768 7.71h-11.341l-3.749-1.845-3.204-3.114 10.03-10.126 4.893-.167 4.139 7.542z"/><path fill="#C2967A" d="m647.729 281.68.6-6.025-6.636 6.025-14.312-7.316-9.288 7.316h29.636z"/><path fill="#896651" d="m641.986 264.05 4.001.391 3.276 1.819-.766 7.71-9.032-7.375 2.521-2.545z"/><path fill="#BA8E2C" d="m653.102 235.875 11.017 32.107-5.428 6.241-22.902-7.586 17.313-30.762z"/><path fill="#E3C628" d="m644.806 250.616 19.312 17.366-5.427 6.242-22.903-7.587 9.018-16.021z"/><path fill="#CAAC13" d="m641.06 257.269 23.058 10.714-5.428 6.242-17.63-16.956z"/></g><g display="block"><path fill="#EBEBEB" d="m627.642 173.764-2.002-10.219 8.51-1.005 5.84 4.188 19.856 2.68 2.67 3.686-31.871 6.198-3.003-5.528z"/><path fill="#E0A842" d="m633.315 186.328 5.172-15.747 24.028 2.513-2.002 34.845-22.36-3.016-4.838-18.595z"/><path fill="#BA8E2C" d="m625.64 163.545 12.847 7.036-.333 34.342-13.015-7.538.501-33.84z"/><path fill="#DEBBA3" d="m627.6 178.109-2.127-4.051-2.849 9.737 2.566 9.171 2.41-14.857z"/><path fill="#C2967A" d="m630.103 178.077-4.63-4.021-.282 18.91 4.787-6.973.125-7.916z"/></g><g display="block"><path d="m194.975 258.197 45.72-5.361.334 8.377 29.7-2.346 58.233 7.073-55.563 10.182-41.548-7.539-60.57 2.178 23.694-12.564z" opacity=".1"/><path fill="#BD8E00" d="m188.724 268.272-8.392-2.033 4.042-43.817 2.876-.502 7.378-.376 4.346 30.289-10.25 16.439z"/><path fill="#E3C628" d="m202.556 265.648-13.832 2.623 3.864-46.548 7.674-.442 2.294 44.367z"/><path fill="#BD8E00" d="m219.215 260.789-9.585-39.997 6.375-.252 10.629 21.336-.263 19.92-7.156-1.007z"/><path fill="#E3C628" d="m235.765 259.67-9.394 2.125-10.366-41.254 8.751-.376 11.009 39.505z"/><path fill="#9B9F9F" d="M161.12 147.696 178 218.862l8.502-2.132-8.003-45.562-12.753-29.118-4.626 5.646z"/><path fill="#BD8E00" d="m183.999 145.189-1.749-11.926 3.752-3.64 5.624 4.769 1.874 12.427-9.501-1.63z"/><path fill="#E3C628" d="m198.755 130.504-12.753-.882 5.125 16.822 10.501-.376-2.873-15.564z"/><path fill="#EBEBEB" d="m225.506 162.883-31.502-13.932-24.506 6.529 2.377 8.912 7.124 9.664-2.373 7.153 9.876 35.522 52.132-.627-10.876-43.807-3.376-2.258 2.252-2.386-1.128-4.77z"/><path fill="#C6C6C5" d="m219.878 140.344-54.131 1.706 3.751 13.43h17.378l18.128 9.288h8.627l2.248-1.634 9.626-.251-5.627-22.539z"/><path fill="#F3D55D" d="m219.879 140.343-16.27.377-2.855 6.976 1.373 7.408 7.254 4.769 7.873.126 6.752-3.266-4.127-16.39z"/><path fill="#C6C6C5" d="m172.125 165.019 4.5 16.189 17.754-.251 4.121-6.399 13.877.502 3.252-2.387 12.128-.377-1.124-4.644-12.503.506-4.501 3.01-10.999-.252-6.005-6.398-7.872.125-2.753 2.131-6.624.126-3.251-1.881z"/><path fill="#F3D55D" d="m233.258 194.388-3.377-13.557-10.75 1.259.499 2.383-7.378.627.25 1.884 4.751.126 1.378 3.386 4.502.126 4.625 4.017 5.5-.251z"/><path fill="#846300" d="m183.749 207.066 2.752 9.665 51.508-.627.25-1.509-28.754-23.216-16.005 1.505-9.751 14.182z"/><path fill="#8F8F8F" d="m177.625 217.231 8.251-2.51 3.627 3.138-2.253 4.769-8.502 1.509-1.123-6.906z"/><path fill="#EBEBEB" d="m241.453 211.982-55.576 2.738 1.373 7.908 54.027-2.587.176-8.059z"/><path fill="#F3D55D" d="m205.13 186.479 7.497 7.406-4.874-.75-3.248 4.769-4.25-3.766-7.128 7.281-1.624-5.651 3.127-8.784 10.5-.505z"/></g><g display="block"><path fill="#DEBBA3" d="m264.555 261.113-.506 5.083h-7.477l-2.472-1.216-2.111-2.053 6.611-6.676 3.226-.111 2.729 4.973z"/><path fill="#C2967A" d="m264.049 266.197.395-3.974-4.375 3.974-10.735-5.45-4.824 5.45h19.539z"/><path fill="#DEBBA3" d="m291.763 256.14-3.314 4.216-1.122 6.688h5.91l2.749-2.397 2.919-3.534-2.258-3.925-4.884-1.048z"/><path fill="#C2967A" d="m298.615 260.806 5.959 6.238h-17.248l.762-4.531 3.12 4.531 7.407-6.238z"/><path fill="#896651" d="m260.262 254.573 2.638.257 2.16 1.2-.506 5.083-5.954-4.862 1.662-1.678zM289.292 255.337l2.122-1.315 3.451.065 1.783 3.101-8.198 3.168.842-5.019z"/><path fill="#BD8E00" d="m258.32 215.4 11.084 4.496 10.866 6.16-6.814 18.344-10.52-2.228-10.224-3.947 5.608-22.825z"/><path fill="#E3C628" d="m273.457 244.399-2.413 6.902-9.394-5.767-8.939-7.309 20.746 6.174z"/><path fill="#CAAC13" d="m271.045 251.303-18.334-13.079-3.618 12.957 10.944 1.079 11.008-.957z"/><path fill="#E3C628" d="m271.045 251.302-2.413 5.813-19.539-5.934 21.952.121z"/><path fill="#BD8E00" d="m280.271 226.055 1.508 17.74 10.889-1.209 12.871-2.909-1.87-23.31-13.784 4.757-9.614 4.931z"/><path fill="#E3C628" d="m305.539 239.678-12.096 7.032-11.061 4.592-.603-7.507 23.76-4.117z"/><path fill="#CAAC13" d="m305.539 239.678 1.206 11.746-13.299.612-11.065-.733 23.158-11.625z"/><path fill="#E3C628" d="m282.382 251.302 24.362.121-23.759 5.329-.603-5.45z"/></g><g display="block"><path fill="#464646" d="m269.651 161.542-4.943 1.662-2.74 2.621-3.588-.494-6.754 6.901 1.94 6.33 4.935 7.353 42.936 1.089 5.138-4.35 3.909-5.336-9.65-12.108-3.674-.478-1.857-1.899-5.53-2.375-8.538 6.164-11.584-5.08z"/><path fill="#846300" d="m258.321 215.401 21.95 10.656 23.398-9.688-2.231-29.364-3.641-4.156-3.656-2.079-28.584-1.575-3.378 1.796-3.677 4.925-.181 29.485z"/><path fill="#BD8E00" d="m258.381 165.33.121 20.585 7.055-6.72-.846-15.99-6.33 2.125zM295.305 162.833l-1.164 17.936 7.296 6.236-.602-21.796-5.53-2.376z"/><path fill="#9D7700" d="M270.265 205.955h19.292v-19.742h-19.292v19.742zM258.436 196.632l2.176-1.575 2.172 3.997-2.896-.485-1.486 3.514.034-5.451z"/><path fill="#CAAC13" d="m271.106 208.377 3.136 2.544-.484 2.542-4.1 3.028-1.568-6.418 3.016-1.696zM289.558 203.897l-5.065-1.695.482-4.117-2.413-.969 1.448-3.995 1.327.484-.121 1.937 3.135-.242 1.207 3.027.45 2.483-.45 3.087z"/><path fill="#9D7700" d="m279.668 209.71 3.136-.848-.724 3.39-2.291-.362-.121-2.18z"/><path fill="#B48900" d="m289.558 198.327 4.1.605-1.93 4.965h-2.17v-5.57z"/></g><path fill="#DEBBA3" d="m301.438 187.005 11.579 9.566 1.51-5.89 1.687-6.58-5.73-6.784-9.046 9.688zM242.219 180.285l9.408-8.052 6.874 13.683-6.935 2.361-6.341-2.221-3.006-5.771z" display="block"/><g display="block"><path fill="#E3C628" d="m318.203 176.349 23.397 3.511 7.478 20.101-10.613 16.832-21.348 7.508-21.167-4.736 1.99-20.088 15.077-2.906 5.186-20.222z"/><path fill="#C2967A" d="m323.63 186.641 2.566 2.521 3.705 2.323-5.187 8.234-5.789-4.843 3.059-4.624 1.646-3.611z"/><path fill="#896651" d="m320.753 196.404 1.912-5.766 7.236.848-6.271-4.844-4.705 8.234 1.828 1.528z"/><path fill="#DEBBA3" d="m322.665 190.637 7.237.849 2.049 7.776-2.258 1.247-7.028-9.872z"/><path fill="#464646" d="m334.042 187.14 4.529-1.669 1.661 4.546-4.527 1.67-1.663-4.547z"/><path fill="#802C00" d="m336.936 195.132 4.529-1.669 1.663 4.546-4.529 1.67-1.663-4.547z"/><path fill="#A84000" d="m334.042 204.092 4.529-1.67 1.661 4.548-4.527 1.67-1.663-4.548z"/><path fill="#CC4E00" d="m326.685 210.147 4.529-1.669 1.661 4.546-4.527 1.67-1.663-4.547z"/><path fill="#EC8500" d="m318.484 213.174 4.527-1.67 1.663 4.548-4.527 1.67-1.663-4.548z"/><path fill="#FF9B01" d="m309.197 213.416 4.529-1.669 1.661 4.546-4.527 1.67-1.663-4.547z"/><path fill="#F3D55D" d="m300.996 208.694 4.529-1.669 1.661 4.546-4.527 1.67-1.663-4.547z"/><path fill="#896651" d="m322.665 190.637 2.051 9.082 2.087-3.315-4.138-5.767z"/><path fill="#CAAC13" d="m326.803 196.404 2.891 4.104-4.98-.789 2.089-3.315z"/></g><path fill="#C2967A" d="m251.567 188.277-16.789-14.548-5.573-.319.943 6.589 9.425 12.165 11.994-3.887z" display="block"/><g display="block"><path fill="#896651" d="m234.778 173.729-4.63 6.271-4.246-1.491 3.377-8.779 5.499 3.999z"/><path fill="#C2967A" d="m222.119 167.237-5.283 7.628 1.178 1.65 7.457-3.104 5.713-6.788-9.065.614z"/><path fill="#858585" d="m249.613 152.781-22.032 23.906-2.435-1.921-1.365-2.582 25.832-19.403z"/><path fill="#BD8E00" d="m218.922 182.854-.667 3.589-6.031.849 1.326-3.149 2.688-.659 1.606-1.228 1.078.598z"/><path fill="#846300" d="m218.014 176.514-1.774 6.97 6.478-1.521-2.127-3.176-2.577-2.273z"/><path fill="#8F8F8F" d="m230.427 173.599-7.71 8.364-4.704-5.448 5.767-4.332 6.647 1.416z"/><path fill="#DEBBA3" d="m232.127 177.319-1.701-3.72-5.335.634-1.311-2.05 7.403-5.56 3.595 7.107-2.651 3.589z"/></g><g display="block"><path fill="#CAAC13" d="m311.467 123.594-25.933-6.312-27.005-7.958.37-3.905 2.204-5.711 25.687 11.69 24.677 12.196z"/><path fill="#E3C628" d="m261.104 99.708 27.413 6.819 27.689 8.898-1.182 3.572-3.556 4.597-50.364-23.886z"/><path fill="#755700" d="m291.544 100.759 2.503 8.346-10.966-3.129 8.463-5.217zM261.104 99.708l-4.385 1.471-4.783 3.492 5.576 8.843 1.228-2.519-.212-1.671 2.576-9.616z"/><path fill="#CAAC13" d="m261.104 99.708.563-4.496-1.078-5.845-5.6 8.369-3.052 6.935 9.167-4.963z"/><path fill="#BD8E00" d="m260.589 89.367-17.434 9.883 8.781 5.421 8.653-15.304z"/><path fill="#846300" d="m261.104 99.708-.515-10.341-.309-5.688 10.664 11.253-.259 7.509-9.581-2.733z"/><path fill="#BD8E00" d="m263.64 87.54 12.088-7.996 2.094 5.484.79 4.339-4.282 3.728-4.06 2.063-6.63-7.618z"/><path fill="#CAAC13" d="m270.27 95.157 8.342-5.79 2.605 6.528 1.865 10.08-12.397-3.535-.415-7.283zM275.729 79.544l16.89 8.996-9.234 1.01-4.773-.183-2.883-9.823z"/><path fill="#BD8E00" d="m278.613 89.367 14.006-.827-2.967 6.72-6.571 10.716-4.468-16.609z"/><path fill="#755700" d="m318.686 127.034-10.632 2.362 1.664-3.749 1.75-2.053 3.529.854 3.689 2.586z"/><path fill="#CAAC13" d="m283.082 105.976 8.012-4.427 5.002-2.148 3.012-2.279-1.263-4.914-2.018-3.919-1.25-3.369-1.957 3.619-9.538 17.437z"/><path fill="#BD8E00" d="m299.108 97.122 4.613-1.471 4.605-3.648.975-4.807-13.474 1.093 3.281 8.833z"/><path fill="#846300" d="m299.109 97.122 9.217-5.119 4.635 6.205-3.108 6.062-5.216 7.855-4.283-9.372-1.245-5.631zM320.418 116.683l2.092 12.174-11.042-5.263 4.738-8.169 2.013-.11 2.199 1.368z"/><path fill="#BD8E00" d="m312.961 98.208 4.179 4.788 1.486 3.588-4.979 2.199-9.009 3.343 8.323-13.918z"/><path fill="#CAAC13" d="m312.961 98.208 14.728 4.964-9.064 3.412-5.664-8.376z"/><path fill="#CAAC13" d="m318.626 106.583 8.136 11.996-10.557-3.154-11.567-3.3 13.988-5.542z"/><path fill="#BD8E00" d="m299.109 97.122 5.528 15.003-6.266 7.939-4.323-10.96-2.953-7.555 8.014-4.427z"/><path fill="#DEBBA3" d="m258.528 109.323-9.063 37.33 16.479 5.894 2.18 3.925 1.527 5.071 7.087 4.937 5.891 6.127 10.262-19.015 6.988-10.319 5.586-9.479 1.18-4.666 4.822-5.535-52.939-14.27z"/><path fill="#896651" d="m295.198 137.72 2.807-4.74 4.559 2.37-3.957 1.872-3.409.498z"/><path fill="#C2967A" d="m290.502 117.942-14.349 38.173-5.883-.028-.619 5.456 12.978 11.065 8.978-15.269 1.012-3.244 1.657-1.295 5.603-9.526-8.662-5.166 2.844-5.414-4.738-2.793 6.074-10.64-4.895-1.319zM281.901 123.523l-5.04-.033-5.768 7.859 1.105-9.263 3.197-4.699 6.506 6.136zM268.78 115.457l-2.292 12.262-2.397-8.572-4.165-2.556 8.854-1.134z"/><path fill="#846300" d="m275.396 117.387 7.886 2.969-1.38 3.167-6.506-6.136zM268.78 115.457l-8.12-2.244-.734 3.378 8.854-1.134z"/><path fill="#755700" d="m272.62 140.064-6.388-4.347-6.846.464 5.477 4.116 7.757-.233z"/><path fill="#B48900" d="m257.499 134.968 7.588 4.876 10.126.294-10.814 2.688-6.9-7.858z"/><path fill="#846300" d="m295.398 119.261-6.074 10.641 4.739 2.792 2.471-4.034 8.932 5.135 6.002-10.202-16.07-4.332z"/><path fill="#896651" d="m265.944 152.547 13.904 4.86-10.196 4.136-3.708-8.996zM299.5 143.25l-3.67-2.254-3.414 14.928 7.084-12.674z"/><path fill="#896651" d="m291.268 141.023 2.121 8.362 4.401-4.872-6.522-3.49zM284.776 147.134l6.831 10.204 2.643-4.553-3.156-3.401-6.318-2.25z"/><path fill="#755700" d="m290.405 137.623 9.475 5.65-5.629 9.512-9.475-5.651 5.629-9.511zm.863 3.4-3.104 5.245 5.225 3.116 3.103-5.244-5.224-3.117z"/><path fill="#B48900" d="m296.306 135.849 2.302 1.373-4.313 7.291-2.303-1.373 4.314-7.291z"/><path fill="#E7C8B5" d="m268.78 115.456 6.616 1.932-4.302 13.962-6.49-1.965 4.176-13.929z"/><path fill="#896651" d="m264.606 129.384 2.265 4.24 4.223-2.274-6.488-1.966z"/><path fill="#2B2B2B" d="M274.452 127.383c0 1.125.908 2.036 2.028 2.036s2.028-.911 2.028-2.036a2.032 2.032 0 0 0-2.028-2.036c-1.12 0-2.028.911-2.028 2.036zM260.755 122.831c0 1.125.908 2.036 2.028 2.036s2.028-.911 2.028-2.036a2.032 2.032 0 0 0-2.028-2.036c-1.12 0-2.028.911-2.028 2.036z"/></g><g display="block"><path fill="#9DA0A1" d="m130.109 220.244-15.253-18.074 49.416.073-10.303 25.907-23.86-7.906z"/><path fill="#6E7073" d="m130.98 321.908-22.768-31.626 6.643-88.112 15.254 18.074 23.969 49.576-23.098 52.088z"/><path fill="#8F8F8F" d="m164.207 306.096-33.228 15.813-.87-101.664 34.162-18.002 16.186 72.371-.778 14.786-15.472 16.696z"/><path fill="#6E7073" d="m130.979 321.908 33.203 5.298 7.623-21.966-8.623-24.6-19.602-2.676-12.601 43.944z"/><path fill="#8F8F8F" d="m188.934 313.775-24.752 13.431-1-46.566 2.124-8.41 15.151 2.383 8.477 39.162z"/><path fill="#DDDDDC" d="m157.764 271.598 22.694 3.016-17.275 6.026-19.603-2.676 14.184-6.366z"/><path fill="#6E7073" d="m756.959 336.095 14.141-48.701-10.875-22.092-3.127-11.295-19.661 5.194-15.519 63.659 35.041 13.235z"/><path fill="#7B7B7B" d="m819.531 304.433-62.572 31.662 3.265-70.793 2.378-10.793 11.125.877 12.015-1.211 33.789 50.258z"/><path fill="#8F8F8F" d="m737.437 259.201 33.663-16.493 14.643 11.468-25.518 11.126-22.788-6.101z"/></g><g display="block"><path fill-opacity=".1" d="m491.931 323.284-75.616-10.808-71.277 9.674 69.024 11.183 77.869-10.049z"/><path fill="#DEBBA3" d="m436.837 315.27.722 7.247h10.657l3.524-1.735 3.009-2.927-9.425-9.515-4.597-.157-3.89 7.087z"/><path fill="#C2967A" d="m437.557 322.515-.562-5.662 6.236 5.662 15.298-7.766 6.876 7.766h-27.848z"/><path fill="#DEBBA3" d="m398.057 308.184 4.723 6.008 1.6 9.533h-8.424l-3.918-3.417-4.16-5.038 3.216-5.593 6.963-1.493z"/><path fill="#C2967A" d="m388.29 314.833-8.493 8.89h24.582l-1.085-6.459-4.445 6.459-10.559-8.89z"/><path fill="#896651" d="m442.955 305.949-3.76.367-3.079 1.71.721 7.245 8.487-6.93-2.369-2.392zM401.579 307.037l-3.025-1.876-4.919.095-2.541 4.42 11.686 4.515-1.201-7.154z"/><path fill="#BD8E00" d="m445.723 250.114-15.799 6.407-15.488 8.781 9.712 26.146 14.994-3.174 14.574-5.627-7.993-32.533z"/><path fill="#E3C628" d="m424.149 291.449 3.438 9.838 13.389-8.221 12.741-10.419-29.568 8.802z"/><path fill="#CAAC13" d="m427.588 301.288 26.13-18.64 5.156 18.466-15.599 1.536-15.687-1.362z"/><path fill="#E3C628" d="m427.588 301.287 3.437 8.285 27.849-8.458-31.286.173z"/><path fill="#BD8E00" d="m414.436 265.302-2.148 25.285-15.521-1.724-18.345-4.144 2.664-33.224 19.647 6.779 13.703 7.028z"/><path fill="#E3C628" d="m378.421 284.718 17.24 10.023 15.766 6.547.86-10.702-33.866-5.868z"/><path fill="#CAAC13" d="m378.421 284.718-1.719 16.741 18.953.873 15.773-1.045-33.007-16.569z"/><path fill="#E3C628" d="m411.428 301.288-34.726.173 33.866 7.593.86-7.766z"/><path fill="#C2967A" d="m341.298 139.145-6.093-.854-6.52-14.157 11.792-6.155 10.884 12.558-.142 7.897-9.921.711z"/><path fill="#896651" d="m349.73 152.235-5.976-2.182-8.55-11.761 16.157-7.257s3.542 10.458 3.471 10.742c-.071.285-5.102 10.458-5.102 10.458z"/><path fill="#DEBBA3" d="m355.753 162.764-.094-18.117 1.039-11.194-6.614-8.821-2.834 2.276 2.929 7.209-2.646 6.735 8.22 21.912z"/><path fill="#896651" d="m380.223 195.298-15.872-7.399 1.511-19.539 5.386-4.648 8.975 31.586z"/><path fill="#C2967A" d="m343.188 149.389 21.163 38.511 6.897-24.188-15.589-19.066-12.471 4.743zM472.386 127.431l2.408-6.259 5.812-10.53 12.86 4.134-2.799 15.786-17.857-.427-.424-2.704z"/><path fill="#896651" d="m479.329 147.919 3.59-2.561 7.748-14.797-16.723-5.976-1.701 20.773 7.086 2.561z"/><path fill="#DEBBA3" d="m472.716 143.556-.661-6.45-3.306-7.778 4.569-12.102 3.191 1.005-1.431 7.777 4.535 8.537-4.535 11.951-2.362-2.94z"/><path fill="#896651" d="m466.386 168.74 1.511 16.599-23.43 18.875 8.881-34.146 2.833-6.64 10.205 5.312z"/><path fill="#C2967A" d="m472.055 137.106-15.872 26.323 11.714 21.911 15.022-39.982-10.864-8.252z"/><path fill="#464646" d="m429.572 173.348 7.046 2.368 3.905 3.735 4.511-8.625 11.148-7.399 2.457 36.993-13.174 7.667-61.464-1.122-11.337-4.079-1.417-39.174 12.754 7.967 6.363 6.215 2.645-2.707 7.883-3.386 12.169 8.787 16.511-7.24z"/><path fill="#846300" d="M445.723 250.112 414.437 265.3l-33.35-13.807 2.914-44.528 5.454-3.249 5.212-2.965 40.743-2.243 4.813 2.558 5.243 7.02.257 42.026z"/><path fill="#BD8E00" d="m445.034 170.825.431 37.262-10.056-9.58 1.207-22.792 8.418-4.89zM393.008 175.187l1.658 25.564-10.664 6.214v-35.286l9.006 3.508z"/><path fill="#9D7700" d="M428.7 236.65h-27.5v-28.138h27.5v28.138z"/><path fill="#CAAC13" d="m369.971 119.259 36.962-8.997 38.494-11.342-.529-5.567-3.142-8.14-36.613 16.662-35.172 17.384z"/><path fill="#E3C628" d="m441.757 85.213-39.072 9.72-39.466 12.683 1.684 5.09 5.069 6.553 71.785-34.046z"/><path fill="#755700" d="m398.368 86.711-3.567 11.896 15.63-4.458-12.063-7.438zM441.756 85.212l6.252 2.097 6.814 4.979-7.946 12.604-1.751-3.591.302-2.381-3.671-13.708z"/><path fill="#CAAC13" d="m441.757 85.212-.803-6.407 1.537-8.331 7.983 11.928 4.348 9.886-13.065-7.076z"/><path fill="#BD8E00" d="m442.49 70.475 20.994 13.117-8.663 8.695-12.331-21.812z"/><path fill="#846300" d="m441.757 85.213.734-14.738.441-8.107-15.202 16.038.371 10.702 13.656-3.895z"/><path fill="#BD8E00" d="m438.143 67.871-17.231-11.398-2.983 7.818-1.128 6.184 6.102 5.312 5.789 2.942 9.451-10.858z"/><path fill="#CAAC13" d="m428.691 78.727-11.89-8.253-3.714 9.306-2.656 14.368 17.669-5.04.591-10.381z"/><path fill="#CAAC13" d="m420.912 56.473-24.076 12.822 13.163 1.44 6.803-.261 4.11-14.001z"/><path fill="#BD8E00" d="m416.801 70.474-19.964-1.178 4.23 9.576 9.365 15.276 6.369-23.674z"/><path fill="#755700" d="m359.683 124.163 15.154 3.367-2.371-5.345-2.495-2.927-5.029 1.219-5.259 3.686z"/><path fill="#CAAC13" d="m410.431 94.149-11.422-6.311-7.129-3.06-4.293-3.25 1.8-7.004 2.877-5.587 1.783-4.8 2.789 5.158 13.595 24.854z"/><path fill="#BD8E00" d="m387.587 81.528-6.576-2.096-6.563-5.199-1.39-6.853 19.206 1.557-4.677 12.591z"/><path fill="#846300" d="m387.587 81.528-13.139-7.296-6.605 8.844 4.429 8.64 7.434 11.196 6.105-13.358 1.776-8.026zM357.215 109.409l-2.984 17.352 15.74-7.502-6.753-11.643-2.869-.157-3.134 1.95z"/><path fill="#BD8E00" d="m367.843 83.075-5.955 6.825-2.765 6.217 5.257 6.533 15.327.263-11.864-19.838z"/><path fill="#CAAC13" d="m367.843 83.076-20.984 5.629 12.264 7.413 8.72-13.042z"/><path fill="#CAAC13" d="m359.123 96.117-10.952 15.994 15.047-4.495 16.489-4.704-20.584-6.795z"/><path fill="#BD8E00" d="m387.588 81.528-7.882 21.385 8.933 11.315 6.162-15.621 4.209-10.769-11.422-6.31z"/><path fill="#DEBBA3" d="m445.426 98.919 12.918 53.206-23.488 8.401-3.107 5.595-2.178 7.227-10.101 7.038-8.395 8.733-14.627-27.103-9.959-14.707-7.963-13.511-1.684-6.651-6.87-7.888 75.454-20.34z"/><path fill="#896651" d="m393.16 139.394-4-6.756-6.498 3.378 5.639 2.669 4.859.709z"/><path fill="#C2967A" d="m399.854 111.204 20.452 54.409 8.386-.039.881 7.776-18.497 15.77-12.798-21.763-1.442-4.624-2.361-1.844-7.986-13.581 12.346-7.363-4.054-7.716 6.753-3.98-8.657-15.164 6.977-1.881zM412.113 119.158l7.183-.047 8.221 11.202-1.574-13.204-4.557-6.696-9.273 8.745zM430.815 107.66l3.267 17.478 3.417-12.217 5.938-3.644-12.622-1.617z"/><path fill="#846300" d="m421.386 110.413-11.24 4.231 1.967 4.513 9.273-8.744zM430.815 107.66l11.575-3.197 1.047 4.814-12.622-1.617zM392.877 113.084l8.657 15.165-6.753 3.979-3.523-5.748-12.731 7.318-8.555-14.54 22.905-6.174z"/><path fill="#896651" d="m434.857 160.526-19.818 6.927 14.533 5.895 5.285-12.822zM398.763 144.102l-3.023 11.916-6.273-6.943 9.296-4.973zM408.016 152.812l-9.739 14.544-3.767-6.489 4.499-4.848 9.007-3.207z"/><path fill="#755700" d="m399.993 139.254 8.022 13.558-13.504 8.056-8.022-13.56 13.504-8.054zm-8.676 9.289 4.423 7.476 7.447-4.44-4.424-7.476-7.446 4.44z"/><path fill="#B48900" d="m391.582 136.727-3.281 1.957 6.147 10.391 3.283-1.958-6.149-10.39z"/><path fill="#E7C8B5" d="m430.815 107.66-9.429 2.753 6.131 19.899 9.249-2.8-5.951-19.852z"/><path fill="#896651" d="m436.765 127.513-3.23 6.042-6.018-3.242 9.248-2.8z"/><path fill="#2B2B2B" d="M422.731 124.66a2.896 2.896 0 0 1-2.891 2.902 2.897 2.897 0 0 1-2.891-2.902 2.897 2.897 0 0 1 2.891-2.902 2.896 2.896 0 0 1 2.891 2.902zM442.254 118.171a2.896 2.896 0 0 1-2.891 2.902 2.897 2.897 0 0 1-2.891-2.902 2.897 2.897 0 0 1 2.891-2.902 2.896 2.896 0 0 1 2.891 2.902z"/><path fill="#755700" d="m426.044 144.694 8.361 3.889 6.803-1.565 2.598-9.059-17.762 6.735z"/><path fill="#FFF" d="m445.721 136.118-22.184 6.984 4.119 2.368 15.868-4.412 2.197-4.94z"/><path fill="#755700" d="m421.641 143.143 13.444-6.177 11.658-1.583-1.273 3.126-.911-1.046-8.525 3.656-10.759 2.072-.406.828-3.228-.876z"/><path fill="#B48900" d="m446.743 135.383-2.183 2.08-4.108 7.606-6.612 2.103-8.565-3.981-3.634-.048 12.234 7.492 8.624-2.946 4.244-12.306z"/></g></g></svg>