<svg xmlns="http://www.w3.org/2000/svg" width="900" height="350" style="width:100%;height:100%;content-visibility:visible" viewBox="0 0 900 350"><defs><clipPath id="a"><path d="M0 0h900v350H0z"/></clipPath></defs><g clip-path="url(#a)"><g display="block"><path fill="#3B3C3B" d="m868.584 310.584-32.334-11.333-95.666-2-73.908 11.16-219.426-42.16-309 31.5 256 51.916 217.5-19.666 114.5 16.583 142.334-36z" opacity=".1"/><path fill="#DDDDDB" d="M566.25 0 479.5 12.5l85.999 10.25 94.751-8-94-14.75z"/><path fill="#EBEBEA" d="m566 7-39.25 4.75 38.75 5.5L613.75 14 566 7z"/><path fill="#DDDDDB" d="m563.751 39.25-45.413 61.594 43.413 141.406 328.5 37 9.333-267.5-335.833 27.5z"/><path fill="#EBEBEA" d="m8.251 297.25 553.5-55 2-203L.001 0l8.25 297.25z"/><path fill="#3B3C3B" d="m111.047 70.998-36.15-20.831-6.41 61.083 49.226-1.794-.769-35.125-5.897-3.333z" opacity=".1"/><path fill="#FFF" d="m122.006 51.994.577 53.552-48.648 2.115.961-57.494 47.11 1.827z"/><path fill="#DDDDDB" d="m89.106 58.869 19.865.229.057 2.749-20.094-.458.172-2.52zM80.504 87.328l36.974.229.107 2.749-37.4-.458.319-2.52z"/><path fill="#77CBCC" d="m81.05 83.144.577-17.978 34.996.289.577 19.131-36.15-1.442z"/><path fill="#EBEBEA" d="m83.837 79.779.673-11.249 28.94.098.385 12.882-29.998-1.731z"/><path fill="#77CBCC" d="m82.204 77.376 9.422-4.327 8.076 3.173 6.538-2.884 9.422 4.999-.289 5.192-32.977-1.634-.192-4.519z"/><path fill="#DDDDDB" d="m80.696 95.757 36.974.229.106 2.749-37.4-.458.32-2.52z"/><path fill="#3B3C3B" d="m517.073 91.357-36.15-20.831-6.411 61.083 49.227-1.794-.77-35.125-5.896-3.333z" opacity=".1"/><path fill="#FFF" d="m528.501 73.25.108 52.655-48.648 2.115.962-57.494 47.578 2.724z"/><path fill="#DDDDDB" d="m495.131 79.228 19.864.229.058 2.749-20.094-.458.172-2.52zM486.53 107.687l36.974.229.105 2.749-37.398-.458.319-2.52zM486.655 98.687l36.974.229.105 2.749-37.398-.458.319-2.52zM486.78 89.687l36.974.229.105 2.749-37.398-.458.319-2.52zM486.722 116.116l36.974.229.106 2.749-37.398-.458.318-2.52z"/><path fill="#3B3C3B" d="m191.25 66.25-30.828-15.404-5.839 111.404 83-4.333-.333-82-46-9.667z" opacity=".1"/><path fill="#A4A4A4" d="m169.46 59.586 65.39 1.674.706 72.912-71.37-.907 5.274-73.679z"/><path fill="#4091A7" d="m176.583 117.648-5.115 11.874 1.013 7.555 55.053-3.986-12.591-15.914"/><path fill="#47A1BA" d="m187.469 114.403-10.886 3.246.643 25.288 35.966-4.508 1.751-21.252-4.587-2.161-22.887-.613z"/><path fill="#DEBDA6" d="m219.66 80.366-.817 32.777-10.034-.276-8.388 4.028-10.402.044-4.292-7.111-3.469-22.802 7.537-11.353 15.416-2.698 8.509 6.31 5.94 1.081z"/><path fill="#C3997F" d="m192.678 75.273 2.905 4.748.082 32.557 5.722 6.186-2.709 8.351-14.588-11.673-.768-13.168.187-4.423-.424-.217-.752-9.398 7.463-12.564 2.882-.399zM200.961 89.715l6.663 8.797 3.719.116 5.136-8.424-1.776-1.08-3.398.689-.511.929-2.552-.074-.474-.993-5.076-1.755-1.731 1.795z"/><path fill="#8E6C5A" d="m183.085 97.634 4.74-.672-4.503 5.312-.237-4.64zM186.47 93.518l-.223-2.926-2.669.439 2.892 2.487z"/><path fill="#E8CAB8" d="m208.242 90.668-.618 7.844 3.72.116-.549-7.886-2.553-.074z"/><path fill="#8E6C5A" d="m211.344 98.628-2.076 1.878-1.644-1.994 3.72.116z"/><path fill="#585B5C" d="m207.31 73.017-4.543-1.377-4.638.438-1.005.915-3.762-.465-6.458.61.945 3.509 3.871 3.94 3.864-.567 5.771-2.804 2.872 1.556 7.175 1.944-4.092-7.699z"/><path fill="#515152" d="m186.903 73.138-4.804 7.617.306 8.681 3.522-2.815 1.816-.248.93 5.757 1.986.05 2.84-5.34-2.611-2.236.831-4.017-4.816-7.449z"/><path fill="#757778" d="m219.664 80.528-3.699-5.831-13.199-3.056 8.635 9.074 8.263-.187z"/><path fill="#585B5C" d="m191.72 80.587-9.315 8.85 11.094-2.598-1.779-6.252z"/><path fill="#757778" d="m204.227 78.771-6.099-6.692-4.769.45 2.224 7.492 8.644-1.25z"/><path fill="#515152" d="m200.962 89.715-.427-1.297 1.476-1.897 5.683 2.023.075 1.132-5.021-1.215-1.786 1.254zM211.306 89.813l.056-1.063 5.252-.849-.134 2.304-5.174-.392z"/><path fill="#3B3C3B" d="M203.866 92.001c-.068.693.458 1.304 1.178 1.363.719.059 1.359-.456 1.427-1.149.068-.693-.459-1.304-1.179-1.363-.719-.059-1.358.456-1.426 1.149zM212.174 92.515c-.068.694.458 1.304 1.178 1.363.719.059 1.357-.455 1.425-1.149.069-.693-.457-1.303-1.177-1.362-.719-.06-1.358.455-1.426 1.148z"/><path fill="#8E6C5A" d="m208.809 112.865-17.38-.468 7.248 14.718 10.132-14.25z"/><path fill="#757778" d="m200.951 104.807 6.672-6.296 1.697 1.712 2.024-1.595 4.225 6.873-14.618-.694z"/><path fill="#FFF" d="m160.422 50.846.694 104.8 82.404-4.395-.493-95.963-82.605-4.442zm71.84 77.297-60.794 1.38-.045-66.928 61.291 1.977-.452 63.571z"/><path fill="#C4C4C4" d="m181.233 136.77-2.089 4.214-1.618-2.013-1.457 1.946-1.675-4.606-3.455 1.24 3.757 9.133 3.44-1.922 2.366 1.927 4.501-9.322-3.77-.597zM187.452 137.039l-4.157 9.382 3.504.945 1.373-2.695 2.393.083 1.49 2.492 3.032-1.844-4.838-8.562-2.797.199zm.872 5.307.436-1.854 1.476 1.811-1.912.043zM203.45 140.773l-4.335-4.409-2.657.265.354 9.621 3.205-.277-.315-4.773 3.72 4.354 2.861-.27.139-8.948-2.936-.002-.036 4.439zM208.18 138.618l2.665.076-.002 5.941 2.732.006-.344-6.138 3.279.063.146-2.599-8.395.191-.081 2.46zM220.954 140.809l2.226-.209-.269-1.816-2.229.051-.17-1.453 3.206-.141-.243-1.702-5.522.398.463 8.39 6.482-.216.051-1.777-3.848-.072-.147-1.453zM230.567 135.72l-4.71-.507.365 8.8 4.695-.106 2.015-2.026.185-2.736-2.55-3.425zm-.199 5.672-1.955.114.007-3.689 1.764.507 1.281 1.269-1.097 1.799z"/><path fill="#3B3C3B" d="m850.25 64.25 7.5 26v128.5l-237.5-18-2-16 145.5-91.5 86.5-29z" opacity=".1"/><path fill="#449698" d="m829.584 68.25 13.166-10.5 7.5 5.167-1.666 142.333-6.834 2.5-12.166-139.5z"/><path fill="#58AAAB" d="M607.25 70.75v119l234.5 18 1-150-235.5 13z"/><path fill="#EBEBEA" d="m620.25 83.75-.75 94 206 13.5.25-115.5-205.5 8z"/><path fill="#3B3C3B" d="M761.75 170.833v5.75l24.25 2 .5-31.666-24.75 23.916zM765.75 111.417l22.75-10.75.667 33.5-27.25-.167.75-20.75 3.083-1.833zM700.333 153.417l.25 7.833 27 1.5L726 131l-25.667 22.417zM660.64 124.246l10.902-12.662 1.298 34.813-26.736-.779 3.634-18.257 10.902-3.115z" opacity=".1"/><path fill="#DDDDDB" d="m646.162 112.506-3.231 30.457 27.919 1.846.693-33.226-25.381.923z"/><path fill="#79CFE4" d="m649.219 116.025-1.375 13.569 9.51 5.9 9.99-10.369.392-9.619-18.517.519z"/><path fill="#DDDDDB" d="m760 100.667-.75 31.5 28 .25 1.25-31.75H760zM759 146.417l27.5.5-2.25 29.75-25.75-2.25.5-28zM698.5 130.5l27.5.5.082 29.334L698 158.5l.5-28zM682.5 92.25l69.25-2-.25 6.75-69 1.25v-6z"/><path fill="#95D5D5" d="m701.75 133.916.166 22.168 20.334 1.5.166-22.918-20.666-.75zM762.938 103.979l-.25 25.376 10.896-3.813 10.479 4.063 1.061-25.876-22.186.25z"/><path fill="#79CFE4" d="m761.875 149.479-.375 22.376 10.375-2.646 9.186 4.146 1.875-23.5-21.061-.376z"/><path fill="#66C0D9" d="m656.906 122.312-7.562 6 1.687.095-.094 1.405-3.094-.218-1.187 10.688 20.156 1.218.532-16.375-10.438-2.813z"/><path fill="#79CFE4" d="m655.282 126.156-.25 3.438 3.968.062-.031-3.438-3.687-.062z"/><path fill="#66C0D9" d="m656.75 125.437-.062 5.125.624-.03.094-5.188-.656.093z"/><path fill="#66C0D9" d="m654.5 128.125 5.656.312.062-.718-5.687-.156-.031.562z"/><path fill="#77CBCC" d="m705.625 142.062 12.062.844 3 8.22-4.407.875-.905-3.438-3-.126-1-2.281-8.25-.656v-4.407l1.75.157.75.812z"/><path fill="#77CBCC" d="m715.219 143.781 1.031-1.718 1.563.218-.125.625-2.469.875z"/><path fill="#95D5D5" d="m712.938 146.281.375 1.25 2.093.031-1.032-1.624-1.436.343z"/><path fill="#77CBCC" d="m775.75 109.459-4.875.125-3.208 4.333 2.166 5.125 1.084.167v1.125l-6.584 2.917-1.646 6.104 21.376.25-1.313-6.938-6-2.25-.083-1.666 1.125-.209.916-5.291-2.958-3.792z"/><path fill="#66C0D9" d="m774.292 154.917-5.168-.167-1.792 2.959-.29 4.916-1.668 1 3.668 1.875.04.709-4.958 1-2.625 4.645 19.564 1.5-1.814-4.937-5.082-1.917v-.541l3.957-1.417-2.167-1.75-.125-5.5-1.54-2.375z"/><path fill="#DDDDDB" d="m711.583 101.75-.166 8.833-33.355.042-.312 2.958 76 1.334-.188-4.229-38.312-.105-.333-9-3.334.167zM773.583 135.916v7.834l2 .166.334-8.166-2.334.166zM753.75 126.25l-13.5.333-.667 11.835H728.25l.083 4.25 14.917-.417 1.25-12.084 9.25-.334v-3.583z"/><path fill="#3B3C3B" d="m117.583 292.917 59 15.167-85 17.833-83.333-29-1.667-62.333 43.333-20.667 67.667 79z" opacity=".1"/><path fill="#77CBCC" d="m111.75 242.251 47.5-31.667-46.667-14.667-79.833 6.333 62 48.501 17-8.5z"/><path fill="#58AAAB" d="M57.25 272.25 93.75 317l64.5-10.416 1-96-65.5 5.166-36.5 56.5z"/><path fill="#449698" d="m30.75 300.75 63 16.25V215.75l-61-13.5-2 98.5z"/><path fill="#77CBCC" d="m105.25 238.584-.333 67.667 44-6.5.166-65.5-43.833 4.333zM104.916 231.084l-.167-7.334 44-4.5v7.334l-43.833 4.5z"/><path fill="#58AAAB" d="m111 270.251 19.5-2.25-.125 3.5-19.125 2.624-.25-3.874zM145.812 266.5c0 4.453-2.407 8.063-5.375 8.063s-5.375-3.61-5.375-8.063c0-4.453 2.407-8.063 5.375-8.063s5.375 3.61 5.375 8.063z"/><path fill="#77CBCC" d="M144.375 266.5c0 3.555-1.764 6.437-3.939 6.437-2.174 0-3.937-2.882-3.937-6.437s1.763-6.437 3.937-6.437c2.175 0 3.939 2.882 3.939 6.437z"/><path fill="#58AAAB" d="M143.656 266.5c0 3.003-1.442 5.437-3.22 5.437-1.778 0-3.218-2.434-3.218-5.437s1.44-5.437 3.218-5.437 3.22 2.434 3.22 5.437z"/><path fill="#58AAAB" d="M140.833 273.396h-.646v-14.104h.646v14.104z"/><path fill="#58AAAB" d="m136.603 270.708-.457-.457 8.271-8.271.457.457-8.271 8.271z"/><path fill="#58AAAB" d="M135.708 266.021h9.604v.646h-9.604v-.646z"/><path fill="#58AAAB" d="m136.292 262.583.457-.457 7.979 7.979-.457.457-7.979-7.979z"/><path fill="#47A1BA" d="m109.934 140.713-2.905 2.005-1.955 7.825 1.3 3.208 3.538-10.455.022-2.583zM93.049 148.031v3.258l4.368 16.462.358-8.792-1.468-9.234-3.258-1.694z"/><path fill="#449698" d="m110.595 155.79-5.52-5.249-2.745 11.071 7.089 6.577 4.343-9.774-3.167-2.625z"/><path fill="#58AAAB" d="m105.075 150.542 20.814 13.424-13.755-.483-7.059-12.941z"/><path fill="#449698" d="m88.001 164.66 9.774-5.702 5.43 14.661-5.43 2.987-4.32-3.384-5.454-8.562z"/><path fill="#58AAAB" d="m110.233 168.973-7.903-7.36-4.473 12.3 4.954 1.878 2.414-2.424 5.008-4.394z"/><path fill="#929191" d="m93.6 181.214 4.258-7.301 7.368-.546 5.23 12.207-12.352 8.429-4.94-6.249.436-6.54z"/><path fill="#878989" d="m91.565 190.66-5.086-5.522 6.975-11.916 4.403.691-1.351 11.854-4.941 4.893z"/><path fill="#3B3C3B" d="m101.25 200.375 26.833 6.708-31.916 3-31.042-6.958 36.125-2.75z" opacity=".1"/><path fill="#878989" d="m92.146 199.718 5.329 6.783 9.494-.776 3.489-20.152-13.952.194-4.36 13.951z"/><path fill="#787879" d="m90.112 204.756-3.633-19.618 10.028.629.968 20.733-7.363-1.744z"/><path fill="#77CBCC" d="m116.387 176.033-3.077-17.256-10.981 2.836 14.058 14.42z"/><path fill="#58AAAB" d="m82.027 179.954 3.168-25.43 12.58 4.434-15.748 20.996z"/><path fill="#4091A7" d="m87.185 139.038-3.91-14.858 8.993-.391 5.083 11.86-4.301 12.382-5.865-8.993z"/><path fill="#66C0D9" d="m90.704 147.38 2.477-1.955-.913-21.636L101 132l-1.824 9.124-3.91 6.647-4.562-.391z"/><path fill="#47A1BA" d="m92.137 148.032-6.516-3.128-7.689-4.431 5.343-16.293 9.905 21.637-1.043 2.215z"/><path fill="#79CFE4" d="m93.18 145.425-7.559-.521 7.429 6.386 3.258-1.564 2.867-8.602-5.995 4.301z"/><path fill="#66C0D9" d="m93.18 145.425-7.559-.521 7.429 6.386 3.259-1.564-3.129-4.301z"/><path fill="#4091A7" d="m109.214 131.885 1.031-10.564 9.737 3.141-2.502 10.196-8.856 5.943.59-8.716z"/><path fill="#66C0D9" d="m107.418 139.029 2.566-.059 9.997-14.508L121.5 138l-5.514 1.11-5.795 2.406-2.773-2.487z"/><path fill="#47A1BA" d="m108.031 140.154-2.705-5.223-2.828-6.645 7.746-6.966-.451 17.904-1.762.93z"/><path fill="#79CFE4" d="m109.984 138.97-4.658-4.038 1.703 7.786 2.883.578 6.074-4.187-6.002-.139z"/><path fill="#66C0D9" d="m109.984 138.97-4.658-4.038 1.703 7.786 2.955-3.748z"/><path fill="#9EA2A3" d="m277.917 279.917 13 11 19-4 6.332-33 28.334 2 10.334 47.333 23-8.333-7.668-52-94.666-4.667 2.334 41.667z"/><path fill="#878989" d="m275.25 201.25-7.334 7.333 2 79.334 21 3 6.666-25.167 31.834 3.667 4 29.5 22 3.833 3.834-27.5-27.668-31-56.332-43z"/><path fill="#878989" d="m297.583 127.584-24.667-11-18.583 8.5 13.583 83.5 37.667-1.333-8-79.667z"/><path fill="#9EA2A3" d="m272.916 116.584 13.582 86.917 54.5-3.75 4.75-83.75-20.25 2-52.582-1.417z"/></g><g display="block"><path fill="#DEBDA6" d="m407.011 45.921-23.129-3.632-14.459.746-9.299-7.575-15.341-5.733.897 9.333 5.364 5.763-7.52 8.237-2.611 10.186-.835 13.356 3.211 12.134-3.129-.771-3.294 1.502.217-6.068-1.441-10.164-8.698-1.257-6.361 1.325 2.871 16.392 3.12 9.024-1.667 5.072 1.425 7.765 1.316 3.794-1.508 2.968 7.566 9.775 13.094 11.898 5.872-2.76 3.96-4.5 3.622-9.694 31.129 4.629 7.702-35.391 3.726-6.011 1.879-12.338-1.485-4.257 3.806-23.748z"/><path fill="#C3997F" d="m357.103 36.381-1.788 25.357-3.402 22.817-4.411 36.337 12.752 2.145-2.837 4.237-.786 5.457-9.832 7.26-21.017-21.649-1.02-15.231.241-12.837 11.863-.807-.491-6.419 1.185-5.269 3.597 3.099-.244-17.632 3.486-9.175 6.644-9.248-4.053-6.526-2.207-8.57 8.127 3.549 4.193 3.105z"/><path fill="#8E6C5A" d="m325.004 90.274 11.862-.807-12.104 13.644-1.302-7.947 1.544-4.89zM360.254 123.038l-18.104-3.064 4.649 20.018 6.329-2.76 3.503-4.5 3.623-9.694z"/><path fill="#C3997F" d="m357.915 80.079 4.428-9.108 9.966 1.218.806 11.406-21.202.961 19.766 5.166 2.434 4.611 4.776-28.626-18.929 2.494-3.933 5.193 1.888 6.685zM390.024 84.674l3.262-8.12 9.303.403 1.882 2.126-4.396 10.544-16.965-.018-.587 3.254 16.562-.587 5.947-8.142.929-11.783-16.746-1.362-3.269 12.56 4.078 1.125z"/><path fill="#8E6C5A" d="m374.114 94.333 3.152 4.822 4.778-3.339-7.93-1.483z"/><path fill="#E8CAB8" d="m378.146 71.352 7.843 1.108-3.945 23.356-7.931-1.483 4.033-22.981z"/><path fill="#3A7D8F" d="m378.146 71.352-.696-3.165 1.438-2.481 7.957 1.266 1.271 3.151-2.127 2.337-7.843-1.108z"/><path fill="#4091A7" d="m378.887 65.706-23.573-3.967-2.138 8.311.119 5.627-1.382 8.878 23.285 3.52 2.948-16.723.741-5.646zM359.961 68.2l12.651 2.109-1.959 11.797-12.739-2.027 2.047-11.879zM386.845 66.972l23.104 3.851-3.863 22.531-22.975-3.746 2.879-17.147.855-5.489zm5.027 6.662-1.849 11.041 10.935 1.98 1.874-11.26-10.96-1.761z"/><path fill="#8E6C5A" d="m332.411 85.678-1.262-10.02-5.262.368 6.524 9.652z"/><path fill="#DDDDDB" d="m407.011 45.921-38.944-20.134-.576 9.922 1.932 7.327 37.588 2.885z"/><path fill="#C4C4C4" d="m344.784 29.727-10.432.942-8.685 16.686 11.177.874 14.199-3.406-6.259-15.096z"/><path fill="#DDDDDB" d="M325.667 47.355 310.52 75.692l16.423-3.713 14.017-5.81 10.084-21.345-25.377 2.531z"/><path fill="#A4A4A4" d="m341.174 67.729 1.495 14.853-6.294.466-.796-10.405-13.534 1.775 2.858 15.363-.141 13.33-13.711-27.619 7.652-2.493 22.471-5.27z"/><path fill="#C4C4C4" d="m369.423 43.035-1.356-17.248-23.284 3.941 24.64 13.307z"/><path fill="#3A7D8F" d="m355.315 61.738-36.612 11.261.272 8.871 3.07-7.451 31.832-2.74 1.438-9.941z"/><path fill="#8E6C5A" d="m341.773 72.679 12.104-1-.16 1.194-.422 2.804-11.352-.314-.17-2.684z"/><path fill="#787879" d="m335.643 73.235 6.13-.556.17 2.684-6.174-.029-.126-2.099z"/><path fill="#3B3C3B" d="M370.247 78.094c-.466 1.249-1.872 1.806-3.021 1.377-1.249-.467-1.894-1.79-1.427-3.039.467-1.25 1.823-1.826 3.072-1.359 1.149.43 1.843 1.771 1.376 3.021zM399.54 83.289c-.466 1.249-1.771 1.844-3.02 1.377-1.15-.43-1.845-1.771-1.377-3.02.448-1.2 1.851-1.757 3-1.327 1.25.467 1.846 1.77 1.397 2.97z"/><path fill="#8E6C5A" d="m361.957 105.223 23.074 3.782-.285 1.83-23.093-3.732.304-1.88z"/><path fill="#449698" d="M363.563 105.992c-6.348-5.209-8.666 9.698-8.798.881-.01-.664-.033-1.146-.849-1.764-2.195-1.665-8.106-1.691-9.956 1.528-1.659 2.886.905 11.772 7.025 11.448 5.79-.304 6.615-10.687 10.539-11.001.479-.038.54-.561 1.099-.381l.94-.711z"/><path fill="#77CBCC" d="M365.069 105.734c-2.535-2.08-5.11-1.399-6.88.38.621.366.887 1.436 1.09 2.412.827-.752 1.099-.906 1.835-1.163.454-.158 1.175-.188 1.778-.051l2.177-1.578z"/><path fill="#316567" d="M352.622 105.816c-1.607-.79-5.086-.863-6.552.473-1.291 1.178-1.459 1.914-.687 2.245 1.368.586 5.502.831 6.834.174 1.715-.847 1.824-2.194.405-2.892z"/></g><path fill="#449698" d="m362.5 149.586 12.258-12.649 15.884 5.974 17.774 17.006-.166 14-45.371-9.539-.379-14.792z" display="block"/><g display="block"><path fill="#DDDDDB" d="m325.782 118.343-3.945 9.946 20.978 15.803 8.921 4.337 8.021-6.781 5.206-9.336-5.829-6.336-8.519 9.094-24.833-16.727z"/><path fill="#C4C4C4" d="m364.963 132.312 9.795 4.624-10.361 14.909-11.396 11.582-22.479-14.345-18.51-15.346 9.826-5.447 29.898 20.141 13.227-16.118z"/><path fill="#3A7D8F" d="m312.012 133.736 32.292 23.39 4.098 1.876 4.597 4.424 13.672 45.326-30.342-.758-18.421-3.123-12.471-20.667-2.958-45.821 9.533-4.647z"/><path fill="#3A7D8F" d="m353 163.425 2.644-4.957 4.915-4.259 14.199-17.273-2.777 56.551-12.137 9.955-7.388-3.941-4.624-18.651L353 163.425z"/><path fill="#585B5C" d="m350.615 135.069-6.843 7.972 7.964 5.388 6.624-7.95-7.745-5.41z"/><path fill="#787879" d="m351.737 148.429-7.433 8.698 8.696 6.3 7.56-9.218-8.823-5.78z"/><path fill="#449698" d="m372.077 193.202-22.094 13.275-44.545-22.273-1.443 32.609 65.775 9.125 2.307-32.736z"/></g><g display="block"><path fill="#47A1BA" d="M600.536 266.555 590.25 308.25l-22.224-4.522-28.828-76.592 36.424 2.837 24.914 36.582z"/><path fill="#4091A7" d="m214.222 263.087 18.129 45.283 17.299-2.392 18.026-54.244-44.939-11.826-8.515 23.179z"/><path fill="#66C0D9" d="m366.698 289.262 25.498 43.979 23.493-2.838 5.395-43.152 159.166-18.834 10 39.834 19.384-2.446 2.411-85.292-250.709 12.93 5.362 55.819z"/><path fill="#47A1BA" d="m207.588 218.32 4.224 86.854 20.54 3.196 5.232-44.12 124.333 21.667 3.744 43.195 26.535 4.128.444-80.618-185.052-34.302z"/><path fill="#C4C4C4" d="m363.753 194.85 28.886 57.772 242.111-23.594-.473-20.814-270.524-13.364z"/><path fill="#9EA2A3" d="m354.125 203.275-166.697-1.203v19.257l205.212 31.293.602-21.063-39.117-28.284z"/><path fill="#CECECD" d="m187.428 202.071 263.786-18.454 183.064 24.597-241.037 23.345-205.813-29.488z"/></g><path fill="#77CBCC" d="m403.273 163.429 4.978 10.488 34.832-30.168-48.666 9 8.856 10.68z" display="block"/><path fill="#3B3C3B" d="m348.375 189.751 6.875.375 39.875-2.625-57.242 13.05-33.008-6.8 16.875-1 26.625-3z" display="block" opacity=".1"/><g display="block"><path fill="#4091A7" d="m394.751 131.728-7.845 21.457 7.19 2.329 6.03-20.402-5.375-3.384z"/><path fill="#C3997F" d="m390.039 153.383.603-10.472 12.843 4.78-.213 15.74h-2.94l-10.293-10.048z"/><path fill="#DEBDA6" d="m367.971 173.007 10.152-15.706 12.518-14.39 9.69 20.519-15.171 8.822-17.189.755z"/><path fill="#FFF" d="M396.119 128.898c.204.187.409.372.624.544-.395-.338-.622-.543-.624-.544z"/><path fill="#FFF" d="M397.866 130.182s2.339 1.112 4.257 1.152c1.918.039 3.978.148 6.543-1.397 2.565-1.544 6.849-6.113 7.945-12.477 1.095-6.364-1.93-12.613-7.104-15.313-5.173-2.701-11.045 1.552-11.045 1.552-2.944 2.216-5.271 5.655-6.289 9.811-1.485 6.06.228 11.964 3.946 15.389l1.747 1.283z" opacity=".3"/><path fill="#47A1BA" d="M407.815 96.384c-9.163-2.11-18.759 5.024-21.432 15.935-2.672 10.911 2.589 21.467 11.752 23.577 9.163 2.11 18.758-5.023 21.431-15.935 2.673-10.91-2.588-21.466-11.751-23.577zm-11.696 32.514c.203.188.408.372.623.543a35.404 35.404 0 0 1-.623-.543zm20.491-11.439c-1.096 6.364-5.38 10.934-7.945 12.478-2.565 1.544-4.624 1.435-6.542 1.396-1.919-.04-4.258-1.152-4.258-1.152l-1.747-1.283c-3.717-3.425-5.43-9.329-3.946-15.389 1.018-4.155 3.345-7.594 6.289-9.811 0 0 5.872-4.253 11.046-1.552 5.173 2.7 8.199 8.949 7.103 15.313z"/><path fill="#4091A7" d="M408.634 101.269c-3.548-.817-7.18.174-10.173 2.429 2.618-1.639 5.647-2.3 8.617-1.616 6.648 1.532 10.466 9.191 8.526 17.108-1.939 7.916-8.9 13.092-15.549 11.56a10.436 10.436 0 0 1-3.937-1.851c1.423 1.312 3.131 2.271 5.08 2.72 7.039 1.621 14.409-3.859 16.462-12.24 2.053-8.381-1.987-16.489-9.026-18.11z"/><path fill="#FFF" d="M407.957 105.042s3.458.792 5.292 5.25c1.833 4.458.625 6.625.625 6.625s-2.5-6.083-4.167-7.75c-1.667-1.667-2.792-2.042-2.792-2.042l1.042-2.083z" opacity=".3"/><path fill="#449698" d="m378.124 157.301-33.077 13.785-22.046 8.577 14.881 20.888 47.279-28.299-7.037-14.951z"/></g><path fill="#77CBCC" d="m302.479 138.384 37.927 34.528-2.524 27.638-44.032-21.759 8.629-40.407z" display="block"/><g display="block"><path fill="#FFF" d="m417.591 86.93-7.092 29.933-9.217 38.907 44.85-2.75 10.021-38.672 6.097-23.53-44.659-3.888z"/><path fill="#DEBDA6" d="m447.322 128.086 7.803-9.682 1.677 13.474-8.462 12.92-1.018-16.712z"/><path fill="#C3997F" d="m438.195 124.317 16.93-5.913-6.784 26.394-9.292-4.694-.854-15.787z"/></g><g display="block"><g opacity=".1"><path fill="#3B3C3B" d="m426.418 200.5-14.083 3.334 25.333 6.75 15.556-7.041-26.806-3.043zM403.085 206.668l-16.917.5 23.584 10.417 18.666-6.5-25.333-4.417zM372.064 211.438l-9.938.938 9.792 9.876.146-10.814zM546.251 197.584c1.333 0 34 6.333 34 6.333l-61.667 9.334-87.833-17.667 60.167-4.667 55.333 6.667z" opacity="1"/></g><path fill="#EBEBEA" d="m386.168 207.167 25.5 7.833 21.832-4.333L407.668 204l-21.5 3.167zM383.501 207.751l15.916 11.333-27.5 3.167-7.416-12 19-2.5zM411.709 201.847l25.134 6.778 16.38-5.084-25.417-5.082-16.097 3.388z"/><path fill="#79CFE4" d="m386.47 211.938 7.061 5.845-20.156 2.561-2.936-4.375 6.557-6.055 9.474 2.024zM412.46 206.501l-11.095-.283.637 4.075 9.436 2.833 15.189-2.875-14.167-3.75zM435.085 200.959l-9.314-1.008 2.896 5.05 7.46 2 11.75-3.438-12.792-2.604z"/><path fill="#EBEBEA" d="M535.188 194.427h27.23l-.334 8.485-43.579 4.938-21.479-15.344 38.162 1.921z"/><path fill="#58AAAB" d="m466.728 195.862-10.402-6.921 59.302-1.417 46.79 6.903-43.721 4.411-51.969-2.976z"/><path fill="#DDDDDB" d="m456.325 188.941 62.371 9.897-.191 9.013-62.755-11.047.575-7.863z"/><path fill="#EBEBEA" d="M535.188 184.071h27.23l-.334 8.486-43.579 4.939-21.479-15.346 38.162 1.921z"/><path fill="#58AAAB" d="m466.728 185.507-10.402-6.92 59.302-1.418 46.79 6.903-43.721 4.411-51.969-2.976z"/><path fill="#DDDDDB" d="m456.325 178.586 62.371 9.897-.191 9.013-62.755-11.047.575-7.863z"/><path fill="#EBEBEA" d="M535.188 173.717h27.23l-.334 8.485-43.579 4.938-21.479-15.344 38.162 1.921z"/><path fill="#58AAAB" d="m466.728 175.152-10.402-6.921 47.028-3.051 59.064 8.537-43.721 4.411-51.969-2.976z"/><path fill="#DDDDDB" d="m456.325 168.231 62.371 9.897-.191 9.013-62.755-11.047.575-7.863z"/><path fill="#66C0D9" d="m386.47 211.938-2.689 2.939-4.749-.719-2.376 2-6.218-.188-3.156-4.719 15.656-2.157 3.532 2.844zM412.335 208.417l.792.292 1.75.166 1.166 1.25-3.125 1.625-1.708-.791.083-1.5-1.375-.417-3.5 1.542-4.416-.292-9.189-2.792 15-2.25 4.647 1.25-.167.959-.541.458.583.5zM435.209 200.959l-1.042.709-1.25-.291-.583.375 4.208 1.707-1.541 1.459-2.834-1.041-.833 1.207-2.042-1.041-.625.959-11.573-3.094 10.813-2.438 7.302 1.489z"/></g><g display="block"><path fill="#878989" d="m863.583 290.25-58.584-1 31.25 10 27.334-9z"/><path fill="#9EA2A3" d="m791.499 280 23.5 19.25h21.25l-34-23.5-10.75 4.25z"/></g><g display="block"><path fill="#878989" d="m671 297.875-10.875-10.125-16.375 22.666 17.583 7.75 8.584-8.916L671 297.875z"/><path fill="#585B5C" d="m646.417 312.667 14.916-5.5v11l-20.166-.333 5.25-5.167z"/><path fill="#757778" d="m638.75 303.167 22.582 4-13.415 14.75-15.667-5.583 6.5-13.167z"/></g><g display="block"><path fill="#9EA2A3" d="m716.499 264.75-9.25-30.5 61.75 15.626-1.5 20.25-51-5.376z"/><path fill="#878989" d="m728.624 258.625 26.291 3.458 14.083-12.208 11.25 5.5 15.539 20.087-19.289.663-54.374 7.25 6.5-24.75z"/><path fill="#585B5C" d="m785.624 283.5 6.375 20-16.25-2.5-24.875 7-10.625-21.625 4.875-13.875 18.125-4.084 22.375 15.084z"/><path fill="#449698" d="m680.416 267.25-12.042-5.376-8.25 25.876 9.792 21.5 22.166 13s12.667-16.833 12-17.5c-.187-.187 10.866-6.225 8.162-10.497-6.929-10.947-31.828-27.003-31.828-27.003z"/><path fill="#58AAAB" d="M707.124 295.376c-.625 0-27.708-3.876-27.708-3.876l-11.042-29.624L682.5 245.5l36.75 19.5-12.126 30.376z"/><path fill="#95D5D5" d="m725.624 256-18.374-21.75-24.75 11.25 25.25 21.25 25.374 7.75-7.5-18.5z"/><path fill="#77CBCC" d="m741.499 284 3.625-11.5 9.791-10.417-47.666-27.833 21.875 33.625 4.079 5.316L741.499 284z"/><path fill="#9EA2A3" d="m776.874 308.626-10.126 3.624 6.25 8 12.876-2.25 1.75-6.124-10.75-3.25z"/><path fill="#787879" d="m784.666 299.25-8.918 1.75-9 11.25 20.876-.375-.376-3.042-2.582-9.583z"/><path fill="#9EA2A3" d="m780.249 255.374-17 13.042 31.5 32.334 7.5-25-7.833-14.834-14.167-5.542z"/><path fill="#878989" d="m787.249 308.834-11.5-7.833 26.5-25.251 12.75 23.501-27.75 9.583z"/><path fill="#449698" d="m754.917 262.083-2.5 22.084-7.292-11.666 9.792-10.418z"/></g><g display="block"><path fill="#757778" d="m691.417 321.75-8.167 11.5-15.667-3.333-6.25-11.75 8.584-8.917 21.5 12.5z"/><path fill="#878989" d="m698.75 296.584-8.834 12.5-20 .166 13.334 24 18.375-11.999 12.125-17.335 12.384-29.936-15.983 6.233-11.401 16.371z"/></g><g display="block"><path fill="#9FA1A2" d="m743.473 281.168-8.93 13.297 14.38 15.025 6.092-20.383-11.542-7.939z"/><path fill="#878989" d="m743.167 312.833-24.25 7.417-17.292 1-11.708-12.167-10.5-17.583 44.208 1.375 19.542 19.958z"/><path fill="#585B5C" d="m716.917 298.75-15.292 22.5-11.708-12.167-10.5-17.583 44.208 1.375-6.708 5.875z"/><path fill="#757778" d="m734.5 300.5-17.584-1.75-27.416-5.875-.376-2L708.874 275l25.626 25.5z"/><path fill="#878989" d="m736.875 278.749-7.75-10.874-21.375-1.126-12 11.689 4.875 4.437 6.542-2.958 21.208 17.208 15.125 6-6.625-24.376z"/><path fill="#9EA2A3" d="m752 293.25 3.917-3.667-10.792-17.083-16-4.625L738 297.937l10.75 7.188L752 293.25z"/><path fill="#787879" d="m751.833 312.749 4.084-23.166-3.5 2.834-7.792 5.457-3.542 1.875-3.083-1.813-10.583-3.353-10.5 4.166 16.25 8 18.666 6z"/><path fill="#929191" d="m739.583 323.333-5 4.417-15.666-7.5 6.25-5.75 12.666 1.833 1.75 7z"/><path fill="#A4A4A4" d="m737.75 306.667-4.583.082-8 7.75 6.75 3.168 15.5.416.666-6.334-10.333-5.082z"/><path fill="#9EA2A3" d="m751.333 316.5 6.417 1 2.083 5.917-6.5 4.666-18.75-.333-2.666-10.083 12.083-3 7.333 1.833z"/><path fill="#9EA2A3" d="m749.833 309.834-1 5.916-4.833-1.084-10.833-7.916 4.833-8.813 11.833 11.897z"/><path fill="#CECECD" d="m755.187 313.562 1.229-1.812-11.792-13.876-6.624.063 8.562 14.563 8.625 1.062z"/><path fill="#585B5C" d="m746.563 312.5-2.564 2.166 1.667 4.584 8.583 1.166 3.502-2.916-1.335-5.75-9.853.75z"/><path fill="#515152" d="m751.727 320.073.398-2.511-3.625-1.813-2.833 3.5 6.06.824zM756.312 315.208l-1.333 2.104.494 2.108 2.276-1.92-1.437-2.292z"/><path fill="#3B3C3B" d="M730.917 296.958a3.042 3.042 0 1 1-6.084 0 3.042 3.042 0 0 1 6.084 0zM753.938 296.062a3.042 3.042 0 1 1-6.085 0 3.042 3.042 0 0 1 6.085 0z"/><path fill="#9EA2A3" d="M695.75 278.437 679.417 291.5l14.458 10.125 13.292-21.709-11.417-1.479z"/></g></g></svg>