<svg xmlns="http://www.w3.org/2000/svg" width="160" height="180" viewBox="0 0 160 180">
  <defs>
    <linearGradient id="bg" x1="0" y1="0" x2="0" y2="1">
      <stop offset="0%" stop-color="#f8f2ff"/>
      <stop offset="100%" stop-color="#ddc9ff"/>
    </linearGradient>
    <linearGradient id="coat" x1="0" y1="0" x2="0" y2="1">
      <stop offset="0%" stop-color="#8d71eb"/>
      <stop offset="100%" stop-color="#5c39ab"/>
    </linearGradient>
  </defs>
  <rect x="8" y="8" width="144" height="164" rx="30" fill="url(#bg)"/>
  <circle cx="80" cy="50" r="28" fill="#eadbff" opacity=".6"/>
  <ellipse cx="80" cy="152" rx="34" ry="8" fill="#b69bff" opacity=".28"/>
  <path d="M53 138c9-22 46-22 54 0" fill="url(#coat)"/>
  <rect x="60" y="95" width="40" height="43" rx="18" fill="url(#coat)"/>
  <rect x="67" y="82" width="26" height="17" rx="8.5" fill="#f4cdbd"/>
  <circle cx="80" cy="67" r="21" fill="#f4cdbd"/>
  <path d="M57 62c6-16 15-25 26-25 12 0 22 10 23 27-8-6-15-8-24-8-9 0-16 2-25 6z" fill="#5a4347"/>
  <circle cx="72" cy="67" r="2.5" fill="#433439"/>
  <circle cx="88" cy="67" r="2.5" fill="#433439"/>
  <path d="M74 77c4 3 9 3 13 0" stroke="#9e7066" stroke-width="2.5" fill="none" stroke-linecap="round"/>
  <path d="M104 45l5-5 5 5 4-3 2 8h-22l2-8z" fill="#ffe68c"/>
  <text x="80" y="156" text-anchor="middle" font-size="14" font-family="Arial" fill="#5b36ae" font-weight="700">ENFJ</text>
</svg>
