<svg xmlns="http://www.w3.org/2000/svg" width="160" height="180" viewBox="0 0 160 180">
  <defs>
    <linearGradient id="bg" x1="0" y1="0" x2="0" y2="1">
      <stop offset="0%" stop-color="#fff5f8"/>
      <stop offset="100%" stop-color="#ffcddd"/>
    </linearGradient>
    <linearGradient id="coat" x1="0" y1="0" x2="0" y2="1">
      <stop offset="0%" stop-color="#de5d8b"/>
      <stop offset="100%" stop-color="#9a2f54"/>
    </linearGradient>
  </defs>
  <rect x="8" y="8" width="144" height="164" rx="30" fill="url(#bg)"/>
  <circle cx="80" cy="50" r="28" fill="#ffd8e6" opacity=".6"/>
  <ellipse cx="80" cy="152" rx="34" ry="8" fill="#ea9ab9" opacity=".25"/>
  <path d="M52 138c9-24 46-24 56 0" fill="url(#coat)"/>
  <rect x="59" y="95" width="42" height="43" rx="18" fill="url(#coat)"/>
  <rect x="67" y="82" width="26" height="17" rx="8.5" fill="#f2cab8"/>
  <circle cx="80" cy="67" r="21" fill="#f2cab8"/>
  <path d="M57 63c6-15 15-26 27-26 13 0 23 9 22 27-8-6-16-8-25-8-10 0-17 2-24 7z" fill="#4f3f43"/>
  <circle cx="72" cy="67" r="2.5" fill="#45373c"/>
  <circle cx="88" cy="67" r="2.5" fill="#45373c"/>
  <path d="M74 77c4 3 9 3 13 0" stroke="#996964" stroke-width="2.5" fill="none" stroke-linecap="round"/>
  <path d="M110 43l-7 12h6l-4 11 13-16h-6l4-7z" fill="#fff4a0"/>
  <text x="80" y="156" text-anchor="middle" font-size="14" font-family="Arial" fill="#9a2f54" font-weight="700">ENTP</text>
</svg>
