<svg xmlns="http://www.w3.org/2000/svg" width="160" height="180" viewBox="0 0 160 180">
  <defs>
    <linearGradient id="bg" x1="0" y1="0" x2="0" y2="1">
      <stop offset="0%" stop-color="#f3fbff"/>
      <stop offset="100%" stop-color="#cfe6ff"/>
    </linearGradient>
    <linearGradient id="robe" x1="0" y1="0" x2="0" y2="1">
      <stop offset="0%" stop-color="#77a8d9"/>
      <stop offset="100%" stop-color="#356995"/>
    </linearGradient>
  </defs>
  <rect x="8" y="8" width="144" height="164" rx="30" fill="url(#bg)"/>
  <circle cx="80" cy="50" r="27" fill="#d9f0ff" opacity=".65"/>
  <ellipse cx="80" cy="152" rx="34" ry="8" fill="#92c6ee" opacity=".28"/>
  <path d="M54 139c6-26 46-26 52 0" fill="url(#robe)"/>
  <rect x="61" y="95" width="38" height="44" rx="18" fill="url(#robe)"/>
  <rect x="66" y="82" width="28" height="17" rx="8.5" fill="#f1cdbc"/>
  <circle cx="80" cy="67" r="21" fill="#f1cdbc"/>
  <path d="M60 68c0-18 9-31 23-31 12 0 21 8 22 24-7-4-13-5-20-5-9 0-16 4-25 12z" fill="#544445"/>
  <circle cx="72" cy="67" r="2.5" fill="#43363a"/>
  <circle cx="88" cy="67" r="2.5" fill="#43363a"/>
  <path d="M74 77c4 2 8 2 12 0" stroke="#996b61" stroke-width="2.5" fill="none" stroke-linecap="round"/>
  <path d="M108 45a10 10 0 1 1-5 19 12 12 0 0 0 5-19z" fill="#fff7c9"/>
  <text x="80" y="156" text-anchor="middle" font-size="14" font-family="Arial" fill="#1f5d96" font-weight="700">INFJ</text>
</svg>
