<svg xmlns="http://www.w3.org/2000/svg" width="160" height="180" viewBox="0 0 160 180">
  <defs>
    <linearGradient id="bg" x1="0" y1="0" x2="0" y2="1">
      <stop offset="0%" stop-color="#fff8f4"/>
      <stop offset="100%" stop-color="#ffd8ca"/>
    </linearGradient>
    <linearGradient id="dress" x1="0" y1="0" x2="0" y2="1">
      <stop offset="0%" stop-color="#c98aa4"/>
      <stop offset="100%" stop-color="#8f4d5f"/>
    </linearGradient>
  </defs>
  <rect x="8" y="8" width="144" height="164" rx="30" fill="url(#bg)"/>
  <circle cx="80" cy="54" r="26" fill="#ffd8d0" opacity=".55"/>
  <ellipse cx="80" cy="152" rx="34" ry="8" fill="#e8b6aa" opacity=".35"/>
  <path d="M54 138c8-20 45-20 52 0" fill="url(#dress)"/>
  <rect x="61" y="95" width="38" height="42" rx="18" fill="url(#dress)"/>
  <rect x="65" y="82" width="30" height="18" rx="9" fill="#f4c7b8"/>
  <circle cx="80" cy="68" r="21" fill="#f4c7b8"/>
  <path d="M58 66c0-15 9-28 22-28 11 0 21 9 24 21-7-3-14-6-20-6-10 0-17 6-26 13z" fill="#6c4a46"/>
  <path d="M64 88c7 9 23 9 31 0-2 14-8 20-15 20s-14-7-16-20z" fill="#f4c7b8"/>
  <circle cx="71" cy="67" r="2.5" fill="#4f3a38"/>
  <circle cx="88" cy="67" r="2.5" fill="#4f3a38"/>
  <path d="M74 77c4 3 8 3 12 0" stroke="#9b6a64" stroke-width="2.5" fill="none" stroke-linecap="round"/>
  <path d="M104 49c8 1 15 9 15 18-7-1-14-7-15-18z" fill="#ffd483"/>
  <circle cx="114" cy="46" r="4" fill="#ffd483"/>
  <text x="80" y="156" text-anchor="middle" font-size="14" font-family="Arial" fill="#8f4d32" font-weight="700">INFP</text>
</svg>
