<svg xmlns="http://www.w3.org/2000/svg" width="160" height="180" viewBox="0 0 160 180">
  <defs>
    <linearGradient id="bg" x1="0" y1="0" x2="0" y2="1">
      <stop offset="0%" stop-color="#f2f4ff"/>
      <stop offset="100%" stop-color="#ccd5ff"/>
    </linearGradient>
    <linearGradient id="coat" x1="0" y1="0" x2="0" y2="1">
      <stop offset="0%" stop-color="#6a7de1"/>
      <stop offset="100%" stop-color="#3748a8"/>
    </linearGradient>
  </defs>
  <rect x="8" y="8" width="144" height="164" rx="30" fill="url(#bg)"/>
  <circle cx="80" cy="50" r="28" fill="#e1e6ff" opacity=".7"/>
  <ellipse cx="80" cy="152" rx="34" ry="8" fill="#98a7ef" opacity=".28"/>
  <path d="M52 138c10-24 46-24 56 0" fill="url(#coat)"/>
  <rect x="59" y="95" width="42" height="43" rx="18" fill="url(#coat)"/>
  <rect x="67" y="82" width="26" height="17" rx="8.5" fill="#efd0c0"/>
  <circle cx="80" cy="67" r="21" fill="#efd0c0"/>
  <path d="M58 63c5-16 15-26 27-26 12 0 22 10 22 27-8-5-15-7-24-7-10 0-17 2-25 6z" fill="#453f46"/>
  <circle cx="72" cy="67" r="2.5" fill="#39353e"/>
  <circle cx="88" cy="67" r="2.5" fill="#39353e"/>
  <path d="M74 77c4 2 8 2 12 0" stroke="#9c7065" stroke-width="2.5" fill="none" stroke-linecap="round"/>
  <path d="M111 42l10 7-4 13h-12l-4-13z" fill="#eef5ff" stroke="#8192eb" stroke-width="2"/>
  <text x="80" y="156" text-anchor="middle" font-size="14" font-family="Arial" fill="#3343a2" font-weight="700">INTJ</text>
</svg>
