<svg xmlns="http://www.w3.org/2000/svg" width="160" height="180" viewBox="0 0 160 180">
  <defs>
    <linearGradient id="bg" x1="0" y1="0" x2="0" y2="1">
      <stop offset="0%" stop-color="#f6f8fb"/>
      <stop offset="100%" stop-color="#d8e0eb"/>
    </linearGradient>
    <linearGradient id="coat" x1="0" y1="0" x2="0" y2="1">
      <stop offset="0%" stop-color="#7c8ea7"/>
      <stop offset="100%" stop-color="#465973"/>
    </linearGradient>
  </defs>
  <rect x="8" y="8" width="144" height="164" rx="30" fill="url(#bg)"/>
  <circle cx="80" cy="50" r="27" fill="#e8edf4" opacity=".68"/>
  <ellipse cx="80" cy="152" rx="34" ry="8" fill="#9db0c9" opacity=".26"/>
  <path d="M54 138c8-23 45-23 52 0" fill="url(#coat)"/>
  <rect x="61" y="95" width="38" height="43" rx="18" fill="url(#coat)"/>
  <rect x="67" y="82" width="26" height="17" rx="8.5" fill="#efcfbf"/>
  <circle cx="80" cy="67" r="21" fill="#efcfbf"/>
  <path d="M59 64c5-16 15-27 26-27 13 0 22 10 23 25-8-4-15-6-24-6-10 0-16 3-25 8z" fill="#484445"/>
  <circle cx="72" cy="67" r="2.5" fill="#403a3a"/>
  <circle cx="88" cy="67" r="2.5" fill="#403a3a"/>
  <path d="M74 77c4 2 8 2 12 0" stroke="#9b6f64" stroke-width="2.5" fill="none" stroke-linecap="round"/>
  <path d="M111 44l10 4v9c0 6-5 10-10 12-5-2-10-6-10-12v-9z" fill="#fff" stroke="#8ba0bb" stroke-width="2"/>
  <text x="80" y="156" text-anchor="middle" font-size="14" font-family="Arial" fill="#44556f" font-weight="700">ISTJ</text>
</svg>
